<svg width="225" height="239" viewBox="0 0 225 239" fill="none" xmlns="http://www.w3.org/2000/svg">
<rect x="213.485" y="89.4443" width="11.3562" height="75.1066" rx="5.658" fill="#DFDFDF"/>
<rect x="213.485" y="186.691" width="11.3562" height="32.4568" rx="5.658" fill="#DFDFDF"/>
<path d="M218.68 30.1878V225.263C214.001 226.515 209.076 227.697 203.946 228.799C148.26 240.76 68.3879 243.421 14.7341 230.156C9.56182 228.88 4.65346 227.446 0 225.891V30.1878C0.00166241 14.0682 13.0687 1.0012 29.1882 0.999537H189.492C205.612 0.999537 218.68 14.0676 218.68 30.1878Z" fill="#DFDFDF"/>
<path d="M123.101 1.00355H189.496C205.616 1.00355 218.684 14.0716 218.684 30.1918V225.267" stroke="#DFDFDF" stroke-width="2" stroke-linecap="round" stroke-linejoin="round"/>
<path d="M203.947 33.355V228.802C148.261 240.763 68.389 243.424 14.7352 230.159V33.355C14.7369 23.2806 22.9034 15.1141 32.9777 15.1124H185.7C190.54 15.1074 195.183 17.0277 198.605 20.45C202.027 23.8722 203.947 28.5152 203.942 33.355H203.947Z" fill="#DFDFDF"/>
<path d="M203.947 68.2514V228.802C148.261 240.763 68.389 243.424 14.7352 230.159V68.2514C14.7369 58.177 22.9034 50.0105 32.9777 50.0089H185.7C190.54 50.0038 195.183 51.9242 198.605 55.3464C202.027 58.7686 203.947 63.4116 203.942 68.2514H203.947Z" fill="#DFDFDF"/>
<rect x="23.7338" y="24.0731" width="171.201" height="16.4903" rx="8.216" fill="#DFDFDF"/>
<path d="M153.665 40.5635H31.981C29.7934 40.5645 27.6951 39.696 26.1482 38.1491C24.6013 36.6022 23.7328 34.5039 23.7338 32.3163V32.3163C23.7338 27.7615 27.4262 24.0691 31.981 24.0691H90.789" stroke="#DFDFDF" stroke-width="2" stroke-linecap="round" stroke-linejoin="round"/>
<circle cx="183.684" cy="31.5255" r="3.43916" stroke="#DFDFDF" stroke-width="2" stroke-linecap="round" stroke-linejoin="round"/>
<path d="M188.289 36.1308L186.114 33.9561" stroke="#DFDFDF" stroke-width="2" stroke-linecap="round" stroke-linejoin="round"/>
</svg>
