<svg width="20" height="20" viewBox="0 0 20 20" fill="none" xmlns="http://www.w3.org/2000/svg">
<path fill-rule="evenodd" clip-rule="evenodd" d="M16.4806 15.2918H5.58281C4.24286 15.2867 3.13472 14.2469 3.04453 12.9099L2.12491 1.78332L0.618091 1.51821C0.231975 1.44205 -0.0336874 1.0858 0.00346134 0.694003C0.04061 0.302205 0.368492 0.00223516 0.762041 0C0.800166 -4.85398e-05 0.838242 0.00272064 0.875958 0.00828554L3.25787 0.374892C3.5979 0.439338 3.85255 0.723692 3.87923 1.06875L4.06979 3.35435C4.09533 3.67325 4.35885 3.92063 4.67872 3.926H18.1686C18.722 3.90927 19.2483 4.16509 19.577 4.61054C19.9417 5.11724 20.079 5.75283 19.9561 6.36487L19.0074 13.058C18.8351 14.3259 17.76 15.2763 16.4806 15.2918ZM3.96597 19.0662C4.21678 19.6433 4.79225 20.0108 5.42126 19.9956C6.26191 19.9831 6.93535 19.2953 6.93014 18.4546C6.93207 17.8254 6.55253 17.2578 5.97034 17.0192C5.38815 16.7806 4.71943 16.9186 4.27923 17.3681C3.83903 17.8177 3.71516 18.4892 3.96597 19.0662ZM15.2044 19.0662C15.4552 19.6433 16.0307 20.0108 16.6597 19.9956C17.5004 19.9831 18.1738 19.2953 18.1686 18.4546C18.1705 17.8254 17.791 17.2578 17.2088 17.0192C16.6266 16.7806 15.9579 16.9186 15.5177 17.3681C15.0775 17.8177 14.9536 18.4892 15.2044 19.0662ZM11.5776 7.92588C11.7187 7.78189 11.9118 7.70077 12.1134 7.70081H14.8805C15.0821 7.70077 15.2752 7.78189 15.4163 7.92588C15.5573 8.06987 15.6345 8.26459 15.6303 8.46613C15.6343 8.8844 15.2988 9.22689 14.8805 9.23144H12.1134C11.6951 9.22689 11.3596 8.8844 11.3636 8.46613C11.3594 8.26459 11.4366 8.06987 11.5776 7.92588Z" fill="#1DBF73"/>
</svg>
