<svg width="18" height="18" viewBox="0 0 18 18" fill="none" xmlns="http://www.w3.org/2000/svg">
<path fill-rule="evenodd" clip-rule="evenodd" d="M14.0866 6.09344C14.0866 9.23288 8.99977 14.3597 8.99977 14.3597C8.99977 14.3597 3.91292 9.23288 3.91292 6.09344C3.90025 4.74048 4.43212 3.43925 5.38885 2.48252C6.34558 1.52579 7.64681 0.993922 8.99977 1.00659C10.3527 0.993922 11.654 1.52579 12.6107 2.48252C13.5674 3.43925 14.0993 4.74048 14.0866 6.09344Z" stroke="#262B2E" stroke-width="2" stroke-linecap="square"/>
<circle cx="8.99985" cy="6.0934" r="1.45382" stroke="#262B2E" stroke-width="2" stroke-linecap="square"/>
<path d="M13.3603 12.9859C15.5475 13.3745 16.9933 14.048 16.9933 14.8134C16.9933 16.0174 13.4143 16.9936 8.99985 16.9936C4.58545 16.9936 1.00637 16.0174 1.00637 14.8134C1.00637 14.048 2.45219 13.3745 4.63941 12.9859" stroke="#262B2E" stroke-width="2"/>
</svg>
