<svg width="36" height="32" viewBox="0 0 36 32" fill="none" xmlns="http://www.w3.org/2000/svg">
<path fill-rule="evenodd" clip-rule="evenodd" d="M31.877 13.5C34.308 13.5 35.717 10.413 34.325 8.16502C31.5 3.60002 25.281 0.00702031 18 2.03129e-05C10.719 -0.00697969 4.5 3.60002 1.675 8.16402C0.281 10.413 1.692 13.5 4.123 13.5H31.877ZM32.625 15.75C34.489 15.75 36 17.2611 36 19.125C36 20.989 34.489 22.5 32.625 22.5H3.375C1.51104 22.5 0 20.989 0 19.125C0 17.2611 1.51104 15.75 3.375 15.75H32.625ZM33.75 24.75C34.3713 24.75 34.875 25.2537 34.875 25.875V27C34.875 29.4853 32.8603 31.5 30.375 31.5H5.625C3.13972 31.5 1.125 29.4853 1.125 27V25.875C1.125 25.2537 1.62868 24.75 2.25 24.75H33.75ZM28.125 6.75002C28.125 6.1287 27.6213 5.62502 27 5.62502C26.3787 5.62502 25.875 6.1287 25.875 6.75002C25.875 7.37134 26.3787 7.87502 27 7.87502C27.6213 7.87502 28.125 7.37134 28.125 6.75002ZM18 3.37502C18.6213 3.37502 19.125 3.8787 19.125 4.50002C19.125 5.12134 18.6213 5.62502 18 5.62502C17.3787 5.62502 16.875 5.12134 16.875 4.50002C16.875 3.8787 17.3787 3.37502 18 3.37502ZM10.125 6.75002C10.125 6.1287 9.62132 5.62502 9 5.62502C8.37868 5.62502 7.875 6.1287 7.875 6.75002C7.875 7.37134 8.37868 7.87502 9 7.87502C9.62132 7.87502 10.125 7.37134 10.125 6.75002Z" fill="#1DBF73"/>
</svg>
