<svg width="36" height="36" viewBox="0 0 36 36" fill="none" xmlns="http://www.w3.org/2000/svg">
<path d="M30.9134 26.6457C30.7383 26.7485 30.5536 26.8342 30.362 26.9015V35.982C31.4401 35.6915 32.4463 35.181 33.3175 34.4828C35.146 32.8979 36.1323 30.552 35.9856 28.1367V21.5123C34.7068 23.5864 32.9726 25.3423 30.9144 26.6467L30.9134 26.6457Z" fill="#1DBF73"/>
<path d="M25.0921 27.0838C25.0925 27.7194 24.9482 28.3467 24.6702 28.9183L28.2545 30.1667V26.9055L25.0952 25.8038L25.0921 27.0838Z" fill="#1DBF73"/>
<path d="M16.6577 22.8647L0.0019905 17.0618V20.323L16.6577 26.1321V22.8647Z" fill="#1DBF73"/>
<path d="M20.8749 31.3001C19.0702 31.2975 17.4666 30.1484 16.884 28.4404L0.00199062 22.562V25.3269C0.00177454 25.7756 0.285603 26.1751 0.70927 26.3226L28.2534 35.9157V32.4018L23.1577 30.6264C22.4779 31.0669 21.6849 31.3009 20.8749 31.3001Z" fill="#1DBF73"/>
<path d="M12.09 8.78433C12.0901 11.1801 13.9412 13.1688 16.3309 13.3402C18.7205 13.5117 20.8366 11.8077 21.1787 9.43646C21.5209 7.06521 19.9728 4.83256 17.6321 4.32155C17.3352 2.56272 16.2135 1.05265 14.6154 0.260295L14.3189 0.111501C13.7982 -0.148818 13.1651 0.0622127 12.9048 0.582851C12.6445 1.10349 12.8555 1.73658 13.3762 1.9969L13.6727 2.14569C14.5701 2.59056 15.2317 3.40116 15.4878 4.36944C13.4867 4.90263 12.0931 6.71337 12.09 8.78433H12.09Z" fill="#1DBF73"/>
<path fill-rule="evenodd" clip-rule="evenodd" d="M35.9846 14.0817C35.9846 13.7903 35.9153 6.91213 29.8433 3.33496C29.5759 3.17737 29.2526 3.14568 28.9597 3.24834C28.4794 3.41415 27.5351 3.74362 26.2708 4.18474L26.2706 4.18483C25.2037 4.55707 23.9089 5.0088 22.4729 5.50878C23.7859 7.83591 23.5849 10.7217 21.962 12.8444C20.3391 14.967 17.607 15.9177 15.017 15.2609C12.4271 14.6041 10.4781 12.4663 10.0629 9.82685C5.75097 11.328 2.08412 12.605 0.707274 13.0881C0.283786 13.2355 0 13.6348 0 14.0833C0 14.5317 0.283786 14.931 0.707274 15.0784L18.7643 21.3665V27.0839C18.7643 27.8372 19.1662 28.5333 19.8186 28.9099C20.471 29.2866 21.2748 29.2866 21.9272 28.9099C22.5796 28.5333 22.9815 27.8372 22.9815 27.0839V22.8341L28.9618 24.9202C29.2542 25.0219 29.5766 24.9899 29.8433 24.8326L29.845 24.8315C30.1197 24.6652 35.9846 21.1137 35.9846 14.0817ZM24.7405 14.7849C24.1585 14.7849 23.6867 14.3131 23.6867 13.7312C23.6867 13.1492 24.1585 12.6774 24.7405 12.6774C25.3225 12.6774 25.7943 13.1492 25.7943 13.7312C25.7937 14.3127 25.3221 14.7839 24.7405 14.7839V14.7849ZM25.7953 18.6505C25.7953 19.2325 26.2671 19.7043 26.8491 19.7043C27.1284 19.7043 27.3963 19.5934 27.5939 19.396C27.7917 19.1984 27.9029 18.9302 27.9029 18.6505C27.9029 18.0685 27.4311 17.5967 26.8491 17.5967C26.2671 17.5967 25.7953 18.0685 25.7953 18.6505ZM28.9577 10.5678C28.3757 10.5678 27.9039 10.096 27.9039 9.51398C27.9039 8.93199 28.3757 8.46019 28.9577 8.46019C29.5397 8.46019 30.0115 8.93199 30.0115 9.51398C30.0115 9.79363 29.9003 10.0618 29.7025 10.2595C29.5049 10.4569 29.237 10.5678 28.9577 10.5678ZM29.3093 14.4333C29.3093 15.0153 29.7811 15.4871 30.3631 15.4871C30.6424 15.4871 30.9102 15.3762 31.1078 15.1788C31.3057 14.9812 31.4169 14.713 31.4169 14.4333C31.4169 13.8513 30.9451 13.3796 30.3631 13.3796C29.7811 13.3796 29.3093 13.8513 29.3093 14.4333Z" fill="#1DBF73"/>
</svg>
