<svg width="28" height="25" viewBox="0 0 28 25" fill="none" xmlns="http://www.w3.org/2000/svg">
<path d="M25.6727 14.6476L27.9706 4.53669C28.0498 4.19032 27.9669 3.82673 27.7453 3.54892C27.5238 3.27111 27.1878 3.10935 26.8325 3.10945H7.73943L7.29374 0.932836C7.18273 0.39102 6.70667 0.00151649 6.15361 0H1.16708C0.52252 0 0 0.52252 0 1.16708V1.94444C0.00114343 2.5882 0.523329 3.10945 1.16708 3.10945H4.56053L7.98093 19.8062C6.96618 20.3885 6.43688 21.554 6.66614 22.7013C6.89539 23.8486 7.83193 24.7212 8.99255 24.8688C10.1532 25.0165 11.2784 24.4062 11.7876 23.3529C12.2968 22.2995 12.0762 21.0387 11.2396 20.2208H21.4303C20.5829 21.0515 20.3713 22.3355 20.9074 23.3942C21.4436 24.4529 22.6039 25.0422 23.775 24.8506C24.9462 24.659 25.8582 23.7307 26.0291 22.5564C26.1999 21.382 25.5902 20.2323 24.5222 19.715L24.7906 18.5344C24.8692 18.188 24.7857 17.8246 24.5638 17.5473C24.3419 17.2699 24.0057 17.1086 23.6505 17.1092H10.6032L10.285 15.5545H24.5346C25.0791 15.5547 25.5513 15.1784 25.6727 14.6476Z" fill="#1DBF73"/>
</svg>
