<svg width="13" height="13" viewBox="0 0 13 13" fill="none" xmlns="http://www.w3.org/2000/svg">
<path fill-rule="evenodd" clip-rule="evenodd" d="M10.3176 4.31808C10.3176 6.67404 6.49968 10.518 6.49968 10.518C6.49968 10.518 2.68175 6.67504 2.68175 4.31808C2.67231 3.30264 3.07153 2.32604 3.78958 1.60799C4.50764 0.889928 5.48424 0.490715 6.49968 0.500154C7.51512 0.490715 8.49172 0.889928 9.20978 1.60799C9.92784 2.32604 10.327 3.30264 10.3176 4.31808Z" stroke="#FE2121" stroke-linecap="square"/>
<circle cx="6.50006" cy="4.31797" r="1.09098" stroke="#FE2121" stroke-linecap="square"/>
<path d="M9.77282 9.49201C11.4148 9.784 12.4998 10.292 12.4998 10.864C12.4998 11.764 9.81382 12.5 6.49988 12.5C3.18594 12.5 0.499991 11.768 0.499991 10.864C0.499991 10.292 1.58497 9.784 3.22694 9.49201" stroke="#FE2121"/>
</svg>
