<svg width="226" height="226" viewBox="0 0 226 226" fill="none" xmlns="http://www.w3.org/2000/svg">
<circle cx="113" cy="113" r="113" fill="#F6F7FF"/>
<path d="M102.085 27.7662C102.887 27.7721 103.658 27.4556 104.224 26.8876C104.79 26.3197 105.104 25.5481 105.096 24.7462C105.104 23.9443 104.79 23.1727 104.224 22.6047C103.657 22.0366 102.887 21.7198 102.085 21.7252C101.283 21.7192 100.512 22.0359 99.945 22.6039C99.3784 23.172 99.0639 23.9439 99.0719 24.7462C99.1138 26.3937 100.437 27.7205 102.085 27.7662Z" fill="#1DBF73"/>
<path d="M153.113 33.2753C154.376 33.2491 155.393 32.2279 155.413 30.9643C155.392 29.7014 154.376 28.6814 153.113 28.6553C151.85 28.6814 150.834 29.7014 150.813 30.9643C150.833 32.2279 151.849 33.2491 153.113 33.2753Z" fill="url(#paint0_linear_0_7525)"/>
<path d="M217.262 108.425C219.934 105.911 220.091 101.717 217.616 99.0092C216.449 97.7265 214.816 96.9663 213.084 96.8994C211.351 96.8324 209.664 97.4644 208.402 98.6532C205.732 101.168 205.574 105.361 208.048 108.069C210.558 110.57 214.567 110.725 217.262 108.425Z" fill="#EAEEF9"/>
<path d="M88.617 79.4663L86.491 76.0903" stroke="#BBC6D8" stroke-width="1.5" stroke-linecap="round" stroke-linejoin="round"/>
<path d="M76.5659 79.999L92.1589 103.45L105.627 106.826L90.5659 82.486" stroke="#BBC6D8" stroke-width="1.5" stroke-linecap="round" stroke-linejoin="round"/>
<path d="M69.124 126.368H68.415C68.1755 126.383 67.9414 126.293 67.7721 126.123C67.6029 125.953 67.5147 125.719 67.53 125.479C67.5153 125.24 67.6037 125.006 67.7729 124.836C67.9421 124.667 68.1758 124.577 68.415 124.591H69.124C69.3633 124.577 69.5972 124.667 69.7665 124.836C69.9358 125.006 70.0244 125.24 70.01 125.479C70.0251 125.719 69.9367 125.953 69.7672 126.123C69.5978 126.293 69.3636 126.382 69.124 126.368Z" fill="#2D5887"/>
<path d="M69.124 130.278H68.415C68.1755 130.292 67.9416 130.203 67.7724 130.033C67.6032 129.863 67.515 129.628 67.53 129.389C67.5149 129.15 67.6032 128.915 67.7725 128.746C67.9417 128.576 68.1756 128.487 68.415 128.501H69.124C69.3634 128.487 69.5974 128.576 69.7668 128.746C69.9362 128.915 70.0247 129.15 70.01 129.389C70.0247 129.628 69.9362 129.863 69.7668 130.033C69.5975 130.203 69.3635 130.292 69.124 130.278Z" fill="#2D5887"/>
<path d="M69.124 134.186H68.415C68.1755 134.2 67.9416 134.111 67.7724 133.941C67.6032 133.771 67.515 133.536 67.53 133.297C67.5153 133.058 67.6037 132.824 67.7728 132.654C67.942 132.484 68.1757 132.395 68.415 132.409H69.124C69.3633 132.395 69.5971 132.484 69.7664 132.654C69.9357 132.824 70.0244 133.058 70.01 133.297C70.0247 133.537 69.9362 133.771 69.7668 133.941C69.5975 134.111 69.3635 134.2 69.124 134.186Z" fill="#2D5887"/>
<path d="M69.124 138.094H68.415C68.1755 138.109 67.9414 138.019 67.7721 137.849C67.6029 137.679 67.5147 137.445 67.53 137.205C67.5153 136.966 67.6037 136.732 67.7729 136.562C67.9421 136.393 68.1758 136.303 68.415 136.317H69.124C69.3633 136.303 69.5972 136.393 69.7665 136.562C69.9358 136.732 70.0244 136.966 70.01 137.205C70.0251 137.445 69.9367 137.679 69.7672 137.849C69.5978 138.019 69.3636 138.109 69.124 138.094Z" fill="#2D5887"/>
<path d="M107.401 126.192H94.2861C94.0466 126.206 93.8127 126.117 93.6435 125.947C93.4743 125.777 93.3861 125.542 93.4011 125.303C93.386 125.064 93.4743 124.83 93.6436 124.66C93.8128 124.49 94.0467 124.401 94.2861 124.415H107.401C107.641 124.401 107.875 124.49 108.045 124.659C108.214 124.829 108.303 125.064 108.288 125.303C108.303 125.543 108.214 125.777 108.045 125.947C107.875 126.117 107.641 126.206 107.401 126.192Z" fill="white"/>
<path d="M136.815 137.917H94.2861C94.0466 137.931 93.8127 137.842 93.6435 137.672C93.4743 137.502 93.3861 137.268 93.4011 137.028C93.386 136.789 93.4743 136.555 93.6436 136.385C93.8128 136.215 94.0467 136.126 94.2861 136.14H136.815C137.054 136.126 137.288 136.215 137.458 136.385C137.627 136.555 137.716 136.789 137.701 137.028C137.716 137.268 137.627 137.502 137.458 137.672C137.289 137.842 137.055 137.931 136.815 137.917Z" fill="url(#paint1_linear_0_7525)"/>
<path d="M107.399 129.922H88.439C88.1994 129.936 87.9653 129.847 87.7961 129.677C87.6268 129.507 87.5386 129.272 87.554 129.033C87.5393 128.794 87.6277 128.56 87.7968 128.39C87.966 128.22 88.1997 128.131 88.439 128.145H107.399C107.638 128.131 107.873 128.22 108.042 128.39C108.212 128.559 108.3 128.794 108.286 129.033C108.301 129.273 108.212 129.507 108.043 129.677C107.873 129.847 107.639 129.937 107.399 129.922Z" fill="#2D5887"/>
<path d="M122.462 134.008H88.6169C88.3772 134.022 88.1427 133.933 87.9731 133.763C87.8034 133.593 87.7149 133.359 87.7299 133.119C87.7155 132.879 87.8043 132.645 87.9738 132.476C88.1433 132.306 88.3774 132.217 88.6169 132.231H122.462C122.701 132.217 122.935 132.306 123.104 132.476C123.273 132.646 123.362 132.88 123.347 133.119C123.171 133.654 122.816 134.008 122.462 134.008Z" fill="#2D5887"/>
<path d="M136.99 134.008H125.118C124.878 134.022 124.644 133.933 124.475 133.763C124.306 133.593 124.218 133.358 124.233 133.119C124.218 132.88 124.307 132.646 124.476 132.476C124.645 132.306 124.879 132.217 125.118 132.231H136.99C137.229 132.217 137.463 132.306 137.633 132.476C137.803 132.645 137.891 132.879 137.877 133.119C137.892 133.359 137.803 133.593 137.634 133.763C137.464 133.933 137.23 134.022 136.99 134.008Z" fill="white"/>
<path d="M144.787 134.008H140.003C139.763 134.022 139.529 133.933 139.36 133.763C139.191 133.593 139.103 133.358 139.118 133.119C139.103 132.88 139.192 132.646 139.361 132.476C139.53 132.306 139.764 132.217 140.003 132.231H144.787C145.026 132.217 145.26 132.306 145.43 132.476C145.6 132.645 145.688 132.879 145.674 133.119C145.689 133.359 145.6 133.593 145.431 133.763C145.261 133.933 145.027 134.022 144.787 134.008Z" fill="url(#paint2_linear_0_7525)"/>
<path d="M14.547 188.55H222.225" stroke="#D6DEE8" stroke-width="2" stroke-linecap="round" stroke-linejoin="round"/>
<path d="M153.116 124.237V187.484H63.2751C61.6255 187.492 60.0413 186.839 58.8764 185.671C57.7115 184.503 57.0628 182.917 57.0751 181.267V124.237H153.116Z" fill="white"/>
<path d="M187.14 124.237V181.267C187.152 182.917 186.504 184.503 185.339 185.671C184.174 186.839 182.59 187.492 180.94 187.484H152.94V124.237H187.14Z" fill="#DAE1ED"/>
<path opacity="0.3" d="M187.14 124.237V181.267C187.152 182.917 186.504 184.503 185.339 185.671C184.174 186.839 182.59 187.492 180.94 187.484H152.94V124.237H187.14Z" fill="url(#paint3_linear_0_7525)"/>
<path d="M92.1599 124.769L110.944 95.2773H207.344L188.025 124.769H92.1599Z" fill="#C5CDDB"/>
<path opacity="0.2" d="M92.1599 124.769L110.944 95.2773H207.344L188.025 124.769H92.1599Z" fill="url(#paint4_linear_0_7525)"/>
<path d="M201.847 84.618C200.211 86.247 197.95 87.0889 195.647 86.927H195.293C193.832 86.92 192.428 87.4958 191.393 88.527C190.341 89.5397 189.817 90.9831 189.976 92.435V92.613C190.151 94.9204 189.311 97.1893 187.676 98.8272C186.042 100.465 183.775 101.31 181.467 101.14H181.289C179.864 101.151 178.486 101.653 177.389 102.563C176.359 103.602 175.783 105.008 175.789 106.471C175.953 108.778 175.115 111.045 173.489 112.69C171.853 114.319 169.592 115.161 167.289 114.999H166.584C165.75 114.95 165.113 114.235 165.162 113.401C165.211 112.567 165.926 111.93 166.76 111.979H167.467C168.97 112.138 170.466 111.616 171.544 110.556C172.572 109.516 173.146 108.11 173.138 106.648C172.964 104.341 173.803 102.073 175.436 100.435C177.07 98.7971 179.336 97.9519 181.643 98.12H181.821C183.246 98.1102 184.624 97.6082 185.721 96.699C186.752 95.6593 187.327 94.2529 187.321 92.789V92.613C187.147 90.3063 187.986 88.038 189.619 86.4001C191.253 84.7621 193.519 83.9169 195.826 84.085H196.18C197.83 84.1598 199.413 83.4313 200.43 82.13C200.642 81.8155 200.984 81.613 201.361 81.5785C201.739 81.544 202.112 81.6811 202.377 81.952C202.692 82.1654 202.894 82.5087 202.929 82.8874C202.963 83.2661 202.826 83.6403 202.555 83.907C202.201 84.263 202.023 84.44 201.847 84.618Z" fill="#DAE1ED"/>
<path opacity="0.3" d="M187.139 124.237V158.526H162.33C160.109 158.535 158.256 156.832 158.078 154.618L153.116 124.059L187.139 124.237Z" fill="url(#paint5_linear_0_7525)"/>
<path d="M187.14 124.237H152.94L170.305 151.064C171.457 152.786 173.37 153.844 175.44 153.905H202.023C202.864 153.9 203.636 153.439 204.041 152.702C204.446 151.965 204.42 151.066 203.973 150.353L187.14 124.237Z" fill="#DAE1ED"/>
<path d="M152.941 124.769L134.157 95.2773H37.583L57.076 124.769H152.941Z" fill="#DAE1ED"/>
<path d="M105.449 160.481H67.5351C67.11 160.484 66.7016 160.316 66.4011 160.015C66.1005 159.715 65.9327 159.306 65.9351 158.881C65.9329 158.456 66.1008 158.048 66.4014 157.748C66.7019 157.447 67.1101 157.279 67.5351 157.281H105.449C105.874 157.279 106.282 157.447 106.583 157.748C106.883 158.048 107.051 158.456 107.049 158.881C106.868 159.768 106.335 160.481 105.449 160.481Z" fill="#DAE1ED"/>
<path d="M105.449 168.299H67.5351C67.1099 168.302 66.7014 168.134 66.4008 167.833C66.1001 167.533 65.9324 167.124 65.9351 166.699C65.9324 166.274 66.1001 165.865 66.4008 165.565C66.7014 165.264 67.1099 165.096 67.5351 165.099H105.449C105.874 165.096 106.283 165.264 106.583 165.565C106.884 165.865 107.052 166.274 107.049 166.699C106.868 167.586 106.335 168.299 105.449 168.299Z" fill="#DAE1ED"/>
<path d="M85.0721 175.938H67.5351C67.1099 175.941 66.7014 175.773 66.4008 175.473C66.1001 175.172 65.9324 174.763 65.9351 174.338C65.9324 173.913 66.1001 173.505 66.4008 173.204C66.7014 172.903 67.1099 172.736 67.5351 172.738H85.0721C85.4973 172.736 85.9058 172.903 86.2064 173.204C86.5071 173.505 86.6748 173.913 86.6721 174.338C86.5573 175.17 85.9036 175.823 85.0721 175.938Z" fill="#DAE1ED"/>
<path d="M197.062 27.7661L204.327 29.3661C206.879 29.9692 208.869 31.9649 209.465 34.5181L212.656 48.3751C213.184 49.7375 212.834 51.2841 211.769 52.2851L194.404 69.6941" fill="white"/>
<path d="M190.683 73.2483L211.593 52.2843C212.657 51.284 213.008 49.7375 212.478 48.3763L209.289 34.5183C208.693 31.9651 206.702 29.9696 204.151 29.3663L190.329 26.1683C188.97 25.6378 187.425 25.9897 186.429 27.0563L159.675 54.2393C158.612 55.325 158.612 57.0615 159.675 58.1473L173.494 72.0043L173.848 72.3603C178.652 76.7787 185.969 77.0052 191.037 72.8923" fill="url(#paint6_linear_0_7525)"/>
<path d="M203.023 41.698C204.192 40.5319 204.543 38.7762 203.912 37.2504C203.281 35.7246 201.793 34.7295 200.142 34.7295C198.491 34.7295 197.002 35.7246 196.371 37.2504C195.74 38.7762 196.091 40.5319 197.26 41.698C198.855 43.2801 201.428 43.2801 203.023 41.698Z" fill="white"/>
<path d="M214.603 39.1381C213.654 40.1042 212.582 40.9405 211.414 41.6251C211.238 41.6251 211.238 41.8011 211.06 41.8011L210.351 38.9591C211.102 38.4195 211.813 37.8256 212.477 37.1821C214.143 35.5495 215.259 33.4377 215.668 31.1411C216.057 29.4345 215.594 27.6454 214.427 26.3411C211.947 23.8591 207.162 24.7471 203.618 28.2991C203.264 28.6551 203.087 28.8331 202.731 29.1871C201.521 30.6922 200.673 32.4547 200.251 34.3391V34.6951C200.061 36.2819 200.507 37.8795 201.492 39.1381C201.827 39.53 202.252 39.8344 202.731 40.0251C202.909 40.2031 203.087 40.2031 203.263 40.3811L203.441 40.5591C203.25 41.0391 202.946 41.4657 202.554 41.8021C202.172 42.1402 201.756 42.4378 201.313 42.6901C200.565 42.2782 199.854 41.8021 199.188 41.2671C197.773 39.7913 197.008 37.8108 197.062 35.7671C197.033 35.2277 197.093 34.6873 197.238 34.1671C197.602 32.2708 198.323 30.4608 199.362 28.8331C199.901 28.0795 200.494 27.3665 201.138 26.7001C205.744 22.0821 212.301 21.1931 215.844 24.7471C220.098 27.7671 219.211 34.5181 214.603 39.1381Z" fill="url(#paint7_linear_0_7525)"/>
<path d="M191.391 72.7143C190.859 73.0703 190.504 73.4263 189.974 73.7803C185.474 76.6579 179.694 76.588 175.265 73.6023C174.735 73.2483 174.38 72.8923 173.848 72.5373H174.026C176.635 72.5441 179.2 71.8703 181.468 70.5823C182.49 69.8319 183.899 69.9063 184.835 70.7603C186.797 72.007 189.067 72.6836 191.391 72.7143Z" fill="url(#paint8_linear_0_7525)"/>
<path d="M91.6201 41.9791C90.0173 39.8435 89.317 37.1639 89.6701 34.5171C90.2021 30.6091 90.0241 30.4311 86.3031 28.8321C83.8682 27.7197 81.9187 25.7631 80.8151 23.3241C79.2151 19.7721 78.8651 19.5941 75.1441 19.9481C72.5586 20.3018 69.9397 19.5977 67.8801 17.9951C64.5131 15.5081 64.5131 15.5081 60.9681 17.9951C58.9086 19.5977 56.2897 20.3018 53.7041 19.9481C49.8041 19.4161 49.6281 19.5941 47.8571 23.1481C46.7413 25.6847 44.7165 27.7116 42.1811 28.8301C38.6361 30.4301 38.4601 30.6071 38.9901 34.5151C39.343 37.1616 38.6436 39.8409 37.0421 41.9771C34.7421 45.3531 34.7421 45.3531 37.0421 48.7281C38.643 50.8647 39.3424 53.5437 38.9901 56.1901C38.4591 60.0981 38.6361 60.2761 42.1811 61.8751C44.7157 62.9956 46.7388 65.0245 47.8521 67.5621C49.4461 71.1141 49.6241 71.2921 53.5211 70.7621C56.1073 70.409 58.7265 71.1131 60.7871 72.7151C64.1541 75.2021 64.3301 75.2021 67.6971 72.7151C68.3078 72.2925 68.9615 71.9355 69.6471 71.6501C70.3552 71.2539 71.139 71.0119 71.9471 70.9401C72.9435 70.7617 73.9637 70.7617 74.9601 70.9401C75.4975 70.9113 76.036 70.9707 76.5541 71.1161C78.5041 71.6501 79.5671 70.5841 80.2751 68.9851C80.4032 68.5175 80.647 68.0896 80.9841 67.7411C81.9831 65.2276 83.971 63.235 86.4821 62.2301C90.0251 60.6301 90.2031 60.4531 89.8471 56.5451C89.6406 55.4802 89.7018 54.3806 90.0251 53.3451C90.1791 52.4948 90.4166 51.6618 90.7341 50.8581C91.0881 50.1461 91.4431 49.6141 91.7971 48.9031C93.9241 45.3551 93.9241 45.1771 91.6201 41.9791Z" fill="#1DBF73"/>
<path d="M52.467 41.8001C50.3414 39.6287 50.3414 36.1566 52.467 33.9851C54.6289 31.8507 58.105 31.8507 60.267 33.9851C62.3941 36.1559 62.3941 39.6294 60.267 41.8001C59.2511 42.8601 57.8345 43.4413 56.367 43.4001C54.9058 43.4074 53.5021 42.8315 52.467 41.8001Z" fill="white"/>
<path d="M68.4151 57.436C67.3872 56.3955 66.8143 54.9896 66.8221 53.527C66.815 52.0652 67.3879 50.6601 68.4151 49.62C70.5701 47.4802 74.0505 47.4884 76.1954 49.6384C78.3403 51.7883 78.3403 55.2687 76.1954 57.4187C74.0505 59.5686 70.5701 59.5768 68.4151 57.437V57.436Z" fill="white"/>
<path d="M75.1489 35.0491C74.3373 34.3391 73.1256 34.3391 72.3139 35.0491L54.2389 52.9941C53.5317 53.8098 53.5317 55.0214 54.2389 55.8371C54.6247 56.1923 55.1337 56.3831 55.6579 56.3691C56.1814 56.3827 56.6897 56.1919 57.0749 55.8371L75.1489 38.0711C75.8578 37.1885 75.8578 35.9317 75.1489 35.0491Z" fill="white"/>
<path d="M21.813 55.1249L12.775 46.0649" stroke="#BBC6D8" stroke-width="1.5" stroke-linecap="round" stroke-linejoin="round"/>
<path d="M45.0249 78.4011L26.4189 59.7461" stroke="#BBC6D8" stroke-width="1.5" stroke-linecap="round" stroke-linejoin="round"/>
<path d="M147.978 58.8572L155.242 48.1982" stroke="#BBC6D8" stroke-width="1.5" stroke-linecap="round" stroke-linejoin="round"/>
<path d="M152.94 83.0191L160.028 72.5381" stroke="#BBC6D8" stroke-width="1.5" stroke-linecap="round" stroke-linejoin="round"/>
<path d="M157.546 92.7901L164.634 82.3091" stroke="#BBC6D8" stroke-width="1.5" stroke-linecap="round" stroke-linejoin="round"/>
<path d="M129.55 86.041L144.257 64.188" stroke="#BBC6D8" stroke-width="1.5" stroke-linecap="round" stroke-linejoin="round"/>
<path d="M110.59 32.7412L110.412 19.9492" stroke="#BBC6D8" stroke-width="1.5" stroke-linecap="round" stroke-linejoin="round"/>
<path d="M111.12 65.609L110.767 39.314" stroke="#BBC6D8" stroke-width="1.5" stroke-linecap="round" stroke-linejoin="round"/>
<path d="M132.915 56.7264L138.41 30.9644" stroke="#BBC6D8" stroke-width="1.5" stroke-linecap="round" stroke-linejoin="round"/>
<path d="M130.435 68.6282L131.852 61.3442" stroke="#BBC6D8" stroke-width="1.5" stroke-linecap="round" stroke-linejoin="round"/>
<path d="M48.037 91.1899L22.521 65.6079" stroke="#BBC6D8" stroke-width="1.5" stroke-linecap="round" stroke-linejoin="round"/>
<path d="M110.411 84.4402C111.485 84.4299 112.352 83.5611 112.361 82.4872C112.353 81.4128 111.485 80.5431 110.411 80.5322C109.337 80.5431 108.469 81.4128 108.461 82.4872C108.403 83.0204 108.589 83.5512 108.968 83.9307C109.347 84.3102 109.878 84.4976 110.411 84.4402Z" fill="url(#paint9_linear_0_7525)"/>
<path d="M21.28 89.5923C21.9435 89.6076 22.5843 89.3502 23.053 88.8803C23.5216 88.4103 23.7771 87.7688 23.76 87.1053C23.7769 86.4419 23.5212 85.8006 23.0526 85.3307C22.5841 84.8608 21.9434 84.6033 21.28 84.6183C20.6166 84.6033 19.9759 84.8608 19.5074 85.3307C19.0388 85.8006 18.7831 86.4419 18.8 87.1053C18.7829 87.7688 19.0384 88.4103 19.507 88.8803C19.9757 89.3502 20.6165 89.6076 21.28 89.5923Z" fill="#FFBC00"/>
<path d="M146.56 87.4613C147.73 87.444 148.673 86.498 148.686 85.3283C148.709 84.7572 148.493 84.2025 148.089 83.7979C147.685 83.3934 147.131 83.1756 146.56 83.1973C145.391 83.2145 144.449 84.1595 144.435 85.3283C144.41 85.8999 144.626 86.4559 145.029 86.8612C145.433 87.2666 145.988 87.4842 146.56 87.4613Z" fill="#1DBF73"/>
<path d="M209.289 75.201C210.552 75.1754 211.568 74.1551 211.589 72.892C211.568 71.6292 210.552 70.6092 209.289 70.583C208.026 70.6092 207.01 71.6292 206.989 72.892C206.938 73.5172 207.163 74.1334 207.606 74.5778C208.048 75.0222 208.664 75.25 209.289 75.201Z" fill="url(#paint10_linear_0_7525)"/>
<defs>
<linearGradient id="paint0_linear_0_7525" x1="150.877" y1="33.2037" x2="155.206" y2="33.2037" gradientUnits="userSpaceOnUse">
<stop stop-color="#FF66A9"/>
<stop offset="1" stop-color="#F53689"/>
</linearGradient>
<linearGradient id="paint1_linear_0_7525" x1="93.5766" y1="137.951" x2="137.747" y2="137.951" gradientUnits="userSpaceOnUse">
<stop stop-color="#FF66A9"/>
<stop offset="1" stop-color="#F53689"/>
</linearGradient>
<linearGradient id="paint2_linear_0_7525" x1="139.162" y1="133.95" x2="145.676" y2="133.95" gradientUnits="userSpaceOnUse">
<stop stop-color="#83A6FF"/>
<stop offset="1" stop-color="#5A78FF"/>
</linearGradient>
<linearGradient id="paint3_linear_0_7525" x1="132.644" y1="244.525" x2="247.234" y2="262.116" gradientUnits="userSpaceOnUse">
<stop offset="0.003" stop-color="#606673" stop-opacity="0.01"/>
<stop offset="1" stop-color="#373C47"/>
</linearGradient>
<linearGradient id="paint4_linear_0_7525" x1="-726.872" y1="-170.145" x2="-728.435" y2="286.093" gradientUnits="userSpaceOnUse">
<stop offset="0.003" stop-color="#606673" stop-opacity="0.01"/>
<stop offset="1" stop-color="#373C47"/>
</linearGradient>
<linearGradient id="paint5_linear_0_7525" x1="185.625" y1="159.25" x2="185.625" y2="127.85" gradientUnits="userSpaceOnUse">
<stop offset="0.003" stop-color="#606673" stop-opacity="0.01"/>
<stop offset="1" stop-color="#373C47"/>
</linearGradient>
<linearGradient id="paint6_linear_0_7525" x1="158.878" y1="75.9566" x2="212.776" y2="75.9566" gradientUnits="userSpaceOnUse">
<stop stop-color="#6C4DDA" stop-opacity="0.6"/>
<stop offset="1" stop-color="#522ED2"/>
</linearGradient>
<linearGradient id="paint7_linear_0_7525" x1="197.055" y1="22.5669" x2="197.055" y2="42.6901" gradientUnits="userSpaceOnUse">
<stop stop-color="#6C4DDA" stop-opacity="0.6"/>
<stop offset="1" stop-color="#522ED2"/>
</linearGradient>
<linearGradient id="paint8_linear_0_7525" x1="173.848" y1="70.0659" x2="173.848" y2="75.891" gradientUnits="userSpaceOnUse">
<stop stop-color="#6C4DDA" stop-opacity="0.6"/>
<stop offset="1" stop-color="#522ED2"/>
</linearGradient>
<linearGradient id="paint9_linear_0_7525" x1="108.345" y1="84.4582" x2="112.224" y2="84.4582" gradientUnits="userSpaceOnUse">
<stop stop-color="#FF66A9"/>
<stop offset="1" stop-color="#F53689"/>
</linearGradient>
<linearGradient id="paint10_linear_0_7525" x1="206.862" y1="75.0573" x2="211.474" y2="75.0573" gradientUnits="userSpaceOnUse">
<stop stop-color="#FF66A9"/>
<stop offset="1" stop-color="#F53689"/>
</linearGradient>
</defs>
</svg>
