<svg width="110" height="34" viewBox="0 0 110 34" fill="none" xmlns="http://www.w3.org/2000/svg">
<path d="M90.8783 16.1876C90.8783 16.1876 95.7303 0.610066 101.965 2.726C106.964 4.41612 101.563 11.5581 101.563 11.5581C101.563 11.5581 107.659 7.18334 109.576 12.0876C111.494 16.9919 104.2 17.9261 104.2 17.9261C104.2 17.9261 111.478 25.2513 105.609 29.0996C100.053 32.7386 91.6937 20.3591 90.8783 16.1876Z" fill="#DFDFDF"/>
<path d="M102.936 15.1649L92.4094 17.4076" stroke="#DFDFDF" stroke-width="2" stroke-linecap="round" stroke-linejoin="round"/>
<path d="M99.9501 7.10381L93.4564 17.0342L103.458 25.7677" stroke="#DFDFDF" stroke-width="2" stroke-linecap="round" stroke-linejoin="round"/>
<path d="M79.3575 32.9772L8.28354 29.7721V3.56854L79.3575 0.363441C83.8114 0.157569 88.1553 1.78434 91.3784 4.86516C94.6015 7.94598 96.4225 12.2121 96.4178 16.6708C96.4225 21.1295 94.6015 25.3956 91.3784 28.4764C88.1553 31.5573 83.8114 33.184 79.3575 32.9782V32.9772Z" fill="#DFDFDF"/>
<ellipse cx="8.28354" cy="16.6678" rx="8.28354" ry="13.0992" fill="#DFDFDF"/>
<path d="M76.3224 32.9933C76.3224 32.9933 80.0168 27.4256 80.0168 17.4077" stroke="#DFDFDF" stroke-width="2" stroke-linecap="round" stroke-linejoin="round"/>
<path d="M67.7017 1.00669C67.7017 1.00669 73.1898 8.344 71.3608 20.8473" stroke="#DFDFDF" stroke-width="2" stroke-linecap="round" stroke-linejoin="round"/>
<path d="M53.5758 31.8155C55.6183 26.5045 56.6372 20.8548 56.5785 15.1649" stroke="#DFDFDF" stroke-width="2" stroke-linecap="round" stroke-linejoin="round"/>
<path d="M41.6452 2.06465C41.6452 2.06465 45.8287 8.59867 43.3987 19.5629" stroke="#DFDFDF" stroke-width="2" stroke-linecap="round" stroke-linejoin="round"/>
<path d="M24.6362 30.5069C24.6362 30.5069 27.4678 26.7763 28.2158 19.5548" stroke="#DFDFDF" stroke-width="2" stroke-linecap="round" stroke-linejoin="round"/>
<path d="M12.8849 13.1526C12.8849 13.1526 11.5048 6.35992 7.81853 7.18737C4.13226 8.01482 1.71837 20.0289 6.20793 25.6992C10.6975 31.3696 12.3121 19.579 10.928 14.5045C9.54389 9.43014 5.51537 10.8455 6.78372 20.6248" stroke="#DFDFDF" stroke-width="2" stroke-linecap="round" stroke-linejoin="round"/>
</svg>
