<svg width="94" height="94" viewBox="0 0 94 94" fill="none" xmlns="http://www.w3.org/2000/svg">
<circle opacity="0.1" cx="47" cy="47" r="47" fill="#1DBF73"/>
<path d="M69.153 32.2759C69.4722 31.9705 69.4834 31.4642 69.178 31.1449L68.906 30.8589C68.7598 30.7049 68.5584 30.6153 68.346 30.6099C68.1339 30.6073 67.9289 30.6869 67.774 30.8319C67.7328 30.8705 67.6962 30.9138 67.665 30.9609L64.946 35.0169C65.238 35.1549 65.526 35.3049 65.807 35.4709L69.153 32.2759Z" fill="#1DBF73"/>
<path d="M34.9999 72.9999C26.3132 72.9858 18.8732 66.7761 17.3059 58.2319C22.1999 61.3719 34.1499 62.9999 45.9999 62.9999C57.8499 62.9999 69.7999 61.3719 74.6939 58.2319C73.1267 66.7761 65.6866 72.9858 56.9999 72.9999H34.9999Z" fill="#1DBF73"/>
<path d="M45.7261 28.8529L47.3801 18.1019C47.6561 16.3162 49.1931 14.9985 51.0001 14.9985C52.807 14.9985 54.344 16.3162 54.6201 18.1019L56.1871 28.2859L49.3781 31.6859L45.7261 28.8529Z" fill="#1DBF73"/>
<path d="M43.676 60.978C47.033 58.3229 48.9937 54.2801 49 50C49 49.792 48.977 49.59 48.969 49.383L56.293 56.706L57.708 55.29L49.708 47.29L48.862 48.136C48.7506 47.2845 48.5601 46.4452 48.293 45.629L52.926 39.613C53.2058 39.249 53.513 38.907 53.845 38.59L54.013 38.428C57.6098 34.9966 63.3072 35.1307 66.7385 38.7275C70.1699 42.3242 70.0358 48.0216 66.439 51.453L66.269 51.616C65.9378 51.9324 65.5828 52.223 65.207 52.485L53.3 60.796C51.018 60.927 48.583 60.996 46 60.996C45.21 61 44.438 60.99 43.676 60.978Z" fill="#1DBF73"/>
<path d="M68.186 37.3469C68.419 37.5909 68.634 37.8469 68.84 38.1049L73.94 33.2369C74.2074 32.9925 74.3217 32.6225 74.2387 32.2698C74.1557 31.9171 73.8885 31.6369 73.5401 31.5373C73.1918 31.4377 72.8168 31.5344 72.56 31.7899L70.535 33.7229L67.46 36.6579C67.708 36.8759 67.953 37.0989 68.186 37.3469Z" fill="#1DBF73"/>
<path d="M73.293 36.6188L69.948 39.8118C70.1 40.1005 70.2377 40.3942 70.361 40.6928L74.535 38.1718C74.7435 38.0466 74.8837 37.8333 74.916 37.5923C74.9483 37.3512 74.8692 37.1085 74.701 36.9328L74.428 36.6468C74.2813 36.4923 74.079 36.4027 73.866 36.3978C73.6535 36.3939 73.4478 36.4732 73.293 36.6188Z" fill="#1DBF73"/>
<path d="M69.0071 51.5479C68.6497 52.0302 68.2534 52.4824 67.8221 52.8999L67.6521 53.0619C67.2466 53.4486 66.812 53.8037 66.3521 54.1239L57.2161 60.4999C68.4441 59.4479 75.0001 56.9309 75.0001 54.9999C75.0001 54.1829 73.4091 52.8119 69.0071 51.5479Z" fill="#1DBF73"/>
<path d="M43.4251 29.5999C42.7709 31.4461 42.3402 33.3641 42.1421 35.3129L47.3941 32.6869L43.4251 29.5999Z" fill="#1DBF73"/>
<path d="M47.4029 43.5169L51.3449 38.3929C51.6864 37.9494 52.0612 37.5325 52.4659 37.1459L52.6349 36.9839C54.5449 35.1617 57.049 34.091 59.6859 33.9689C59.4477 32.3996 59.0513 30.8584 58.5029 29.3689L42.0109 37.6129C42.0109 37.7129 42.0039 37.7989 42.0029 37.8959C44.2958 39.2244 46.1674 41.1726 47.4029 43.5169Z" fill="#1DBF73"/>
<path d="M27.7631 59.561C23.7967 56.5655 22.0907 51.4327 23.4747 46.6588C24.8587 41.8849 29.0455 38.4605 33.9991 38.051C33.9571 33.165 33.6431 28 30.9991 28V26C35.5091 26 35.9501 32.049 35.9991 38.05C41.4178 38.4968 45.8579 42.5332 46.8175 47.885C47.7771 53.2367 45.016 58.5644 40.0901 60.866C35.9569 60.7021 31.839 60.2662 27.7631 59.561Z" fill="#1DBF73"/>
<path d="M24.12 58.78C22.5755 56.8578 21.5633 54.5635 21.185 52.127C18.126 53.227 17 54.337 17 55C17 56.2 19.526 57.62 24.12 58.78Z" fill="#1DBF73"/>
<path d="M29.0001 36H33.9001C33.4217 33.6736 31.3752 32.003 29.0001 32H24.1001C24.5782 34.3266 26.6249 35.9974 29.0001 36Z" fill="#1DBF73"/>
</svg>
