<svg width="332" height="249" viewBox="0 0 332 249" fill="none" xmlns="http://www.w3.org/2000/svg">
<path opacity="0.15" d="M18.0417 211.717C2.16346 184.503 -6.46742 86.064 5.82619 55.066C22.4728 13.1079 259.257 -20.3887 298.255 14.6757C339.159 51.4434 325.999 220.113 301.06 239.763C276.121 259.413 37.4283 244.947 18.0417 211.717Z" fill="#DFDFDF"/>
<path d="M29.3744 0.942483L30.5766 4.07925C30.728 4.46972 31.0367 4.77845 31.4272 4.92982L34.564 6.13203C35.1248 6.35687 35.4924 6.90032 35.4924 7.50455C35.4924 8.10878 35.1248 8.65223 34.564 8.87708L31.4272 10.0793C31.0351 10.2282 30.7255 10.5378 30.5766 10.9299L29.3744 14.0666C29.1466 14.6241 28.6041 14.9884 28.0019 14.9884C27.3996 14.9884 26.8572 14.6241 26.6294 14.0666L25.4271 10.9299C25.277 10.5386 24.9678 10.2295 24.5766 10.0793L21.4398 8.87708C20.879 8.65223 20.5114 8.10878 20.5114 7.50455C20.5114 6.90032 20.879 6.35687 21.4398 6.13203L24.5766 4.92982C24.9662 4.77708 25.2744 4.46883 25.4271 4.07925L26.6294 0.942483C26.8572 0.38499 27.3996 0.0206985 28.0019 0.0206985C28.6041 0.0206985 29.1466 0.38499 29.3744 0.942483Z" fill="#DFDFDF"/>
<path d="M325.882 227.986L327.084 231.123C327.233 231.515 327.543 231.825 327.935 231.973L331.071 233.176C331.632 233.4 332 233.944 332 234.548C332 235.152 331.632 235.696 331.071 235.921L327.935 237.123C327.544 237.274 327.235 237.583 327.084 237.973L325.882 241.11C325.655 241.669 325.112 242.034 324.509 242.034C323.907 242.034 323.364 241.669 323.137 241.11L321.935 237.973C321.782 237.584 321.474 237.276 321.084 237.123L317.947 235.921C317.386 235.696 317.019 235.152 317.019 234.548C317.019 233.944 317.386 233.4 317.947 233.176L321.084 231.973C321.475 231.823 321.785 231.514 321.935 231.123L323.137 227.986C323.365 227.429 323.907 227.064 324.509 227.064C325.112 227.064 325.654 227.429 325.882 227.986Z" fill="#DFDFDF"/>
<path d="M260.265 217.211L262.128 222.066C262.361 222.672 262.839 223.151 263.445 223.384L268.3 225.246C269.188 225.586 269.775 226.438 269.775 227.389C269.775 228.34 269.188 229.192 268.3 229.532L263.445 231.394C262.839 231.627 262.361 232.106 262.128 232.712L260.265 237.567C259.924 238.452 259.073 239.036 258.124 239.036C257.175 239.036 256.324 238.452 255.983 237.567L254.117 232.712C253.885 232.105 253.406 231.626 252.799 231.394L247.945 229.532C247.06 229.189 246.477 228.338 246.477 227.389C246.477 226.44 247.06 225.589 247.945 225.246L252.799 223.403C253.406 223.17 253.885 222.691 254.117 222.085L255.983 217.23C256.32 216.343 257.168 215.755 258.117 215.75C259.066 215.746 259.92 216.326 260.265 217.21V217.211Z" fill="#DFDFDF"/>
<path d="M270.692 15.9611L271.895 19.0979C272.043 19.49 272.353 19.7996 272.745 19.9484L275.882 21.1506C276.452 21.3722 276.828 21.9211 276.828 22.5327C276.828 23.1443 276.452 23.6932 275.882 23.9147L272.745 25.1169C272.353 25.2658 272.043 25.5754 271.895 25.9675L270.692 29.1043C270.464 29.6618 269.922 30.0261 269.32 30.0261C268.718 30.0261 268.175 29.6618 267.947 29.1043L266.745 25.9675C266.596 25.5754 266.287 25.2658 265.895 25.1169L262.758 23.9147C262.188 23.6932 261.812 23.1443 261.812 22.5327C261.812 21.9211 262.188 21.3722 262.758 21.1506L265.895 19.9484C266.287 19.7996 266.596 19.49 266.745 19.0979L267.947 15.9611C268.175 15.4036 268.718 15.0393 269.32 15.0393C269.922 15.0393 270.464 15.4036 270.692 15.9611Z" fill="#DFDFDF"/>
<path d="M79.5988 54.1013L80.801 57.238C80.9499 57.6301 81.2595 57.9397 81.6516 58.0886L84.7884 59.2908C85.3492 59.5156 85.7168 60.0591 85.7168 60.6633C85.7168 61.2676 85.3492 61.811 84.7884 62.0358L81.6516 63.2381C81.2611 63.3894 80.9524 63.6982 80.801 64.0886L79.5988 67.2254C79.3773 67.7955 78.8284 68.1711 78.2168 68.1711C77.6051 68.1711 77.0563 67.7955 76.8347 67.2254L75.6325 64.0886C75.4812 63.6982 75.1724 63.3894 74.782 63.2381L71.6452 62.0358C71.0843 61.811 70.7167 61.2676 70.7167 60.6633C70.7167 60.0591 71.0843 59.5156 71.6452 59.2908L74.782 58.0886C75.174 57.9397 75.4836 57.6301 75.6325 57.238L76.8347 54.1013C77.0563 53.5312 77.6051 53.1556 78.2168 53.1556C78.8284 53.1556 79.3773 53.5312 79.5988 54.1013Z" fill="#DFDFDF"/>
<path d="M21.2806 40.0194C21.2806 40.0194 101.668 10.0172 168.678 97.5341C216.84 160.441 203.394 202.341 314.377 211.945" stroke="#DFDFDF"/>
<path d="M0.575521 84.2878C0.575521 84.2878 117.476 61.546 104.727 129.634C93.9072 187.435 83.6693 227.857 128.17 242.723" stroke="#DFDFDF"/>
<path d="M193.001 0.978545C193.001 0.978545 233.906 10.4961 252.681 73.6612C268.187 125.851 324.164 105.538 324.164 105.538" stroke="#DFDFDF"/>
</svg>
