<svg width="49" height="50" viewBox="0 0 49 50" fill="none" xmlns="http://www.w3.org/2000/svg">
<path d="M45.8698 29.426C45.8698 29.426 50.7541 24.0438 47.5252 18.4615C44.2963 12.8793 43.4357 14.8943 43.862 10.018C44.2882 5.14177 37.1304 8.58181 34.8407 3.99644C32.5511 -0.58892 26.2497 -1.4464 22.0249 2.56427C17.8001 6.57495 12.4926 3.85302 9.34043 7.29205C6.18824 10.7311 1.75943 21.844 19.511 32.1863C37.2627 42.5287 45.8698 29.426 45.8698 29.426Z" fill="#DFDFDF"/>
<path d="M36.9122 44.1325C36.9122 44.1325 48.5918 41.5187 47.4464 25.981C46.3011 10.4432 24.0964 4.16513 16.3993 11.9481C3.50773 24.9841 13.6895 49.742 36.9122 44.1325Z" fill="#DFDFDF"/>
<path d="M28.6929 48.9684C26.3942 47.6079 25.4771 46.5141 18.1708 47.0888C10.8645 47.6634 4.73791 45.094 4.30866 39.9309C4.30866 39.9309 -1.38568 33.6023 0.31818 27.6888C2.02204 21.7753 4.30866 21.9874 3.43401 17.1546C2.55935 12.3218 10.8473 13.3924 12.5633 9.6332C14.2793 5.87401 20.208 6.7325 22.2431 11.3502C24.2782 15.9679 32.7611 10.9876 34.3731 18.3646C35.985 25.7416 42.756 22.754 40.8209 30.3663C38.8857 37.9786 43.6135 39.1765 41.6784 41.754C39.7432 44.3315 35.0185 45.188 34.3721 48.1977C33.7257 51.2075 29.9291 49.7026 28.6929 48.9684Z" fill="#DFDFDF"/>
<path d="M4.3077 39.9309C4.3077 39.9309 3.36235 27.811 18.4052 17.494" stroke="#DFDFDF" stroke-width="2" stroke-linecap="round" stroke-linejoin="round"/>
<path d="M5.33488 33.671C9.77442 32.6203 14.3979 32.6203 18.8375 33.671C26.4306 35.4032 29.1394 32.9014 29.1394 32.9014" stroke="#DFDFDF" stroke-width="2" stroke-linecap="round" stroke-linejoin="round"/>
<path d="M6.78721 30.1633C5.72679 27.0195 5.23498 23.712 5.33484 20.3957" stroke="#DFDFDF" stroke-width="2" stroke-linecap="round" stroke-linejoin="round"/>
<path d="M10.303 24.7993C10.303 24.7993 13.7501 24.9427 21.0766 22.9399" stroke="#DFDFDF" stroke-width="2" stroke-linecap="round" stroke-linejoin="round"/>
<path d="M13.8814 21.0542C13.8814 21.0542 13.6542 16.3497 13.8814 13.4126" stroke="#DFDFDF" stroke-width="2" stroke-linecap="round" stroke-linejoin="round"/>
</svg>
