<svg width="237" height="35" viewBox="0 0 237 35" fill="none" xmlns="http://www.w3.org/2000/svg">
<path d="M12.9348 31.0253C12.4768 32.8366 9.34937 33.8717 7.73416 34.3258L6.59702 34.6518C4.06569 35.3679 3.3186 32.1085 2.68952 30.4343C2.31047 29.4601 2.00743 28.471 1.71939 27.4749C0.972039 24.8916 0.408558 22.2587 0.033173 19.5959C-0.126193 18.682 0.298327 17.7652 1.09831 17.2956C1.57132 17.0186 2.08204 16.8117 2.61451 16.6815C3.09157 16.5485 3.60763 16.4315 4.1307 16.3024C5.19984 16.0024 6.28298 15.7644 7.43113 15.4533C8.26123 15.2333 9.39038 15.2823 9.64441 16.2344C10.0915 17.9397 6.15796 18.6938 4.96381 19.1108C4.63976 19.2018 4.42637 19.5106 4.45574 19.8459C4.59958 20.9024 4.79686 21.9508 5.04682 22.9873C5.08235 23.1358 5.17772 23.263 5.31031 23.3388C5.4429 23.4146 5.60091 23.4321 5.74691 23.3874L7.11508 23.0083C7.63815 22.8643 8.15322 22.6713 8.70329 22.5233C9.5714 22.2882 10.7536 22.3752 11.0186 23.3794C11.3976 24.7585 9.44939 25.3796 8.43025 25.6537L7.46413 25.9147C6.94506 26.0587 5.81892 26.1567 6.03495 26.9308C6.385 28.1372 6.79999 29.3237 7.27811 30.4853L7.32011 30.6373C7.41112 30.9633 7.45313 31.3954 7.91519 31.2774C8.94632 30.9933 9.5634 29.9092 10.5985 29.6292C11.3756 29.4211 12.7358 29.5422 12.9748 30.4443C13.015 30.638 13.0011 30.839 12.9348 31.0253Z" fill="#DFDFDF"/>
<path d="M27.4897 28.8811C26.6366 28.502 26.1106 27.3879 25.5945 26.6528C24.8364 25.5526 20.7099 19.0728 19.9098 18.9368C19.8037 18.9638 19.8187 19.1448 19.8097 19.2288C19.9514 21.6044 20.3259 23.9603 20.9279 26.2627C21.3369 27.9529 22.012 29.5942 19.6127 30.1892C19.0907 30.4164 18.4934 30.3915 17.9921 30.1216C17.4909 29.8518 17.1412 29.3669 17.0434 28.8061C16.9224 28.329 16.8914 27.8439 16.7894 27.3699C15.9669 23.8572 15.4847 20.2736 15.3492 16.6685C15.3492 15.6834 15.2582 14.8193 16.2403 14.2012C16.4993 14.0267 16.7866 13.8984 17.0894 13.8221C17.7223 13.6901 18.3771 13.7045 19.0036 13.8641C23.5932 14.9213 26.1776 20.465 26.7156 20.64C26.8156 20.591 26.7766 20.416 26.7646 20.363C26.6246 18.1387 26.2796 15.9134 25.9765 13.7381C25.8475 12.817 25.3555 11.5928 26.0766 10.7707C26.4693 10.3585 26.9807 10.0788 27.5397 9.97063C28.8659 9.68259 29.84 10.0086 30.1131 11.3008C30.3021 12.1879 30.3131 13.101 30.4311 13.9911C30.9574 17.5509 31.1769 21.1492 31.0872 24.7465C31.1469 25.7787 31.0419 26.8138 30.7762 27.8129C30.4936 28.4484 29.9088 28.8978 29.222 29.0071C28.6457 29.1481 28.0396 29.104 27.4897 28.8811Z" fill="#DFDFDF"/>
<path fill-rule="evenodd" clip-rule="evenodd" d="M40.8085 7.25929C41.0085 8.32942 42.3617 8.53045 43.3088 8.35943V8.36443C44.2559 8.18941 45.4501 7.53232 45.265 6.44818C45.08 5.36404 43.7268 5.18602 42.7717 5.36404C41.8166 5.54206 40.6084 6.18915 40.8085 7.25929ZM47.1553 12.0278C46.8269 11.1828 46.5149 10.3801 45.4541 10.2167C45.083 10.1494 44.7028 10.1501 44.3319 10.2187C43.3318 10.3977 42.2827 11.0638 42.4827 12.1329C42.5912 12.5582 42.7409 12.9719 42.9297 13.3681C43.68 15.0417 44.2137 16.8041 44.5179 18.6127C44.7709 19.8607 44.8017 21.1435 44.609 22.4022C44.4769 23.1793 43.6618 24.8696 42.8017 25.0326C42.1673 25.152 41.8893 24.6384 41.568 24.0447C41.1249 23.2261 40.5994 22.2551 38.9432 22.5803C38.0791 22.7503 36.807 23.4284 37.007 24.4445C37.2694 25.4242 37.8425 26.2924 38.6402 26.9188C39.9422 27.9434 41.6339 28.3326 43.2528 27.98C44.6946 27.72 46.0193 27.0165 47.0423 25.9677C47.3376 25.7072 47.5738 25.3867 47.7354 25.0276C49.3426 23.0603 49.2236 20.245 48.8235 17.9177C48.5236 15.9341 47.9787 13.9953 47.2013 12.1459C47.1859 12.1065 47.1706 12.0671 47.1553 12.0278Z" fill="#DFDFDF"/>
<path fill-rule="evenodd" clip-rule="evenodd" d="M59.5979 20.779C63.5674 20.1689 67.2529 16.6935 66.7678 12.555C66.3287 8.80648 62.3302 6.74521 58.7298 7.26028C57.5933 7.36898 56.4781 7.63837 55.4173 8.06038C52.8078 9.41694 51.4305 12.3535 52.0559 15.2273C52.2315 17.0044 53.1528 18.6235 54.591 19.6822C56.0291 20.7408 57.8489 21.1394 59.5979 20.779ZM58.9158 10.2737C61.1211 9.94463 62.2692 11.7139 62.4932 13.3551V13.3511C62.6605 15.5613 61.1224 17.5373 58.9388 17.9177C57.5176 18.1257 56.5205 15.5263 56.3805 14.6052C56.0354 12.3239 56.3845 10.6527 58.9158 10.2737Z" fill="#DFDFDF"/>
<path d="M77.0682 7.76136C77.3242 6.41529 77.6582 5.08522 78.0683 3.77784C78.3684 2.8862 79.1866 2.2715 80.1266 2.23164C80.9487 2.15563 82.3589 2.49668 82.4419 3.4558C82.4581 3.59644 82.4427 3.73892 82.3969 3.87285C81.9894 5.08389 81.6429 6.31459 81.3587 7.56033C80.6426 11.3118 80.1806 15.1403 79.1644 18.8308C78.7854 20.0399 78.4064 20.805 77.0152 20.9491C76.2001 21.0361 74.9269 20.756 74.8149 19.7489C74.884 18.7924 75.1065 17.8533 75.474 16.9675C75.603 16.4065 76.3421 12.704 76.3081 12.3669C76.3081 12.3669 76.3081 12.3139 76.2781 12.3179C74.1978 11.2838 71.4915 8.52845 69.9913 6.75123C69.5981 6.36907 69.3143 5.88876 69.1692 5.36005C69.0631 4.45993 70.3403 3.81385 71.1324 3.72284C71.5288 3.68471 71.9289 3.72862 72.3076 3.85185C73.2247 4.14389 73.7438 5.10601 74.3348 5.7471C75.0223 6.51596 75.7572 7.24113 76.5351 7.91838C76.7721 8.1024 76.9622 8.0834 77.0682 7.76136Z" fill="#DFDFDF"/>
<path d="M105.754 0.575423C106.633 0.545419 107.88 0.954472 107.906 1.9356C107.932 2.78871 106.72 3.4738 106.193 4.06187C104.908 5.55506 103.802 7.23028 102.676 8.80648C102.422 9.15553 101.846 9.56458 101.865 10.0346C101.948 11.9299 101.922 13.7941 102.001 15.6854C102.006 16.0574 102.04 16.4286 102.101 16.7955C102.167 17.2764 102.196 17.7615 102.188 18.2467C102.23 19.2278 101.088 19.6149 100.293 19.6529C98.1928 19.7529 97.8868 17.9587 97.7998 16.3024C97.6998 14.3622 97.6708 12.3879 97.5688 10.4477C97.5323 10.0696 97.3922 9.70899 97.1637 9.40556C96.0006 7.85936 92.7331 3.43279 92.6161 1.62156C92.5441 0.533417 93.7303 0.0713578 94.6664 0.0143505C95.2931 -0.049115 95.923 0.0991181 96.4556 0.435405C96.8295 0.806353 97.0852 1.2796 97.1907 1.79558C97.4147 2.37966 99.207 5.96412 99.749 5.96412C100.603 5.91211 102.482 0.681436 105.754 0.575423Z" fill="#DFDFDF"/>
<path fill-rule="evenodd" clip-rule="evenodd" d="M117.744 17.1946C122.156 17.0845 126.241 13.101 126.29 8.80748C126.335 5.15801 122.337 2.67569 118.892 2.67168C114.537 2.74241 111.058 6.3175 111.104 10.6727C111.098 12.4248 111.8 14.1052 113.05 15.333C114.3 16.5608 115.992 17.232 117.744 17.1946ZM117.979 5.9161C120.106 4.92698 121.872 7.38229 121.872 8.89849H121.871C121.864 10.7627 119.988 14.1772 117.805 14.1892C116.236 14.1972 115.452 11.9539 115.452 10.7067C115.436 9.05051 116.327 6.6742 117.979 5.9161Z" fill="#DFDFDF"/>
<path d="M144.754 8.31042C143.678 12.835 141.07 17.0265 135.935 16.8675C133.771 16.8544 131.802 15.6136 130.856 13.6671C129.696 11.2038 129.973 8.04639 130.038 5.40205C130.072 3.88585 130.61 2.97674 132.414 3.02574C133.972 3.07075 134.632 3.78384 134.582 5.24703C134.559 5.8421 134.43 6.46318 134.411 7.08526C134.358 8.63946 133.998 13.7861 136.397 13.8731C139.031 13.9732 140.69 7.83236 140.785 5.86511C140.868 4.15589 140.808 2.51068 143.215 2.63969C144.5 2.7077 145.455 3.28378 145.379 4.60695C145.275 5.85682 145.066 7.09571 144.754 8.31042Z" fill="#DFDFDF"/>
<path fill-rule="evenodd" clip-rule="evenodd" d="M158.431 14.9997C158.07 14.3788 157.711 13.7593 157.235 13.2111C157.125 13.1198 157.062 12.9838 157.064 12.841C157.093 12.7116 157.182 12.6035 157.303 12.549C159.175 11.4309 160.424 9.50784 160.683 7.34229C161.005 3.95986 158.276 1.61456 154.865 1.34152C153.539 1.23551 150.508 1.55755 149.75 2.7247C149.61 2.95302 149.535 3.21515 149.534 3.4828C149.392 5.66812 149.331 7.69807 149.267 9.77118C149.234 10.867 149.201 11.9748 149.155 13.124C149.114 14.172 149.01 15.5184 148.917 16.7208C148.877 17.2318 148.839 17.7167 148.809 18.1417C148.714 18.6866 148.874 19.2453 149.244 19.6567C149.614 20.0681 150.153 20.2865 150.705 20.249C151.228 20.2944 151.754 20.1904 152.221 19.9489C152.77 19.5965 153.091 18.9786 153.062 18.3267C153.168 17.4741 153.232 16.6008 153.296 15.7369C153.315 15.4799 153.334 15.2238 153.354 14.9693L153.354 14.966C153.361 14.8841 153.378 14.6962 153.509 14.6962C153.674 14.7079 153.95 15.1524 154.335 15.7713C155.209 17.1761 156.642 19.4797 158.595 19.6609C159.535 19.7479 161.218 19.2028 160.869 18.0277C160.731 17.5331 160.381 17.2864 160.019 17.032C159.783 16.8656 159.542 16.6959 159.353 16.4515C159.005 15.9902 158.718 15.4945 158.431 14.9997ZM153.794 4.65395C153.832 4.21389 154.328 4.19889 154.707 4.23289L154.706 4.2449C156.177 4.36491 156.523 6.13614 156.423 7.26528C156.289 8.66618 155.41 9.88579 154.123 10.4567C154.054 10.4808 153.981 10.4924 153.907 10.4907C153.809 10.4804 153.72 10.4303 153.66 10.3523C153.6 10.2743 153.574 10.175 153.589 10.0776C153.597 8.9065 153.639 7.71234 153.703 6.54919V6.54918C153.741 5.79109 153.76 5.41204 153.794 4.65395Z" fill="#DFDFDF"/>
<path d="M190.197 8.47343C190.803 12.506 190.864 16.5985 191.197 20.658C191.288 21.5411 191.788 21.7581 191.597 22.8583C191.366 24.1885 190.437 24.6015 189.161 24.3745C187.754 24.1354 187.447 23.5634 187.265 22.3742C186.865 19.5509 186.833 16.1854 186.446 13.4231C186.401 13.18 186.234 13.023 186.067 13.3401C185.286 14.4772 184.835 15.6404 184.017 16.9025C183.579 17.488 182.818 17.7314 182.122 17.5086C181.97 17.4901 181.821 17.4583 181.675 17.4136C180.408 17.0345 180.158 15.8564 179.753 14.7792C179.298 13.6161 178.946 12.3879 178.484 11.1978C178.404 10.9778 178.169 10.8977 178.105 11.1978C177.98 11.7359 177.805 12.3879 177.669 12.971C177.332 14.4412 176.969 15.7564 176.635 17.1966C176.397 18.2585 176.076 19.3001 175.676 20.312C175.441 20.907 175.244 21.3541 174.576 21.5781C174.184 21.7034 173.769 21.7376 173.363 21.6781C172.471 21.5641 171.316 21.004 171.445 19.9729C171.464 19.8431 171.498 19.7159 171.545 19.5939C171.906 18.7243 172.188 17.8239 172.386 16.9035C173.259 13.049 174.05 8.81248 176.21 5.37103C176.741 4.80009 177.531 4.54853 178.294 4.70795C179.098 4.8161 179.814 5.2684 180.257 5.94711C181.234 7.56656 182.014 9.29666 182.581 11.1008C182.672 11.4008 182.881 11.4568 183.093 11.1768C183.783 10.2297 185.662 7.4763 186.572 6.98524C187.036 6.73702 187.568 6.64546 188.088 6.72421C189.075 6.84013 189.901 7.52539 190.197 8.47343Z" fill="#DFDFDF"/>
<path d="M205.038 12.0729C204.337 11.9329 203.677 11.7469 202.976 11.6108C202.825 11.5597 202.66 11.5756 202.521 11.6545C202.383 11.7335 202.285 11.8679 202.252 12.0239C202.112 12.517 202.028 13.04 201.903 13.5401C201.763 14.1202 201.592 14.7222 201.479 15.3063C201.437 15.5063 201.479 15.7304 201.718 15.7764C202.036 15.8404 203.366 15.2763 204.405 15.4883C205.285 15.6664 206.365 16.3635 206.16 17.3526C205.86 18.8008 202.37 18.8688 201.127 18.9628C200.856 18.9907 200.637 19.1948 200.589 19.4629C200.322 20.9374 200.134 22.425 200.024 23.9194C199.994 24.2035 199.824 24.5145 200.244 24.5975C200.816 24.7075 201.444 24.6735 202.021 24.7865C202.904 24.9646 204.101 25.6046 203.885 26.6818C203.567 28.232 200.816 27.7279 199.717 27.5159C198.618 27.3039 196.431 26.8868 195.896 25.8367C195.723 25.1961 195.7 24.5244 195.828 23.8734C195.937 21.9439 196.164 20.0227 196.506 18.1207C196.996 15.4683 197.644 12.853 198.152 10.2267C198.395 9.01351 198.652 7.95237 200.126 8.1654C201.816 8.40043 202.252 8.51445 204.495 8.9575C205.264 9.05257 206.008 9.28998 206.69 9.65759C207.213 9.94501 207.512 10.5191 207.448 11.1128C207.27 12.0729 205.895 12.2249 205.038 12.0729Z" fill="#DFDFDF"/>
<path fill-rule="evenodd" clip-rule="evenodd" d="M222.121 22.7086C222.247 21.4193 222.372 20.1311 222.459 18.8428C222.461 18.8106 222.463 18.7777 222.466 18.7442C222.598 16.8113 222.874 12.7955 220.334 12.1869C219.984 12.1112 219.625 12.0896 219.268 12.1229C216.043 13.3553 213.983 16.9645 212.285 19.9378C212.109 20.2462 211.937 20.5477 211.768 20.839C211.409 21.6596 210.894 22.4023 210.251 23.0253C209.863 23.336 209.83 23.5088 209.765 23.8416C209.752 23.9116 209.737 23.9886 209.717 24.0755C209.601 24.6148 209.158 25.1336 208.732 25.632C208.338 26.093 207.959 26.5366 207.868 26.9628C207.645 28.005 208.812 28.7331 209.691 28.9261C211.156 29.251 211.996 28.2005 212.701 27.3184C213.213 26.6775 213.655 26.1255 214.213 26.2547C215.077 26.4481 215.586 26.5696 216.324 26.7459C216.483 26.7839 216.653 26.8244 216.839 26.8688C217.538 27.0338 217.48 27.8089 217.413 28.719C217.317 30.0045 217.201 31.5595 219.169 32.0455C220.117 32.2805 221.409 32.1255 221.682 31.0454C221.761 30.2643 221.761 29.4771 221.682 28.696C221.733 26.6944 221.927 24.7002 222.121 22.7086ZM215.501 23.0153C215.707 22.5719 215.953 22.1481 216.236 21.7492C216.728 20.8879 217.281 20.0624 217.889 19.2788C217.881 20.6722 217.794 22.064 217.627 23.4474C217.603 23.5819 217.522 23.6998 217.406 23.772C217.29 23.8441 217.149 23.8639 217.017 23.8264L215.88 23.5534C215.757 23.5361 215.646 23.4684 215.574 23.3665C215.502 23.2645 215.476 23.1374 215.501 23.0153Z" fill="#DFDFDF"/>
<path d="M235.276 30.5833C236.129 30.8263 237.236 31.6334 236.956 32.6035C236.577 33.8507 234.886 33.6037 233.924 33.3236C232.408 32.8876 230.813 32.4785 229.24 32.1865C228.584 32.0655 227.901 32.0425 227.257 31.8714C226.279 31.6104 225.415 30.9273 225.696 29.8512C225.813 29.4637 225.956 29.0844 226.123 28.716C226.826 26.9351 227.406 25.1079 227.858 23.2473C228.373 21.2691 228.787 19.2608 229.307 17.2786C229.629 16.0504 230.736 15.7624 231.937 16.0694C233.381 16.4485 233.964 17.2596 233.593 18.6127C233.036 20.663 232.547 22.7583 231.993 24.8135C231.614 26.2137 231.08 27.5499 230.693 28.9481C230.625 29.1981 230.867 29.4251 231.102 29.4901C232.49 29.8862 233.881 30.1852 235.276 30.5833Z" fill="#DFDFDF"/>
</svg>
