<svg width="96" height="126" viewBox="0 0 96 126" fill="none" xmlns="http://www.w3.org/2000/svg">
<rect x="7.71729" y="23.7725" width="88.2826" height="101.624" rx="13.9" fill="#DFDFDF"/>
<path d="M7.71729 97.4483V29.2346C7.71729 26.2202 10.161 23.7765 13.1754 23.7765H29.7212" stroke="#DFDFDF" stroke-width="2" stroke-linecap="round" stroke-linejoin="round"/>
<path d="M7.71729 104.493H95.9939V119.942C95.9939 122.956 93.5502 125.4 90.5358 125.4H13.1844C11.7368 125.4 10.3486 124.825 9.32496 123.801C8.30137 122.778 7.72632 121.389 7.72632 119.942V104.493H7.71729Z" fill="#DFDFDF"/>
<circle cx="19.6458" cy="114.945" r="5.17521" fill="#DFDFDF"/>
<circle cx="19.6459" cy="113.704" r="1.84578" fill="#DFDFDF"/>
<path d="M19.6448 120.119C21.0542 120.122 22.4028 119.545 23.3755 118.525C22.982 116.782 21.4329 115.543 19.6453 115.543C17.8577 115.543 16.3086 116.782 15.9151 118.525C16.8883 119.544 18.236 120.12 19.6448 120.119Z" fill="#DFDFDF"/>
<rect x="30.7617" y="112.209" width="46.2068" height="1.84578" rx="0.92" fill="#DFDFDF"/>
<rect x="30.7617" y="116.375" width="27.2775" height="1.84578" rx="0.92" fill="#DFDFDF"/>
<rect x="25.1741" y="32.4818" width="51.9939" height="35.2876" rx="16.39" fill="#DFDFDF"/>
<path d="M86.8904 57.2614C86.1225 50.7617 82.1751 45.0684 76.3574 42.0698L71.4881 62.3333L77.7979 83.7003L78.462 104.51H89.2468C89.2468 104.51 87.6528 62.7115 86.8904 57.2614Z" fill="#DFDFDF"/>
<path d="M24.3696 104.493L25.473 42.0899L35.7954 38.2027L67.2579 38.3712L76.4768 42.0899L78.4711 104.493H24.3696Z" fill="#DFDFDF"/>
<path d="M25.485 42.1089L24.6524 88.3859C24.6524 88.3859 36.2708 62.9703 32.5562 39.4225L25.485 42.1089Z" fill="#DFDFDF"/>
<path d="M32.6826 92.0193L16.9052 74.8566L25.1751 65.4832L25.486 42.11C20.1774 44.5837 5.4613 64.8362 2.5241 67.8596C-1.11712 71.9541 -0.779157 78.2178 3.28147 81.8966C7.49467 85.9453 27.5706 101.38 27.5706 101.38C28.5853 100.271 29.5183 99.0895 30.3623 97.8456C31.2514 95.9516 32.0262 94.006 32.6826 92.0193Z" fill="#DFDFDF"/>
<path d="M35.7913 38.2047C35.7913 38.2047 44.6571 36.2416 44.94 29.5897H59.7163C59.7163 29.5897 59.1977 36.2375 67.2589 38.3732C67.2579 38.3712 54.5401 51.077 35.7913 38.2047Z" fill="#DFDFDF"/>
<path d="M59.8998 31.5077C59.7526 30.8836 59.6905 30.2425 59.7152 29.6017H47.3976L44.9319 29.7081C44.893 30.4289 44.7435 31.1394 44.4885 31.8147C45.4736 33.9353 47.5983 37.1584 51.8195 37.1705C55.4324 37.1594 58.6565 34.9 59.8998 31.5077Z" fill="#DFDFDF"/>
<path d="M46.4558 6.77223C41.6739 8.97226 39.0453 14.1834 40.1179 19.3366C41.1542 24.3232 42.9448 30.0602 45.9361 32.867C50.9699 37.5818 59.7334 35.6547 61.6424 25.9874C62.2041 23.1606 62.6244 20.5845 62.9384 18.3585C63.6461 13.2782 60.842 8.35875 56.11 6.379C53.1859 5.15084 49.8803 5.20799 47.0005 6.53649L46.4558 6.77223Z" fill="#DFDFDF"/>
<path d="M43.032 28.6187C42.0964 25.2829 41.665 21.8259 41.752 18.3625C41.7999 17.0067 42.6438 15.8071 43.9037 15.304C48.994 13.3506 54.6326 13.3829 59.7002 15.3942C60.9956 15.8803 61.8711 17.0982 61.9192 18.4809C62.0108 21.8903 61.6649 25.2973 60.8899 28.6187C62.078 29.0628 63.415 28.6179 64.1 27.5503C65.6709 25.1939 66.5537 19.5834 66.028 13.5324C65.066 2.43965 53.2751 -1.34521 44.3341 2.89206C35.393 7.12934 35.4643 18.8802 39.6855 26.5251C40.3201 27.7953 41.6121 28.6036 43.032 28.6187Z" fill="#DFDFDF"/>
<path d="M63.9003 27.8172C62.852 27.8172 62.1528 26.3325 62.7738 24.5349C63.7398 21.7471 65.2044 14.6038 58.5415 12.0758C52.4224 9.75558 44.4734 10.7718 41.7008 14.361C37.8958 19.2764 43.4061 25.1037 40.9434 27.9546C41.5286 28.4357 42.2763 28.6735 43.0319 28.6187C42.0964 25.2829 41.6649 21.826 41.7519 18.3625C41.7998 17.0068 42.6438 15.8071 43.9037 15.304C48.9939 13.3506 54.6326 13.3829 59.7002 15.3942C60.9955 15.8803 61.8711 17.0982 61.9191 18.4809C62.0107 21.8903 61.6648 25.2973 60.8899 28.6187C61.9619 29.0153 63.1674 28.6943 63.9003 27.8172Z" fill="#DFDFDF"/>
<path opacity="0.8" d="M36.93 14.683C36.93 14.683 36.6672 0.33807 50.9911 0.00602941C66.0101 -0.347077 66.3632 14.9268 66.3632 14.9268L65.1063 13.7842C64.9181 13.6134 64.6694 13.5251 64.4156 13.5391C64.1619 13.553 63.9244 13.668 63.756 13.8584C63.5573 14.0909 63.2581 14.2123 62.9535 14.1842C62.649 14.1561 62.3771 13.9819 62.2243 13.717C59.9494 9.69333 55.6066 7.28927 50.989 7.4975C44.1727 7.60383 41.4833 11.9113 40.5804 14.0079C40.4663 14.2684 40.241 14.4638 39.9669 14.5398C39.6928 14.6159 39.3991 14.5646 39.167 14.4001L38.6484 14.035C38.2569 13.7569 37.7189 13.8178 37.3995 14.1764L36.93 14.683Z" fill="#DFDFDF"/>
<path d="M40.0677 5.02776C39.6022 5.64626 39.1897 6.30297 38.8348 6.99091L42.3368 11.2041C42.8503 10.6102 43.4299 10.0768 44.0642 9.61413L40.0677 5.02776Z" fill="#DFDFDF"/>
<path d="M45.1195 8.93902C45.5433 8.70282 45.9827 8.4957 46.4346 8.31907L41.8914 3.11678C41.5693 3.38762 41.2714 3.67452 40.9885 3.96443L45.1195 8.93902Z" fill="#DFDFDF"/>
<path d="M40.6294 21.1111C40.6294 21.1111 38.6031 14.3189 45.1365 11.9585C49.9776 10.2238 55.3126 10.5068 59.9429 12.7439" stroke="#DFDFDF" stroke-width="2" stroke-linecap="round" stroke-linejoin="round"/>
<rect x="65.2596" y="12.0758" width="1.74346" height="8.36722" rx="0.869" fill="#DFDFDF"/>
<rect x="36.314" y="12.0758" width="1.74346" height="8.36722" rx="0.869" fill="#DFDFDF"/>
<path fill-rule="evenodd" clip-rule="evenodd" d="M48.7209 19.9214C48.6788 20.01 48.6549 20.1063 48.6507 20.2043C48.6507 20.8082 49.5144 21.1463 50.015 21.1503C50.8268 21.1503 51.1807 20.662 51.4478 20.2934C51.6098 20.0699 51.74 19.8903 51.921 19.8903C52.1878 19.8903 52.243 20.436 52.243 20.6367C52.243 21.9402 51.3932 23.3511 50.7482 24.4218C50.3538 25.0766 50.0361 25.6041 50.0361 25.9022C50.0361 26.5061 50.8496 26.8481 51.3512 26.8481C51.969 26.8924 52.5473 26.5411 52.7927 25.9724C52.9404 25.6939 53.1068 25.3985 53.28 25.0909C54.0472 23.729 54.9485 22.1292 54.9485 20.7069C54.9728 19.9496 54.6787 19.2167 54.1377 18.6862C53.5967 18.1557 52.8582 17.876 52.1015 17.9151C50.6894 17.9036 49.3873 18.6763 48.7209 19.9214ZM51.4074 31.0212C51.9771 31.0212 52.7425 30.7383 52.7425 30.0632H52.7546C52.7546 29.4041 51.9761 29.1213 51.4074 29.1213C50.8386 29.1213 50.0531 29.3881 50.0531 30.0632C50.0531 30.7383 50.8376 31.0212 51.4074 31.0212Z" fill="#DFDFDF"/>
<path d="M35.7913 38.2027L40.2052 36.2707C43.1901 38.2478 46.5525 39.5847 50.0801 40.197C50.8505 40.2996 51.4764 40.8692 51.651 41.6264L52.2168 43.9818C52.2168 43.9818 44.622 44.8576 35.7913 38.2027Z" fill="#DFDFDF"/>
<path d="M52.2198 43.9698L53.1326 41.3556C53.3625 40.6998 53.9339 40.2232 54.6203 40.1147C56.5834 39.8007 60.6943 38.9109 63.6275 36.6709L67.2599 38.3712C67.2599 38.3712 63.0808 44.0721 52.2198 43.9698Z" fill="#DFDFDF"/>
<path d="M38.6582 40.1468C38.6582 40.1468 52.2207 48.7106 64.7259 40.3314" stroke="#DFDFDF" stroke-width="2" stroke-linecap="round" stroke-linejoin="round"/>
<path d="M24.9543 75.5357L25.174 58.7772" stroke="#DFDFDF" stroke-width="2" stroke-linecap="round" stroke-linejoin="round"/>
<path d="M52.2198 43.9708V103.751" stroke="#DFDFDF" stroke-width="2" stroke-linecap="round" stroke-linejoin="round"/>
<path d="M76.4737 42.1089L78.0126 90.31C78.0126 90.31 65.0359 62.1337 69.1739 39.1446L76.4737 42.1089Z" fill="#DFDFDF"/>
<path d="M32.6574 88.3869C32.7368 93.4924 30.5862 98.3788 26.7679 101.769" stroke="#DFDFDF" stroke-width="2" stroke-linecap="round" stroke-linejoin="round"/>
<path d="M69.7938 89.3921C69.7938 89.3921 68.6743 97.4252 74.5648 101.765" stroke="#DFDFDF" stroke-width="2" stroke-linecap="round" stroke-linejoin="round"/>
<path d="M10.4189 75.5357C12.3982 74.4352 14.7408 74.19 16.9052 74.8565" stroke="#DFDFDF" stroke-width="2" stroke-linecap="round" stroke-linejoin="round"/>
</svg>
