<svg width="375" height="745" viewBox="0 0 375 745" fill="none" xmlns="http://www.w3.org/2000/svg">
<path fill-rule="evenodd" clip-rule="evenodd" d="M13.2607 128.912C19.1315 134.256 25.7854 140.313 32.9299 146.952L32.941 146.954L86.8299 113.85L134.762 52.0054C130.991 49.447 128.039 47.4433 125.192 45.5077C87.2564 19.7363 66.8752 5.70161 59.1039 0H0.012016V116.747C0.420561 117.129 0.858145 117.539 1.31375 117.962L45.7731 79.411L30.3645 53.7057L34.8545 51.0131L49.7804 75.9283L51.6099 74.3422L57.6279 65.4884L45.8512 50.0678L50.0127 46.8916L60.727 60.9263L71.7467 44.7147L57.3455 33.9413L60.4817 29.7497L78.8863 43.5201L55.5551 77.8519L55.2978 78.0752L5.17791 121.533C7.69861 123.842 10.3849 126.295 13.2367 128.89L13.2607 128.912ZM292.949 295.828L262.429 243.101L300.156 213.345L308.509 144.707L310.07 143.422L313.625 123.737L304.613 122.109L301.654 138.485L270.684 163.965C268.782 159.367 266.71 153.994 264.847 148.837L263.809 145.95L261.122 147.432C260.822 147.595 227.237 166.136 191.764 185.858L158.72 136.893L87.8512 202.38C74.913 187.677 59.22 171.669 39.8742 153.44L93.0452 120.78L142.355 57.1553C166.178 73.3038 187.475 87.671 193.435 91.6903L193.778 91.9217L221.103 110.38L268.049 112.392L310.023 97.5201L333.689 100.882C330.721 117.861 331.887 129.473 337.143 135.396C351.262 151.299 361.835 189.034 362.993 193.285C362.39 204.397 360.377 215.387 357.002 225.992C354.309 234.713 350.425 243.022 345.46 250.682C340.068 259.034 332.888 266.083 324.438 271.32C315.558 276.709 304.965 284.955 292.952 295.829L292.949 295.828ZM297.196 306.185L295.35 300.672C307.524 289.585 318.224 281.217 327.15 275.799C366.781 251.744 368.195 195.412 368.235 193.026L368.241 192.664L368.148 192.315C367.69 190.578 356.733 149.588 341.053 131.924C339.042 129.66 337.835 125.885 337.465 120.704C337.179 114.31 337.653 107.905 338.877 101.623L346.657 102.724C343.58 119.972 344.711 131.747 350.018 137.722C361.747 150.932 371.051 179.292 374.508 190.872V208.575C373.688 213.813 372.563 218.998 371.138 224.104C369.444 230.23 367.236 236.203 364.537 241.958C357.844 256.083 348.684 266.744 337.314 273.645C326.317 280.322 312.819 291.27 297.197 306.185H297.196ZM196.07 296.398L251.052 338.246L251.06 338.241C264.104 323.799 277.225 310.385 289.003 299.449L258.281 246.378L195.557 295.85L196.07 296.398ZM299.012 311.638L332.857 412.683V412.672L337.484 409.833L358.366 401.933L367.226 389.129L367.718 388.838L374.498 384.821V270.568C369.427 267.216 364.916 264.235 361.564 262.02L359.422 260.605C354.09 267.592 347.512 273.533 340.021 278.128C328.852 284.909 315.052 296.183 299.012 311.638ZM47.3792 520.586L32.8518 514.81L42.3185 462.401L43.9296 430.759L45.3205 430.189C45.0424 429.516 44.6054 428.921 44.0468 428.455L45.9553 390.99L46.0354 390.589L45.9764 390.578L46.7924 374.538L82.407 380.535L83.2761 375.372L47.0608 369.273L49.0635 329.936C53.8048 331.062 62.931 332.54 83.939 335.593L85.1656 335.771L123.773 300.543L112.298 398.774L53.6906 487.835L47.3822 520.579L47.3792 520.586ZM52.3338 522.554L69.2564 529.277L69.2604 529.275C78.9353 514.503 85.7835 505.287 89.6136 501.893C92.0078 499.774 95.5846 496.564 99.69 492.865C107.142 479.567 115.581 464.911 123.592 451.055L123.599 451.042C140.307 422.148 159.24 389.405 160.571 382.031C161.362 377.654 160.565 370.693 158.202 361.343C155.25 350.287 151.609 339.427 147.302 328.826L139.619 343.415L130.642 393.116L116.687 401.627L58.6302 489.85L52.3338 522.554ZM179.461 609.198C180.778 611.615 183.866 616.784 188.643 624.56L297.5 509.85L272.867 481.451L247.966 476.951L210.194 411.373C208.867 412.689 207.546 413.992 206.263 415.25C209.697 423.026 211.748 428.593 212.358 431.797C212.769 433.947 212.716 437.227 212.195 441.823C211.707 446.129 210.803 451.623 209.431 458.615C206.747 472.302 202.452 490.766 197.528 511.728L230.492 517.682L229.56 522.836L196.328 516.828C191.35 538.028 186.612 558.441 183.358 575.153C178.108 602.088 179.048 608.021 179.461 609.198ZM250.447 744.995H250.45V745L250.447 744.995ZM226.64 707.425C237.868 725.19 247.628 740.563 250.447 744.995H0.00801069V655.618C2.98699 650.348 73.1837 526.338 91.8836 506.977C82.0124 525.101 75.7301 537.906 72.1132 547.282C44.6468 591.098 9.90849 652.577 8.25516 655.503L8.25368 655.506L8.25234 655.508L8.25206 655.509L8.25163 655.51L8.25109 655.511L8.242 655.527L12.8001 658.099C15.8281 652.741 43.1245 604.56 68.2851 563.418C67.8375 568.297 67.2628 573.298 66.664 578.419L66.6637 578.421C64.0403 600.935 61.5624 622.201 70.1526 634.579C79.6778 648.307 128.885 702.431 132.184 706.06L132.185 706.062L132.288 706.174L140.999 698.247L140.952 698.196C138.627 695.638 126.359 682.126 113.115 667.189C95.0709 646.84 83.5605 633.244 79.8305 627.868C73.7775 619.146 76.1106 599.136 78.3676 579.787C79.0865 573.612 79.8295 567.229 80.3152 561.106C80.8349 554.553 88.2257 538.284 102.908 511.368C103.857 510.223 104.88 509.142 105.971 508.131C115.807 499.397 162.964 456.973 197.261 423.984C198.736 427.209 199.916 430.56 200.789 433.997C202.09 440.814 193.096 479.09 185.863 509.869L185.851 509.921C170.724 574.299 164.135 605.624 169.057 614.716C170.527 617.434 174.294 623.72 180.254 633.402L138.172 677.749L141.97 681.354L183.098 638.011C194.921 657.124 211.737 683.825 223.759 702.859C220.362 706.575 218.38 708.681 217.868 709.118C217.899 709.093 217.928 709.072 217.951 709.056L217.982 709.034L220.967 713.34C221.377 713.055 223.287 711.064 226.64 707.425ZM251.557 744.995H374.508L374.511 744.991V672.004L366.42 664.754C363.758 667.833 354.326 678.731 344.661 689.695C320.323 717.306 319.004 717.692 317.84 718.033L316.371 713.008C316.219 713.052 316.072 713.114 315.934 713.192C319.11 710.99 345.511 680.961 362.521 661.266L309.985 614.191C285.837 641.421 253.194 678.132 234.869 698.386C243.103 711.426 252.148 725.7 260.326 738.579C260.57 738.96 260.7 739.166 260.71 739.179L251.557 744.995ZM231.973 693.799C214.165 665.593 200.542 643.849 191.483 629.173L253.623 563.685L306.084 610.696C273.802 647.08 246.789 677.37 231.973 693.8V693.799ZM313.458 610.272L374.508 664.978L374.511 664.977V593.566L362.51 584.812L362.217 584.476L300.945 513.815L282.52 533.232L334.706 586.296L333.084 588.124C329.611 592.048 322.447 600.137 313.458 610.272ZM0.00801069 645.015V593.313L30.1572 529.715L31.8986 520.066L66.3515 533.752C43.3368 569.441 12.2894 623.448 0.0100134 645.012L0.00801069 645.015ZM309.557 606.779L257.226 559.885L278.91 537.034L327.543 586.486L326.209 587.988L326.045 588.173C320.736 594.166 315.24 600.366 309.557 606.775V606.779ZM372.15 582.129L374.507 583.848L374.508 583.845V579.74L372.15 582.129ZM0.00700935 581.087V507.398L26.9349 518.096L25.1325 528.101L0.00700935 581.087ZM367.851 578.996L367.871 579.011H367.872L374.504 572.289V522.451L357.259 521.816L331.868 537.5L367.851 578.996ZM328.392 533.493L306.577 508.334L326.279 490.782L352.458 518.629L328.393 533.493H328.392ZM357.731 516.596L374.504 517.213L374.509 390.906L370.89 393.05L361.753 406.255L339.808 414.556L252.077 468.343L252.952 469.86L276.99 474.203L303.151 504.373L326.606 483.478L357.731 516.596ZM27.8822 512.839L0.00600802 501.765V468.682L32.6255 486.59L27.8832 512.837L27.8822 512.839ZM119.214 482.261C116.28 487.394 113.653 492.027 111.182 496.432L111.186 496.43C119.582 488.877 163.074 449.639 195.025 418.869C194.288 417.231 193.482 415.476 192.628 413.655C169.25 436.531 136.597 466.457 119.214 482.261ZM33.6048 481.155L0.00500668 462.71V453.348L35.7147 469.491L33.6058 481.154L33.6048 481.155ZM132.536 459.114C130.99 461.783 129.396 464.545 127.786 467.337L127.791 467.332C145.903 450.75 171.437 427.111 190.259 408.666C185.627 399.032 179.593 387.118 172.321 373.251C172.761 376.866 172.708 380.524 172.163 384.125C170.548 393.064 156.53 417.621 133.792 456.95L132.79 458.674L132.536 459.114ZM36.6709 464.183L0.166222 447.68L3.43959 439.391L37.9456 445.625L37.1315 461.646L36.6719 464.187L36.6709 464.183ZM249.453 463.809L249.455 463.812L249.451 463.811L249.453 463.809ZM328.271 415.487L249.453 463.809L215.931 405.606C224.319 397.095 229.643 391.158 231.752 387.956C235.795 381.835 244.883 370.371 255.47 358.038C264.489 347.532 278.641 331.658 294.847 315.69L328.271 415.487ZM277.754 399.415L273.315 402.19L293.954 435.177L298.393 432.4L277.754 399.414V399.415ZM5.3972 434.426L38.208 440.353H38.21L38.6676 431.367C34.5878 430.111 30.4044 429.222 26.1669 428.708C20.7527 427.907 14.4483 427.227 8.41323 426.794L5.3972 434.426ZM0.00200267 433.832V427.872L2.53238 427.43L0.00200267 433.832ZM24.3695 423.168C29.2942 423.717 34.1665 424.664 38.939 425.997L38.941 425.996L40.5251 394.829L15.5297 389.795L9.77504 421.655C12.713 421.887 18.5167 422.393 24.3695 423.168ZM0 422.56V392.189L10.1606 390.061L4.42891 421.789L0.00100134 422.561L0 422.56ZM203.962 410.179C203.189 408.503 202.353 406.719 201.477 404.879C210.789 395.499 216.643 389.025 218.879 385.636C223.43 378.743 234.2 365.318 246.303 351.434C253.328 343.377 260.522 335.468 267.697 327.924C275.808 319.388 283.694 311.533 291.128 304.574L293.019 310.221C264.765 337.806 235.754 372.412 227.391 385.08C224.802 388.999 216.919 397.444 203.971 410.171L203.962 410.179ZM159.37 324.388C166.985 338.197 186.096 373.196 199.077 399.889L199.079 399.887C207.319 391.548 212.509 385.783 214.511 382.751C218.972 375.996 230.919 360.826 247.541 342.163L192.539 300.307L192.389 300.146L191.419 299.112L159.37 324.388ZM118.038 394.668L130.237 290.243C135.644 301.423 140.519 312.265 144.724 322.467L134.604 341.693L125.899 389.875L118.04 394.671L118.038 394.668ZM13.4189 384.037L40.7904 389.545L45.6269 294.372L0 306.206V326.992L7.49801 346.498L0.00100134 369.372V386.846L13.4189 384.037ZM0.00801069 352.543V341.574L1.9496 346.626L0.00801069 352.543ZM83.4594 330.236C70.6293 328.361 54.4757 325.813 49.3278 324.645L50.939 292.985L122.364 274.46C123.627 276.915 124.845 279.311 125.982 281.584L124.692 292.612L83.4594 330.235V330.236ZM155.642 317.634L156.808 319.737L187.829 295.271L164.919 270.838L141.52 286.475C146.605 297.017 151.211 307.24 155.21 316.859L155.577 317.518L155.642 317.634ZM0.00801069 265.727V296.729L16.3078 292.502C11.261 284.2 5.77771 275.192 0.00801069 265.727ZM318.166 222.241L329.047 193.21L333.949 195.046L324.289 220.822L349.157 244.298L345.562 248.103L318.166 222.241ZM191.958 292.016L169.334 267.89L178.389 261.839L198.516 286.849L191.964 292.018L191.958 292.016ZM0.00901203 255.651C6.73999 266.698 14.0037 278.631 21.5998 291.13H21.6008L46.1255 284.769L48.5288 237.455C36.0551 222.084 15.5738 197.354 10.2667 192.225L0.00901203 198.892V255.651ZM202.623 283.605L183.036 259.264L222.279 240.439L234.466 258.495L202.623 283.605ZM53.8569 235.715L51.4306 283.393L51.4296 283.395L118.011 266.127C115.91 262.171 113.814 258.307 111.784 254.642C107.742 247.477 103.245 240.578 98.3202 233.989C93.3996 227.321 87.6229 220.157 81.1503 212.702C70.2457 200.142 57.3986 186.725 41.8729 171.684L14.7487 189.315C15.8361 190.428 17.1859 191.908 19.4079 194.421C22.8465 198.309 27.5588 203.837 33.4136 210.852C43.3589 222.767 53.1449 234.837 53.226 234.937L53.8569 235.715ZM139.213 281.725C137.21 277.658 135.136 273.528 133.042 269.455L196.458 224.715L208.975 220.729L219.317 236.049L177.625 256.052L139.213 281.725ZM374.508 264.29L374.509 264.291L374.508 264.297V264.29ZM374.508 231.442V264.29C370.044 261.336 366.358 258.903 364.016 257.358L362.502 256.358C367.619 248.638 371.659 240.255 374.508 231.442ZM128.764 261.258C126.583 257.139 124.338 252.994 122.091 248.941C119.799 244.8 117.063 240.353 113.959 235.724C123.705 229.823 160.749 209.11 190.108 192.773L203.64 212.82L192.332 216.419L128.764 261.258ZM227.051 238.151L238.587 255.241L279.819 222.722L273.052 216.081L227.051 238.151ZM224.09 233.76L214.177 219.072L220.613 217.025L270.487 175.991C272.512 179.482 273.51 179.663 274.239 179.796L274.241 179.796C276.744 180.25 296.358 182.622 298.586 182.891L295.221 210.575L283.963 219.453L274.099 209.77L224.09 233.763V233.76ZM91.2838 206.334C98.8469 215.128 105.484 223.571 111.01 231.43L111.009 231.433C118.412 226.879 142.095 213.496 185.553 189.316L186.083 189.015L186.124 188.993C186.473 188.8 186.821 188.606 187.168 188.411L157.786 144.878L91.2838 206.334ZM208.841 211.159L194.703 190.213C215.659 178.558 239.194 165.518 260.974 153.494C263.001 159.021 264.833 163.724 266.423 167.473L216.155 208.829L208.841 211.159ZM0.00801069 192.648V192.65H0.00500668L0.00801069 192.648ZM37.9977 167.955L0.00801069 192.648V177.93L29.4473 159.844C32.6115 162.819 35.4082 165.473 37.9977 167.955ZM299.22 177.693C292.091 176.831 279.132 175.239 275.794 174.744C275.331 174.075 274.919 173.372 274.562 172.641L302.65 149.536L299.222 177.697L299.22 177.693ZM353.932 134.245C362.689 144.11 369.954 161.303 374.505 173.988H374.507V106.678L351.843 103.459C350.576 109.843 350.069 116.355 350.333 122.859C350.689 128.126 351.9 131.957 353.932 134.245ZM0.00500668 167.179V132.775C1.53238 134.17 3.1482 135.642 4.85248 137.192L4.98766 137.315L5.30808 137.608C10.9156 142.714 16.456 147.761 22.499 153.364L0.00600802 167.182L0.00500668 167.179ZM266.659 103.163L224.08 101.337L198.895 84.3275C182.805 73.4841 165.742 61.9517 149.554 50.977L165.189 40.1626L191.805 0.00200267H374.508V25.8365C367.52 29.7797 363.016 32.196 361.121 33.0181C359.4 33.7651 357.3 36.1703 354.879 40.1666C352.165 44.8252 349.776 49.6647 347.726 54.6509C342.664 66.7191 338.583 79.1761 335.525 91.9006L309.081 88.1306L266.662 103.161L266.659 103.163ZM353.716 94.4971L374.503 97.4601L374.505 41.6646C371.971 44.8909 368.076 52.5752 364.337 61.7194C359.983 72.3645 356.432 83.3211 353.716 94.4971ZM348.508 93.7551L340.725 92.6476C342.184 86.4303 344.061 79.9056 346.303 73.2537C348.284 67.3779 350.546 61.438 352.844 56.0858C354.652 51.7827 356.688 47.5791 358.944 43.493C360.785 40.2527 362.257 38.2921 363.201 37.8235C364.966 37.0574 368.769 35.0448 374.505 31.8385V35.1179L374.365 35.1818C374.266 35.2267 374.178 35.2672 374.096 35.3037C374.062 35.3185 374.03 35.3326 373.998 35.3462C372.288 36.0882 370.202 38.4673 367.8 42.4196C365.106 47.0294 362.732 51.8191 360.695 56.7547C355.655 68.7448 351.581 81.1187 348.513 93.7581L348.508 93.7551ZM74.924 0.00300401C91.8636 11.7837 120.434 31.2277 141.418 45.4637V45.4677L158.526 33.6329L180.811 0.00300401H74.924Z" fill="#F1F1F1"/>
</svg>
