<svg width="42" height="14" viewBox="0 0 42 14" fill="none" xmlns="http://www.w3.org/2000/svg">
<path fill-rule="evenodd" clip-rule="evenodd" d="M20.319 13.236L20.828 10.199C22.228 11.356 26.483 11.685 26.483 9.85C26.483 9.07902 25.6463 8.62438 24.6759 8.09713C23.3367 7.36949 21.743 6.50356 21.743 4.477C21.743 0.764 25.782 0 27.482 0C28.5349 0.0274115 29.5763 0.226704 30.565 0.59L30.076 3.495C28.609 2.664 25.276 2.468 25.276 3.995C25.276 4.60152 26.0306 5.01904 26.9403 5.5224C28.321 6.28632 30.059 7.24795 30.059 9.368C30.059 12.754 26.53 13.998 24.192 13.998C22.8616 14.0215 21.5414 13.7617 20.319 13.236ZM38.853 13.767L38.453 11.757H34.095L33.38 13.767H29.808L34.919 1.249C35.1685 0.603215 35.8093 0.19505 36.5 0.242H39.255L42 13.767H38.853ZM37.9 8.983H35.082L36.883 3.921L37.9 8.983ZM14.782 13.767L16.922 0.242H20.35L18.207 13.767H14.782ZM3.585 2.017L6.563 13.767H10.133L15.588 0.242H11.9L8.631 9.542L8.244 7.542L7.09 1.46C6.95577 0.687218 6.2423 0.153105 5.463 0.242H0.063L0 0.471C1.26791 0.797389 2.47736 1.31895 3.585 2.017Z" fill="white"/>
</svg>
