<svg width="24" height="39" viewBox="0 0 24 39" fill="none" xmlns="http://www.w3.org/2000/svg">
<path d="M8.25228 27.4364C7.83846 27.4386 7.50458 27.7755 7.50606 28.1893C7.50753 28.6031 7.8438 28.9376 8.25762 28.9369C8.67145 28.9362 9.00653 28.6005 9.00653 28.1867C9.00654 27.987 8.92694 27.7955 8.78538 27.6547C8.64381 27.5139 8.45195 27.4354 8.25228 27.4364Z" fill="#1DBF73"/>
<path fill-rule="evenodd" clip-rule="evenodd" d="M6.52214 38.3863H17.4799C18.5826 38.3877 19.5232 37.5882 19.6995 36.4997L22.4056 19.3906C23.3536 19.1019 24.0011 18.2269 24 17.2358C23.9988 16.2448 23.3493 15.3712 22.4006 15.0848L22.3454 14.7528C21.5486 9.97473 17.5833 6.36391 12.7517 6.01669V2.78103L16.7376 1.45206C17.1143 1.30949 17.3112 0.89502 17.1837 0.513011C17.0563 0.131003 16.65 -0.0822688 16.2632 0.0298133L11.7618 1.52929C11.4553 1.63135 11.2487 1.91837 11.2493 2.24142V6.01769C6.41731 6.36447 2.45151 9.97539 1.65461 14.7538L1.59945 15.0848C0.6507 15.3712 0.00115734 16.2448 3.07731e-06 17.2358C-0.00115118 18.2269 0.646355 19.1019 1.59443 19.3906L4.30252 36.5067C4.48114 37.5929 5.42136 38.3891 6.52214 38.3863ZM5.78294 36.266L5.3356 33.4366H18.6654L18.2191 36.259C18.1604 36.6213 17.8469 36.8871 17.4799 36.8859H6.52114C6.15643 36.888 5.84388 36.6256 5.78294 36.266ZM3.91436 24.4377L5.0989 31.9361H18.9031L20.0897 24.4377H3.91436ZM3.67665 22.9382L3.13102 19.4879H20.872L20.3264 22.9382H3.67665ZM21.7476 16.488H2.2524C1.83694 16.488 1.50015 16.8247 1.50015 17.2402C1.50015 17.6557 1.83694 17.9924 2.2524 17.9924H21.7496C22.1637 17.9924 22.4993 17.6568 22.4993 17.2427C22.4993 16.8286 22.1637 16.493 21.7496 16.493L21.7476 16.488ZM3.13804 14.9895C3.81184 10.9352 7.15513 7.85763 11.2513 7.52118L11.2483 11.0066C11.2483 11.422 11.585 11.7588 12.0005 11.7588C12.416 11.7588 12.7527 11.422 12.7527 11.0066V7.52218C16.8462 7.86346 20.1865 10.9382 20.865 14.9895H3.13804Z" fill="#1DBF73"/>
<path d="M15.7517 27.4364H11.2523C10.8368 27.4364 10.5 27.7732 10.5 28.1887C10.5 28.6041 10.8368 28.9409 11.2523 28.9409H15.7517C16.1672 28.9409 16.504 28.6041 16.504 28.1887C16.504 27.7732 16.1672 27.4364 15.7517 27.4364Z" fill="#1DBF73"/>
</svg>
