<svg width="16" height="16" viewBox="0 0 16 16" fill="none" xmlns="http://www.w3.org/2000/svg">
<path fill-rule="evenodd" clip-rule="evenodd" d="M10.5141 9.7639L9.29208 11.2919C7.39846 10.1794 5.82051 8.60143 4.70794 6.70781L6.23599 5.48577C6.60436 5.19099 6.7276 4.68487 6.536 4.25374L5.14296 1.11664C4.93663 0.652368 4.42459 0.405656 3.93292 0.533622L1.28084 1.22064C0.768889 1.35487 0.437864 1.85034 0.509814 2.37468C1.46579 9.18301 6.81688 14.5341 13.6252 15.4901C14.1494 15.5624 14.6448 15.2311 14.7782 14.7191L15.4663 12.068C15.5942 11.5763 15.3475 11.0643 14.8833 10.8579L11.7462 9.46489C11.3152 9.2738 10.8096 9.39651 10.5141 9.7639V9.7639Z" stroke="#1DBF73" stroke-linecap="round" stroke-linejoin="round"/>
</svg>
