<svg width="25" height="25" viewBox="0 0 25 25" fill="none" xmlns="http://www.w3.org/2000/svg">
<path fill-rule="evenodd" clip-rule="evenodd" d="M0.949096 17.3057C2.87818 21.9631 7.42274 24.9998 12.4638 25.0001C15.7711 25.0089 18.9446 23.6942 21.2769 21.3491C24.4683 18.2092 25.7306 13.5988 24.5835 9.27106C23.4365 4.94335 20.0565 1.56331 15.7288 0.416283C11.4011 -0.730742 6.79062 0.531487 3.65069 3.72298C0.0862605 7.28765 -0.979991 12.6484 0.949096 17.3057ZM7.63397 6.50453C7.71662 6.42205 7.82882 6.37605 7.94557 6.37677C8.06269 6.37577 8.17531 6.42179 8.25821 6.50453L12.47 10.6592L16.6818 6.50453C16.8545 6.33399 17.1323 6.33399 17.305 6.50453L18.5047 7.71873C18.6735 7.89214 18.6735 8.16852 18.5047 8.34193L14.2814 12.5153L18.488 16.7375C18.5701 16.8204 18.6161 16.9324 18.6158 17.0491C18.6173 17.166 18.5712 17.2785 18.488 17.3607L17.2884 18.5676C17.2061 18.6507 17.0937 18.6968 16.9768 18.6953C16.8604 18.6943 16.7488 18.6486 16.6652 18.5676L12.4638 14.361L8.26444 18.5738C8.18254 18.6574 8.06985 18.7036 7.95284 18.7016C7.83633 18.7011 7.72458 18.6553 7.64124 18.5738L6.43951 17.3659C6.26897 17.1931 6.26897 16.9154 6.43951 16.7427L10.6555 12.5091L6.43224 8.3357C6.26281 8.16251 6.26281 7.88568 6.43224 7.7125L7.63397 6.50453Z" fill="#FE2121"/>
</svg>
