<svg width="17" height="20" viewBox="0 0 17 20" fill="none" xmlns="http://www.w3.org/2000/svg">
<path fill-rule="evenodd" clip-rule="evenodd" d="M14.2653 8.49853H15.1749C15.6586 8.49745 16.1229 8.68884 16.4653 9.03049C16.8077 9.37214 17.0001 9.83598 17.0001 10.3197V17.6043C17.0001 18.6101 16.1848 19.4254 15.179 19.4254H1.82115C0.815357 19.4254 0 18.6101 0 17.6043V10.3197C0 9.31389 0.815357 8.49853 1.82115 8.49853H2.73173V5.76681C2.73173 2.58189 5.31361 0 8.49853 0C11.6835 0 14.2653 2.58189 14.2653 5.76681V8.49853ZM5.7663 8.49853H11.2298V5.76681C11.2298 4.25812 10.0067 3.03508 8.49802 3.03508C6.98933 3.03508 5.7663 4.25812 5.7663 5.76681V8.49853Z" fill="#1DBF73"/>
</svg>
