<svg width="369" height="323" viewBox="0 0 369 323" fill="none" xmlns="http://www.w3.org/2000/svg">
<path opacity="0.15" d="M75.2274 43.2413C45.6761 66.4163 12.1256 221.257 34.9628 276.478C56.4064 328.34 209.588 326.34 285.543 319.368C361.497 312.396 373.868 274.612 367.578 201.389C361.74 133.305 342.899 30.1118 281.578 25.5051C207.599 19.9449 103.555 21.0367 75.2274 43.2413Z" fill="#DFDFDF"/>
<path d="M46.8802 97.9758C46.8802 97.9758 138.908 54.3646 190.754 161.526C242.6 268.687 365.236 182.653 365.236 182.653" stroke="#DFDFDF"/>
<path d="M140.27 26.8164C140.27 26.8164 212.133 19.1799 235.724 101.278C259.314 183.376 360.403 146.312 360.403 146.312" stroke="#DFDFDF"/>
<path opacity="0.44" d="M28.1734 244.388C29.2271 256.908 31.4137 267.895 34.9617 276.47C56.4054 328.339 209.587 326.339 285.541 319.368C344.905 313.938 365.406 289.654 368.553 244.387L28.1734 244.388Z" fill="#DFDFDF"/>
<path d="M208.316 244.713C208.316 244.713 226.714 260.37 274.008 265.365C321.303 270.361 365.248 266.055 365.248 266.055" stroke="#DFDFDF"/>
<path d="M319.232 313.039C319.232 313.039 241.534 318.188 196.094 289.964C143.166 257.074 31.7426 266.675 31.7426 266.675" stroke="#DFDFDF"/>
<path d="M28.9184 251.489C28.9184 251.489 177.597 247.818 201.491 264.587C262.392 307.323 352.589 291.999 352.589 291.999" stroke="#DFDFDF"/>
<path d="M285.594 0.937428L286.806 4.1055C286.959 4.5 287.27 4.8119 287.665 4.96469L290.834 6.18079C291.401 6.4075 291.772 6.95641 291.772 7.56683C291.772 8.17724 291.401 8.72616 290.834 8.95286L287.665 10.1649C287.272 10.3204 286.961 10.6313 286.806 11.0241L285.594 14.1932C285.367 14.76 284.818 15.1316 284.208 15.1316C283.597 15.1316 283.048 14.76 282.822 14.1932L281.605 11.0251C281.453 10.6306 281.141 10.3187 280.746 10.166L277.573 8.96288C277.006 8.73618 276.635 8.18727 276.635 7.57685C276.635 6.96644 277.006 6.41752 277.573 6.19082L280.742 4.97472C281.138 4.82431 281.451 4.51158 281.601 4.11553L282.818 0.947453C283.041 0.377384 283.59 0.00177556 284.203 6.27653e-06C284.815 -0.00176301 285.367 0.370665 285.594 0.939433V0.937428Z" fill="#DFDFDF"/>
<path d="M10.4934 192.839L11.911 196.534C12.0885 196.995 12.4527 197.359 12.9136 197.537L16.609 198.954C17.2829 199.214 17.7275 199.862 17.7275 200.584C17.7275 201.306 17.2829 201.954 16.609 202.213L12.9136 203.632C12.4556 203.808 12.0921 204.167 11.911 204.623L10.4934 208.314C10.2337 208.988 9.58598 209.433 8.86374 209.433C8.14151 209.433 7.49378 208.988 7.23409 208.314L5.81648 204.623C5.63908 204.162 5.27483 203.797 4.81392 203.62L1.1185 202.217C0.444566 201.957 0 201.309 0 200.587C0 199.865 0.444566 199.217 1.1185 198.957L4.80991 197.54C5.27103 197.363 5.63539 196.998 5.81247 196.537L7.23008 192.842C7.48833 192.165 8.13746 191.718 8.86174 191.718C9.58602 191.718 10.2351 192.165 10.4934 192.842V192.839Z" fill="#DFDFDF"/>
<path d="M351.84 201.454L352.943 204.325C353.079 204.692 353.368 204.981 353.735 205.117L356.603 206.22C357.127 206.42 357.474 206.923 357.474 207.485C357.474 208.046 357.127 208.55 356.603 208.75L353.735 209.853C353.37 209.991 353.081 210.279 352.943 210.645L351.84 213.512C351.64 214.037 351.137 214.383 350.575 214.383C350.014 214.383 349.51 214.037 349.31 213.512L348.207 210.645C348.068 210.28 347.78 209.992 347.415 209.853L344.548 208.75C344.023 208.55 343.677 208.046 343.677 207.485C343.677 206.923 344.023 206.42 344.548 206.22L347.415 205.117C347.781 204.979 348.069 204.691 348.207 204.325L349.31 201.454C349.514 200.933 350.016 200.59 350.575 200.59C351.135 200.59 351.637 200.933 351.84 201.454Z" fill="#DFDFDF"/>
<path d="M55.0239 152.34L56.4415 156.036C56.6202 156.496 56.984 156.86 57.4441 157.038L61.1435 158.46C61.8174 158.72 62.262 159.367 62.262 160.09C62.262 160.812 61.8174 161.46 61.1435 161.719L57.4441 163.141C56.984 163.32 56.6202 163.683 56.4415 164.143L55.0239 167.839C54.7657 168.516 54.1165 168.963 53.3922 168.963C52.668 168.963 52.0188 168.516 51.7606 167.839L50.343 164.143C50.1655 163.683 49.8013 163.318 49.3404 163.141L45.641 161.719C44.9671 161.46 44.5225 160.812 44.5225 160.09C44.5225 159.367 44.9671 158.72 45.641 158.46L49.3404 157.038C49.8013 156.861 50.1656 156.497 50.343 156.036L51.7606 152.34C52.0188 151.664 52.668 151.217 53.3922 151.217C54.1165 151.217 54.7657 151.664 55.0239 152.34Z" fill="#DFDFDF"/>
<path d="M327.589 67.5252L328.691 70.3965C328.828 70.763 329.117 71.052 329.484 71.1885L332.351 72.2913C332.875 72.4917 333.222 72.995 333.222 73.5565C333.222 74.118 332.875 74.6213 332.351 74.8218L329.459 75.8995C329.094 76.0378 328.806 76.3262 328.667 76.6915L327.565 79.5588C327.364 80.0833 326.861 80.4298 326.299 80.4298C325.738 80.4298 325.235 80.0833 325.034 79.5588L323.956 76.6915C323.818 76.3262 323.53 76.0378 323.164 75.8995L320.297 74.7967C319.773 74.5963 319.426 74.093 319.426 73.5315C319.426 72.97 319.773 72.4667 320.297 72.2662L323.164 71.1634C323.531 71.027 323.82 70.7379 323.956 70.3714L325.059 67.5001C325.268 66.981 325.773 66.6428 326.333 66.6481C326.892 66.6535 327.391 67.0012 327.59 67.5242L327.589 67.5252Z" fill="#DFDFDF"/>
<path d="M37.3428 281.167C37.3428 281.167 113.413 279.222 130.816 289.963C148.219 300.705 134.698 319.438 134.698 319.438" stroke="#DFDFDF"/>
<path fill-rule="evenodd" clip-rule="evenodd" d="M122.236 293.932L153.8 290.213L157.12 297.851L134.362 308.942C128.144 311.974 120.641 309.602 117.296 303.547C116.247 301.648 116.213 299.352 117.204 297.423C118.196 295.494 120.082 294.185 122.236 293.932ZM125.901 305.117C128.53 306.02 131.247 305.058 131.964 302.966C132.685 300.867 131.136 298.452 128.506 297.545C125.877 296.637 123.164 297.6 122.443 299.691C121.722 301.782 123.271 304.214 125.901 305.117Z" fill="#DFDFDF"/>
<path d="M140.349 270.721L255.25 248.272C259.108 247.516 263.072 248.922 265.592 251.939L301.974 295.507C303.003 296.738 303.277 298.431 302.69 299.923C302.104 301.415 300.749 302.468 299.158 302.669L173.207 318.579C169.229 319.082 165.3 317.335 163.008 314.045L137.592 277.526C136.749 276.311 136.576 274.752 137.132 273.381C137.688 272.01 138.898 271.011 140.349 270.726V270.721Z" fill="#DFDFDF"/>
<path d="M302.05 297.057L176.101 312.963C172.122 313.467 168.193 311.72 165.902 308.428L140.48 271.91" stroke="#DFDFDF"/>
<path d="M357.71 132.83C357.071 129.867 356.403 126.915 355.705 123.973H40.5901C39.8849 126.893 39.2012 129.845 38.5389 132.83H357.71Z" fill="#DFDFDF"/>
<path d="M130.139 26.8164C127.076 27.2127 124.093 27.6392 121.189 28.0956V132.83H130.139V26.8164Z" fill="#DFDFDF"/>
<path d="M266.412 24.4885C263.46 24.3113 260.476 24.1463 257.461 23.9932V132.83H266.412V24.4885Z" fill="#DFDFDF"/>
<path d="M271.996 24.8323V117.81H354.545" stroke="#DFDFDF" stroke-width="2"/>
<path d="M114.331 29.2727V117.811H41.9014" stroke="#DFDFDF" stroke-width="2"/>
<path d="M251.473 23.7075V117.81H135.514V26.0605" stroke="#DFDFDF" stroke-width="2"/>
<rect x="278.682" y="53.9165" width="5.14913" height="28.7703" rx="2.568" fill="#DFDFDF"/>
<rect x="99.7289" y="53.9165" width="5.14913" height="28.7703" rx="2.568" fill="#DFDFDF"/>
</svg>
