<svg width="15" height="20" viewBox="0 0 15 20" fill="none" xmlns="http://www.w3.org/2000/svg">
<path fill-rule="evenodd" clip-rule="evenodd" d="M6.91602 19.5634C7.06164 19.7334 7.27624 19.8285 7.5 19.8224C7.72325 19.8285 7.93738 19.7337 8.08298 19.5644C9.35711 18.2122 10.5435 16.78 11.6349 15.2765C12.5155 14.0844 13.2913 12.8184 13.9538 11.4926C14.5724 10.3392 14.9295 9.06371 14.9998 7.75675C15.0084 6.64037 14.785 5.53436 14.3438 4.50885C13.942 3.58752 13.3571 2.75743 12.6248 2.06893C11.2388 0.757361 9.40813 0.0183098 7.5 0C5.59186 0.0183098 3.7612 0.757361 2.37517 2.06893C1.64285 2.75743 1.05805 3.58752 0.656222 4.50885C0.21495 5.53436 -0.00843089 6.64037 0.000243271 7.75675C0.0703531 9.06329 0.427111 10.3384 1.04521 11.4916C1.70768 12.8174 2.48354 14.0834 3.36413 15.2755C4.45551 16.779 5.64189 18.2112 6.91602 19.5634ZM5.69735 5.92948C6.16947 5.44112 6.82075 5.16703 7.5 5.17083V5.17183C8.17907 5.16804 8.83018 5.44199 9.30227 5.93014C9.77436 6.41828 10.0264 7.07818 9.99992 7.75675C9.99992 9.13741 8.88067 10.2567 7.5 10.2567C6.11933 10.2567 5.00008 9.13741 5.00008 7.75675C4.97331 7.07801 5.22523 6.41784 5.69735 5.92948Z" fill="#FE2121"/>
</svg>
