<svg width="18" height="13" viewBox="0 0 18 13" fill="none" xmlns="http://www.w3.org/2000/svg">
<path fill-rule="evenodd" clip-rule="evenodd" d="M9.80522e-05 2.28468V2.74204H18V2.28468C18.0081 1.03304 17.0016 0.0109885 15.75 0H2.25008C0.998466 0.0109885 -0.00806659 1.03304 9.80522e-05 2.28468ZM9.80522e-05 10.7148C-0.00806659 11.9664 0.998466 12.9885 2.25008 12.9994H15.75C17.0014 12.9879 18.0076 11.9662 18 10.7148V4.77438H9.80522e-05V10.7148ZM14.2579 10.1764C13.7078 10.1822 13.2563 9.74242 13.2477 9.19234C13.2436 8.63588 13.6911 8.18132 14.2475 8.1767C14.7977 8.17676 15.2444 8.62126 15.2473 9.1714C15.2501 9.72154 14.808 10.1706 14.2579 10.1764ZM10.7475 9.19234C10.7561 9.74242 11.2076 10.1822 11.7577 10.1764C12.3078 10.1706 12.7499 9.72154 12.7471 9.1714C12.7442 8.62126 12.2975 8.17676 11.7473 8.1767C11.1921 8.18305 10.7465 8.6371 10.7506 9.19234H10.7475Z" fill="white"/>
</svg>
