<svg width="52" height="52" viewBox="0 0 52 52" fill="none" xmlns="http://www.w3.org/2000/svg">
<path fill-rule="evenodd" clip-rule="evenodd" d="M6.03226 2.51344C6.03226 1.12531 7.15756 0 8.5457 0C9.93383 0 11.0591 1.12531 11.0591 2.51344C11.0591 3.90158 9.93383 5.02688 8.5457 5.02688C7.87909 5.02688 7.23979 4.76207 6.76843 4.29071C6.29707 3.81935 6.03226 3.18005 6.03226 2.51344ZM20.6102 1.00538C19.2221 1.00538 18.0968 2.13068 18.0968 3.51882C18.0968 4.90695 19.2221 6.03226 20.6102 6.03226C21.9984 6.03226 23.1237 4.90695 23.1237 3.51882C23.1237 2.13068 21.9984 1.00538 20.6102 1.00538ZM37.3437 7.17939C36.8678 7.17939 36.4821 6.79364 36.4821 6.31779C36.4821 5.84193 36.8678 5.45618 37.3437 5.45618H47.686C48.1619 5.45618 48.5476 5.84193 48.5476 6.31779C48.5476 6.79364 48.1619 7.17939 47.686 7.17939H37.3437ZM2.51344 6.03226C1.12531 6.03226 0 7.15756 0 8.5457C0 9.21231 0.264808 9.85161 0.73617 10.323C1.20753 10.7943 1.84683 11.0591 2.51344 11.0591C3.90158 11.0591 5.02688 9.93383 5.02688 8.5457C5.02688 7.15756 3.90158 6.03226 2.51344 6.03226ZM16.5887 8.04301C15.2006 8.04301 14.0753 9.16832 14.0753 10.5565C14.0753 11.9446 15.2006 13.0699 16.5887 13.0699C17.9768 13.0699 19.1022 11.9446 19.1022 10.5565C19.1022 9.16832 17.9768 8.04301 16.5887 8.04301ZM8.04301 19.1022C6.52026 19.2276 5.17808 18.1091 5.02688 16.5887C5.17808 15.0683 6.52026 13.9498 8.04301 14.0753C9.56612 13.9487 10.909 15.0677 11.0591 16.5887C10.9176 18.0199 9.71444 19.1109 8.27626 19.1122C8.19851 19.1122 8.12076 19.1089 8.04301 19.1022ZM39.0679 16.1353C39.0671 17.1945 38.8883 18.246 38.5391 19.2459H46.4906C46.1421 18.2458 45.9637 17.1944 45.9628 16.1353V14.0753H39.0679V16.1353ZM15.7975 24.4136V37.3457L15.7955 37.3447C15.7969 37.82 16.1833 38.2042 16.6586 38.2028C17.1339 38.2014 17.5181 37.815 17.5167 37.3397V29.5812C17.5167 28.1534 18.6742 26.9959 20.102 26.9959C21.5298 26.9959 22.6873 28.1534 22.6873 29.5812V32.172C22.7032 32.6367 23.0845 33.0052 23.5494 33.0052C24.0144 33.0052 24.3957 32.6367 24.4115 32.172V26.9933C24.4138 25.5667 25.5697 24.4107 26.9964 24.4085H32.6265C33.1561 23.512 33.8297 22.7087 34.6201 22.0308C34.9478 21.7476 35.2505 21.4368 35.525 21.1018C35.3426 20.1554 34.7629 19.3328 33.9329 18.8428C33.1029 18.3528 32.1025 18.2426 31.1858 18.5401L30.49 18.7483L30.1673 18.0968C29.7358 17.2173 28.8416 16.66 27.862 16.6601C26.8599 16.6623 25.9487 17.2416 25.5215 18.148C25.9231 18.7226 26.1389 19.4065 26.1398 20.1075H24.4186C24.4234 19.4322 24.032 18.8167 23.4182 18.5348C22.8045 18.2529 22.0826 18.3569 21.5734 18.8005C21.7438 19.2152 21.8316 19.6592 21.8317 20.1075H20.1075C20.1126 19.3494 19.6204 18.6775 18.8961 18.4536C18.1718 18.2297 17.3864 18.5067 16.9627 19.1353L16.5686 19.7104L15.9232 19.444C14.9567 19.0399 13.8418 19.2591 13.1003 19.999C12.3587 20.739 12.1371 21.8533 12.5391 22.8207C12.9412 23.7881 13.8873 24.4171 14.9349 24.4136H15.7975ZM20.1075 51.9961C17.7285 51.9938 15.8003 50.0661 15.7975 47.687V39.7717C16.0737 39.8741 16.3655 39.9278 16.6601 39.9305C18.0867 39.9283 19.2427 38.7723 19.2449 37.3457V29.5882C19.2608 29.1236 19.6421 28.7551 20.107 28.7551C20.572 28.7551 20.9533 29.1236 20.9691 29.5882V32.172C20.9969 33.58 22.1462 34.7069 23.5545 34.7069C24.9627 34.7069 26.112 33.58 26.1398 32.172V27.0024C26.1398 26.5268 26.5248 26.1409 27.0004 26.1398H31.8373C31.488 27.1418 31.3092 28.1953 31.3084 29.2565V49.4153C31.3118 50.3504 31.6223 51.2586 32.1922 52.0001L20.1075 51.9961ZM35.6215 51.9961C34.195 51.9944 33.0389 50.8387 33.0367 49.4122V48.5486H51.9951V49.4122C51.9934 50.8389 50.8369 51.9949 49.4102 51.9961H35.6215ZM33.0357 29.5872V46.8244H51.994V29.5872H33.0357ZM7.11605 42.5737C5.50005 40.9568 4.59267 38.7641 4.59356 36.4781C4.59356 31.7179 8.45246 27.859 13.2127 27.859C13.5042 27.859 13.7907 27.8741 14.0753 27.9022V31.3828C13.7905 31.3325 13.5019 31.3069 13.2127 31.3064C11.348 31.2804 9.61375 32.2603 8.67383 33.871C7.73392 35.4816 7.73392 37.4735 8.67383 39.0842C9.61375 40.6948 11.348 41.6747 13.2127 41.6487C13.5018 41.65 13.7904 41.6258 14.0753 41.5763V45.0569C13.7918 45.0841 13.5042 45.0982 13.2127 45.0982C10.926 45.0989 8.7328 44.1907 7.11605 42.5737ZM33.1684 27.865C33.4834 26.1073 34.3949 24.5119 35.7492 23.3479C36.5402 22.6703 37.2141 21.8669 37.7438 20.9701H47.2849C47.8152 21.8668 48.4894 22.6701 49.2805 23.3479C50.6353 24.5115 51.5469 26.107 51.8613 27.865H33.1684ZM39.0669 8.90361H45.9618V12.349H39.0669V8.90361ZM39.0679 2.86834V3.72995L45.9638 3.73497V2.87236C45.9632 2.39674 45.5778 2.01131 45.1022 2.01075H39.9305C39.4559 2.01019 39.0701 2.39366 39.0679 2.86834Z" fill="#1DBF73"/>
</svg>
