<svg width="354" height="280" viewBox="0 0 354 280" fill="none" xmlns="http://www.w3.org/2000/svg">
<path opacity="0.15" d="M25.7578 235.46C25.7578 235.46 -20.4654 113.033 10.9295 63.5227C42.3244 14.0123 282.452 -26.4299 329.803 21.3954C365.802 57.7357 357.484 215.613 329.803 245.405C292.568 285.473 49.0252 300.836 25.7578 235.46Z" fill="#DFDFDF"/>
<path d="M47.1016 12.7559L48.4041 16.1433C48.5676 16.5679 48.9038 16.903 49.3289 17.0651L52.7163 18.3676C53.3329 18.607 53.7391 19.2005 53.7391 19.8619C53.7391 20.5233 53.3329 21.1169 52.7163 21.3563L49.3289 22.6588C48.9038 22.8209 48.5676 23.156 48.4041 23.5805L47.1016 26.968C46.8636 27.5873 46.2687 27.996 45.6052 27.996C44.9418 27.996 44.3469 27.5873 44.1089 26.968L42.8064 23.5805C42.6449 23.1557 42.3095 22.8203 41.8847 22.6588L38.4932 21.3563C37.8766 21.1169 37.4704 20.5233 37.4704 19.8619C37.4704 19.2005 37.8766 18.607 38.4932 18.3676L41.8847 17.0651C42.3095 16.9036 42.6449 16.5681 42.8064 16.1433L44.1089 12.7559C44.3469 12.1366 44.9418 11.7279 45.6052 11.7279C46.2687 11.7279 46.8636 12.1366 47.1016 12.7559Z" fill="#DFDFDF"/>
<path d="M332.016 169.75L333.952 174.783C334.194 175.41 334.691 175.905 335.318 176.145L340.351 178.081C341.267 178.434 341.871 179.314 341.871 180.295C341.871 181.277 341.267 182.157 340.351 182.51L335.318 184.445C334.691 184.686 334.194 185.181 333.952 185.808L332.016 190.841C331.663 191.757 330.783 192.361 329.802 192.361C328.82 192.361 327.94 191.757 327.588 190.841L325.652 185.808C325.412 185.18 324.914 184.684 324.285 184.445L319.276 182.51C318.36 182.157 317.755 181.277 317.755 180.295C317.755 179.314 318.36 178.434 319.276 178.081L324.285 176.145C324.914 175.907 325.412 175.411 325.652 174.783L327.588 169.75C327.94 168.834 328.82 168.23 329.802 168.23C330.783 168.23 331.663 168.834 332.016 169.75Z" fill="#DFDFDF"/>
<path d="M302.799 24.8059L303.524 26.6915C303.616 26.9273 303.803 27.114 304.039 27.2064L305.924 27.9298C306.269 28.0616 306.497 28.3926 306.497 28.7619C306.497 29.1312 306.269 29.4622 305.924 29.594L304.039 30.3174C303.803 30.4098 303.616 30.5965 303.524 30.8324L302.799 32.721C302.667 33.066 302.336 33.2939 301.967 33.2939C301.598 33.2939 301.267 33.066 301.135 32.721L300.412 30.8354C300.319 30.5995 300.133 30.4128 299.897 30.3204L298.011 29.597C297.666 29.4652 297.438 29.1342 297.438 28.7649C297.438 28.3956 297.666 28.0646 298.011 27.9328L299.897 27.2084C300.133 27.116 300.319 26.9293 300.412 26.6935L301.135 24.8079C301.267 24.4628 301.598 24.2349 301.967 24.2349C302.336 24.2349 302.667 24.4628 302.799 24.8079V24.8059Z" fill="#DFDFDF"/>
<path d="M24.4764 124.867L25.7789 128.258C25.9417 128.682 26.2767 129.017 26.7007 129.18L30.0912 130.482C30.7104 130.72 31.1191 131.315 31.1191 131.979C31.1191 132.642 30.7104 133.237 30.0912 133.475L26.7007 134.778C26.2772 134.941 25.9425 135.276 25.7789 135.699L24.4764 139.079C24.2384 139.698 23.6435 140.107 22.9801 140.107C22.3166 140.107 21.7217 139.698 21.4837 139.079L20.1813 135.687C20.0177 135.264 19.683 134.929 19.2595 134.766L15.869 133.463C15.2497 133.225 14.8411 132.63 14.8411 131.967C14.8411 131.303 15.2497 130.708 15.869 130.47L19.2595 129.168C19.6834 129.005 20.0184 128.67 20.1813 128.246L21.4837 124.855C21.7242 124.236 22.3208 123.83 22.9842 123.833C23.6477 123.835 24.2409 124.246 24.4764 124.867Z" fill="#DFDFDF"/>
<path d="M10.9276 63.5237C10.9276 63.5237 107.191 56.7919 135.034 138.384C162.877 219.977 272.991 244.294 338.694 227.777" stroke="#DFDFDF"/>
<path d="M112.025 16.0932C112.025 16.0932 182.76 0.0015479 220.254 65.4243C259.857 134.525 353.097 106.434 353.097 106.434" stroke="#DFDFDF"/>
</svg>
