<svg width="136" height="128" viewBox="0 0 136 128" fill="none" xmlns="http://www.w3.org/2000/svg">
<path opacity="0.24" d="M135.927 68.5837C135.976 88.6557 125.853 107.386 109.034 118.341C99.4694 124.663 88.2519 128.023 76.7866 127.999C48.8178 128.175 24.5043 108.842 18.3759 81.5524C12.2475 54.2627 25.9601 26.3899 51.3189 14.591C76.6777 2.7921 106.831 10.2549 123.759 32.5197C131.633 42.8962 135.905 55.5584 135.927 68.5837Z" fill="#DFDFDF"/>
<path d="M34.0733 7.57922H28.4753V11.2473H34.0733V7.57922Z" fill="#DFDFDF"/>
<path d="M34.0733 7.57922H28.4753V9.16975H34.0733V7.57922Z" fill="#DFDFDF"/>
<path d="M12.6562 15.0368L9.6137 18.0934L11.8037 20.2934L14.8462 17.2369L12.6562 15.0368Z" fill="#DFDFDF"/>
<path d="M48.4333 16.9929L51.4758 20.0494L53.4228 18.0934L50.3803 15.0368L48.4333 16.9929Z" fill="#DFDFDF"/>
<path d="M31.6393 65.1606C42.6769 65.2114 52.656 58.6017 56.9153 48.4189C61.1746 38.236 58.8734 26.4897 51.0867 18.6667C43.3001 10.8438 31.5646 8.48799 21.362 12.6998C11.1595 16.9117 4.50342 26.8599 4.5029 37.8977C4.48122 52.9142 16.6229 65.1125 31.6393 65.1606Z" fill="#DFDFDF" stroke="#D3DAE6" stroke-width="0.552"/>
<path d="M52.8133 37.8987V38.6317C52.4128 50.0366 43.0512 59.0751 31.6393 59.0751C20.2275 59.0751 10.8659 50.0366 10.4654 38.6317V37.8987C10.4064 26.4462 19.4635 17.0221 30.9093 16.6264H31.6393C43.2148 16.6611 52.6311 25.9581 52.8133 37.5322V37.8987Z" fill="#DFDFDF"/>
<path d="M52.8132 38.6316C52.4127 50.0364 43.0511 59.075 31.6393 59.075C20.2274 59.075 10.8659 50.0364 10.4653 38.6316C10.8659 27.2268 20.2274 18.1882 31.6393 18.1882C43.0511 18.1882 52.4127 27.2268 52.8132 38.6316Z" fill="#DFDFDF"/>
<path d="M37.3588 51.4674H25.1899C24.8984 51.4682 24.6186 51.3525 24.4129 51.146C24.2072 50.9395 24.0925 50.6594 24.0944 50.3679V44.2588C24.0914 43.9665 24.2056 43.6852 24.4114 43.4777C24.6172 43.2702 24.8976 43.1537 25.1899 43.1543H37.3588C37.6509 43.154 37.931 43.2706 38.1366 43.4781C38.3422 43.6856 38.4563 43.9667 38.4533 44.2588V50.3679C38.3754 50.9379 37.9285 51.3869 37.3588 51.4674Z" fill="#DFDFDF"/>
<path d="M50.0148 38.9991H46.4863C46.1954 38.9997 45.9163 38.8843 45.7107 38.6785C45.5051 38.4727 45.39 38.1935 45.3908 37.9026C45.3878 37.6104 45.502 37.3291 45.7079 37.1216C45.9137 36.914 46.194 36.7976 46.4863 36.7981H50.0148C50.3078 36.7965 50.5891 36.9125 50.7958 37.1201C51.0025 37.3278 51.1173 37.6097 51.1143 37.9026C51.0743 38.492 50.6043 38.9607 50.0148 38.9991Z" fill="#DFDFDF"/>
<path d="M15.6978 38.9991H12.1693C11.8785 38.9997 11.5994 38.8843 11.3938 38.6785C11.1882 38.4727 11.073 38.1935 11.0739 37.9026C11.0709 37.6104 11.1851 37.3291 11.3909 37.1216C11.5967 36.914 11.8771 36.7976 12.1693 36.7981H15.6978C15.9908 36.7965 16.2722 36.9125 16.4789 37.1201C16.6856 37.3278 16.8003 37.6097 16.7974 37.9026C16.7982 38.1942 16.6825 38.474 16.476 38.6799C16.2696 38.8858 15.9894 39.0007 15.6978 38.9991Z" fill="#DFDFDF"/>
<path d="M31.1533 57.9479C30.8615 57.9484 30.5816 57.8324 30.3759 57.6255C30.1702 57.4186 30.0556 57.1381 30.0578 56.8464V53.3058C30.0457 52.9067 30.2517 52.5326 30.5955 52.3295C30.9392 52.1264 31.3663 52.1264 31.7101 52.3295C32.0538 52.5326 32.2599 52.9067 32.2478 53.3058V56.8464C32.2148 57.4378 31.7445 57.9111 31.1533 57.9479Z" fill="#DFDFDF"/>
<path d="M31.1533 23.594C30.862 23.5945 30.5826 23.4788 30.377 23.2726C30.1713 23.0664 30.0564 22.7867 30.0578 22.4955V19.0754C30.0457 18.6763 30.2517 18.3022 30.5955 18.0991C30.9392 17.896 31.3663 17.896 31.7101 18.0991C32.0538 18.3022 32.2599 18.6763 32.2478 19.0754V22.617C32.1201 23.1376 31.685 23.5259 31.1533 23.594Z" fill="#DFDFDF"/>
<path d="M31.3962 40.8326C32.2388 40.8361 33.0477 40.5018 33.642 39.9043C34.2362 39.3069 34.5662 38.4962 34.5582 37.6536C34.5871 36.5045 33.9907 35.4302 33.0001 34.8471C32.0096 34.2641 30.7808 34.2641 29.7902 34.8471C28.7997 35.4302 28.2032 36.5045 28.2322 37.6536C28.2241 38.4965 28.5544 39.3075 29.149 39.9051C29.7437 40.5026 30.5532 40.8367 31.3962 40.8326Z" fill="#DFDFDF"/>
<path d="M45.0252 24.8168C44.6546 24.4497 44.0574 24.4497 43.6867 24.8168L32.3693 36.798H32.2478C31.8547 36.7825 31.4732 36.9323 31.1957 37.2111C30.9183 37.4899 30.7703 37.8721 30.7878 38.2651V38.5101L28.9623 40.4651C28.5971 40.8389 28.5971 41.4358 28.9623 41.8096C29.1082 41.9922 29.339 42.0851 29.5708 42.0546C29.7967 42.0499 30.0131 41.9627 30.1793 41.8096L32.0017 39.8536H32.1232C32.5163 39.8691 32.8978 39.7193 33.1753 39.4406C33.4527 39.1618 33.6007 38.7795 33.5832 38.3866V38.1416L44.9037 26.2839C45.1214 26.11 45.2578 25.8542 45.2808 25.5765C45.3038 25.2989 45.2113 25.0241 45.0252 24.8168Z" fill="#DFDFDF"/>
<path d="M44.1738 24.0838C43.8031 23.7167 43.2059 23.7167 42.8353 24.0838L31.5178 36.065H31.3963C31.0031 36.0492 30.6213 36.1989 30.3436 36.4777C30.0659 36.7565 29.9178 37.139 29.9353 37.5321V37.7771L28.1108 39.7311C27.746 40.1054 27.746 40.7023 28.1108 41.0766C28.2572 41.2585 28.4878 41.3509 28.7193 41.3206C28.9451 41.3162 29.1615 41.2294 29.3278 41.0766L31.1503 39.1206H31.2718C31.6648 39.1362 32.0464 38.9864 32.3238 38.7076C32.6013 38.4288 32.7492 38.0465 32.7318 37.6536V37.4086L44.0523 25.5509C44.2699 25.377 44.4063 25.1212 44.4293 24.8436C44.4523 24.5659 44.3599 24.2911 44.1738 24.0838Z" fill="#DFDFDF"/>
<path d="M43.8082 24.4505L28.3537 40.5877H28.1107C27.9892 40.3427 27.9892 40.0987 28.2322 39.9762L43.0782 24.327C43.2591 24.1134 43.5682 24.0624 43.8082 24.2065V24.4505Z" fill="#DFDFDF"/>
<path d="M36.7503 2.44604V5.9906C36.7492 7.33604 35.6617 8.42801 34.3163 8.43464H28.2323C26.8865 8.42801 25.7989 7.33543 25.7983 5.9896V2.44604C25.7983 1.09982 26.8861 0.00663163 28.2323 0H34.3173C35.6631 0.00718219 36.7503 1.10021 36.7503 2.44604Z" fill="#DFDFDF"/>
<path d="M36.7503 2.44604V5.9906C36.7492 7.33604 35.6617 8.42801 34.3163 8.43464H28.2323C26.8865 8.42801 25.7989 7.33543 25.7983 5.9896V5.37909C25.9623 6.33674 26.7744 7.04878 27.7453 7.0861H33.9518C34.821 7.07111 35.5222 6.37072 35.5383 5.50159V2.93405C35.5383 1.10454 35.1688 0.489008 34.3163 0C35.6625 0.00663163 36.7503 1.09982 36.7503 2.44604Z" fill="#DFDFDF"/>
<path d="M13.2647 15.2807L9.97924 18.5823C9.23666 19.3134 8.04483 19.3134 7.30225 18.5823L5.35425 16.6252C4.62438 15.8775 4.62438 14.684 5.35425 13.9362L8.63974 10.6356C9.38232 9.90455 10.5742 9.90455 11.3167 10.6356L13.2647 12.5957C13.992 13.343 13.992 14.5335 13.2647 15.2807Z" fill="#DFDFDF"/>
<path d="M49.7708 15.2807L53.0573 18.5823C53.7999 19.3134 54.9917 19.3134 55.7343 18.5823L57.6813 16.6252C58.4111 15.8775 58.4111 14.684 57.6813 13.9362L54.3958 10.6356C53.6532 9.90455 52.4614 9.90455 51.7188 10.6356L49.7708 12.5957C49.1645 13.388 49.1645 14.4884 49.7708 15.2807Z" fill="#DFDFDF"/>
<path d="M31.3953 37.8967C31.5259 37.888 31.63 37.7842 31.6393 37.6537C31.6309 37.5225 31.5264 37.418 31.3953 37.4097C31.2645 37.4185 31.1605 37.5229 31.1523 37.6537C31.1615 37.7839 31.2651 37.8875 31.3953 37.8967Z" fill="#DFDFDF"/>
<path d="M8.15391 75.4298C8.70533 75.4333 9.23504 75.2151 9.62402 74.8242C10.013 74.4334 10.2286 73.9026 10.2224 73.3512C10.2283 72.8 10.0126 72.2695 9.62366 71.8788C9.23471 71.4882 8.70515 71.2702 8.15391 71.2737C7.60266 71.2702 7.0731 71.4882 6.68415 71.8788C6.29521 72.2695 6.07948 72.8 6.08541 73.3512C6.1142 74.4831 7.02213 75.3955 8.15391 75.4298Z" fill="#DFDFDF"/>
<path d="M132.883 32.9101C133.762 32.1018 134.283 30.9759 134.329 29.7823C134.374 28.5888 133.942 27.4263 133.127 26.553C131.411 24.7103 128.528 24.6008 126.677 26.308C125.798 27.1164 125.277 28.2425 125.232 29.4362C125.186 30.63 125.618 31.7926 126.433 32.6661C128.151 34.5058 131.031 34.6147 132.883 32.9101Z" fill="#DFDFDF"/>
<path d="M133.437 15.2104C133.958 15.2162 134.459 15.011 134.826 14.6415C135.192 14.2721 135.394 13.7699 135.384 13.2493C135.392 12.7298 135.19 12.2292 134.823 11.8611C134.457 11.4929 133.957 11.2886 133.437 11.2943C132.918 11.2886 132.418 11.4929 132.051 11.8611C131.685 12.2292 131.482 12.7298 131.49 13.2493C131.555 14.2989 132.388 15.1378 133.437 15.2104Z" fill="#DFDFDF"/>
<path d="M86.5217 19.4429C87.0421 19.4486 87.5426 19.2436 87.9094 18.8743C88.2762 18.5051 88.4779 18.0032 88.4687 17.4828C88.4768 16.9631 88.2746 16.4622 87.908 16.0939C87.5413 15.7255 87.0413 15.521 86.5217 15.5268C86.002 15.521 85.502 15.7255 85.1354 16.0939C84.7687 16.4622 84.5665 16.9631 84.5747 17.4828C84.5654 18.0032 84.7671 18.5051 85.1339 18.8743C85.5007 19.2436 86.0013 19.4486 86.5217 19.4429Z" fill="#DFDFDF"/>
<path d="M1.9473 67.1196C2.4677 67.1254 2.96829 66.9203 3.33506 66.5511C3.70183 66.1818 3.90355 65.6799 3.8943 65.1595C3.90218 64.64 3.69988 64.1392 3.33329 63.7709C2.9667 63.4026 2.46691 63.198 1.9473 63.2035C1.42769 63.198 0.927899 63.4026 0.561312 63.7709C0.194725 64.1392 -0.00757647 64.64 0.000305148 65.1595C-0.00895255 65.6799 0.192774 66.1818 0.559544 66.5511C0.926313 66.9203 1.4269 67.1254 1.9473 67.1196Z" fill="#DFDFDF"/>
<path d="M89.807 101.837C94.7919 101.757 98.7687 97.6525 98.6905 92.6676C98.7682 87.6829 94.7917 83.5782 89.807 83.4979C84.8223 83.5782 80.8458 87.6829 80.9235 92.6676C80.8458 97.6523 84.8223 101.757 89.807 101.837Z" fill="#DFDFDF"/>
<path d="M91.3885 98.2906H89.807V101.836H91.3885V98.2906Z" fill="#DFDFDF"/>
<path d="M22.1483 101.837C27.133 101.757 31.1095 97.6523 31.0318 92.6676C31.1095 87.6829 27.133 83.5782 22.1483 83.4979C17.1636 83.5782 13.1871 87.6829 13.2648 92.6676C13.1871 97.6523 17.1636 101.757 22.1483 101.837Z" fill="#DFDFDF"/>
<path d="M24.8252 96.3346H22.2697V101.836H24.8252V96.3346Z" fill="#DFDFDF"/>
<path d="M124.002 41.8106V81.1723H40.2796V44.1332C40.2599 42.511 40.8936 40.949 42.038 39.7991C43.1824 38.6492 44.7413 38.0081 46.3636 38.0201H120.229C122.313 38.0349 123.997 39.7261 124.002 41.8106Z" fill="#DFDFDF"/>
<path opacity="0.7" d="M67.2938 51.1019H56.0988V83.498H67.2938V51.1019Z" fill="#DFDFDF"/>
<path d="M131.546 41.8106V81.1723H66.8078V44.1332C66.788 42.511 67.4217 40.949 68.5661 39.7991C69.7106 38.6492 71.2695 38.0081 72.8917 38.0201H127.774C129.858 38.036 131.54 39.7268 131.546 41.8106Z" fill="#DFDFDF"/>
<path d="M131.546 41.8106V81.1723H66.8078V44.1332C66.788 42.511 67.4217 40.949 68.5661 39.7991C69.7106 38.6492 71.2695 38.0081 72.8917 38.0201H127.774C129.858 38.036 131.54 39.7268 131.546 41.8106Z" fill="#DFDFDF"/>
<path d="M91.511 101.837C96.4959 101.757 100.473 97.6525 100.394 92.6676C100.472 87.6829 96.4957 83.5782 91.511 83.4979C86.5263 83.5782 82.5498 87.6829 82.6275 92.6676C82.5498 97.6523 86.5263 101.757 91.511 101.837Z" fill="#DFDFDF"/>
<path d="M24.9467 101.837C29.9313 101.757 33.9078 97.6523 33.8301 92.6676C33.9078 87.6829 29.9313 83.5782 24.9467 83.4979C19.962 83.5782 15.9855 87.6829 16.0632 92.6676C15.9855 97.6523 19.962 101.757 24.9467 101.837Z" fill="#DFDFDF"/>
<path d="M101.854 81.0539V92.7901H5.59831C4.59805 92.7631 3.79494 91.956 3.77282 90.9556V77.2614C3.77781 75.3359 4.37364 73.4583 5.47983 71.8823L20.8098 49.1459H52.8142L38.2143 81.0539H101.854Z" fill="#DFDFDF"/>
<path d="M131.546 81.0548V92.79H27.9891V77.6308C27.9596 75.3985 28.6415 73.2149 29.9361 71.3962L44.0551 50.4903C44.6583 49.5994 45.6536 49.0533 46.7291 49.0233H60.6021C60.9312 49.0043 61.2527 49.1271 61.4853 49.3607C61.7179 49.5943 61.8394 49.9163 61.8191 50.2453V81.0548H131.546Z" fill="#DFDFDF"/>
<path opacity="0.4" d="M103.314 81.0528H82.1405V90.9555H103.314V81.0528Z" fill="#DFDFDF"/>
<path d="M123.516 90.9555C122.882 85.8595 118.551 82.0339 113.416 82.0339C108.28 82.0339 103.949 85.8595 103.316 90.9555H57.0727C56.3114 85.8304 51.9116 82.0358 46.7302 82.0358C41.5489 82.0358 37.149 85.8304 36.3878 90.9555H3.77282V91.078C3.79546 92.078 4.59843 92.8845 5.59831 92.9115H131.425V91.078H123.516V90.9555Z" fill="#DFDFDF"/>
<path d="M6.45282 83.8644C7.39368 83.8644 8.15983 82.552 8.15983 80.9303C8.15983 79.3087 7.39067 77.9973 6.45282 77.9973C5.51497 77.9973 4.74581 79.3097 4.74581 80.9313C4.74581 82.553 5.50894 83.8644 6.45282 83.8644Z" fill="#DFDFDF"/>
<path d="M23.3682 83.8644C24.3091 83.8644 25.0752 82.552 25.0752 80.9303C25.0752 79.3087 24.3061 77.9973 23.3682 77.9973C22.4304 77.9973 21.6612 79.3097 21.6612 80.9313C21.6612 82.553 22.4244 83.8644 23.3682 83.8644Z" fill="#DFDFDF"/>
<path d="M18.7402 88.3891H10.7072C9.90318 88.3755 9.25623 87.7241 9.24818 86.92V79.9534C9.25625 79.1491 9.90395 78.4979 10.7082 78.4854H18.7412C19.5452 78.4984 20.1926 79.1494 20.2012 79.9534V86.92C20.2192 87.3135 20.0714 87.6965 19.7936 87.9757C19.5159 88.255 19.1337 88.4049 18.7402 88.3891Z" fill="#DFDFDF"/>
<path d="M41.3742 51.4675L36.2632 58.9251L32.6122 64.3042L27.9882 70.9053H8.39679L10.4653 67.9712L12.1693 65.5252L13.8763 63.0811L17.2803 58.1951L21.9043 51.4675H41.3742Z" fill="#DFDFDF"/>
<path d="M59.5056 52.5688V70.9061H33.5862L45.9981 52.2013C46.114 51.9726 46.3503 51.8302 46.6066 51.8348H58.7756C59.1682 51.8626 59.48 52.1761 59.5056 52.5688Z" fill="#DFDFDF"/>
<path d="M55.9771 75.6737H58.8971C59.1587 75.6552 59.3666 75.4465 59.3841 75.1847C59.3671 74.9227 59.1589 74.7137 58.8971 74.6957H55.9771C55.7154 74.7142 55.5075 74.9229 55.4901 75.1847C55.4769 75.3176 55.5238 75.4495 55.6181 75.5442C55.7124 75.6389 55.8441 75.6864 55.9771 75.6737Z" fill="#DFDFDF"/>
<path d="M53.6647 92.789C53.5873 97.7841 49.5338 101.802 44.5383 101.836C39.5425 101.803 35.4886 97.7843 35.4118 92.789H53.6647Z" fill="#DFDFDF"/>
<path d="M46.9721 93.522H44.5381V101.957H46.9721V93.522Z" fill="#DFDFDF"/>
<path d="M46.6066 101.837C50.3192 101.855 53.6761 99.6316 55.109 96.2066C56.5419 92.7815 55.768 88.8305 53.149 86.199C50.5299 83.5675 46.5825 82.7751 43.1507 84.1918C39.719 85.6085 37.4802 88.9548 37.4801 92.6675C37.4742 95.0938 38.4325 97.423 40.1441 99.1426C41.8557 100.862 44.1803 101.832 46.6066 101.837Z" fill="#DFDFDF"/>
<path d="M46.6077 96.9451C48.34 96.9528 49.9061 95.9152 50.5743 94.3169C51.2425 92.7186 50.881 90.8751 49.6586 89.6476C48.4362 88.42 46.5943 88.0507 44.9932 88.7121C43.3921 89.3736 42.3478 90.9352 42.3482 92.6675C42.3458 93.7996 42.7932 94.8863 43.5921 95.6885C44.3909 96.4907 45.4756 96.9427 46.6077 96.9451Z" fill="#DFDFDF"/>
<path d="M119.987 92.789C119.98 97.7195 116.032 101.739 111.103 101.836C106.173 101.739 102.226 97.7191 102.22 92.789H119.987Z" fill="#DFDFDF"/>
<path d="M113.293 98.0467H111.102V101.837H113.293V98.0467Z" fill="#DFDFDF"/>
<path d="M113.293 101.837C118.277 101.757 122.253 97.6521 122.175 92.6676C122.253 87.6832 118.277 83.5788 113.293 83.4979C108.308 83.5788 104.332 87.6831 104.409 92.6676C104.331 97.6523 108.308 101.757 113.293 101.837Z" fill="#DFDFDF"/>
<path d="M113.294 96.9452C115.617 96.9056 117.469 94.9904 117.431 92.6667C117.469 90.3434 115.617 88.4287 113.294 88.3891C110.97 88.4287 109.118 90.3438 109.156 92.6677C109.118 94.9911 110.97 96.9056 113.294 96.9452Z" fill="#DFDFDF"/>
<path d="M83.966 84.9659H59.5066V88.5104H83.966V84.9659Z" fill="#DFDFDF"/>
<path d="M83.4801 88.3891H59.9937V102.937H83.4801V88.3891Z" fill="#DFDFDF"/>
<path d="M67.0516 84.9659V102.94H59.9936V88.3889H59.5066V84.9659H67.0516Z" fill="#DFDFDF"/>
<path opacity="0.4" d="M75.2042 84.9659H73.0142V102.94H75.2042V84.9659Z" fill="#DFDFDF"/>
<path opacity="0.15" d="M83.965 84.9659V88.3889H83.475V91.078L78.8561 88.8819L78.0025 88.3889L75.2041 87.0434L73.0131 86.0704L71.6746 85.3314L70.8231 84.9659H83.965Z" fill="#DFDFDF"/>
<path d="M83.4801 88.389H59.9937V88.7515H83.4801V88.389Z" fill="#DFDFDF"/>
<path d="M88.347 66.8715H63.8876V70.4171H88.347V66.8715Z" fill="#DFDFDF"/>
<path d="M87.7386 70.4171H64.2521V84.9658H87.7386V70.4171Z" fill="#DFDFDF"/>
<path d="M71.4326 66.8715V84.9658H64.2531V70.4171H63.8876V66.8715H71.4326Z" fill="#DFDFDF"/>
<path opacity="0.4" d="M79.5852 66.8715H77.3952V84.8453H79.5852V66.8715Z" fill="#DFDFDF"/>
<path d="M87.7386 70.4163H64.2521V70.7798H87.7386V70.4163Z" fill="#DFDFDF"/>
<path d="M85.4261 59.1699C84.5305 59.8881 84.3689 61.1885 85.0616 62.104L85.4261 62.4705L95.1661 70.1721C95.5828 70.5023 96.1154 70.6498 96.6426 70.5809C97.1698 70.5121 97.6467 70.2328 97.9646 69.8066C98.2111 69.4471 98.3386 69.0193 98.3291 68.5836V65.6495H117.799C117.964 65.659 118.125 65.5976 118.241 65.4807C118.357 65.3637 118.418 65.2026 118.408 65.038V56.7249C118.418 56.5604 118.357 56.3996 118.24 56.2829C118.124 56.1662 117.963 56.1049 117.799 56.1144H98.325V53.1793C98.3329 52.6596 98.1305 52.1588 97.7636 51.7907C97.3968 51.4225 96.8967 51.2183 96.377 51.2243C95.9436 51.2147 95.5183 51.3427 95.1621 51.5898L85.4261 59.1699Z" fill="#DFDFDF"/>
<path d="M10.7093 102.325H135.076H10.7093Z" fill="#DFDFDF"/>
<path d="M10.7093 102.325H135.076" stroke="#1C3754" stroke-linecap="round" stroke-linejoin="round"/>
<path d="M3.89441 102.325H6.20389H3.89441Z" fill="#DFDFDF"/>
<path d="M3.89441 102.325H6.20389" stroke="#1C3754" stroke-linecap="round" stroke-linejoin="round"/>
<path opacity="0.3" d="M32.8573 51.4675L13.8734 63.0822L17.2804 58.1951L28.1108 51.4675H32.8573Z" fill="#DFDFDF"/>
<path opacity="0.3" d="M37.4763 51.4675L10.4653 67.9722L12.1723 65.5252L35.1668 51.4675H37.4763Z" fill="#DFDFDF"/>
<path opacity="0.3" d="M36.2643 58.9261L32.6164 64.3052L21.6614 70.9073H16.5504L36.2643 58.9261Z" fill="#DFDFDF"/>
</svg>
