<svg width="25" height="25" viewBox="0 0 25 25" fill="none" xmlns="http://www.w3.org/2000/svg">
<path fill-rule="evenodd" clip-rule="evenodd" d="M0.949096 17.3057C2.87818 21.9631 7.42274 24.9998 12.4638 25.0001C15.7711 25.0089 18.9446 23.6942 21.2769 21.3491C24.4683 18.2092 25.7306 13.5988 24.5835 9.27106C23.4365 4.94335 20.0565 1.56331 15.7288 0.416283C11.4011 -0.730742 6.79062 0.531487 3.65069 3.72298C0.0862605 7.28765 -0.979991 12.6484 0.949096 17.3057ZM5.48497 11.3977C5.63167 11.2532 5.82955 11.1725 6.03547 11.1733C6.24075 11.1716 6.43847 11.2507 6.58596 11.3935L9.99694 14.7526L17.3029 7.56708C17.6095 7.26824 18.0984 7.26824 18.4049 7.56708L19.5059 8.64833C19.6515 8.79095 19.7336 8.98618 19.7336 9.19C19.7336 9.39381 19.6515 9.58904 19.5059 9.73166L10.5474 18.5437C10.2409 18.8425 9.75197 18.8425 9.44541 18.5437L4.38295 13.5643C4.23682 13.422 4.1544 13.2267 4.1544 13.0227C4.1544 12.8187 4.23682 12.6233 4.38295 12.481L5.48497 11.3977Z" fill="#5634D2"/>
</svg>
