<svg width="57" height="57" viewBox="0 0 57 57" fill="none" xmlns="http://www.w3.org/2000/svg">
<path d="M17.2206 39.6384C15.6597 38.747 14.6958 37.0879 14.6945 35.2905C14.7028 27.6083 20.9284 21.3827 28.6106 21.3744H34.3451L34.6152 16.9215H2.12202L4.46004 55.4303C4.5134 56.3105 5.24198 56.9974 6.12377 56.999H16.3652C15.2765 55.5557 14.6885 53.7966 14.6905 51.9888C14.693 49.8787 16.0152 47.9956 17.999 47.2767C16.5546 45.0653 16.5546 42.209 17.999 39.9975C17.4657 39.8765 17.1586 39.7554 17.2206 39.6384Z" fill="#1DBF73"/>
<path d="M18.367 13.5819H35.0673C35.9895 13.5819 36.7371 12.8344 36.7371 11.9122C36.7371 10.99 35.9895 10.2425 35.0673 10.2425H21.4514L25.9533 3.33946H31.7289C32.651 3.33946 33.3986 2.5919 33.3986 1.66973C33.3986 0.747566 32.651 2.27646e-06 31.7289 2.27646e-06H25.0479C24.483 -0.000929234 23.9559 0.284068 23.6473 0.757333L17.4616 10.2415H1.66973C0.747563 10.2415 0 10.989 0 11.9112C0 12.8334 0.747563 13.5809 1.66973 13.5809H18.367V13.5819Z" fill="#1DBF73"/>
<path d="M18.035 35.2905C18.035 36.2127 18.7825 36.9602 19.7047 36.9602H55.3293C55.7721 36.9602 56.1968 36.7843 56.5099 36.4712C56.8231 36.1581 56.999 35.7334 56.999 35.2905C56.9924 29.4525 52.2614 24.7215 46.4234 24.7149H28.6156C22.7756 24.7188 18.0416 29.4506 18.035 35.2905Z" fill="#1DBF73"/>
<path d="M23.6004 40.3006C21.7783 40.3321 20.3177 41.8182 20.3177 43.6405C20.3177 45.4629 21.7783 46.9489 23.6004 46.9805H51.4305C53.2526 46.9489 54.7132 45.4629 54.7132 43.6405C54.7132 41.8182 53.2526 40.3321 51.4305 40.3006H23.6004Z" fill="#1DBF73"/>
<path d="M55.3293 50.3201H19.7047C18.7825 50.3201 18.035 51.0676 18.035 51.9898C18.0383 54.7553 20.2796 56.9962 23.0452 56.999H51.9898C54.7553 56.9962 56.9967 54.7553 57 51.9898C57 51.5468 56.8239 51.1219 56.5106 50.8088C56.1972 50.4956 55.7723 50.3198 55.3293 50.3201Z" fill="#1DBF73"/>
</svg>
