<svg width="23" height="24" viewBox="0 0 23 24" fill="none" xmlns="http://www.w3.org/2000/svg">
<path d="M9 12C6.239 12 4 8.761 4 6V5C4 2.23858 6.23858 0 9 0C11.7614 0 14 2.23858 14 5V6C14 8.761 11.761 12 9 12Z" fill="#262B2E"/>
<path d="M12 22C11.9985 21.2048 12.3141 20.4417 12.877 19.88L16.977 15.78C16.686 15.5198 16.3461 15.3202 15.977 15.193C13.73 14.4252 11.3745 14.0225 9.00001 14C6.62656 14.0228 4.27208 14.4256 2.02601 15.193C0.811519 15.6066 -0.00370306 16.749 1.26492e-05 18.032V22H12Z" fill="#262B2E"/>
<path d="M20.083 15.5L14.293 21.29C14.1047 21.4783 13.9993 21.7338 14 22V24H16C16.2662 23.9981 16.5207 23.8902 16.707 23.7L22.5 17.914C23.1666 17.2466 23.1659 16.1651 22.4985 15.4985C21.8311 14.8319 20.7496 14.8326 20.083 15.5Z" fill="#262B2E"/>
</svg>
