<svg width="26" height="30" viewBox="0 0 26 30" fill="none" xmlns="http://www.w3.org/2000/svg">
<path d="M13.0051 21.6561C12.6818 21.6544 12.4181 21.915 12.4159 22.2383C12.4181 22.5617 12.6818 22.8222 13.0051 22.8206C13.3285 22.8222 13.5922 22.5617 13.5944 22.2383C13.5922 21.915 13.3285 21.6544 13.0051 21.6561Z" fill="white"/>
<path fill-rule="evenodd" clip-rule="evenodd" d="M7.35587 29.8986H18.6574C19.4162 29.9016 20.0926 29.4208 20.3391 28.7031C20.3426 28.6929 20.3456 28.6826 20.3481 28.6721L23.1762 18.468C24.9647 17.8876 26.1259 16.1611 25.9891 14.2857C25.8523 12.4103 24.4528 10.8706 22.599 10.5559C22.4669 10.5338 22.3178 10.5158 22.1668 10.5058C21.7862 9.01836 20.937 7.69285 19.7448 6.72533C18.4351 5.70197 16.8764 5.0459 15.229 4.82457C15.7002 4.29478 15.961 3.61079 15.9623 2.9018C15.9327 1.29062 14.6181 0 13.0066 0C11.3952 0 10.0806 1.29062 10.0509 2.9018C10.0522 3.61079 10.3131 4.29478 10.7842 4.82457C9.13655 5.04577 7.57752 5.70185 6.26744 6.72533C5.07543 7.69325 4.22659 9.01913 3.84647 10.5068C2.77098 10.5766 1.76552 11.0646 1.04536 11.8664C0.123509 12.8769 -0.218309 14.2883 0.139037 15.6086C0.496383 16.929 1.50338 17.9753 2.80906 18.383L5.6632 28.6671C5.66597 28.6776 5.66931 28.6879 5.6732 28.6981C5.91758 29.4185 6.59519 29.9019 7.35587 29.8986ZM19.0325 18.8452C19.168 18.7531 19.3239 18.6954 19.4867 18.6771V18.6761H21.8927L19.2136 28.341C19.1282 28.5744 18.906 28.7295 18.6574 28.7291H16.7006L18.9235 18.9042L19.0325 18.8452ZM13.0051 23.9372C13.3292 23.9361 13.5932 24.1973 13.5954 24.5214V28.7301H15.4871L17.568 19.5264C16.1243 20.1102 14.5824 20.4127 13.0251 20.4178C11.4543 20.4133 9.89864 20.1098 8.44131 19.5234L10.5231 28.7271H12.4139V24.5214C12.4161 24.1969 12.6806 23.9355 13.0051 23.9372ZM6.80265 28.341L4.11158 18.6611L4.11558 18.6621C4.24463 18.6731 4.38069 18.6781 4.51574 18.6781H6.52654C6.69011 18.6964 6.84672 18.7545 6.98273 18.8472L7.08977 18.9052L9.31266 28.7291H7.35988C7.11122 28.7291 6.88889 28.5742 6.80265 28.341ZM4.13759 11.6643C3.3224 11.6645 2.54277 11.9982 1.97973 12.5877C1.42754 13.1655 1.13989 13.9466 1.18541 14.7445C1.37228 16.4108 2.84256 17.6314 4.51474 17.5086H6.52554C6.91571 17.5237 7.29441 17.6447 7.62098 17.8588L7.67526 17.8882L7.6753 17.8883C7.74749 17.9276 7.82224 17.9683 7.90209 18.0058C9.48745 18.8189 11.2415 19.2486 13.0231 19.2603C14.8036 19.247 16.5557 18.8127 18.1362 17.9928C18.2262 17.9468 18.3102 17.9028 18.3903 17.8598C18.7167 17.6455 19.0955 17.5244 19.4857 17.5096H21.8737C23.4071 17.5414 24.7038 16.3813 24.8423 14.8538C24.9808 13.3263 23.914 11.952 22.3999 11.7073C22.2273 11.6781 22.0527 11.6634 21.8777 11.6633C20.9866 11.6603 20.1416 12.0586 19.5768 12.7477C19.3687 12.9966 19.0005 13.0352 18.7454 12.8348C18.6236 12.7381 18.5457 12.5966 18.5292 12.442C18.5126 12.2874 18.5588 12.1327 18.6574 12.0124C19.2474 11.2952 20.0606 10.7961 20.9673 10.5949C20.5374 9.10828 19.552 7.84412 18.2152 7.06446C16.6239 6.18374 14.8227 5.75348 13.0051 5.81996C11.1901 5.75556 9.39178 6.18646 7.80305 7.06646C6.46651 7.84636 5.48112 9.11042 5.05095 10.5969C5.95795 10.7981 6.77149 11.2971 7.36188 12.0144C7.46044 12.1347 7.50662 12.2894 7.49007 12.444C7.47352 12.5986 7.39562 12.7401 7.27384 12.8368C7.01858 13.0378 6.64966 12.9993 6.44151 12.7497C5.87679 12.0592 5.03062 11.6604 4.13859 11.6643H4.13759ZM11.2715 2.91132C11.264 1.94529 12.0391 1.15512 13.0051 1.1441C13.9784 1.13966 14.7717 1.92358 14.7788 2.8968C14.7793 3.86285 13.9984 4.64737 13.0324 4.65137C12.0664 4.65537 11.279 3.87734 11.2715 2.91132Z" fill="white"/>
</svg>
