<svg width="207" height="331" viewBox="0 0 207 331" fill="none" xmlns="http://www.w3.org/2000/svg">
<rect x="95.3573" y="195.523" width="15.7853" height="54.2809" fill="#DFDFDF"/>
<path d="M111.143 213.863V197.38C108.541 197.611 105.91 197.741 103.25 197.741C100.59 197.741 97.9582 197.611 95.3573 197.38V213.855C97.9686 214.055 100.616 214.155 103.301 214.155C105.986 214.155 108.599 214.058 111.143 213.863Z" fill="#DFDFDF"/>
<rect x="91.2252" y="233.835" width="24.0502" height="97.1646" rx="12.016" fill="#DFDFDF"/>
<path d="M111.253 238.293V311.403C111.253 314.592 109.986 317.651 107.731 319.907C105.475 322.162 102.417 323.429 99.2271 323.429V323.429C96.317 323.434 93.5044 322.38 91.3144 320.463" stroke="#DFDFDF" stroke-width="2" stroke-linecap="round" stroke-linejoin="round"/>
<path fill-rule="evenodd" clip-rule="evenodd" d="M0 103.303C-0.000368452 46.2507 46.249 0.000552679 103.301 0C160.353 0.000552658 206.603 46.2499 206.604 103.302C206.604 160.354 160.354 206.604 103.302 206.604C46.2503 206.604 0.000368452 160.355 0 103.303ZM16.4108 103.354C16.4126 151.313 55.2916 190.189 103.25 190.188C126.281 190.188 148.369 181.038 164.654 164.751C180.939 148.465 190.087 126.376 190.085 103.345C190.082 55.3867 151.202 16.5112 103.243 16.5138C55.2849 16.5164 16.4089 55.396 16.4108 103.354Z" fill="#DFDFDF"/>
<circle cx="103.654" cy="103.353" r="91.6806" stroke="#DFDFDF" stroke-width="2" stroke-linecap="round" stroke-linejoin="round"/>
<path opacity="0.5" d="M34.1045 73.6187C41.3622 56.7111 54.5132 43.0146 71.112 35.0761" stroke="#DFDFDF" stroke-width="20" stroke-linecap="round" stroke-linejoin="round"/>
</svg>
