<svg width="44" height="80" viewBox="0 0 44 80" fill="none" xmlns="http://www.w3.org/2000/svg">
<circle opacity="0.15" cx="22" cy="57.5718" r="22" fill="#1DBF73"/>
<circle cx="22" cy="57.5718" r="12" fill="#1DBF73"/>
<path fill-rule="evenodd" clip-rule="evenodd" d="M10 12.581C10 5.636 16.069 0 23.55 0C31.031 0 37.1 5.636 37.1 12.581C37.1 22.367 23.55 39.145 23.55 39.145C23.55 39.145 10 22.367 10 12.581ZM19.137 13.55C19.137 15.9872 21.1128 17.963 23.55 17.963C25.9872 17.963 27.963 15.9872 27.963 13.55C27.963 11.1128 25.9872 9.137 23.55 9.137C21.1128 9.137 19.137 11.1128 19.137 13.55Z" fill="#1DBF73"/>
</svg>
