<svg width="266" height="255" viewBox="0 0 266 255" fill="none" xmlns="http://www.w3.org/2000/svg">
<path d="M116.138 228.411C116.138 228.411 20.71 210.174 13.7633 216.032C6.81658 221.89 4.07474 234.741 17.3932 238.925C30.8248 243.143 45.268 245.469 56.2346 247.276C67.2012 249.084 113.772 250.506 113.772 250.506L116.138 228.411Z" fill="#DFDFDF"/>
<rect x="249.084" y="149.23" width="11.6148" height="36.8749" rx="5.8" transform="rotate(59.9793 249.084 149.23)" fill="#DFDFDF"/>
<path d="M220.598 146.942C220.598 146.942 227.498 148.16 232.331 146.629C237.165 145.097 241.185 145.515 244.1 148.971C247.015 152.428 251.112 156.72 250.494 159.447C249.876 162.173 246.584 160.95 246.584 160.95C246.584 160.95 248.302 163.558 245.647 165.06C244.421 165.744 242.881 165.443 242.002 164.35C242.508 165.965 241.671 167.695 240.091 168.301C238.527 169.056 236.379 167.52 236.379 167.52C236.379 167.52 234.468 170.925 232.348 170.225C230.228 169.525 229.894 165.173 227.239 163.465C223.98 161.374 218.278 160.023 218.278 160.023C218.278 160.023 218.668 154.856 218.949 153.374C219.285 151.181 219.837 149.027 220.598 146.942Z" fill="#DFDFDF"/>
<path d="M241.461 153.85L246.567 160.97" stroke="#DFDFDF" stroke-width="2" stroke-linecap="round" stroke-linejoin="round"/>
<path d="M241.985 164.369L238.068 158.407" stroke="#DFDFDF" stroke-width="2" stroke-linecap="round" stroke-linejoin="round"/>
<path d="M154.105 134.847C154.105 134.847 146.452 124.103 138.626 112.584C130.8 101.065 122.797 88.7687 113.606 85.8203C95.2237 79.9194 84.3061 105.549 104.027 125.397C123.749 145.245 136.675 159.221 144.615 161.664C152.555 164.106 220.359 168.707 220.359 168.707C220.359 168.707 218.977 153.553 223.326 144.123L154.105 134.847Z" fill="#DFDFDF"/>
<path d="M8.06013 91.7239L44.3866 78.5631C50.757 76.7504 56.1932 77.3232 61.6682 77.6416C70.2724 78.1392 94.3209 80.7588 94.3209 80.7588L47.9674 95.8127L8.06013 91.7239Z" fill="#DFDFDF"/>
<path d="M47.9674 95.8117L13.9414 91.096C10.4325 90.609 6.88464 91.6641 4.212 93.9891C1.53937 96.3142 0.00343191 99.682 2.6548e-05 103.224L0.0373621 206.47C0.0381927 212.133 3.92067 217.058 9.42761 218.382L51.2224 228.417L47.9674 95.8117Z" fill="#DFDFDF"/>
<path d="M8.10584 217.994C8.54655 218.15 8.99592 218.28 9.4517 218.385L38.9688 225.472L38.9509 175.847C38.9499 172.716 36.7793 170.004 33.7249 169.317L13.7578 164.835C12.3802 164.525 10.9364 164.858 9.83372 165.74C8.73102 166.622 8.08884 167.958 8.08826 169.37L8.10584 217.994Z" fill="#DFDFDF"/>
<path d="M94.317 80.7658L97.1277 208.496L51.2455 228.438L47.9674 95.8117L94.317 80.7658Z" fill="#DFDFDF"/>
<path d="M201.873 254.712C179.632 255.502 146.792 254.4 146.73 254.541C120.126 226.651 103.132 221.224 124.016 253.622C109.034 252.994 77.3975 249.959 56.2196 247.275C52.3728 239.397 50.2238 224.749 50.2238 224.749L130.125 191.212C130.219 191.179 191.464 236.269 201.873 254.712Z" fill="#DFDFDF"/>
<path d="M58.7696 75.0063C58.7696 75.0063 45.6866 82.4415 33.1909 91.2182C20.6952 99.9949 23.4249 122.899 26.7504 137.47C30.0759 152.042 49.9197 228.315 49.9197 228.315C49.9197 228.315 110.336 232.043 138.658 198.701C138.658 198.701 126.747 168.705 126.852 136.626C126.909 119.504 126.141 106.788 121.123 92.9726C117.753 83.6971 106.688 81.2449 106.688 81.2449L58.7696 75.0063Z" fill="#DFDFDF"/>
<path d="M58.7687 75.0063C65.7975 71.5101 70.5511 64.6632 71.3702 56.8557L100.17 69.6616C100.17 69.6616 98.8792 79.2472 110.343 82.4191C110.344 82.4382 78.4399 94.8395 58.7687 75.0063Z" fill="#DFDFDF"/>
<path d="M75.9726 64.2735C75.9726 64.2735 84.5358 81.6855 102.896 78.0413C101.31 76.081 100.137 73.8198 99.448 71.394L75.9726 64.2735Z" fill="#DFDFDF"/>
<path d="M115.819 27.8718C115.819 27.8718 121.487 51.5498 110.527 67.8035C99.5668 84.0571 77.9243 73.122 71.3871 56.8677C64.85 40.6134 69.5751 29.9191 69.5751 29.9191C69.5751 29.9191 102.301 21.897 115.819 27.8718Z" fill="#DFDFDF"/>
<path d="M120.258 38.3525C122.506 37.9372 124.168 37.487 124.561 33.5448C125.107 28.332 120.367 28.1225 120.367 28.1225C120.367 28.1225 120.204 32.0024 120.193 33.4373C120.181 35.3687 120.258 38.3525 120.258 38.3525Z" fill="#DFDFDF"/>
<path d="M82.9029 32.3273C82.9029 32.3273 79.9007 36.7711 84.5746 47.5791C88.0348 55.56 89.7939 63.3613 81.3211 68.9565C74.3069 73.5899 46.7894 61.093 53.5709 27.641C58.7553 2.06656 88.5843 -6.06756 107.431 4.5201C128.002 16.0804 117.284 31.2115 121.728 44.1393C125.016 53.7003 122.054 61.249 112.572 64.1311C112.572 64.1311 118.775 48.7863 115.983 31.6345C115.977 31.6275 103.596 24.1905 82.9029 32.3273Z" fill="#DFDFDF"/>
<circle cx="95.6335" cy="44.4111" r="1.72119" transform="rotate(-0.0207193 95.6335 44.4111)" fill="#DFDFDF"/>
<circle cx="113.068" cy="44.4048" r="1.72119" transform="rotate(-0.0207193 113.068 44.4048)" fill="#DFDFDF"/>
<path d="M108.517 35.419C108.517 35.419 113.791 30.9394 118.2 36.6591C115.046 35.7966 111.787 35.3792 108.517 35.419Z" fill="#DFDFDF"/>
<path d="M100.166 35.422C100.166 35.422 94.8887 30.9462 90.4792 36.6771C93.6327 35.8035 96.894 35.3809 100.166 35.422Z" fill="#DFDFDF"/>
<path d="M105.79 46.1276C105.79 46.1276 107.144 49.7317 108.71 53.0684C110.276 56.4051 108.4 57.5462 105.794 58.0678" stroke="#DFDFDF" stroke-width="2" stroke-linecap="round" stroke-linejoin="round"/>
<path d="M100.18 65.0507C100.18 65.0507 94.8405 63.6999 92.6061 59.4293" stroke="#DFDFDF" stroke-width="2" stroke-linecap="round" stroke-linejoin="round"/>
<path d="M68.5912 16.9159C66.9134 18.5049 65.3252 20.1858 63.8339 21.951C62.02 24.0455 62.0568 27.1651 63.9197 29.2162C65.5662 31.0421 68.228 31.5465 70.4284 30.4494L72.0742 29.6318C73.4581 28.9465 75.1361 29.4222 75.9545 30.7318L76.9644 32.3545C77.4466 33.241 78.2663 33.8951 79.2376 34.1687C80.2089 34.4423 81.2496 34.312 82.1235 33.8075C88.4853 30.1405 103.559 23.3815 121.372 28.7088C127.321 30.4859 123.221 37.1789 123.221 37.1789C123.221 37.1789 128.042 34.8302 126.511 29.6772C124.981 24.5242 119.789 9.10446 115.67 6.21628C107.236 0.268756 86.2119 1.12143 68.5912 16.9159Z" fill="#DFDFDF"/>
<path d="M107.738 3.25639C106.843 3.10786 105.909 2.99873 104.934 2.92899L98.7353 27.6166C99.7095 27.429 100.714 27.2715 101.739 27.1379L107.738 3.25639Z" fill="#DFDFDF"/>
<path d="M89.3434 30.3415C91.3865 29.5425 93.4757 28.8667 95.5996 28.3177L101.999 2.84394C100.025 2.86976 98.0556 3.03509 96.1053 3.3387L89.3434 30.3415Z" fill="#DFDFDF"/>
<path d="M116.636 37.727C116.636 37.727 117.302 53.8473 111.37 66.5005" stroke="#DFDFDF" stroke-width="2" stroke-linecap="round" stroke-linejoin="round"/>
<circle cx="67.6912" cy="25.6523" r="2.31094" transform="rotate(-0.0207193 67.6912 25.6523)" fill="#DFDFDF"/>
<path d="M92.1342 89.2144C92.1342 89.2144 103.299 172.941 111.41 218.018" stroke="#DFDFDF" stroke-width="2" stroke-linecap="round" stroke-linejoin="round"/>
<path d="M36.7996 88.7648C36.7996 88.7648 59.3245 94.9044 68.7739 129.274C78.2233 163.643 40.7091 192.698 40.7091 192.698L44.4922 207.373C44.4922 207.373 83.5677 181.903 84.6052 140.832C85.6427 99.7601 54.387 77.6473 54.387 77.6473C47.7852 79.3963 41.8501 83.0633 37.3321 88.1848L36.7996 88.7648Z" fill="#DFDFDF"/>
<path d="M110.344 82.4382C110.344 82.4382 124.663 85.6791 126.264 112.24C127.987 140.812 126.859 156.617 130.132 168.343C130.132 168.343 118.249 163.995 118.236 128.422C118.218 87.8923 110.344 82.4382 110.344 82.4382Z" fill="#DFDFDF"/>
<path d="M262.153 250.451C252.029 252.758 209.777 255.637 181.2 254.786C184.268 214.816 196.989 205.117 210.934 198.573C245.316 182.405 250.983 211.362 262.153 250.451Z" fill="#DFDFDF"/>
<path d="M254.992 251.588C254.992 251.588 247.718 252.428 244.152 252.693L231.973 253.599C231.973 253.599 221.647 216.215 217.515 209.189C215.825 206.447 213.868 203.879 211.674 201.522C210.936 200.723 210.141 199.978 209.295 199.294L228.341 190.706C229.66 191.828 230.862 193.08 231.929 194.444C234.329 197.711 236.392 201.214 238.085 204.899C242.002 212.77 254.992 251.588 254.992 251.588Z" fill="#DFDFDF"/>
<path d="M169.488 193.188C166.462 187.775 168.135 180.945 173.319 177.543C176.998 175.098 185.414 172.204 187.395 167.633C191.489 158.206 214.89 150.951 221.238 155.004C225.47 157.706 230.906 155.431 233.847 155.184C239.627 154.704 242.88 160.265 241.77 164.904C239.907 172.726 236.687 169.664 235.831 181.627C235.574 185.319 237.47 190.403 233.239 193.521C224.767 199.781 213.059 203.873 206.358 200.085C204.704 199.152 202.188 195.738 200.882 194.834C197.705 192.646 189.932 196.771 183.218 198.779C177.929 200.376 172.241 198.089 169.528 193.277L169.488 193.188Z" fill="#DFDFDF"/>
<path d="M201.468 189.61C198.942 188.742 191.156 192.285 183.09 195.146C177.917 196.986 172.062 196.39 169.402 193.059L169.468 193.188L169.519 193.278C172.232 198.09 177.92 200.377 183.209 198.78C189.934 196.775 197.677 192.647 200.873 194.835C202.183 195.736 204.699 199.14 206.349 200.086C208.792 201.33 211.553 201.811 214.273 201.464C206.969 200.491 207.196 191.571 201.468 189.61Z" fill="#DFDFDF"/>
<rect x="178.232" y="181.402" width="11.6148" height="36.8749" rx="5.8" transform="rotate(68.5193 178.232 181.402)" fill="#DFDFDF"/>
<path d="M242.118 167.154C245.522 164.65 251.776 160.283 254.079 160.181C254.079 160.181 253.54 161.91 255.699 162.528C256.584 162.811 257.545 162.427 257.993 161.613C258.44 160.799 258.249 159.782 257.536 159.187C256.021 157.802 253.452 158.269 250.414 159.232C248.412 159.867 243.16 161.582 239.813 162.697C239.088 162.938 238.51 163.492 238.238 164.205C237.965 164.918 238.027 165.715 238.406 166.378C238.769 167.004 239.38 167.447 240.089 167.595C240.797 167.743 241.535 167.583 242.118 167.154Z" fill="#DFDFDF"/>
<path d="M234.06 171.021L234.532 177.11C234.878 181.615 233.107 185.812 230.124 187.389L220.662 192.399C217.823 193.902 214.514 191.983 213.351 188.041L211.252 180.913C210.183 177.288 211.569 173.419 214.284 172.367L229.534 166.454C231.618 165.64 233.821 167.908 234.06 171.021Z" fill="#DFDFDF"/>
<path d="M235.518 169.703C235.316 164.873 231.604 163.306 229.29 164.23L212.671 170.928C209.637 172.152 208.082 176.651 209.276 180.867L211.626 189.16C212.93 193.744 216.642 196.292 220.4 194.593" stroke="#DFDFDF" stroke-width="2" stroke-linecap="round" stroke-linejoin="round"/>
<path d="M227.634 167.187L225.995 167.821L222.952 191.182L224.622 190.297L227.634 167.187Z" fill="#DFDFDF"/>
<path d="M219.793 170.228L216.891 192.521C218.097 193.076 219.495 193.029 220.661 192.394L220.813 192.316L223.898 168.635L219.793 170.228Z" fill="#DFDFDF"/>
<rect x="206.605" y="222.865" width="52.0222" height="19.9494" rx="5.47" transform="rotate(-21.4807 206.605 222.865)" fill="#DFDFDF"/>
<path d="M230.34 158.409L236.701 142.005C237.695 139.44 239.888 137.529 242.566 136.897L250.976 134.938" stroke="#DFDFDF" stroke-width="6" stroke-linecap="round" stroke-linejoin="round"/>
<ellipse cx="254.921" cy="134.923" rx="11.8501" ry="10.7236" transform="rotate(-60.0207 254.921 134.923)" fill="#DFDFDF"/>
<path d="M155.727 162.339L169.912 161.76C172.436 161.657 174.848 162.806 176.359 164.831L185.94 177.706" stroke="#DFDFDF" stroke-width="6" stroke-linecap="round" stroke-linejoin="round"/>
<ellipse cx="154.753" cy="162.341" rx="11.8501" ry="10.7236" transform="rotate(-60.0207 154.753 162.341)" fill="#DFDFDF"/>
<path d="M206.055 204.347C206.055 204.347 187.096 216.801 185.966 250.479" stroke="#DFDFDF" stroke-width="2" stroke-linecap="round" stroke-linejoin="round"/>
<path d="M137.745 172.928C137.745 172.928 147.399 177.164 154.759 177.853C162.118 178.543 168.094 176.597 170.317 182.432C172.54 188.266 176.229 193.892 174.765 196.591C173.301 199.29 169.627 197.567 169.627 197.567C169.794 198.758 169.264 199.94 168.263 200.607C166.308 201.675 164.176 200.072 164.176 200.072C164.259 201.226 163.668 202.323 162.66 202.888C161.526 203.293 160.267 203.133 159.269 202.459C159.032 203.343 158.355 204.042 157.479 204.306C156.119 204.675 154.667 204.248 153.724 203.201C155.778 201.934 156.834 199.527 156.373 197.157C155.737 192.109 149.308 192.764 149.308 192.764C149.308 192.764 146.224 198.072 141.099 197.034C135.974 195.995 132.494 192.431 126.862 191.332L137.745 172.928Z" fill="#DFDFDF"/>
<path d="M167.979 192.108L169.627 197.57" stroke="#DFDFDF" stroke-width="2" stroke-linecap="round" stroke-linejoin="round"/>
<path d="M164.176 200.076L162.774 194.84" stroke="#DFDFDF" stroke-width="2" stroke-linecap="round" stroke-linejoin="round"/>
<path d="M147.215 176.308C147.215 176.308 142.076 187.825 142.607 197.166C140.986 197.152 139.394 196.728 137.98 195.933C137.98 195.933 142.237 181.637 147.215 176.308Z" fill="#DFDFDF"/>
<path d="M164.8 204.417C165.646 205.173 166.007 206.333 165.74 207.435C165.221 209.203 160.742 209.522 160.322 205.927C159.969 202.896 176.657 191.674 181.892 188.231C182.859 187.589 184.074 187.443 185.165 187.838C186.381 188.283 187.273 189.334 187.514 190.606C187.755 191.877 187.309 193.182 186.341 194.041C185.002 195.192 183.443 196.057 181.758 196.585C174.907 198.887 168.971 199.933 164.8 204.417Z" fill="#DFDFDF"/>
<path d="M80.8259 150.276C80.8259 150.276 73.4112 135.617 64.5022 117.24C59.3358 106.608 52.079 96.6773 44.9752 94.7554C25.0049 89.3618 16.4322 112.088 33.649 136.637C50.8657 161.186 58.2266 173.718 66.1632 177.739C74.0997 181.761 138.67 198.679 138.67 198.679C138.67 198.679 141.222 183.258 148.439 174.718L80.8259 150.276Z" fill="#DFDFDF"/>
<path d="M146.746 254.54C146.703 254.677 131.885 254.123 124.032 253.621C116.179 241.755 103.936 223.652 127.513 232.423C139.617 236.306 150.308 241.896 146.746 254.54Z" fill="#DFDFDF"/>
<path d="M38.6418 143.844L57.1848 169.781C59.8353 173.849 63.7212 176.96 68.2711 178.655C75.4991 181.092 116.125 192.673 116.125 192.673" stroke="#DFDFDF" stroke-width="2" stroke-linecap="round" stroke-linejoin="round"/>
<path d="M56.8146 76.1805C56.8146 76.1805 71.1221 90.9702 91.6917 89.2616L90.5952 86.3362C89.7401 84.049 87.7606 82.3683 85.3649 81.8955C80.1399 80.8731 70.6118 78.0489 63.8514 70.4567L56.8146 76.1805Z" fill="#DFDFDF"/>
<path d="M91.6886 89.2466L92.3011 85.859C92.6666 83.835 94.1357 82.1865 96.1044 81.5912C99.2816 80.6451 102.368 79.419 105.329 77.9272L111.357 82.7822C111.357 82.7822 105.245 88.3185 91.6886 89.2466Z" fill="#DFDFDF"/>
<path d="M66.9851 83.5062C66.9851 83.5062 83.3561 95.1821 105.816 85.776" stroke="#DFDFDF" stroke-width="2" stroke-linecap="round" stroke-linejoin="round"/>
</svg>
