<svg width="22" height="24" viewBox="0 0 22 24" fill="none" xmlns="http://www.w3.org/2000/svg">
<path fill-rule="evenodd" clip-rule="evenodd" d="M11 12V12C8.23858 12 6 9.76142 6 7V6C6 3.23858 8.23858 1 11 1V1C13.7614 1 16 3.23858 16 6V7C16 9.76142 13.7614 12 11 12Z" stroke="#8A94A3" stroke-width="2" stroke-linecap="round" stroke-linejoin="round"/>
<path fill-rule="evenodd" clip-rule="evenodd" d="M21 20.908C21.0037 19.108 19.8018 17.5284 18.066 17.052C15.7659 16.3983 13.3908 16.0447 11 16C8.60918 16.0447 6.23416 16.3983 3.93401 17.052C2.19819 17.5284 0.996275 19.108 1.00001 20.908V23H21V20.908Z" stroke="#8A94A3" stroke-width="2" stroke-linecap="round" stroke-linejoin="round"/>
</svg>
