<svg width="161" height="45" viewBox="0 0 161 45" fill="none" xmlns="http://www.w3.org/2000/svg">
<rect width="161" height="44.8007" rx="18.05" fill="#DFDFDF"/>
<rect x="8.91179" y="8.96174" width="26.8772" height="26.8772" rx="6.56" fill="#DFDFDF"/>
<path d="M28.1217 26.4678C28.1217 28.5991 25.5419 29.3449 22.3544 29.3449C19.1669 29.3449 16.5871 28.5981 16.5871 26.4678C16.5871 24.3374 19.1709 22.5996 22.3544 22.5996C25.5379 22.5996 28.1217 24.3314 28.1217 26.4678Z" fill="#DFDFDF"/>
<ellipse cx="22.3485" cy="24.3945" rx="10.1761" ry="3.8602" fill="#DFDFDF"/>
<ellipse cx="22.3484" cy="24.6498" rx="6.3469" ry="2.04222" fill="#DFDFDF"/>
<path d="M26.1936 23.022L32.08 17.6071C32.3402 17.4329 32.4697 17.119 32.4081 16.812C32.3466 16.5049 32.106 16.2653 31.7987 16.2049C31.4915 16.1444 31.1781 16.2751 31.0048 16.536L25.609 22.4224C24.9336 22.2663 24.2272 22.4954 23.772 23.018C23.085 23.5369 22.9162 24.4987 23.3855 25.2204C24.1052 25.6997 25.0744 25.5297 25.5879 24.834C26.1053 24.3857 26.3374 23.6913 26.1936 23.022Z" fill="#DFDFDF"/>
<path d="M17.7415 22.6076C16.1287 21.8337 18.3601 19.304 16.9676 17.6372C15.5751 15.9704 17.6944 13.9331 21.1061 15.3517C24.5178 16.7702 26.4399 14.683 26.5871 16.586C26.7843 18.9446 22.6768 24.9321 17.7415 22.6076Z" fill="#DFDFDF"/>
<path d="M21.7057 17.5871C22.2062 18.2178 21.8639 18.8365 21.2302 19.339C20.5965 19.8416 19.9188 20.0398 19.4162 19.4091C18.9131 18.7769 19.0177 17.8565 19.65 17.3534C20.2822 16.8502 21.2026 16.9549 21.7057 17.5871Z" fill="#DFDFDF"/>
<path d="M19.5214 18.9876C19.3318 18.645 19.3318 18.229 19.5214 17.8864C19.7536 17.538 20.0319 17.8864 19.9078 18.1497C19.7837 18.413 19.3892 18.5271 19.5214 18.9876Z" fill="#DFDFDF"/>
<rect x="44.6225" y="11.7808" width="85.2697" height="4.4168" rx="2.206" fill="#DFDFDF"/>
<rect x="44.6225" y="22.4634" width="85.2697" height="2.75399" rx="1.375" fill="#DFDFDF"/>
<rect x="44.6225" y="29.1747" width="46.9781" height="2.75399" rx="1.375" fill="#DFDFDF"/>
<rect x="138.699" y="11.7808" width="13.8851" height="13.4366" rx="4.21" fill="#DFDFDF"/>
<path d="M146.091 18.0386H147.286V18.9046H146.091V20.254H145.178V18.9056H143.977V18.0396H145.178V16.7432H146.091V18.0386Z" fill="#DFDFDF"/>
</svg>
