<svg width="30" height="30" viewBox="0 0 30 30" fill="none" xmlns="http://www.w3.org/2000/svg">
<path d="M8.99329 4.99863V6.99747H27.9818V10.9538L25.7598 17.9896H8.36505L5.86725 0H0V1.99481H4.12596L6.62477 19.9885H27.2293L29.9796 11.2618V4.99964L8.99329 4.99863Z" fill="#8A94A3"/>
<path fill-rule="evenodd" clip-rule="evenodd" d="M6.0561 26.0033C6.0561 23.796 7.84547 22.0066 10.0528 22.0066C12.2589 22.0094 14.0467 23.7971 14.0495 26.0033C14.0495 28.2106 12.2601 29.9999 10.0528 29.9999C7.84547 29.9999 6.0561 28.2106 6.0561 26.0033ZM8.20609 26.7682C8.51547 27.5151 9.24432 28.0021 10.0528 28.0021V28.0011C11.1563 28.0011 12.0511 27.1068 12.0516 26.0033C12.0516 25.1948 11.5646 24.4659 10.8177 24.1566C10.0708 23.8472 9.21105 24.0182 8.63938 24.5899C8.06772 25.1615 7.8967 26.0213 8.20609 26.7682Z" fill="#8A94A3"/>
<path fill-rule="evenodd" clip-rule="evenodd" d="M20.0471 26.0033C20.0471 23.796 21.8364 22.0066 24.0437 22.0066C26.2499 22.0094 28.0376 23.7971 28.0404 26.0033C28.0404 28.2106 26.251 29.9999 24.0437 29.9999C21.8364 29.9999 20.0471 28.2106 20.0471 26.0033ZM22.197 26.7682C22.5064 27.5151 23.2353 28.0021 24.0437 28.0021C25.1477 28.0021 26.0426 27.1072 26.0426 26.0033C26.0426 25.1948 25.5556 24.4659 24.8087 24.1566C24.0617 23.8472 23.202 24.0182 22.6303 24.5899C22.0587 25.1615 21.8877 26.0213 22.197 26.7682Z" fill="#8A94A3"/>
</svg>
