<svg width="36" height="36" viewBox="0 0 36 36" fill="none" xmlns="http://www.w3.org/2000/svg">
<path d="M30.9135 26.6471C30.7383 26.75 30.5537 26.8357 30.3621 26.903V35.984C31.4401 35.6934 32.4464 35.183 33.3176 34.4847C35.146 32.8997 36.1323 30.5537 35.9857 28.1382V21.5135C34.7068 23.5877 32.9726 25.3437 30.9145 26.6482L30.9135 26.6471Z" fill="#1DBF73"/>
<path d="M25.0921 27.0853C25.0925 27.7209 24.9482 28.3483 24.6702 28.9199L28.2545 30.1684V26.907L25.0952 25.8052L25.0921 27.0853Z" fill="#1DBF73"/>
<path d="M16.6577 22.866L0.00199061 17.0627V20.3241L16.6577 26.1335V22.866Z" fill="#1DBF73"/>
<path d="M20.8749 31.3018C19.0702 31.2992 17.4666 30.1501 16.884 28.442L0.00199073 22.5633V25.3283C0.00177465 25.777 0.285603 26.1766 0.70927 26.3241L28.2534 35.9177V32.4036L23.1578 30.6281C22.4779 31.0686 21.685 31.3026 20.8749 31.3018Z" fill="#1DBF73"/>
<path d="M12.09 8.78482C12.09 11.1808 13.9412 13.1695 16.3308 13.341C18.7205 13.5124 20.8365 11.8084 21.1787 9.43698C21.5208 7.0656 19.9727 4.83283 17.632 4.32178C17.3351 2.56287 16.2134 1.05271 14.6154 0.260309L14.3188 0.111508C13.7982 -0.148826 13.1651 0.0622161 12.9047 0.582883C12.6444 1.10355 12.8555 1.73668 13.3761 1.99701L13.6727 2.14581C14.57 2.5907 15.2317 3.40135 15.4877 4.36969C13.4866 4.90291 12.093 6.71375 12.09 8.78482H12.09Z" fill="#1DBF73"/>
<path fill-rule="evenodd" clip-rule="evenodd" d="M35.9846 14.0825C35.9846 13.791 35.9153 6.91251 29.8433 3.33515C29.5759 3.17755 29.2526 3.14585 28.9597 3.24852C28.4799 3.41417 27.537 3.74318 26.2746 4.18367L26.2734 4.18408L26.271 4.18493L26.2704 4.18511L26.2687 4.1857C25.2022 4.55784 23.9081 5.00937 22.4729 5.50908C23.7859 7.83634 23.5849 10.7223 21.962 12.8451C20.3392 14.9679 17.607 15.9186 15.0171 15.2617C12.4271 14.6049 10.4781 12.467 10.0629 9.82739C5.75097 11.3287 2.08413 12.6057 0.707274 13.0888C0.283786 13.2363 0 13.6356 0 14.084C0 14.5325 0.283786 14.9318 0.707274 15.0793L18.7643 21.3677V27.0853C18.7643 27.8387 19.1662 28.5349 19.8186 28.9115C20.471 29.2882 21.2748 29.2882 21.9272 28.9115C22.5796 28.5349 22.9815 27.8387 22.9815 27.0853V22.8353L28.9618 24.9216C29.2542 25.0233 29.5766 24.9913 29.8433 24.834L29.845 24.8329C30.1197 24.6666 35.9846 21.1148 35.9846 14.0825ZM24.7405 14.7858C24.1585 14.7858 23.6867 14.3139 23.6867 13.7319C23.6867 13.1499 24.1585 12.6781 24.7405 12.6781C25.3225 12.6781 25.7943 13.1499 25.7943 13.7319C25.7937 14.3135 25.3221 14.7847 24.7405 14.7847V14.7858ZM25.7953 18.6515C25.7953 19.2336 26.2671 19.7054 26.8491 19.7054C27.1284 19.7054 27.3963 19.5945 27.5939 19.3971C27.7917 19.1994 27.9029 18.9312 27.9029 18.6515C27.9029 18.0695 27.4311 17.5977 26.8491 17.5977C26.2671 17.5977 25.7953 18.0695 25.7953 18.6515ZM28.9577 10.5683C28.3757 10.5683 27.9039 10.0965 27.9039 9.5145C27.9039 8.93248 28.3757 8.46066 28.9577 8.46066C29.5397 8.46066 30.0115 8.93248 30.0115 9.5145C30.0115 9.79417 29.9003 10.0624 29.7025 10.26C29.5049 10.4575 29.237 10.5683 28.9577 10.5683ZM29.3093 14.4341C29.3093 15.0162 29.7811 15.488 30.3631 15.488C30.6424 15.488 30.9103 15.3771 31.1079 15.1797C31.3057 14.982 31.4169 14.7138 31.4169 14.4341C31.4169 13.8521 30.9451 13.3803 30.3631 13.3803C29.7811 13.3803 29.3093 13.8521 29.3093 14.4341Z" fill="#1DBF73"/>
</svg>
