<svg width="97" height="126" viewBox="0 0 97 126" fill="none" xmlns="http://www.w3.org/2000/svg">
<rect x="7.7338" y="23.7705" width="88.2753" height="101.616" rx="13.9" fill="#DFDFDF"/>
<path d="M13.1904 23.7705H90.5353C93.5502 23.7705 95.9948 26.2133 95.997 29.2282V97.1504" stroke="#DFDFDF" stroke-width="2" stroke-linecap="round" stroke-linejoin="round"/>
<path d="M7.7338 104.485H96.0091V119.932C96.0091 122.946 93.5656 125.39 90.5514 125.39H13.2065C10.1923 125.39 7.74884 122.946 7.74884 119.932V104.485H7.7338Z" fill="#DFDFDF"/>
<circle cx="19.6611" cy="114.936" r="5.17479" fill="#DFDFDF"/>
<circle cx="19.6612" cy="113.695" r="1.84563" fill="#DFDFDF"/>
<path d="M19.6612 120.11C21.0712 120.112 22.4202 119.536 23.3946 118.517C22.9942 116.779 21.4475 115.549 19.6647 115.549C17.882 115.549 16.3353 116.779 15.9348 118.517C16.9073 119.534 18.2536 120.11 19.6612 120.11Z" fill="#DFDFDF"/>
<rect x="30.776" y="112.199" width="46.2029" height="1.84563" rx="0.92" fill="#DFDFDF"/>
<rect x="30.776" y="116.365" width="27.2752" height="1.84563" rx="0.92" fill="#DFDFDF"/>
<rect x="25.1931" y="32.4791" width="51.9896" height="35.2846" rx="16.39" fill="#DFDFDF"/>
<path d="M86.8923 57.2567C86.1244 50.7575 82.1773 45.0646 76.3601 42.0663L71.4913 62.3282L77.8045 83.6933L78.4676 104.502H89.2484C89.2484 104.502 87.6777 62.7063 86.8923 57.2567Z" fill="#DFDFDF"/>
<path d="M24.3847 104.485L25.4881 42.0864L35.8055 38.1995L67.2695 38.368L76.4876 42.0864L78.4777 104.485H24.3847Z" fill="#DFDFDF"/>
<path d="M25.483 42.1065L24.6666 88.3997C24.6666 88.3997 36.284 62.9861 32.5697 39.4403L25.483 42.1065Z" fill="#DFDFDF"/>
<path d="M32.712 92.0107L16.9208 74.8493L25.193 65.4818L25.4839 42.0854C20.1757 44.5589 5.46085 64.8097 2.52389 67.8329C-1.11703 71.927 -0.779093 78.1902 3.2812 81.8687C7.49405 85.9161 27.5683 101.35 27.5683 101.35C28.5829 100.241 29.5159 99.0602 30.3598 97.8164C31.255 95.9281 32.0404 93.9896 32.712 92.0107Z" fill="#DFDFDF"/>
<path d="M35.8055 38.2015C35.8055 38.2015 44.6706 36.2386 44.9534 29.5873H59.7275C59.7275 29.5873 59.2089 36.2185 67.2615 38.3701C67.2615 38.3681 54.5607 51.0728 35.8055 38.2015Z" fill="#DFDFDF"/>
<path d="M59.912 31.5051C59.7647 30.8811 59.7027 30.24 59.7274 29.5993H47.4108L44.9453 29.7056C44.9065 30.4263 44.7569 31.1368 44.502 31.812C45.487 33.9325 47.6114 37.1553 51.8323 37.1674C55.4438 37.1526 58.6656 34.8947 59.912 31.5051Z" fill="#DFDFDF"/>
<path d="M46.452 6.77167C41.6709 8.97185 39.0429 14.1824 40.1157 19.335C41.1558 24.3212 42.9423 30.0577 45.9334 32.8643C50.9668 37.5786 59.7295 35.6518 61.6383 25.9853C62.2 23.1587 62.6203 20.5828 62.9343 18.357C63.6448 13.2822 60.8501 8.36486 56.1265 6.37847C53.2027 5.15042 49.8973 5.20756 47.0177 6.53595L46.452 6.77167Z" fill="#DFDFDF"/>
<path d="M43.0486 28.6163C42.1107 25.2812 41.6779 21.8244 41.7647 18.361C41.8126 17.0053 42.6565 15.8058 43.9162 15.3027C49.0061 13.3495 54.6442 13.3818 59.7114 15.393C61.0074 15.878 61.8832 17.0964 61.9302 18.4794C62.0218 21.8884 61.6759 25.2952 60.901 28.6163C62.089 29.0604 63.4259 28.6155 64.1108 27.548C65.6816 25.1918 66.5643 19.5817 66.0387 13.5313C65.0768 2.43945 53.2868 -1.3451 44.3465 2.89182C35.4063 7.12875 35.4775 18.8786 39.6984 26.5229C40.3338 27.7941 41.6275 28.6025 43.0486 28.6163Z" fill="#DFDFDF"/>
<path d="M63.9122 27.8149C62.864 27.8149 62.1648 26.3303 62.7897 24.5329C63.7517 21.7453 65.2161 14.6026 58.5538 12.0748C52.4351 9.75477 44.4859 10.7709 41.7144 14.3598C37.9098 19.2748 43.4196 25.1016 40.9571 27.9523C41.5439 28.4333 42.2928 28.6709 43.0495 28.6163C42.1116 25.2812 41.6789 21.8244 41.7656 18.361C41.8135 17.0053 42.6574 15.8058 43.9172 15.3027C49.007 13.3495 54.6452 13.3818 59.7123 15.393C61.0079 15.8784 61.8833 17.0967 61.9301 18.4794C62.0217 21.8885 61.6758 25.2952 60.901 28.6163C61.9732 29.0133 63.1792 28.6924 63.9122 27.8149Z" fill="#DFDFDF"/>
<path opacity="0.8" d="M36.9431 14.6818C36.9431 14.6818 36.6803 0.338042 51.003 0.00602891C66.0208 -0.347048 66.3739 14.9255 66.3739 14.9255L65.117 13.7831C64.9289 13.6123 64.6802 13.524 64.4265 13.5379C64.1728 13.5519 63.9352 13.6669 63.7669 13.8573C63.5682 14.0893 63.2692 14.2104 62.965 14.1823C62.6608 14.1542 62.3892 13.9803 62.2363 13.7159C59.9616 9.69252 55.6191 7.28866 51.002 7.49688C44.1862 7.6032 41.497 11.9103 40.5942 14.0067C40.4801 14.2673 40.2548 14.4626 39.9808 14.5386C39.7067 14.6147 39.413 14.5634 39.1809 14.3989L38.6623 14.0338C38.2709 13.7557 37.7329 13.8167 37.4135 14.1753L36.9431 14.6818Z" fill="#DFDFDF"/>
<path d="M40.0845 5.02734C39.6164 5.64473 39.2025 6.30151 38.8478 6.99033L42.3494 11.2032C42.8629 10.6093 43.4424 10.0759 44.0767 9.61333L40.0845 5.02734Z" fill="#DFDFDF"/>
<path d="M45.1199 8.93828C45.5437 8.70209 45.983 8.49498 46.4349 8.31838L41.892 3.11652C41.5701 3.38734 41.2722 3.67422 40.9893 3.9641L45.1199 8.93828Z" fill="#DFDFDF"/>
<path d="M40.6422 21.1094C40.6422 21.1094 38.616 14.3177 45.1489 11.9575C49.9896 10.223 55.3241 10.506 59.9541 12.7429" stroke="#DFDFDF" stroke-width="2" stroke-linecap="round" stroke-linejoin="round"/>
<rect x="65.2704" y="12.0748" width="1.74332" height="8.36652" rx="0.869" fill="#DFDFDF"/>
<rect x="36.3271" y="12.0748" width="1.74332" height="8.36652" rx="0.869" fill="#DFDFDF"/>
<path fill-rule="evenodd" clip-rule="evenodd" d="M48.7451 19.9198C48.7029 20.0084 48.679 20.1046 48.6748 20.2026C48.6748 20.8065 49.5264 21.1445 50.045 21.1485C50.8526 21.1485 51.2055 20.6608 51.4721 20.2922C51.634 20.0685 51.7641 19.8887 51.9448 19.8887C52.2116 19.8887 52.2668 20.4343 52.2668 20.635C52.2668 21.9384 51.4171 23.3491 50.7722 24.4198C50.3778 25.0745 50.0601 25.602 50.0601 25.9C50.0601 26.5039 50.8736 26.8459 51.3751 26.8459C51.9929 26.8902 52.5711 26.5389 52.8165 25.9702C52.9641 25.6918 53.1305 25.3964 53.3038 25.0888C54.0709 23.7271 54.9721 22.1273 54.9721 20.7052C54.9964 19.9479 54.7023 19.2151 54.1614 18.6846C53.6204 18.1542 52.882 17.8745 52.1254 17.9137C50.7133 17.9021 49.4114 18.6747 48.7451 19.9198ZM51.4313 31.0186C51.9809 31.0186 52.7663 30.7358 52.7663 30.0607C52.7663 29.4017 51.996 29.1188 51.4313 29.1188C50.8665 29.1188 50.0811 29.3857 50.0811 30.0607C50.0811 30.7358 50.8816 31.0186 51.4313 31.0186Z" fill="#DFDFDF"/>
<path d="M35.8055 38.1995L40.219 36.2676C43.2037 38.2446 46.5658 39.5813 50.0931 40.1936C50.8634 40.2962 51.4893 40.8658 51.6639 41.623L52.2296 43.9782C52.2296 43.9782 44.6354 44.8538 35.8055 38.1995Z" fill="#DFDFDF"/>
<path d="M52.2326 43.9661L53.1474 41.3512C53.3745 40.6947 53.9456 40.2174 54.6319 40.1104C56.5949 39.7964 60.7054 38.9067 63.6384 36.6669L67.2705 38.3671C67.2705 38.3671 63.0927 44.0685 52.2326 43.9661Z" fill="#DFDFDF"/>
<path d="M38.6751 40.1435C38.6751 40.1435 52.2325 48.7066 64.7366 40.328" stroke="#DFDFDF" stroke-width="2" stroke-linecap="round" stroke-linejoin="round"/>
<path d="M24.9693 75.5294L25.193 58.7723" stroke="#DFDFDF" stroke-width="2" stroke-linecap="round" stroke-linejoin="round"/>
<path d="M52.2326 43.9671V103.742" stroke="#DFDFDF" stroke-width="2" stroke-linecap="round" stroke-linejoin="round"/>
<path d="M76.4836 42.1065L78.0223 90.3035C78.0223 90.3035 65.0658 62.1416 69.1843 39.1615L76.4836 42.1065Z" fill="#DFDFDF"/>
<path d="M32.6718 88.3796C32.7512 93.4847 30.6008 98.3706 26.7829 101.76" stroke="#DFDFDF" stroke-width="2" stroke-linecap="round" stroke-linejoin="round"/>
<path d="M69.8061 89.3847C69.8061 89.3847 68.6907 97.4172 74.5807 101.756" stroke="#DFDFDF" stroke-width="2" stroke-linecap="round" stroke-linejoin="round"/>
<path d="M10.4349 75.5294C12.4141 74.4291 14.7565 74.1838 16.9207 74.8503" stroke="#DFDFDF" stroke-width="2" stroke-linecap="round" stroke-linejoin="round"/>
</svg>
