<svg width="11" height="11" viewBox="0 0 11 11" fill="none" xmlns="http://www.w3.org/2000/svg">
<path d="M10.9673 3.98135C10.8953 3.76002 10.6986 3.60267 10.4669 3.58096L7.29076 3.29168L6.03653 0.35481C5.94454 0.139599 5.73305 0 5.49901 0C5.26496 0 5.05347 0.139599 4.96148 0.35481L3.70626 3.29168L0.533157 3.57996C0.299155 3.60063 0.100258 3.75937 0.0282034 3.98296C-0.0438517 4.20655 0.0249338 4.45155 0.202834 4.60496L2.60518 6.70701L1.89248 9.81805C1.83986 10.0462 1.92863 10.2836 2.11797 10.4213C2.30732 10.5589 2.56059 10.5701 2.76133 10.4497L5.49901 8.81707L8.23568 10.4527C8.43656 10.5727 8.68967 10.5614 8.87903 10.4239C9.06839 10.2864 9.1575 10.0492 9.10553 9.82105L8.39784 6.70701L10.8002 4.60496C10.9767 4.4508 11.044 4.20613 10.9714 3.98335L10.9673 3.98135Z" fill="#FFC107"/>
</svg>
