<svg width="24" height="30" viewBox="0 0 24 30" fill="none" xmlns="http://www.w3.org/2000/svg">
<path d="M6.78007 26.897C6.4952 26.8997 6.26625 27.1324 6.26808 27.4173C6.26991 27.7021 6.50184 27.9319 6.78672 27.9309C7.07159 27.93 7.30205 27.6989 7.30207 27.414C7.30041 27.1272 7.06687 26.8959 6.78007 26.897Z" fill="#1DBF73"/>
<path fill-rule="evenodd" clip-rule="evenodd" d="M19.7971 30.0002H4.19705C3.91395 30.0015 3.66844 29.8048 3.60805 29.5282L0.0100524 11.6002V11.5842C0.00416303 11.5512 0.000819857 11.5177 5.24363e-05 11.4842V9.96121C-0.00294756 8.38421 0.246053 6.24721 2.39705 5.90021V2.93021C2.40968 1.94813 3.21495 1.16165 4.19705 1.17221H5.39705C6.20113 1.16916 6.9097 1.69977 7.13305 2.47221C7.34462 2.38904 7.56973 2.34565 7.79705 2.34421H8.99705C9.20122 2.344 9.40399 2.3778 9.59705 2.44421V1.75821C9.60968 0.776134 10.415 -0.0103509 11.3971 0.000208104H12.5971C13.5792 -0.0103509 14.3844 0.776134 14.3971 1.75821V3.61621C14.5901 3.54984 14.7929 3.51604 14.9971 3.51621H16.1971C16.4012 3.516 16.604 3.5498 16.7971 3.61621V2.93021C16.8097 1.94813 17.615 1.16165 18.5971 1.17221H19.7971C20.7792 1.16165 21.5844 1.94813 21.5971 2.93021V5.90021C23.7481 6.24221 23.9971 8.37921 23.9971 9.95621V11.4792C23.9965 11.5168 23.9925 11.5543 23.9851 11.5912V11.6002L21.4081 24.4332L21.1081 25.9512C20.8198 27.386 20.6188 28.3872 20.5042 28.958L20.5029 28.9646L20.3901 29.5262C20.3302 29.8051 20.0823 30.0032 19.7971 30.0002ZM1.32605 12.0702L4.69105 28.8282H19.3031L19.5391 27.6562H8.99705C8.67341 27.6562 8.41105 27.3938 8.41105 27.0702C8.41105 26.7466 8.67341 26.4842 8.99705 26.4842H19.7741L22.6681 12.0702H18.2631C18.0072 12.0684 17.7783 12.229 17.6931 12.4702C17.3819 13.3755 16.7929 14.1594 16.0101 14.7102C15.2102 15.2818 14.2512 15.5882 13.2681 15.5862H10.7601C8.77054 15.6014 6.99177 14.3493 6.33505 12.4712C6.24827 12.2311 6.02034 12.0712 5.76505 12.0712L1.32605 12.0702ZM10.7971 1.75821C10.8014 1.43093 11.0698 1.16887 11.3971 1.17221H12.5971C12.9243 1.16887 13.1927 1.43093 13.1971 1.75821V14.4142H10.7971V1.75821ZM14.9971 4.68721C14.6698 4.68387 14.4014 4.94593 14.3971 5.27321V14.2282C15.4051 13.8884 16.2006 13.1036 16.5541 12.1002C16.6106 11.9339 16.6926 11.7774 16.7971 11.6362V5.27321C16.7927 4.94593 16.5243 4.68387 16.1971 4.68721H14.9971ZM7.19705 4.10121C7.20144 3.77393 7.46976 3.51187 7.79705 3.51521H8.99705C9.32396 3.51187 9.59212 3.77332 9.59705 4.10021V14.2162C8.59972 13.8782 7.81532 13.0971 7.47305 12.1012C7.40977 11.9175 7.31651 11.7455 7.19705 11.5922V4.10121ZM18.5971 2.34421C18.2698 2.34087 18.0014 2.60293 17.9971 2.93021V10.9182C18.0851 10.9051 18.174 10.8985 18.2631 10.8982H20.3971V2.93021C20.3927 2.60293 20.1243 2.34087 19.7971 2.34421H18.5971ZM3.59705 2.93021C3.60144 2.60293 3.86976 2.34087 4.19705 2.34421H5.39705C5.72434 2.34087 5.99266 2.60293 5.99705 2.93021V10.9132C5.92008 10.9039 5.84258 10.8996 5.76505 10.9002H3.59705V2.93021ZM21.5971 7.10021V10.9002H22.7971V9.96121C22.7971 8.21421 22.4271 7.33221 21.5971 7.10021ZM1.57905 7.75021C1.74375 7.42451 2.04257 7.18707 2.39705 7.10021V10.9002H1.19705V9.96121C1.14548 9.20425 1.27649 8.44598 1.57905 7.75021Z" fill="#1DBF73"/>
<path fill-rule="evenodd" clip-rule="evenodd" d="M8.34503 20.1732C8.3566 22.1802 9.99005 23.7993 11.997 23.7932C14.0025 23.7971 15.6335 22.1786 15.645 20.1732C15.5798 18.2044 13.9649 16.6421 11.995 16.6421C10.0251 16.6421 8.41022 18.2044 8.34503 20.1732ZM9.60407 20.1858C9.59656 18.8555 10.6667 17.7698 11.997 17.7582V17.7592C13.3355 17.7548 14.4249 18.8348 14.432 20.1732C14.4314 21.5036 13.3546 22.5827 12.0243 22.5861C10.694 22.5896 9.61159 21.5161 9.60407 20.1858Z" fill="#1DBF73"/>
</svg>
