<svg width="56" height="56" viewBox="0 0 56 56" fill="none" xmlns="http://www.w3.org/2000/svg">
<path d="M34.5845 55.0007L33.5642 54.2665C32.169 53.2861 30.291 53.3577 28.9746 54.4415L28.7625 54.6156C26.9607 56.1155 24.4169 56.3388 22.3813 55.1758L20.5446 54.1104C19.6583 53.6055 18.6067 53.4765 17.6246 53.7523L17.6046 53.7583C14.6246 54.6044 11.5228 52.8755 10.6752 49.8959L10.326 48.6565H0.914764C0.5448 48.6527 0.212766 48.4286 0.0707886 48.0869C-0.0711885 47.7453 0.00424849 47.3519 0.262537 47.087L9.02359 38.2839C8.96657 38.2219 8.89355 38.1568 8.83853 38.0838C8.04385 37.0361 7.71241 35.7089 7.92121 34.4105L8.09627 33.1891C8.1886 32.5798 8.08601 31.957 7.80317 31.4095C7.14791 30.0888 7.12554 28.5426 7.74231 27.2035C8.35908 25.8645 9.54873 24.8765 10.9783 24.5161L11.7395 24.323L11.1153 22.4864C10.4185 20.3997 11.5448 18.1432 13.6312 17.4456L14.6045 17.1055C15.3052 16.8782 15.8365 16.3018 16.006 15.585C16.3611 14.2169 17.4087 13.1359 18.765 12.738L24.8871 0.498709C25.1173 0.0501159 25.6664 -0.128598 26.1166 0.0985696L40.2145 7.13802L41.5789 5.77055C41.7522 5.59839 41.987 5.50259 42.2312 5.50446H54.1683C54.2888 5.501 54.4084 5.52602 54.5175 5.57748C54.8596 5.71885 55.0835 6.05162 55.0857 6.42177V47.6972C55.0857 48.2043 54.6745 48.6155 54.1673 48.6155H51.8905L50.7702 50.4521C49.7548 52.1492 47.9271 53.193 45.9495 53.2051H45.2702C44.6256 53.2138 43.9937 53.3859 43.4336 53.7053L40.6796 55.2658C39.8412 55.7462 38.8919 55.9993 37.9257 56.0001H37.8016C36.6528 56.0007 35.5308 55.6522 34.5845 55.0007Z" fill="#1DBF73"/>
<rect x="48.6564" y="22.0292" width="1.83664" height="1.83664" fill="#1DBF73"/>
<rect x="41.3118" y="26.6199" width="1.83664" height="1.83664" fill="#1DBF73"/>
<rect x="45.9025" y="31.2103" width="1.83664" height="1.83664" fill="#1DBF73"/>
<rect x="32.1306" y="33.9645" width="1.83664" height="1.83664" fill="#1DBF73"/>
<rect x="39.4752" y="40.3915" width="1.83664" height="1.83664" fill="#1DBF73"/>
<rect x="47.7391" y="43.1457" width="1.83664" height="1.83664" fill="#1DBF73"/>
<rect x="22.0311" y="42.2274" width="1.83664" height="1.83664" fill="#1DBF73"/>
<rect x="29.3757" y="43.1457" width="1.83664" height="1.83664" fill="#1DBF73"/>
</svg>
