<svg width="28" height="28" viewBox="0 0 28 28" fill="none" xmlns="http://www.w3.org/2000/svg">
<path d="M28 14C28 21.732 21.732 28 14 28C6.26801 28 0 21.732 0 14C0 6.26801 6.26801 0 14 0C17.713 0 21.274 1.475 23.8995 4.1005C26.525 6.72601 28 10.287 28 14Z" fill="#FE2121"/>
<path d="M15.0209 8.552C14.4043 8.91223 13.8946 9.42991 13.5439 10.052C12.8299 8.78375 11.4873 7.99928 10.0319 8C7.75671 8.12288 5.98056 10.0136 5.99991 12.292C5.99991 17.885 13.5439 21.787 13.5439 21.787C13.5439 21.787 21.0879 17.887 21.0879 12.292C21.1072 10.0132 19.3305 8.12236 17.0549 8C16.3399 8.00022 15.6379 8.19074 15.0209 8.552Z" fill="white"/>
</svg>
