<svg width="208" height="187" viewBox="0 0 208 187" fill="none" xmlns="http://www.w3.org/2000/svg">
<path d="M107.201 87.1557C107.201 87.1557 106.063 29.4449 133.219 9.1303C160.376 -11.1843 173.446 7.83635 172.718 14.1659C171.99 20.4954 162.092 22.4393 168.604 29.0883C175.116 35.7373 179.97 37.7223 171.749 42.6407C163.529 47.5591 168.095 54.2342 176.087 54.5346C184.079 54.8351 187.95 69.3349 171.02 71.7676C154.091 74.2002 140.869 90.0951 140.869 90.0951L107.201 87.1557Z" fill="#DFDFDF"/>
<path d="M116.131 87.9148C116.131 87.9148 118.305 38.0398 152.16 14.1478" stroke="#DFDFDF" stroke-width="2" stroke-linecap="round" stroke-linejoin="round"/>
<path d="M120.723 88.1432C120.723 88.1432 126.369 48.2952 166.832 35.7303" stroke="#DFDFDF" stroke-width="2" stroke-linecap="round" stroke-linejoin="round"/>
<path d="M129.455 89.0946C129.455 89.0946 137.652 63.5392 174.65 59.6723" stroke="#DFDFDF" stroke-width="2" stroke-linecap="round" stroke-linejoin="round"/>
<path d="M132.29 60.781L159.656 57.0204" stroke="#DFDFDF" stroke-width="2" stroke-linecap="round" stroke-linejoin="round"/>
<path d="M145.975 46.4134L149.754 27.556" stroke="#DFDFDF" stroke-width="2" stroke-linecap="round" stroke-linejoin="round"/>
<path d="M128.407 42.6367L126.829 26.0257" stroke="#DFDFDF" stroke-width="2" stroke-linecap="round" stroke-linejoin="round"/>
<path d="M46.7243 67.0124C46.7243 67.0124 46.2536 58.0749 56.8796 56.6448C65.828 55.438 58.6522 43.2677 70.424 43.5901C82.1957 43.9126 79.5847 38.9452 84.8106 36.0949C88.8026 33.9166 94.8487 38.5125 99.4406 34.6036C102.139 32.3262 109.356 30.7749 113.228 36.9411C116.003 41.3628 125.32 38.0268 127.816 45.7264C129.676 51.449 141.683 42.0208 143.133 49.2707C144.584 56.5206 152.325 50.789 154.58 56.6448C156.834 62.5006 166.993 58.2953 166.834 67.0124H46.7243Z" fill="#DFDFDF"/>
<path d="M70.9817 64.0449C69.4149 61.9618 68.9578 59.2474 69.7559 56.766C71.2752 58.8692 71.7284 61.5601 70.9817 64.0449Z" fill="#DFDFDF"/>
<path d="M115.024 59.0734C113.457 56.9891 112.999 54.2731 113.798 51.7905C115.324 53.8925 115.778 56.5877 115.024 59.0734Z" fill="#DFDFDF"/>
<path d="M106.434 53.0013C103.994 52.079 102.154 50.028 101.501 47.502C103.918 48.4585 105.745 50.4951 106.434 53.0013Z" fill="#DFDFDF"/>
<path d="M75.2511 51.7765C72.8106 50.8542 70.9706 48.8032 70.3177 46.2772C72.7285 47.2425 74.5522 49.2754 75.2511 51.7765Z" fill="#DFDFDF"/>
<path d="M121.056 50.797C118.616 49.8722 116.776 47.8202 116.123 45.2937C118.534 46.26 120.358 48.2945 121.056 50.797Z" fill="#DFDFDF"/>
<path d="M82.4842 53.4039C84.5708 51.8352 87.2894 51.3781 89.7742 52.1781C87.6662 53.6961 84.9728 54.149 82.4842 53.4039Z" fill="#DFDFDF"/>
<path d="M101.509 41.5591C103.593 39.9941 106.306 39.5371 108.788 40.3332C106.684 41.8526 103.994 42.3057 101.509 41.5591Z" fill="#DFDFDF"/>
<path d="M87.6108 42.4104C90.2167 42.1934 92.7652 43.2582 94.4421 45.2646C91.8459 45.4223 89.3231 44.3683 87.6108 42.4104Z" fill="#DFDFDF"/>
<path d="M99.9673 57.476C102.566 57.2637 105.105 58.3266 106.778 60.3263C104.188 60.4869 101.671 59.4334 99.9673 57.476Z" fill="#DFDFDF"/>
<path d="M86.1235 61.8366C87.2955 59.5074 89.5258 57.8925 92.1045 57.5061C90.8935 59.8018 88.6825 61.4026 86.1235 61.8366H86.1235Z" fill="#DFDFDF"/>
<path d="M52.9857 64.766C54.1578 62.437 56.3882 60.8225 58.9667 60.4365C57.7518 62.7286 55.5426 64.3277 52.9857 64.766Z" fill="#DFDFDF"/>
<path d="M123.838 57.5822C125.01 55.2529 127.241 53.6381 129.819 53.2517C128.608 55.5474 126.397 57.1482 123.838 57.5822Z" fill="#DFDFDF"/>
<path d="M32.8834 186.414H129.459L140.871 67.0124H21.4723L32.8834 186.414Z" fill="#DFDFDF"/>
<path d="M67.13 67.0124L57.4524 113.182H25.8859L21.4723 67.0124H67.13Z" fill="#DFDFDF"/>
<ellipse cx="140.699" cy="64.4334" rx="23.0277" ry="23.9581" transform="rotate(-57.43 140.699 64.4334)" fill="#DFDFDF"/>
<ellipse cx="141.378" cy="62.6107" rx="21.4072" ry="24.1133" transform="rotate(-57.43 141.378 62.6107)" fill="#DFDFDF"/>
<path d="M123.064 54.2682C123.064 54.2682 118.241 69.0905 134.275 77.6033C150.651 86.2934 168.753 65.6113 154.706 52.1771C140.659 38.7429 126.209 49.9377 127.727 62.6288C128.957 73.1066 145.245 79.395 152.517 68.056C159.788 56.7169 141.386 47.7644 135.059 54.774C129.367 61.0835 136.274 68.2503 141.246 68.2122C148.296 68.1631 148.356 57.2367 141.557 57.7224" stroke="#DFDFDF" stroke-width="2" stroke-linecap="round" stroke-linejoin="round"/>
<path d="M78.5412 186.414H175.117L186.529 67.0124H67.1301L78.5412 186.414Z" fill="#DFDFDF"/>
<path d="M186.529 67.0124L182.115 113.182H71.5486L67.135 67.0124H186.529Z" fill="#DFDFDF"/>
<circle cx="126.829" cy="141.785" r="22.9255" fill="#DFDFDF"/>
<path d="M134.017 129.254V139.307C134.017 141.214 133.259 143.042 131.911 144.39C130.563 145.738 128.735 146.495 126.829 146.495V146.495C124.922 146.495 123.094 145.738 121.746 144.39C120.398 143.042 119.641 141.214 119.641 139.307V129.254" stroke="#DFDFDF" stroke-width="2" stroke-linecap="round" stroke-linejoin="round"/>
<path d="M128.946 129.254V164.54" stroke="#DFDFDF" stroke-width="2" stroke-linecap="round" stroke-linejoin="round"/>
<path d="M124.708 164.54V129.254" stroke="#DFDFDF" stroke-width="2" stroke-linecap="round" stroke-linejoin="round"/>
<path d="M32.2385 179.652H159.655" stroke="#DFDFDF" stroke-width="2" stroke-linecap="round" stroke-linejoin="round"/>
<path d="M208 109.828H88.5984L67.1301 67.0124H186.529L208 109.828Z" fill="#DFDFDF"/>
<path d="M45.6537 109.828H0L21.4723 67.0124H67.13L45.6537 109.828Z" fill="#DFDFDF"/>
<path d="M25.969 67.0124H134.146" stroke="#DFDFDF" stroke-width="2" stroke-linecap="round" stroke-linejoin="round"/>
</svg>
