<svg width="66" height="45" viewBox="0 0 66 45" fill="none" xmlns="http://www.w3.org/2000/svg">
<path d="M34.1831 7.94793V2.75531C34.204 1.86891 33.8294 1.01918 33.1609 0.436721C32.75 0.0764046 32.195 -0.072585 31.6589 0.0334892C27.3831 0.877667 23.7142 3.60136 21.6688 7.44994C23.0249 7.22088 24.3974 7.10221 25.7727 7.09509C28.5975 7.10126 31.4146 7.38693 34.1831 7.94793Z" fill="#1DBF73"/>
<path d="M14.7967 31.9352C15.9146 29.3821 16.4751 26.6201 16.4409 23.8332C16.5537 19.9367 15.4046 16.1081 13.1646 12.9177C17.0198 10.7475 21.3507 9.56123 25.7737 9.46405C36.4422 9.46405 44.9363 13.6153 48.9686 17.1638C50.8026 18.8179 53.3174 19.4946 55.7338 18.9844C55.7901 18.9727 55.8453 18.9569 55.8992 18.937L64.4981 15.6728C64.6268 15.659 64.7542 15.7077 64.8408 15.8039C64.9176 15.8725 64.9573 15.9735 64.9477 16.076L62.0021 23.0187C61.7064 23.8974 61.7064 24.8487 62.0021 25.7274C62.0243 25.7859 62.0495 25.8282 62.0727 25.8927L64.9356 31.5108C64.9459 31.5977 64.9252 31.6856 64.8771 31.7588C64.7928 31.8685 64.6606 31.9305 64.5223 31.9251L56.0171 27.5591C55.9265 27.5136 55.8312 27.4781 55.7328 27.4532C53.3166 26.95 50.805 27.6259 48.9676 29.2738C48.4948 29.6882 46.4958 31.29 45.6208 31.9362L14.7967 31.9352Z" fill="#1DBF73"/>
<path d="M0 34.3011C0.56593 37.0526 2.98635 39.0284 5.79546 39.032H60.2046C63.0143 39.03 65.4355 37.0534 66.0001 34.3011H0Z" fill="#1DBF73"/>
<path d="M13.1525 44.2136C13.3646 44.6292 13.7755 44.9064 14.2403 44.9475H51.8306C52.2964 44.9095 52.7087 44.6313 52.9183 44.2136L54.6099 41.398H11.4731L13.1525 44.2136Z" fill="#1DBF73"/>
<path d="M8.68253 31.9351C6.37123 30.2985 4.19578 28.4781 2.17738 26.4915C0.693788 25.0041 0.693788 22.5966 2.17738 21.1093C4.87773 18.4505 7.86442 16.099 11.0828 14.0981C13.1421 16.9165 14.1957 20.3447 14.0748 23.8332C14.129 26.652 13.4702 29.4389 12.1594 31.9351H8.68253Z" fill="#1DBF73"/>
</svg>
