<svg width="90" height="13" viewBox="0 0 90 13" fill="none" xmlns="http://www.w3.org/2000/svg">
<path d="M13.2502 4.29977L9.47309 3.76876L7.78805 0.44067C7.62 0.166865 7.32179 0 7.00053 0C6.67926 0 6.38106 0.166865 6.21301 0.44067L4.52696 3.76976L0.750858 4.29977C0.424158 4.34293 0.149973 4.56715 0.0428386 4.87879C-0.0601764 5.18799 0.0261174 5.52887 0.263845 5.75181L2.99992 8.34588L2.3549 12.005C2.29957 12.3264 2.43524 12.6507 2.70291 12.837C2.97457 13.0265 3.32835 13.0515 3.62394 12.902L7.00003 11.174L10.3781 12.9C10.6737 13.0495 11.0275 13.0245 11.2991 12.835C11.5679 12.6482 11.7037 12.3224 11.6472 12L11.0001 8.34388L13.7342 5.75481C13.9715 5.53206 14.0578 5.19169 13.9552 4.88279C13.8486 4.57203 13.5758 4.34799 13.2502 4.30377V4.29977Z" fill="#FFBC00"/>
<path d="M51.2512 4.29977L47.4741 3.76876L45.7891 0.44067C45.621 0.166865 45.3228 0 45.0016 0C44.6803 0 44.3821 0.166865 44.214 0.44067L42.528 3.76976L38.7519 4.29977C38.4252 4.34293 38.151 4.56715 38.0439 4.87879C37.9409 5.18799 38.0271 5.52887 38.2649 5.75181L41.0009 8.34588L40.3559 12.005C40.3006 12.3264 40.4363 12.6507 40.7039 12.837C40.9756 13.0265 41.3294 13.0515 41.625 12.902L45.0011 11.174L48.3791 12.9C48.6747 13.0495 49.0285 13.0245 49.3002 12.835C49.5689 12.6482 49.7048 12.3224 49.6482 12L49.0012 8.34388L51.7352 5.75481C51.9726 5.53206 52.0588 5.19169 51.9562 4.88279C51.8496 4.57203 51.5768 4.34799 51.2512 4.30377V4.29977Z" fill="#FFBC00"/>
<path d="M32.2507 4.29977L28.4736 3.76876L26.7886 0.44067C26.6205 0.166865 26.3223 0 26.001 0C25.6798 0 25.3816 0.166865 25.2135 0.44067L23.5275 3.76976L19.7514 4.29977C19.4247 4.34293 19.1505 4.56715 19.0434 4.87879C18.9403 5.18799 19.0266 5.52887 19.2644 5.75181L22.0004 8.34588L21.3554 12.005C21.3001 12.3264 21.4358 12.6507 21.7034 12.837C21.9751 13.0265 22.3289 13.0515 22.6245 12.902L26.0005 11.174L29.3786 12.9C29.6742 13.0495 30.028 13.0245 30.2997 12.835C30.5684 12.6482 30.7042 12.3224 30.6477 12L30.0007 8.34388L32.7347 5.75481C32.9721 5.53206 33.0583 5.19169 32.9557 4.88279C32.8491 4.57203 32.5763 4.34799 32.2507 4.30377V4.29977Z" fill="#FFBC00"/>
<path d="M70.2517 4.29977L66.4746 3.76876L64.7896 0.44067C64.6215 0.166865 64.3233 0 64.0021 0C63.6808 0 63.3826 0.166865 63.2146 0.44067L61.5285 3.76976L57.7524 4.29977C57.4257 4.34293 57.1515 4.56715 57.0444 4.87879C56.9414 5.18799 57.0277 5.52887 57.2654 5.75181L60.0015 8.34588L59.3564 12.005C59.3011 12.3264 59.4368 12.6507 59.7045 12.837C59.9761 13.0265 60.3299 13.0515 60.6255 12.902L64.0016 11.174L67.3797 12.9C67.6752 13.0495 68.029 13.0245 68.3007 12.835C68.5695 12.6482 68.7053 12.3224 68.6487 12L68.0017 8.34388L70.7358 5.75481C70.9731 5.53206 71.0593 5.19169 70.9568 4.88279C70.8501 4.57203 70.5773 4.34799 70.2517 4.30377V4.29977Z" fill="#FFBC00"/>
<path d="M89.2523 4.29977L85.4752 3.76876L83.7901 0.44067C83.6221 0.166865 83.3239 0 83.0026 0C82.6813 0 82.3831 0.166865 82.2151 0.44067L80.529 3.76976L76.7529 4.29977C76.4262 4.34293 76.152 4.56715 76.0449 4.87879C75.9419 5.18799 76.0282 5.52887 76.2659 5.75181L79.002 8.34588L78.357 12.005C78.3016 12.3264 78.4373 12.6507 78.705 12.837C78.9766 13.0265 79.3304 13.0515 79.626 12.902L83.0021 11.174L86.3802 12.9C86.6758 13.0495 87.0295 13.0245 87.3012 12.835C87.57 12.6482 87.7058 12.3224 87.6492 12L87.0022 8.34388L89.7363 5.75481C89.9736 5.53206 90.0599 5.19169 89.9573 4.88279C89.8506 4.57203 89.5778 4.34799 89.2523 4.30377V4.29977Z" fill="#FFBC00"/>
</svg>
