<svg width="11" height="8" viewBox="0 0 11 8" fill="none" xmlns="http://www.w3.org/2000/svg">
<path d="M3.84711 7.77898C3.70382 7.77899 3.56651 7.72155 3.46589 7.61953L0.158528 4.2752C-0.0528425 4.0613 -0.0528425 3.71717 0.158528 3.50327C0.259178 3.40092 0.396717 3.34327 0.540269 3.34327C0.68382 3.34327 0.821359 3.40092 0.92201 3.50327L3.84711 6.46005L10.0785 0.160003C10.1792 0.0576479 10.3167 0 10.4603 0C10.6038 0 10.7413 0.0576479 10.842 0.160003C11.0528 0.374138 11.0528 0.717797 10.842 0.931933L4.2241 7.61953C4.12451 7.72052 3.98893 7.77786 3.84711 7.77898Z" fill="white"/>
</svg>
