<svg width="29" height="29" viewBox="0 0 29 29" fill="none" xmlns="http://www.w3.org/2000/svg">
<path d="M29 14.5C29 22.5082 22.5082 29 14.5 29C6.49188 29 0 22.5082 0 14.5C0 6.49188 6.49188 0 14.5 0C18.3457 0 22.0338 1.52768 24.7531 4.24696C27.4724 6.96624 29 10.6544 29 14.5Z" fill="white"/>
<path d="M15.557 8.85737C14.9183 9.23143 14.3906 9.76868 14.0281 10.414C13.2893 9.09933 11.8985 8.28568 10.3905 8.28582C8.03355 8.41198 6.19329 10.3707 6.21423 12.7309C6.21423 18.5234 14.0281 22.5652 14.0281 22.5652C14.0281 22.5652 21.8419 18.5264 21.8419 12.7309C21.8628 10.37 20.0214 8.41092 17.6636 8.28582C16.9231 8.28602 16.196 8.48329 15.557 8.85737Z" fill="#FE2121"/>
</svg>
