<svg width="35" height="30" viewBox="0 0 35 30" fill="none" xmlns="http://www.w3.org/2000/svg">
<path d="M11.8381 12.3483C12.0465 12.3483 12.2343 12.2227 12.314 12.0301C12.3936 11.8375 12.3494 11.6159 12.2019 11.4687C12.0544 11.3215 11.8327 11.2777 11.6403 11.3577C11.4479 11.4378 11.3226 11.6259 11.323 11.8343C11.3236 12.1183 11.554 12.3483 11.8381 12.3483Z" fill="#1DBF73"/>
<path fill-rule="evenodd" clip-rule="evenodd" d="M3.86584 28.819C4.26314 29.46 4.96382 29.8496 5.7179 29.8491H29.2806C30.0356 29.8499 30.737 29.4593 31.1337 28.817L33.0768 25.4169C34.2104 24.8898 34.9526 23.7713 34.9978 22.5219C35.043 21.2725 34.3834 20.1033 33.2908 19.4957C32.9272 17.7099 32.2256 16.01 31.2237 14.4876C30.1624 12.8575 28.8361 11.4162 27.2996 10.2234L28.0696 7.64936L29.6637 6.07932C29.7846 5.95321 29.9492 5.87808 30.1237 5.86931C30.163 5.86925 30.202 5.87498 30.2397 5.88631C30.4376 5.94718 30.6436 5.97819 30.8507 5.97831C31.3942 5.97839 31.9154 5.76255 32.2997 5.37829C32.6833 4.99868 32.8992 4.48142 32.8992 3.94175C32.8992 3.40207 32.6833 2.88481 32.2997 2.5052C31.9406 2.15313 31.465 1.94468 30.9627 1.91918C30.934 1.41865 30.7201 0.946687 30.3627 0.595143C29.5588 -0.198381 28.2664 -0.198381 27.4626 0.595143C26.9255 1.12442 26.7291 1.90936 26.9536 2.62921C26.9953 2.84082 26.9214 3.05866 26.7596 3.20122L25.1685 4.77727L22.9894 5.41829L22.9654 5.42529L22.2094 5.6483C21.4244 5.89031 20.8534 6.05331 20.3954 6.18332C19.7461 6.33113 19.1179 6.55958 18.5253 6.86334C18.1743 6.84134 17.8293 6.83034 17.4993 6.83034C13.769 6.83914 10.1528 8.11765 7.24595 10.4555C4.38808 12.7197 2.42573 15.924 1.70777 19.4987C0.615731 20.1067 -0.0431614 21.2756 0.0022005 22.5247C0.0475624 23.7737 0.789515 24.8918 1.92278 25.4189L3.86584 28.819ZM5.05088 28.15L3.69884 25.7869H31.2997L29.9437 28.151C29.7928 28.3678 29.5447 28.4961 29.2806 28.494H5.7129C5.44899 28.4956 5.2013 28.3669 5.05088 28.15ZM3.48083 20.3708C2.7337 20.3376 2.02868 20.7173 1.64521 21.3594C1.26174 22.0014 1.26174 22.8022 1.64521 23.4443C2.02868 24.0864 2.7337 24.4661 3.48083 24.4329H31.5137C32.6244 24.3859 33.4914 23.4555 33.46 22.3442C33.4286 21.233 32.5105 20.353 31.3989 20.3688C30.2874 20.3845 29.3945 21.2902 29.3946 22.4018C29.3946 22.7796 29.0884 23.0858 28.7106 23.0858C28.3328 23.0858 28.0266 22.7796 28.0266 22.4018C27.9773 21.2673 27.0432 20.3729 25.9075 20.3729C24.7719 20.3729 23.8378 21.2673 23.7885 22.4018C23.7744 22.7692 23.4725 23.0597 23.1049 23.0597C22.7373 23.0597 22.4355 22.7692 22.4214 22.4018C22.3721 21.2673 21.438 20.3729 20.3024 20.3729C19.1667 20.3729 18.2326 21.2673 18.1833 22.4018C18.1692 22.7692 17.8674 23.0597 17.4998 23.0597C17.1322 23.0597 16.8303 22.7692 16.8162 22.4018C16.7669 21.2673 15.8328 20.3729 14.6972 20.3729C13.5616 20.3729 12.6274 21.2673 12.5781 22.4018C12.5641 22.7692 12.2622 23.0597 11.8946 23.0597C11.527 23.0597 11.2251 22.7692 11.2111 22.4018C11.1682 21.2622 10.2319 20.3605 9.09151 20.3605C7.95111 20.3605 7.01482 21.2622 6.97194 22.4018C6.95789 22.7692 6.65602 23.0597 6.28842 23.0597C5.92082 23.0597 5.61895 22.7692 5.6049 22.4018C5.56747 21.2616 4.62661 20.3598 3.48583 20.3708H3.48083ZM28.3506 19.9958C27.693 19.3649 26.8162 19.0139 25.9049 19.0167C24.9958 19.0155 24.1215 19.3664 23.4655 19.9958C23.3352 20.1195 23.2149 20.2533 23.1054 20.3958C22.4939 19.5997 21.5726 19.1013 20.5716 19.025C19.5707 18.9487 18.5845 19.3016 17.8593 19.9958C17.7295 20.12 17.6092 20.2537 17.4993 20.3958C17.3899 20.2533 17.2695 20.1195 17.1393 19.9958C16.4152 19.2992 15.4284 18.9446 14.4266 19.021C13.4248 19.0974 12.5032 19.5975 11.8931 20.3958C11.7837 20.2533 11.6633 20.1195 11.5331 19.9958C10.1689 18.684 8.01215 18.684 6.64793 19.9958C6.51771 20.1195 6.39734 20.2533 6.28792 20.3958C6.17801 20.2537 6.05767 20.12 5.92791 19.9958C5.27126 19.3648 4.39548 19.0131 3.48483 19.0147C3.40983 19.0147 3.31783 19.0187 3.20982 19.0267C3.99133 16.0151 5.74208 13.3444 8.19198 11.4265C10.6929 9.45599 13.752 8.32523 16.9333 8.19538C16.0944 9.22462 15.6602 10.5247 15.7122 11.8515C15.7743 13.2029 16.346 14.4807 17.3123 15.4276C18.3303 16.4444 19.7106 17.0149 21.1494 17.0137C22.3025 17.0117 23.4274 16.6564 24.3725 15.9956C25.3603 15.3038 26.0841 14.2972 26.4256 13.1405L26.8806 11.6235C29.2337 13.5298 30.9443 16.1131 31.7807 19.0237C31.6847 19.0117 31.5967 19.0117 31.5137 19.0117C30.6026 19.0109 29.7268 19.3637 29.0706 19.9958C28.9404 20.1195 28.82 20.2533 28.7106 20.3958C28.6012 20.2533 28.4808 20.1195 28.3506 19.9958ZM25.3345 6.14132L24.8155 6.29432L22.5994 6.94634C21.9968 7.13141 21.524 7.26736 21.1318 7.38012L21.1317 7.38017C21.0111 7.41484 20.8981 7.44732 20.7914 7.47836C20.1792 7.60765 19.5897 7.8274 19.0423 8.13038C17.9693 8.78757 17.2562 9.9 17.1073 11.1495C16.9607 12.3794 17.3937 13.6076 18.2793 14.4736C19.3036 15.4843 20.7808 15.8878 22.1766 15.538C23.5725 15.1882 24.6849 14.1359 25.1115 12.7615L26.6926 7.48636L25.3345 6.14132ZM28.4306 1.54917C28.5587 1.42109 28.7325 1.34914 28.9136 1.34917C29.0939 1.34834 29.2671 1.4188 29.3956 1.54517C29.524 1.6715 29.5963 1.84407 29.5963 2.02419C29.5963 2.2043 29.524 2.37688 29.3956 2.5032C29.2678 2.6298 29.1958 2.80227 29.1958 2.98222C29.1958 3.16216 29.2678 3.33464 29.3956 3.46123C29.6636 3.72596 30.0947 3.72596 30.3627 3.46123C30.6307 3.19651 31.0617 3.19651 31.3297 3.46123C31.4576 3.58783 31.5295 3.7603 31.5295 3.94025C31.5295 4.12019 31.4576 4.29267 31.3297 4.41926C31.2017 4.54744 31.0279 4.6194 30.8467 4.61927C30.7789 4.61878 30.7115 4.60833 30.6467 4.58827C30.4762 4.53624 30.2989 4.50995 30.1207 4.51027C29.5849 4.51894 29.0739 4.73679 28.6966 5.11728L27.4666 6.33632L26.4996 5.37829L27.7276 4.16025C28.253 3.66724 28.4587 2.92191 28.2606 2.22919C28.1854 1.98857 28.2511 1.72612 28.4306 1.54917Z" fill="#1DBF73"/>
<path d="M6.50994 17.4266C6.59131 17.471 6.6823 17.4946 6.77495 17.4956C7.01053 17.492 7.22215 17.3508 7.31597 17.1346C7.97679 15.7475 8.91596 14.5112 10.0751 13.5025C10.333 13.2631 10.368 12.8674 10.1561 12.5865C10.0604 12.4545 9.91318 12.3694 9.75108 12.3522C9.58899 12.3351 9.42723 12.3875 9.30603 12.4965C8.01644 13.6244 6.97247 15.0054 6.23893 16.5536C6.0885 16.8708 6.20633 17.2504 6.50994 17.4266Z" fill="#1DBF73"/>
</svg>
