<svg width="106" height="101" viewBox="0 0 106 101" fill="none" xmlns="http://www.w3.org/2000/svg">
<path d="M41.4957 100.482C27.2606 100.482 -1.70124 78.4211 0.0784085 60.0811C3.00812 29.9212 49.5862 -5.27139 69.1423 0.660099C88.6984 6.59159 110.524 43.5918 105.182 55.625C99.8397 67.6581 80.685 83.1114 80.685 83.1114L93.5969 92.1468L69.1393 88.8807C69.1393 88.8807 48.9917 100.482 41.4957 100.482Z" fill="#DFDFDF"/>
<path d="M71.5745 54.7321C71.5745 54.7321 76.415 49.3982 73.216 43.8661C70.017 38.334 69.1632 40.3268 69.5856 35.4953C70.008 30.6639 62.9345 34.072 60.6414 29.5278C58.3482 24.9836 52.1335 24.1338 47.9436 28.1085C43.7537 32.0832 38.4969 29.3897 35.373 32.7938C32.2491 36.198 27.86 47.2152 45.4523 57.4687C63.0446 67.7221 71.5745 54.7321 71.5745 54.7321Z" fill="#DFDFDF"/>
<path d="M62.6973 69.3036C62.6973 69.3036 74.272 66.7172 73.137 51.32C72.0019 35.9227 49.9965 29.7 42.3725 37.4131C29.5917 50.3311 39.683 74.8698 62.6973 69.3036Z" fill="#DFDFDF"/>
<path d="M54.5508 74.0961C52.2686 72.7478 51.3598 71.6638 44.1191 72.2333C36.8784 72.8029 30.8128 70.2565 30.3854 65.1398C30.3854 65.1398 24.7422 58.864 26.4307 53.0035C28.1193 47.1431 30.3854 47.3573 29.5186 42.5639C28.6518 37.7704 36.8614 38.8394 38.566 35.11C40.2705 31.3805 46.142 32.2353 48.1548 36.8116C50.1677 41.3878 58.5825 36.4512 60.196 43.755C61.8095 51.0587 68.5037 48.105 66.5859 55.65C64.6681 63.195 69.3535 64.3771 67.4357 66.9314C65.5179 69.4858 60.8356 70.3396 60.195 73.3213C59.5544 76.3031 55.7769 74.8237 54.5508 74.0961Z" fill="#DFDFDF"/>
<path d="M30.3874 65.1428C30.3874 65.1428 29.4505 53.1316 44.3503 42.9082" stroke="#DFDFDF" stroke-width="2" stroke-linecap="round" stroke-linejoin="round"/>
<path d="M31.3994 58.94C35.8004 57.8989 40.3837 57.8989 44.7847 58.94C52.3097 60.6566 54.9942 58.1773 54.9942 58.1773" stroke="#DFDFDF" stroke-width="2" stroke-linecap="round" stroke-linejoin="round"/>
<path d="M32.8436 55.4638C31.793 52.3481 31.3043 49.0705 31.4003 45.7839" stroke="#DFDFDF" stroke-width="2" stroke-linecap="round" stroke-linejoin="round"/>
<path d="M36.3229 50.1489C36.3229 50.1489 39.743 50.291 47.0188 48.3022" stroke="#DFDFDF" stroke-width="2" stroke-linecap="round" stroke-linejoin="round"/>
<path d="M39.8732 46.4355C39.8732 46.4355 39.648 41.7731 39.8732 38.8634" stroke="#DFDFDF" stroke-width="2" stroke-linecap="round" stroke-linejoin="round"/>
</svg>
