<svg width="13" height="13" viewBox="0 0 13 13" fill="none" xmlns="http://www.w3.org/2000/svg">
<path d="M8.04447 12.9999C7.81079 13.0004 7.59668 12.8695 7.49057 12.6613L5.6537 8.98225C5.5515 8.77903 5.5685 8.53621 5.69801 8.34921L8.6638 4.3347L4.6419 7.29942C4.45498 7.42917 4.21203 7.44617 4.00886 7.34374L0.340401 5.50687C0.120691 5.39604 -0.0125609 5.16565 0.000937101 4.91994C0.0144351 4.67423 0.172122 4.45983 0.40265 4.37373L12.1634 0.0384764C12.3899 -0.0453724 12.6445 0.0103312 12.8153 0.181104C12.9861 0.351877 13.0418 0.606453 12.9579 0.832939L8.62476 12.5948C8.53927 12.8261 8.32449 12.9845 8.07824 12.9978L8.04447 12.9999Z" fill="white"/>
</svg>
