<svg width="161" height="45" viewBox="0 0 161 45" fill="none" xmlns="http://www.w3.org/2000/svg">
<rect width="161" height="44.8007" rx="18.05" fill="#DFDFDF"/>
<rect x="8.91179" y="8.96174" width="26.8772" height="26.8772" rx="6.56" fill="#DFDFDF"/>
<path d="M28.1217 26.4678C28.1217 28.5991 25.5379 29.3459 22.3544 29.3459C19.1709 29.3459 16.5871 28.5991 16.5871 26.4678C16.5871 24.3364 19.1669 22.5996 22.3544 22.5996C25.5419 22.5996 28.1217 24.3324 28.1217 26.4678Z" fill="#DFDFDF"/>
<ellipse cx="22.3524" cy="24.3905" rx="10.1761" ry="3.8602" fill="#DFDFDF"/>
<ellipse cx="22.3523" cy="24.6498" rx="6.3469" ry="2.04222" fill="#DFDFDF"/>
<path d="M26.1895 23.021L32.0719 17.6061C32.3354 17.4338 32.4683 17.119 32.4079 16.81C32.3475 16.501 32.1059 16.2594 31.7968 16.199C31.4878 16.1386 31.173 16.2714 31.0007 16.535L25.5858 22.4184C24.9105 22.2641 24.2051 22.4929 23.7488 23.014C23.0658 23.5353 22.8977 24.4937 23.3624 25.2164C23.8539 25.7229 24.851 25.5528 25.5648 24.83C26.0868 24.3856 26.326 23.6927 26.1895 23.021Z" fill="#DFDFDF"/>
<path d="M17.7454 22.6036C16.1287 21.8297 18.3601 19.308 16.9716 17.6372C15.5831 15.9663 17.6944 13.9331 21.1101 15.3517C24.5258 16.7702 26.4399 14.6789 26.5911 16.585C26.7883 18.9446 22.6768 24.9321 17.7454 22.6036Z" fill="#DFDFDF"/>
<path d="M21.7057 17.5871C22.2062 18.2178 21.8639 18.8365 21.2342 19.339C20.6045 19.8416 19.9188 20.0398 19.4162 19.4091C18.9131 18.7769 19.0177 17.8565 19.65 17.3534C20.2822 16.8502 21.2026 16.9549 21.7057 17.5871Z" fill="#DFDFDF"/>
<path d="M19.5253 18.9866C19.3368 18.6406 19.3368 18.2225 19.5253 17.8764C19.7536 17.5321 20.0359 17.8764 19.9117 18.1437C19.7876 18.411 19.3862 18.5271 19.5253 18.9866Z" fill="#DFDFDF"/>
<rect x="44.6225" y="11.7808" width="85.2697" height="4.4168" rx="2.206" fill="#DFDFDF"/>
<rect x="44.6225" y="22.4634" width="85.2697" height="2.75399" rx="1.375" fill="#DFDFDF"/>
<rect x="44.6225" y="29.1747" width="46.9781" height="2.75399" rx="1.375" fill="#DFDFDF"/>
<rect x="138.699" y="11.7808" width="13.8851" height="13.4366" rx="4.21" fill="#DFDFDF"/>
<path d="M146.091 18.0386H147.292V18.9046H146.091V20.254H145.182V18.9056H143.981V18.0396H145.182V16.7432H146.091V18.0386Z" fill="#DFDFDF"/>
</svg>
