<svg width="94" height="59" viewBox="0 0 94 59" fill="none" xmlns="http://www.w3.org/2000/svg">
<path d="M46.8622 0C21.0285 0 0.0811606 6.47946 0.0811606 14.4779C0.0811606 39.0668 20.0144 59 44.6033 59H49.1172C73.7058 58.9994 93.6387 39.0665 93.6393 14.4779C93.6393 6.48346 72.6979 0 46.8622 0Z" fill="#DFDFDF"/>
<path d="M46.8622 28.9558C21.0285 28.9558 0.0811606 22.4723 0.0811606 14.4779C0.0811606 39.0668 20.0144 59 44.6033 59H49.1172C73.706 59 93.6393 39.0668 93.6393 14.4779C93.6393 22.4723 72.6979 28.9558 46.8622 28.9558Z" fill="#DFDFDF"/>
<path d="M85.2683 27.7101C75.838 31.7765 62.1231 34.3358 46.8612 34.3358C26.8681 34.3358 9.53845 29.9451 1.00131 23.5287" stroke="#DFDFDF" stroke-width="2" stroke-linecap="round" stroke-linejoin="round"/>
</svg>
