<svg width="42" height="37" viewBox="0 0 42 37" fill="none" xmlns="http://www.w3.org/2000/svg">
<path fill-rule="evenodd" clip-rule="evenodd" d="M38.4655 36.8097L41.9076 9.82953L41.9056 9.82546L39.3067 9.80515L42 0.479539L40.41 0L37.6049 9.69034H23.4098L26.8377 36.8097H38.4655ZM16.171 21.9379C22.2008 21.9379 21.7659 25.4369 21.7659 25.4369H0.974074C0.974074 25.4369 0.548382 21.9379 6.56903 21.9379H16.171ZM0.97509 33.3107C0.97509 33.3107 0.549398 36.8097 6.57005 36.8097H16.173C22.2028 36.8097 21.768 33.3107 21.768 33.3107H0.97509ZM22.6448 29.3748C22.7462 30.4672 21.9541 31.4396 20.8638 31.5612H1.79396C0.702831 31.4401 -0.0907575 30.4681 0.00890078 29.3748C-0.0936217 28.2802 0.701123 27.3059 1.79396 27.1864H20.8607C21.954 27.3049 22.749 28.2801 22.6448 29.3748Z" fill="#1DBF73"/>
</svg>
