<svg width="186" height="148" viewBox="0 0 186 148" fill="none" xmlns="http://www.w3.org/2000/svg">
<path fill-rule="evenodd" clip-rule="evenodd" d="M73.3562 0.637984L72.6101 2.5723L72.6181 2.58032C74.8162 3.14187 75.0137 6.09398 75.0137 6.09398L76.565 5.01501C77.0072 1.9536 73.3562 0.637984 73.3562 0.637984ZM22.4894 31.0405C22.4093 30.1699 22.4936 29.2919 22.738 28.4524C22.9841 29.2916 23.0688 30.1698 22.9877 31.0405C23.0689 31.9113 22.9842 32.7895 22.738 33.6287C22.4968 32.7913 22.4148 31.9161 22.4964 31.0486L22.4894 31.0405ZM95.3035 37.1102L93.4374 33.3258C93.4374 33.3258 100.04 33.8663 102.008 29.1955L106.029 31.4868C106.029 31.4868 102.814 37.4462 97.5055 37.4452C96.7612 37.4461 96.0209 37.3369 95.3085 37.1213L95.3035 37.1102ZM19.6856 37.5615C19.2144 38.0759 18.9135 38.5722 19.0138 38.6645L19.0208 38.6755C19.0334 38.6811 19.0475 38.6825 19.0609 38.6795C19.4542 38.5076 19.7964 38.2372 20.0547 37.8944C20.5239 37.38 20.8248 36.8836 20.7245 36.7914C20.6242 36.6991 20.1569 37.0471 19.6856 37.5615ZM22.9165 36.9889C22.6722 37.8284 22.5878 38.7063 22.6678 39.577L22.6739 39.583C22.5925 40.4513 22.6748 41.3272 22.9165 42.1651C23.161 41.3256 23.245 40.4476 23.1642 39.577C23.2448 38.7064 23.1608 37.8284 22.9165 36.9889ZM161.422 45.2576C161.341 44.387 161.425 43.5087 161.671 42.6695C161.915 43.509 161.999 44.387 161.919 45.2576C161.999 46.1282 161.915 47.0062 161.671 47.8457C161.426 47.0084 161.342 46.1323 161.423 45.2636L161.422 45.2576ZM55.1712 49.5143C55.1712 49.5143 55.5392 45.6497 58.6156 45.3228L60.0466 46.5582C60.0466 46.5582 57.2288 47.4868 57.2318 49.758L55.1712 49.5143ZM156.412 49.3599C155.554 49.2792 154.688 49.3637 153.861 49.6086V49.6136C154.688 49.8579 155.554 49.941 156.412 49.8583C157.271 49.9394 158.136 49.8546 158.962 49.6086C158.136 49.3637 157.271 49.2793 156.412 49.3599ZM157.947 52.8846C157.846 52.7923 158.147 52.296 158.617 51.7816C159.086 51.2671 159.554 50.9192 159.656 51.0114C159.759 51.1037 159.456 51.6001 158.985 52.1145C158.727 52.457 158.385 52.7274 157.993 52.8996C157.977 52.9023 157.96 52.8987 157.947 52.8896V52.8846ZM161.599 53.7971C161.518 52.9264 161.602 52.0484 161.847 51.209C162.092 52.0485 162.176 52.9265 162.095 53.7971C162.176 54.6677 162.092 55.5457 161.847 56.3852C161.603 55.5461 161.518 54.6684 161.599 53.7981V53.7971ZM3.12413 52.3952L0.536013 54.4128C-0.0175086 59.214 6.34197 60.3772 6.34197 60.3772L7.49013 57.2355C3.67464 56.8896 3.12413 52.3952 3.12413 52.3952ZM48.573 105.412C48.573 94.3388 52.9719 83.7192 60.8019 75.8894C68.6319 68.0595 79.2516 63.6609 90.3248 63.6612C101.398 63.6609 112.018 68.0595 119.848 75.8894C127.678 83.7192 132.077 94.3388 132.077 105.412C132.077 128.471 113.384 147.164 90.3248 147.164C67.2659 147.164 48.573 128.471 48.573 105.412ZM21.9188 96.8775L21.7624 93.8281C21.7624 93.8281 27.462 93.402 28.6994 97.79L27.2605 100.173C27.2605 100.173 25.2138 96.3099 21.9188 96.8775ZM142.851 87.6809L142.851 87.6822L142.849 87.6812L142.851 87.6809ZM142.851 87.6809L142.695 84.6318C142.695 84.6318 148.394 84.2057 149.634 88.5927L148.195 90.9753C148.195 90.9753 146.145 87.1132 142.851 87.6809ZM181.504 71.1368L182.252 69.2014C182.252 69.2014 185.904 70.515 185.461 73.5775L183.909 74.6564C183.909 74.6564 183.703 71.6963 181.502 71.1368H181.504ZM164.156 51.2381C164.051 51.3253 164.371 51.8818 164.873 52.4835V52.4845C165.323 53.03 165.776 53.4221 165.937 53.4221C165.95 53.4228 165.964 53.4185 165.975 53.41C166.08 53.3218 165.76 52.7643 165.259 52.1646C164.757 51.565 164.26 51.1508 164.156 51.2381ZM167.106 49.1934C166.248 49.113 165.383 49.1974 164.557 49.4421V49.4481C165.383 49.6907 166.248 49.7731 167.106 49.6908C167.965 49.7713 168.831 49.6869 169.658 49.4421C168.831 49.1972 167.965 49.1128 167.106 49.1934ZM158.091 46.0488C158.003 46.1531 158.333 46.5752 158.829 46.9864L158.83 46.9924C159.108 47.2596 159.447 47.4557 159.817 47.564C159.842 47.5664 159.867 47.558 159.885 47.5409C159.972 47.4336 159.639 47.0165 159.146 46.6033C158.653 46.1902 158.179 45.9445 158.091 46.0488ZM163.843 47.4356C163.743 47.3353 164.089 46.834 164.609 46.3095C165.129 45.7851 165.629 45.4391 165.726 45.5364C165.823 45.6337 165.482 46.138 164.963 46.6605C164.675 47.0069 164.307 47.2783 163.891 47.4517C163.876 47.4532 163.861 47.4497 163.849 47.4416L163.843 47.4356ZM25.9418 38.2634C25.4405 37.6617 25.1216 37.1052 25.2249 37.018C25.3282 36.9307 25.8215 37.3449 26.3279 37.9445C26.8343 38.5442 27.1472 39.1017 27.0419 39.1899C27.0318 39.1984 27.0189 39.2027 27.0058 39.202C26.8513 39.208 26.4031 38.8149 25.9479 38.2684L25.9418 38.2634ZM140.868 35.56L142.078 37.01L142.084 37.017C142.155 37.021 142.223 37.0206 142.288 37.016C145.214 37.016 146.155 33.4341 146.155 33.4341L144.164 32.8585C143.799 35.0997 140.868 35.56 140.868 35.56ZM14.9286 35.3915C15.7553 35.1467 16.6212 35.0622 17.4796 35.1428C18.3377 35.0624 19.2032 35.1468 20.0296 35.3915C19.2034 35.6373 18.3377 35.7221 17.4796 35.6412C16.6239 35.7239 15.7604 35.6419 14.9356 35.3995L14.9286 35.3915ZM28.175 34.9764C27.3169 34.8959 26.4513 34.9803 25.625 35.225L25.632 35.2331C26.4567 35.4741 27.3197 35.5558 28.175 35.4737C29.0334 35.5542 29.8993 35.4698 30.726 35.225C29.8993 34.9802 29.0334 34.8958 28.175 34.9764ZM19.1602 31.8317C19.07 31.938 19.4019 32.3582 19.8952 32.7693L19.9032 32.7773C20.1802 33.0424 20.5164 33.2376 20.8839 33.3469C20.9087 33.3498 20.9334 33.3413 20.9511 33.3238C21.0394 33.2165 20.7065 32.7974 20.2141 32.3862C19.7217 31.9751 19.2505 31.7254 19.1602 31.8317ZM24.916 33.2185C24.8157 33.1183 25.1607 32.6169 25.6811 32.0924C26.2016 31.568 26.7009 31.222 26.7992 31.3193C26.8975 31.4166 26.5535 31.921 26.0351 32.4434C25.7464 32.7893 25.3788 33.0607 24.9632 33.2346C24.9493 33.2363 24.9352 33.2335 24.923 33.2266L24.916 33.2185Z" fill="#1DBF73"/>
<path d="M72.6101 2.5723L72.1423 2.39188L72.0249 2.69626L72.2557 2.9269L72.6101 2.5723ZM73.3562 0.637984L73.5261 0.166295L73.0648 6.74791e-05L72.8884 0.45756L73.3562 0.637984ZM72.6181 2.58032L72.2637 2.93492L72.3609 3.03208L72.494 3.0661L72.6181 2.58032ZM75.0137 6.09398L74.5135 6.12746L74.5726 7.01151L75.3 6.50559L75.0137 6.09398ZM76.565 5.01501L76.8513 5.42662L77.0301 5.30226L77.0612 5.08669L76.565 5.01501ZM22.738 28.4524L23.2192 28.3114L22.7364 26.6646L22.2566 28.3123L22.738 28.4524ZM22.4894 31.0405L21.9901 31.0865L22.005 31.2483L22.112 31.3707L22.4894 31.0405ZM22.9877 31.0405L22.4885 30.9941L22.4842 31.0406L22.4885 31.0871L22.9877 31.0405ZM22.738 33.6287L22.2563 33.7675L22.7337 35.4247L23.2191 33.7698L22.738 33.6287ZM22.4964 31.0486L22.9956 31.0955L23.0157 30.8808L22.8737 30.7184L22.4964 31.0486ZM93.4374 33.3258L93.4783 32.8261L92.5963 32.7539L92.9877 33.5476L93.4374 33.3258ZM95.3035 37.1102L95.76 36.9028L95.7567 36.8956L95.7532 36.8885L95.3035 37.1102ZM102.008 29.1955L102.256 28.7599L101.765 28.4802L101.546 29.0008L102.008 29.1955ZM106.029 31.4868L106.47 31.7248L106.703 31.2937L106.277 31.0512L106.029 31.4868ZM97.5055 37.4452L97.5056 36.9438H97.5049L97.5055 37.4452ZM95.3085 37.1213L94.852 37.3287L94.9459 37.5354L95.1632 37.6011L95.3085 37.1213ZM19.0138 38.6645L19.4368 38.3953L19.4016 38.34L19.3533 38.2955L19.0138 38.6645ZM19.6856 37.5615L20.0553 37.9002H20.0553L19.6856 37.5615ZM19.0208 38.6755L18.5978 38.9447L18.6788 39.072L18.8167 39.1335L19.0208 38.6755ZM19.0609 38.6795L19.1703 39.1688L19.2175 39.1583L19.2618 39.1389L19.0609 38.6795ZM20.0547 37.8944L19.6843 37.5565L19.6684 37.5739L19.6542 37.5927L20.0547 37.8944ZM20.7245 36.7914L21.064 36.4224L21.064 36.4224L20.7245 36.7914ZM22.6678 39.577L22.1686 39.6229L22.1852 39.8035L22.3134 39.9316L22.6678 39.577ZM22.9165 36.9889L23.3979 36.8488L22.9166 35.1946L22.4351 36.8488L22.9165 36.9889ZM22.6739 39.583L23.1731 39.6298L23.1951 39.3951L23.0283 39.2284L22.6739 39.583ZM22.9165 42.1651L22.4348 42.3041L22.9143 43.9662L23.3979 42.3053L22.9165 42.1651ZM23.1642 39.577L22.665 39.5308L22.6607 39.5771L22.665 39.6233L23.1642 39.577ZM161.671 42.6695L162.152 42.5294L161.673 40.8809L161.19 42.5285L161.671 42.6695ZM161.422 45.2576L160.923 45.3045L160.925 45.322L160.928 45.3394L161.422 45.2576ZM161.919 45.2576L161.419 45.2114L161.415 45.2576L161.419 45.3039L161.919 45.2576ZM161.671 47.8457L161.19 47.9865L161.672 49.6362L162.152 47.9858L161.671 47.8457ZM161.423 45.2636L161.922 45.3103L161.928 45.2458L161.918 45.1818L161.423 45.2636ZM58.6156 45.3228L58.9433 44.9433L58.7788 44.8013L58.5627 44.8242L58.6156 45.3228ZM55.1712 49.5143L54.6721 49.4668L54.6256 49.9547L55.1123 50.0122L55.1712 49.5143ZM60.0466 46.5582L60.2035 47.0344L61.0444 46.7573L60.3742 46.1787L60.0466 46.5582ZM57.2318 49.758L57.173 50.2559L57.734 50.3222L57.7332 49.7573L57.2318 49.758ZM153.861 49.6086L153.719 49.1279L153.36 49.2342V49.6086H153.861ZM156.412 49.3599L156.366 49.8591L156.412 49.8635L156.459 49.8591L156.412 49.3599ZM153.861 49.6136H153.36V49.9882L153.719 50.0944L153.861 49.6136ZM156.412 49.8583L156.46 49.3591L156.412 49.3546L156.364 49.3592L156.412 49.8583ZM158.962 49.6086L159.106 50.0891L160.723 49.6074L159.105 49.1279L158.962 49.6086ZM157.947 52.8846H158.448V52.6646L158.286 52.5156L157.947 52.8846ZM159.656 51.0114L159.992 50.6391L159.992 50.6391L159.656 51.0114ZM158.985 52.1145L158.615 51.7758L158.598 51.7937L158.584 51.8131L158.985 52.1145ZM157.993 52.8996L158.074 53.3944L158.136 53.3842L158.194 53.3588L157.993 52.8996ZM157.947 52.8896H157.445V53.157L157.667 53.306L157.947 52.8896ZM161.847 51.209L162.329 51.0689L161.848 49.4164L161.366 51.0685L161.847 51.209ZM161.599 53.7971H162.1V53.7739L162.098 53.7509L161.599 53.7971ZM162.095 53.7971L161.596 53.7509L161.592 53.7971L161.596 53.8433L162.095 53.7971ZM161.847 56.3852L161.366 56.5256L161.848 58.178L162.329 56.5252L161.847 56.3852ZM161.599 53.7981L162.098 53.8442L162.1 53.8212V53.7981H161.599ZM0.536013 54.4128L0.227762 54.0174L0.0620047 54.1466L0.0379339 54.3554L0.536013 54.4128ZM3.12413 52.3952L3.62178 52.3343L3.51414 51.4555L2.81588 51.9998L3.12413 52.3952ZM6.34197 60.3772L6.25176 60.8704L6.66773 60.9465L6.81289 60.5493L6.34197 60.3772ZM7.49013 57.2355L7.96104 57.4077L8.1849 56.7951L7.5354 56.7362L7.49013 57.2355ZM90.3248 63.6612L90.3248 64.1626H90.3248L90.3248 63.6612ZM119.848 75.8894L119.493 76.2439V76.2439L119.848 75.8894ZM21.7624 93.8281L21.725 93.3281L21.2365 93.3647L21.2616 93.8538L21.7624 93.8281ZM21.9188 96.8775L21.4181 96.9032L21.447 97.4675L22.0039 97.3716L21.9188 96.8775ZM28.6994 97.79L29.1286 98.0492L29.241 97.8632L29.182 97.6539L28.6994 97.79ZM27.2605 100.173L26.8174 100.407L27.2319 101.19L27.6896 100.432L27.2605 100.173ZM142.851 87.6822L142.627 88.1307L143.391 88.5127L143.352 87.6593L142.851 87.6822ZM142.849 87.6812L142.764 87.1872L141.261 87.4476L142.625 88.1297L142.849 87.6812ZM142.695 84.6318L142.657 84.1319L142.169 84.1684L142.194 84.6575L142.695 84.6318ZM149.634 88.5927L150.063 88.8519L150.175 88.6658L150.116 88.4564L149.634 88.5927ZM148.195 90.9753L147.752 91.2103L148.167 91.9917L148.624 91.2345L148.195 90.9753ZM182.252 69.2014L182.422 68.7297L181.961 68.5639L181.785 69.0207L182.252 69.2014ZM181.504 71.1368V71.6381H181.848L181.972 71.3175L181.504 71.1368ZM185.461 73.5775L185.747 73.9892L185.926 73.8648L185.958 73.6491L185.461 73.5775ZM183.909 74.6564L183.409 74.6912L183.47 75.5722L184.195 75.0681L183.909 74.6564ZM181.502 71.1368V70.6354L181.379 71.6227L181.502 71.1368ZM164.873 52.4835H165.374V52.302L165.258 52.1625L164.873 52.4835ZM164.873 52.4845H164.371V52.6647L164.486 52.8036L164.873 52.4845ZM165.937 53.4221L165.962 52.9213L165.949 52.9207H165.937V53.4221ZM165.975 53.41L166.283 53.8051L166.29 53.7998L166.297 53.7943L165.975 53.41ZM164.557 49.4421L164.414 48.9614L164.055 49.0677V49.4421H164.557ZM167.106 49.1934L167.059 49.6926L167.106 49.697L167.153 49.6926L167.106 49.1934ZM164.557 49.4481H164.055V49.8235L164.416 49.9292L164.557 49.4481ZM167.106 49.6908L167.153 49.1916L167.105 49.1872L167.058 49.1917L167.106 49.6908ZM169.658 49.4421L169.8 49.9229L171.424 49.4423L169.8 48.9614L169.658 49.4421ZM158.829 46.9864L159.324 46.9046L159.293 46.7197L159.149 46.6002L158.829 46.9864ZM158.83 46.9924L158.335 47.0742L158.363 47.2385L158.483 47.3539L158.83 46.9924ZM159.817 47.564L159.676 48.0452L159.721 48.0583L159.767 48.0629L159.817 47.564ZM159.885 47.5409L160.227 47.9072L160.252 47.8838L160.274 47.8572L159.885 47.5409ZM159.146 46.6033L158.824 46.9877V46.9877L159.146 46.6033ZM164.609 46.3095L164.965 46.6627V46.6627L164.609 46.3095ZM163.843 47.4356L164.198 47.0812L164.197 47.0811L163.843 47.4356ZM165.726 45.5364L165.372 45.8909V45.8909L165.726 45.5364ZM164.963 46.6605L164.607 46.307L164.592 46.3227L164.578 46.3398L164.963 46.6605ZM163.891 47.4517L163.943 47.9503L164.016 47.9426L164.084 47.9145L163.891 47.4517ZM163.849 47.4416L163.494 47.796L163.532 47.834L163.577 47.8631L163.849 47.4416ZM25.9418 38.2634L25.5567 38.5844L25.5858 38.6194L25.6208 38.6485L25.9418 38.2634ZM26.3279 37.9445L26.711 37.621L26.3279 37.9445ZM27.0419 39.1899L27.3631 39.5749L27.3639 39.5742L27.0419 39.1899ZM27.0058 39.202L27.0316 38.7013L27.0089 38.7001L26.9863 38.701L27.0058 39.202ZM25.9479 38.2684L26.3331 37.9475L26.3039 37.9125L26.2689 37.8833L25.9479 38.2684ZM142.078 37.01L141.693 37.3313L141.697 37.3361L142.078 37.01ZM140.868 35.56L140.79 35.0647L139.916 35.2019L140.483 35.8813L140.868 35.56ZM142.084 37.017L141.703 37.3432L141.842 37.5055L142.056 37.5175L142.084 37.017ZM142.288 37.016V36.5146H142.27L142.252 36.5159L142.288 37.016ZM146.155 33.4341L146.64 33.5616L146.765 33.0883L146.294 32.9525L146.155 33.4341ZM144.164 32.8585L144.303 32.3769L143.76 32.2199L143.669 32.778L144.164 32.8585ZM17.4796 35.1428L17.4327 35.642L17.4795 35.6464L17.5264 35.642L17.4796 35.1428ZM14.9286 35.3915L14.7862 34.9108L14.0361 35.1329L14.5513 35.7217L14.9286 35.3915ZM20.0296 35.3915L20.1726 35.8721L21.7917 35.3904L20.1719 34.9108L20.0296 35.3915ZM17.4796 35.6412L17.5266 35.142L17.479 35.1375L17.4313 35.1421L17.4796 35.6412ZM14.9356 35.3995L14.5583 35.7297L14.6543 35.8395L14.7942 35.8806L14.9356 35.3995ZM25.625 35.225L25.4826 34.7443L24.7325 34.9665L25.2477 35.5552L25.625 35.225ZM28.175 34.9764L28.1281 35.4756L28.175 35.4799L28.2218 35.4755L28.175 34.9764ZM25.632 35.2331L25.2547 35.5632L25.351 35.6733L25.4913 35.7143L25.632 35.2331ZM28.175 35.4737L28.2218 34.9745L28.1744 34.9701L28.1271 34.9746L28.175 35.4737ZM30.726 35.225L30.8683 35.7058L32.492 35.2252L30.8684 34.7443L30.726 35.225ZM19.8952 32.7693L20.2498 32.4148L20.2337 32.3987L20.2162 32.3841L19.8952 32.7693ZM19.1602 31.8317L19.5424 32.1562L19.5424 32.1562L19.1602 31.8317ZM19.9032 32.7773L19.5486 33.1319L19.5566 33.1396L19.9032 32.7773ZM20.8839 33.3469L20.7411 33.8275L20.7828 33.8399L20.8259 33.8449L20.8839 33.3469ZM20.9511 33.3238L21.3028 33.6812L21.3216 33.6627L21.3384 33.6423L20.9511 33.3238ZM20.2141 32.3862L19.8927 32.7711L20.2141 32.3862ZM25.6811 32.0924L25.3252 31.7393L25.6811 32.0924ZM24.916 33.2185L25.2933 32.8884L25.2823 32.8758L25.2706 32.864L24.916 33.2185ZM26.7992 31.3193L27.1519 30.963L27.1519 30.963L26.7992 31.3193ZM26.0351 32.4434L25.6792 32.0902L25.664 32.1056L25.6502 32.1222L26.0351 32.4434ZM24.9632 33.2346L25.024 33.7322L25.0928 33.7238L25.1567 33.6971L24.9632 33.2346ZM24.923 33.2266L24.5457 33.5567L24.6016 33.6206L24.6754 33.6625L24.923 33.2266ZM73.0779 2.75272L73.824 0.818408L72.8884 0.45756L72.1423 2.39188L73.0779 2.75272ZM72.9726 2.22572L72.9646 2.2177L72.2557 2.9269L72.2637 2.93492L72.9726 2.22572ZM75.0137 6.09398C75.514 6.0605 75.514 6.06031 75.514 6.06011C75.514 6.06003 75.5139 6.05982 75.5139 6.05965C75.5139 6.05933 75.5139 6.05895 75.5138 6.05853C75.5138 6.05769 75.5137 6.05667 75.5136 6.05548C75.5135 6.05308 75.5132 6.04997 75.5129 6.04616C75.5123 6.03856 75.5115 6.02817 75.5103 6.01517C75.5079 5.98918 75.5042 5.9527 75.4988 5.90704C75.488 5.81582 75.4702 5.68745 75.4415 5.53266C75.3845 5.22458 75.2833 4.80424 75.1055 4.3611C74.7547 3.48639 74.0655 2.43259 72.7422 2.09455L72.494 3.0661C73.3689 3.28959 73.8774 3.99263 74.1748 4.73436C74.3213 5.09944 74.4068 5.45223 74.4555 5.71521C74.4797 5.84597 74.4945 5.95261 74.503 6.02503C74.5073 6.06119 74.5101 6.08868 74.5117 6.10621C74.5125 6.11497 74.513 6.12123 74.5133 6.12482C74.5134 6.12662 74.5135 6.12776 74.5135 6.1282C74.5135 6.12842 74.5135 6.12847 74.5135 6.12835C74.5135 6.12829 74.5135 6.12819 74.5135 6.12804C74.5135 6.12796 74.5135 6.12782 74.5135 6.12778C74.5135 6.12762 74.5135 6.12746 75.0137 6.09398ZM76.2787 4.60341L74.7274 5.68237L75.3 6.50559L76.8513 5.42662L76.2787 4.60341ZM73.3562 0.637984C73.1862 1.10967 73.186 1.10961 73.1859 1.10956C73.1858 1.10955 73.1857 1.1095 73.1856 1.10947C73.1855 1.10943 73.1854 1.1094 73.1854 1.10939C73.1854 1.10937 73.1855 1.10944 73.1859 1.10958C73.1867 1.10986 73.1883 1.11046 73.1907 1.11137C73.1956 1.11319 73.2038 1.11628 73.2149 1.12064C73.2373 1.12936 73.2718 1.14315 73.3165 1.16211C73.406 1.20007 73.536 1.25846 73.6918 1.33796C74.005 1.49779 74.4138 1.73868 74.8062 2.0643C75.5941 2.71814 76.2549 3.65488 76.0688 4.94333L77.0612 5.08669C77.3173 3.31373 76.3736 2.06195 75.4466 1.29264C74.9815 0.90668 74.5053 0.627327 74.1477 0.44481C73.968 0.353137 73.8163 0.284827 73.7079 0.238878C73.6536 0.21588 73.6101 0.198419 73.5792 0.186374C73.5637 0.18035 73.5514 0.175675 73.5425 0.172334C73.538 0.170664 73.5344 0.169327 73.5317 0.168321C73.5303 0.167818 73.5292 0.167398 73.5282 0.16706C73.5278 0.166892 73.5274 0.166743 73.527 0.166616C73.5268 0.166552 73.5266 0.166472 73.5265 0.16644C73.5263 0.166365 73.5261 0.166295 73.3562 0.637984ZM22.2566 28.3123C21.9947 29.2121 21.9042 30.1532 21.9901 31.0865L22.9886 30.9946C22.9143 30.1866 22.9926 29.3717 23.2194 28.5926L22.2566 28.3123ZM23.4869 31.087C23.5739 30.1532 23.483 29.2114 23.2192 28.3114L22.2569 28.5935C22.4851 29.3719 22.5637 30.1864 22.4885 30.9941L23.4869 31.087ZM23.2191 33.7698C23.4832 32.8698 23.574 31.9279 23.4869 30.994L22.4885 31.0871C22.5638 31.8947 22.4853 32.7092 22.2569 33.4875L23.2191 33.7698ZM21.9972 31.0017C21.9098 31.9317 21.9977 32.8698 22.2563 33.7675L23.2198 33.4899C22.996 32.7128 22.9199 31.9006 22.9956 31.0955L21.9972 31.0017ZM22.112 31.3707L22.119 31.3787L22.8737 30.7184L22.8667 30.7104L22.112 31.3707ZM92.9877 33.5476L94.8538 37.332L95.7532 36.8885L93.887 33.1041L92.9877 33.5476ZM101.546 29.0008C100.652 31.1226 98.6963 32.092 96.869 32.5243C95.9616 32.739 95.1093 32.8147 94.4825 32.8362C94.1698 32.8469 93.9152 32.8442 93.7403 32.8388C93.6528 32.8361 93.5855 32.8328 93.5409 32.8302C93.5186 32.8289 93.502 32.8278 93.4914 32.8271C93.4862 32.8267 93.4824 32.8264 93.4802 32.8263C93.4791 32.8262 93.4784 32.8261 93.478 32.8261C93.4779 32.8261 93.4778 32.8261 93.4779 32.8261C93.4779 32.8261 93.478 32.8261 93.478 32.8261C93.4781 32.8261 93.4783 32.8261 93.4374 33.3258C93.3965 33.8255 93.3967 33.8255 93.3969 33.8256C93.397 33.8256 93.3972 33.8256 93.3975 33.8256C93.3979 33.8257 93.3984 33.8257 93.3991 33.8257C93.4004 33.8258 93.402 33.826 93.4041 33.8261C93.4083 33.8265 93.414 33.8269 93.4213 33.8274C93.4358 33.8284 93.4566 33.8298 93.4831 33.8313C93.5362 33.8344 93.6126 33.8381 93.7095 33.8411C93.9033 33.847 94.1799 33.85 94.5169 33.8384C95.1895 33.8153 96.1108 33.7342 97.0999 33.5001C99.0659 33.035 101.396 31.9392 102.47 29.3902L101.546 29.0008ZM106.277 31.0512L102.256 28.7599L101.76 29.6311L105.781 31.9224L106.277 31.0512ZM97.5054 37.9465C100.354 37.9471 102.606 36.3501 104.115 34.8182C104.874 34.0473 105.46 33.2782 105.857 32.7021C106.055 32.4136 106.207 32.1723 106.31 32.0018C106.361 31.9165 106.4 31.8488 106.427 31.8017C106.441 31.7781 106.451 31.7597 106.458 31.7468C106.462 31.7403 106.465 31.7352 106.467 31.7315C106.468 31.7297 106.468 31.7282 106.469 31.7271C106.469 31.7265 106.47 31.7261 106.47 31.7257C106.47 31.7255 106.47 31.7253 106.47 31.7252C106.47 31.725 106.47 31.7248 106.029 31.4868C105.588 31.2487 105.588 31.2486 105.588 31.2485C105.588 31.2485 105.588 31.2484 105.588 31.2484C105.588 31.2484 105.588 31.2485 105.588 31.2486C105.588 31.2489 105.587 31.2496 105.587 31.2506C105.586 31.2527 105.584 31.2561 105.581 31.261C105.576 31.2706 105.567 31.2856 105.556 31.3057C105.533 31.3459 105.498 31.4062 105.451 31.4839C105.357 31.6393 105.216 31.8636 105.031 32.1337C104.658 32.675 104.109 33.3956 103.401 34.1145C101.975 35.562 99.9656 36.9442 97.5056 36.9438L97.5054 37.9465ZM95.1632 37.6011C95.9229 37.8311 96.7124 37.9475 97.5062 37.9465L97.5049 36.9438C96.81 36.9446 96.1189 36.8427 95.4538 36.6414L95.1632 37.6011ZM94.847 37.3176L94.852 37.3287L95.765 36.9138L95.76 36.9028L94.847 37.3176ZM19.3533 38.2955C19.4786 38.4109 19.4948 38.5491 19.4958 38.6021C19.4969 38.6553 19.4856 38.6851 19.488 38.6774C19.4919 38.6652 19.5115 38.6177 19.5638 38.5318C19.664 38.367 19.8352 38.1405 20.0553 37.9002L19.316 37.2228C19.0648 37.4969 18.85 37.7757 18.707 38.0108C18.6377 38.1248 18.5714 38.2508 18.5324 38.3737C18.5133 38.4336 18.4913 38.5213 18.4933 38.6214C18.4952 38.7212 18.5239 38.8951 18.6743 39.0335L19.3533 38.2955ZM19.4438 38.4064L19.4368 38.3953L18.5908 38.9336L18.5978 38.9447L19.4438 38.4064ZM18.9516 38.1902C19.0432 38.1698 19.139 38.1793 19.2249 38.2176L18.8167 39.1335C18.9278 39.183 19.0518 39.1953 19.1703 39.1688L18.9516 38.1902ZM19.6542 37.5927C19.4478 37.8667 19.1743 38.0828 18.8601 38.2201L19.2618 39.1389C19.734 38.9325 20.145 38.6077 20.4551 38.1961L19.6542 37.5927ZM20.385 37.1603C20.2597 37.045 20.2435 36.9068 20.2425 36.8539C20.2414 36.8007 20.2527 36.771 20.2502 36.7786C20.2464 36.7909 20.2267 36.8384 20.1745 36.9244C20.0745 37.0893 19.9036 37.316 19.6843 37.5565L20.4251 38.2323C20.675 37.9583 20.8892 37.6796 21.0318 37.4447C21.1009 37.3308 21.1671 37.2048 21.206 37.0819C21.225 37.0221 21.247 36.9344 21.245 36.8344C21.2431 36.7347 21.2144 36.5608 21.064 36.4224L20.385 37.1603ZM20.0553 37.9002C20.2762 37.6591 20.4873 37.4671 20.6431 37.3515C20.7243 37.2911 20.77 37.267 20.7819 37.262C20.7894 37.2588 20.7605 37.273 20.7067 37.2769C20.6529 37.2808 20.5119 37.277 20.385 37.1603L21.064 36.4224C20.9121 36.2826 20.7345 36.2695 20.6341 36.2768C20.5338 36.2841 20.4481 36.3143 20.3904 36.3388C20.2717 36.3892 20.1523 36.4669 20.0454 36.5463C19.8246 36.7102 19.5664 36.9494 19.316 37.2228L20.0553 37.9002ZM23.1671 39.5311C23.0928 38.723 23.1711 37.9082 23.3979 37.129L22.4351 36.8488C22.1732 37.7486 22.0828 38.6897 22.1686 39.6229L23.1671 39.5311ZM23.0283 39.2284L23.0223 39.2224L22.3134 39.9316L22.3194 39.9377L23.0283 39.2284ZM23.3983 42.0261C23.1739 41.2485 23.0975 40.4356 23.1731 39.6298L22.1747 39.5362C22.0874 40.467 22.1757 41.4059 22.4348 42.3041L23.3983 42.0261ZM22.665 39.6233C22.7399 40.4312 22.662 41.246 22.4351 42.025L23.3979 42.3053C23.66 41.4053 23.75 40.464 23.6634 39.5307L22.665 39.6233ZM22.4351 37.129C22.6618 37.9081 22.7398 38.7228 22.665 39.5308L23.6634 39.6232C23.7499 38.69 23.6598 37.7488 23.3979 36.8488L22.4351 37.129ZM161.19 42.5285C160.926 43.4286 160.835 44.3706 160.923 45.3045L161.921 45.2108C161.846 44.4033 161.924 43.5888 162.152 42.8105L161.19 42.5285ZM162.418 45.3039C162.504 44.3706 162.414 43.4294 162.152 42.5294L161.189 42.8096C161.416 43.5887 161.494 44.4035 161.419 45.2114L162.418 45.3039ZM162.152 47.9858C162.414 47.0859 162.504 46.1447 162.418 45.2114L161.419 45.3039C161.494 46.1118 161.416 46.9266 161.189 47.7057L162.152 47.9858ZM160.924 45.217C160.837 46.1486 160.927 47.0884 161.19 47.9865L162.152 47.705C161.925 46.9285 161.847 46.1159 161.922 45.3103L160.924 45.217ZM160.928 45.3394L160.929 45.3455L161.918 45.1818L161.917 45.1758L160.928 45.3394ZM58.5627 44.8242C56.7807 45.0136 55.8019 46.2378 55.2866 47.3267C55.028 47.8729 54.8756 48.4037 54.7876 48.7954C54.7434 48.9922 54.7149 49.1562 54.6973 49.2727C54.6884 49.331 54.6823 49.3775 54.6783 49.4104C54.6763 49.4269 54.6749 49.44 54.6738 49.4494C54.6733 49.4542 54.6729 49.458 54.6726 49.4609C54.6725 49.4624 54.6724 49.4636 54.6723 49.4646C54.6722 49.465 54.6722 49.4655 54.6722 49.4659C54.6721 49.466 54.6721 49.4663 54.6721 49.4664C54.6721 49.4666 54.6721 49.4668 55.1712 49.5143C55.6703 49.5619 55.6703 49.562 55.6703 49.5622C55.6703 49.5622 55.6703 49.5624 55.6702 49.5624C55.6702 49.5626 55.6702 49.5627 55.6702 49.5627C55.6702 49.5627 55.6702 49.5625 55.6703 49.5621C55.6704 49.5613 55.6705 49.5596 55.6708 49.557C55.6714 49.5518 55.6723 49.5432 55.6738 49.5313C55.6767 49.5074 55.6815 49.4706 55.6887 49.4226C55.7033 49.3264 55.7276 49.1859 55.7659 49.0153C55.843 48.6722 55.9749 48.2164 56.1929 47.7556C56.6308 46.8305 57.3741 45.9589 58.6686 45.8214L58.5627 44.8242ZM60.3742 46.1787L58.9433 44.9433L58.288 45.7023L59.7189 46.9377L60.3742 46.1787ZM57.7332 49.7573C57.732 48.8534 58.288 48.1846 58.9345 47.7108C59.2526 47.4776 59.574 47.3065 59.8174 47.1936C59.9384 47.1374 60.0383 47.0965 60.1065 47.0701C60.1406 47.0569 60.1666 47.0474 60.1833 47.0415C60.1916 47.0385 60.1975 47.0364 60.201 47.0353C60.2027 47.0347 60.2038 47.0343 60.2042 47.0342C60.2044 47.0341 60.2045 47.0341 60.2044 47.0341C60.2043 47.0341 60.2042 47.0342 60.2041 47.0342C60.204 47.0342 60.2038 47.0343 60.2038 47.0343C60.2037 47.0343 60.2035 47.0344 60.0466 46.5582C59.8897 46.082 59.8895 46.0821 59.8893 46.0821C59.8892 46.0822 59.889 46.0822 59.8889 46.0823C59.8885 46.0824 59.8882 46.0825 59.8878 46.0826C59.887 46.0829 59.886 46.0832 59.8849 46.0836C59.8826 46.0844 59.8796 46.0854 59.876 46.0866C59.8688 46.0891 59.8589 46.0925 59.8466 46.0969C59.822 46.1057 59.7875 46.1183 59.7445 46.135C59.6586 46.1682 59.5385 46.2176 59.3953 46.284C59.1105 46.4161 58.7276 46.6191 58.3417 46.902C57.5801 47.4602 56.7287 48.3914 56.7305 49.7587L57.7332 49.7573ZM55.1123 50.0122L57.173 50.2559L57.2907 49.2601L55.2301 49.0164L55.1123 50.0122ZM154.004 50.0893C154.769 49.8626 155.571 49.7844 156.366 49.8591L156.459 48.8607C155.537 48.7741 154.607 48.8648 153.719 49.1279L154.004 50.0893ZM154.363 49.6136V49.6086H153.36V49.6136H154.363ZM156.364 49.3592C155.57 49.4358 154.769 49.3589 154.004 49.1328L153.719 50.0944C154.608 50.357 155.538 50.4462 156.461 50.3573L156.364 49.3592ZM158.819 49.1281C158.055 49.3557 157.254 49.4342 156.46 49.3591L156.365 50.3574C157.287 50.4446 158.218 50.3535 159.106 50.0891L158.819 49.1281ZM156.459 49.8591C157.254 49.7845 158.055 49.8626 158.82 50.0893L159.105 49.1279C158.217 48.8648 157.287 48.7741 156.366 48.8607L156.459 49.8591ZM158.246 51.4436C157.996 51.7176 157.782 51.9963 157.639 52.2313C157.57 52.3452 157.504 52.4712 157.465 52.594C157.446 52.6539 157.424 52.7415 157.426 52.8415C157.428 52.9412 157.457 53.1151 157.607 53.2536L158.286 52.5156C158.412 52.631 158.428 52.7692 158.429 52.8221C158.43 52.8753 158.418 52.905 158.421 52.8973C158.425 52.885 158.444 52.8375 158.497 52.7515C158.597 52.5866 158.768 52.3599 158.987 52.1195L158.246 51.4436ZM159.992 50.6391C159.841 50.5027 159.666 50.4897 159.566 50.4969C159.466 50.5041 159.38 50.534 159.322 50.5586C159.203 50.6089 159.083 50.6867 158.975 50.7662C158.754 50.9303 158.496 51.1699 158.246 51.4436L158.987 52.1195C159.206 51.8788 159.417 51.6872 159.573 51.5718C159.654 51.5116 159.7 51.4875 159.712 51.4825C159.719 51.4793 159.691 51.4932 159.638 51.497C159.584 51.5008 159.446 51.4971 159.321 51.3838L159.992 50.6391ZM159.354 52.4532C159.605 52.1794 159.82 51.9007 159.964 51.6656C160.033 51.5516 160.1 51.4252 160.139 51.3016C160.158 51.2414 160.18 51.1528 160.177 51.0516C160.175 50.9497 160.144 50.776 159.992 50.6391L159.321 51.3838C159.194 51.2699 159.176 51.1319 159.175 51.0768C159.174 51.0225 159.185 50.9918 159.183 50.9991C159.179 51.0107 159.16 51.0577 159.107 51.1437C159.007 51.3085 158.835 51.5352 158.615 51.7758L159.354 52.4532ZM158.194 53.3588C158.666 53.1519 159.076 52.8272 159.385 52.4159L158.584 51.8131C158.378 52.0868 158.105 52.3029 157.791 52.4405L158.194 53.3588ZM157.667 53.306C157.787 53.3861 157.932 53.4176 158.074 53.3944L157.912 52.4049C158.021 52.3869 158.134 52.4113 158.226 52.4732L157.667 53.306ZM157.445 52.8846V52.8896H158.448V52.8846H157.445ZM161.366 51.0685C161.103 51.9685 161.013 52.9099 161.099 53.8433L162.098 53.7509C162.023 52.943 162.101 52.1283 162.329 51.3494L161.366 51.0685ZM162.594 53.8433C162.681 52.91 162.591 51.9689 162.329 51.0689L161.366 51.349C161.593 52.1281 161.671 52.9429 161.596 53.7509L162.594 53.8433ZM162.329 56.5252C162.591 55.6253 162.681 54.6842 162.594 53.7509L161.596 53.8433C161.671 54.6512 161.593 55.4661 161.366 56.2452L162.329 56.5252ZM161.099 53.7519C161.013 54.685 161.104 55.626 161.366 56.5256L162.329 56.2448C162.102 55.4662 162.023 54.6518 162.098 53.8442L161.099 53.7519ZM161.097 53.7971V53.7981H162.1V53.7971H161.097ZM0.844264 54.8082L3.43238 52.7907L2.81588 51.9998L0.227762 54.0174L0.844264 54.8082ZM6.34197 60.3772C6.43218 59.884 6.43234 59.884 6.43247 59.884C6.43248 59.884 6.43259 59.8841 6.43261 59.8841C6.43266 59.8841 6.43261 59.8841 6.43247 59.884C6.43219 59.884 6.43152 59.8839 6.43049 59.8837C6.42842 59.8833 6.42487 59.8826 6.41988 59.8816C6.40989 59.8797 6.39417 59.8765 6.37311 59.8721C6.33097 59.8633 6.26754 59.8495 6.18602 59.8301C6.02286 59.7912 5.78797 59.73 5.50684 59.642C4.94233 59.4651 4.20251 59.1833 3.48488 58.7628C2.04476 57.9191 0.790098 56.5866 1.03409 54.4702L0.0379339 54.3554C-0.271594 57.0402 1.37673 58.6899 2.97797 59.628C3.78102 60.0985 4.59647 60.4076 5.20706 60.5989C5.51348 60.6949 5.77111 60.7621 5.95356 60.8055C6.04485 60.8273 6.11751 60.8432 6.16827 60.8538C6.19365 60.859 6.21357 60.863 6.22761 60.8658C6.23464 60.8671 6.2402 60.8682 6.24424 60.869C6.24626 60.8694 6.2479 60.8697 6.24916 60.8699C6.24978 60.87 6.25032 60.8701 6.25075 60.8702C6.25097 60.8702 6.25122 60.8703 6.25133 60.8703C6.25156 60.8703 6.25176 60.8704 6.34197 60.3772ZM7.01921 57.0634L5.87106 60.2051L6.81289 60.5493L7.96104 57.4077L7.01921 57.0634ZM3.12413 52.3952C2.62647 52.4562 2.62649 52.4564 2.62652 52.4567C2.62654 52.4568 2.62657 52.457 2.62659 52.4572C2.62664 52.4576 2.6267 52.4581 2.62677 52.4586C2.62691 52.4597 2.62708 52.4611 2.62729 52.4627C2.62771 52.466 2.62829 52.4703 2.62902 52.4757C2.63048 52.4865 2.6326 52.5015 2.63544 52.5204C2.64112 52.5582 2.64974 52.6117 2.66197 52.6789C2.68641 52.8131 2.72543 53.0023 2.78459 53.2293C2.90248 53.6817 3.10266 54.2927 3.43271 54.9193C4.0936 56.1741 5.30798 57.5411 7.44485 57.7349L7.5354 56.7362C5.85679 56.584 4.88816 55.5309 4.31993 54.452C4.03541 53.9118 3.85949 53.3776 3.75493 52.9764C3.70287 52.7767 3.66906 52.6121 3.6485 52.4992C3.63822 52.4428 3.63129 52.3994 3.62704 52.3712C3.62492 52.3571 3.62348 52.3468 3.62263 52.3406C3.6222 52.3375 3.62192 52.3353 3.62179 52.3343C3.62172 52.3338 3.62169 52.3335 3.62169 52.3335C3.62169 52.3335 3.62169 52.3336 3.62171 52.3337C3.62172 52.3337 3.62174 52.3339 3.62174 52.3339C3.62176 52.3341 3.62178 52.3343 3.12413 52.3952ZM60.4474 75.5348C52.5234 83.4587 48.0717 94.2058 48.0717 105.412H49.0744C49.0744 94.4718 53.4205 83.9797 61.1564 76.2439L60.4474 75.5348ZM90.3248 63.1598C79.1187 63.1596 68.3714 67.611 60.4474 75.5348L61.1564 76.2439C68.8924 68.5081 79.3846 64.1623 90.3248 64.1626L90.3248 63.1598ZM120.202 75.5348C112.278 67.611 101.531 63.1596 90.3248 63.1598L90.3248 64.1626C101.265 64.1623 111.757 68.5081 119.493 76.2439L120.202 75.5348ZM132.578 105.412C132.578 94.2058 128.126 83.4587 120.202 75.5348L119.493 76.2439C127.229 83.9797 131.575 94.4718 131.575 105.412H132.578ZM90.3248 147.665C113.661 147.665 132.578 128.748 132.578 105.412H131.575C131.575 128.194 113.107 146.662 90.3248 146.662V147.665ZM48.0717 105.412C48.0717 128.748 66.989 147.665 90.3248 147.665V146.662C67.5429 146.662 49.0744 128.194 49.0744 105.412H48.0717ZM21.2616 93.8538L21.4181 96.9032L22.4195 96.8518L22.2631 93.8024L21.2616 93.8538ZM29.182 97.6539C28.4968 95.2241 26.569 94.1471 24.902 93.6807C24.0666 93.447 23.2768 93.3593 22.6981 93.3294C22.4079 93.3144 22.1684 93.3138 21.9999 93.3171C21.9156 93.3187 21.8489 93.3214 21.8022 93.3236C21.7789 93.3248 21.7606 93.3258 21.7476 93.3266C21.7412 93.327 21.736 93.3274 21.7322 93.3276C21.7303 93.3278 21.7288 93.3279 21.7275 93.328C21.7269 93.328 21.7264 93.328 21.726 93.3281C21.7258 93.3281 21.7255 93.3281 21.7254 93.3281C21.7252 93.3281 21.725 93.3281 21.7624 93.8281C21.7997 94.3281 21.7996 94.3281 21.7994 94.3281C21.7994 94.3281 21.7993 94.3281 21.7992 94.3281C21.7992 94.3282 21.7992 94.3282 21.7992 94.3281C21.7994 94.3281 21.7999 94.3281 21.8008 94.328C21.8025 94.3279 21.8055 94.3277 21.8098 94.3275C21.8185 94.3269 21.8324 94.3261 21.8511 94.3252C21.8886 94.3234 21.9455 94.3211 22.0194 94.3197C22.1675 94.3168 22.3829 94.3172 22.6464 94.3308C23.1751 94.3581 23.8876 94.4382 24.6318 94.6464C26.1239 95.0639 27.6647 95.9679 28.2169 97.9261L29.182 97.6539ZM27.6896 100.432L29.1286 98.0492L28.2702 97.5308L26.8313 99.9134L27.6896 100.432ZM22.0039 97.3716C23.4229 97.1272 24.6041 97.8272 25.4764 98.6723C25.908 99.0904 26.2459 99.5279 26.4763 99.8623C26.5911 100.029 26.678 100.168 26.7356 100.265C26.7644 100.313 26.7857 100.35 26.7994 100.375C26.8063 100.387 26.8112 100.396 26.8142 100.401C26.8157 100.404 26.8168 100.406 26.8173 100.407C26.8176 100.408 26.8177 100.408 26.8177 100.408C26.8177 100.408 26.8177 100.408 26.8177 100.408C26.8177 100.408 26.8176 100.408 26.8176 100.408C26.8175 100.407 26.8174 100.407 27.2605 100.173C27.7035 99.9378 27.7034 99.9376 27.7033 99.9375C27.7033 99.9374 27.7032 99.9372 27.7031 99.937C27.7029 99.9367 27.7027 99.9363 27.7025 99.9358C27.702 99.935 27.7014 99.9338 27.7006 99.9325C27.6992 99.9298 27.6972 99.9261 27.6948 99.9216C27.6898 99.9125 27.6829 99.8999 27.6739 99.884C27.6561 99.8522 27.6302 99.807 27.5966 99.7507C27.5293 99.6381 27.4307 99.4801 27.3021 99.2935C27.0457 98.9214 26.6661 98.4287 26.1741 97.9521C25.1994 97.0078 23.7097 96.0603 21.8337 96.3834L22.0039 97.3716ZM143.352 87.6593L143.352 87.658L142.35 87.7038L142.35 87.7051L143.352 87.6593ZM142.625 88.1297L142.627 88.1307L143.075 87.2338L143.073 87.2328L142.625 88.1297ZM142.766 87.1869L142.764 87.1872L142.935 88.1752L142.937 88.1749L142.766 87.1869ZM142.194 84.6575L142.35 87.7066L143.352 87.6552L143.195 84.6062L142.194 84.6575ZM150.116 88.4564C149.43 86.0272 147.502 84.9506 145.835 84.4843C144.999 84.2506 144.209 84.163 143.631 84.1331C143.34 84.1181 143.101 84.1175 142.932 84.1208C142.848 84.1225 142.781 84.1251 142.735 84.1273C142.711 84.1285 142.693 84.1295 142.68 84.1303C142.674 84.1308 142.668 84.1311 142.665 84.1313C142.663 84.1315 142.661 84.1316 142.66 84.1317C142.659 84.1317 142.659 84.1318 142.658 84.1318C142.658 84.1318 142.658 84.1318 142.658 84.1318C142.658 84.1318 142.657 84.1319 142.695 84.6318C142.732 85.1318 142.732 85.1318 142.732 85.1319C142.732 85.1319 142.732 85.1319 142.732 85.1319C142.732 85.1319 142.732 85.1319 142.732 85.1319C142.732 85.1319 142.732 85.1318 142.733 85.1318C142.735 85.1316 142.738 85.1314 142.742 85.1312C142.751 85.1306 142.765 85.1298 142.783 85.1289C142.821 85.1271 142.878 85.1248 142.952 85.1234C143.1 85.1205 143.315 85.1209 143.579 85.1345C144.108 85.1618 144.82 85.2418 145.564 85.45C147.057 85.8674 148.598 86.7712 149.151 88.729L150.116 88.4564ZM148.624 91.2345L150.063 88.8519L149.205 88.3335L147.766 90.7161L148.624 91.2345ZM142.936 88.175C144.355 87.9305 145.536 88.6303 146.409 89.4755C146.841 89.8935 147.18 90.331 147.41 90.6654C147.525 90.832 147.612 90.9714 147.67 91.0677C147.699 91.1159 147.72 91.1532 147.734 91.1777C147.741 91.1899 147.746 91.1989 147.749 91.2044C147.75 91.2072 147.751 91.2091 147.752 91.2101C147.752 91.2106 147.752 91.2109 147.752 91.2109C147.752 91.2109 147.752 91.2109 147.752 91.2108C147.752 91.2107 147.752 91.2106 147.752 91.2106C147.752 91.2105 147.752 91.2103 148.195 90.9753C148.638 90.7402 148.638 90.7401 148.638 90.7399C148.637 90.7398 148.637 90.7396 148.637 90.7394C148.637 90.7391 148.637 90.7387 148.637 90.7383C148.636 90.7374 148.636 90.7362 148.635 90.7349C148.633 90.7322 148.631 90.7285 148.629 90.724C148.624 90.715 148.617 90.7024 148.608 90.6864C148.59 90.6546 148.564 90.6095 148.531 90.5531C148.463 90.4405 148.365 90.2826 148.236 90.096C147.979 89.724 147.599 89.2314 147.107 88.7549C146.132 87.8109 144.641 86.8636 142.766 87.1868L142.936 88.175ZM181.785 69.0207L181.037 70.956L181.972 71.3175L182.72 69.3822L181.785 69.0207ZM185.958 73.6491C186.214 71.8757 185.27 70.6241 184.343 69.8551C183.878 69.4693 183.401 69.1902 183.044 69.0079C182.864 68.9163 182.712 68.848 182.604 68.8022C182.55 68.7792 182.506 68.7617 182.475 68.7497C182.46 68.7437 182.448 68.739 182.439 68.7357C182.434 68.734 182.431 68.7327 182.428 68.7317C182.426 68.7312 182.425 68.7308 182.424 68.7304C182.424 68.7303 182.423 68.7301 182.423 68.73C182.423 68.7299 182.423 68.7298 182.423 68.7298C182.422 68.7297 182.422 68.7297 182.252 69.2014C182.083 69.6732 182.083 69.6731 182.082 69.6731C182.082 69.6731 182.082 69.673 182.082 69.673C182.082 69.673 182.082 69.6729 182.082 69.6729C182.082 69.6729 182.082 69.673 182.082 69.6731C182.083 69.6734 182.085 69.674 182.087 69.6749C182.092 69.6767 182.1 69.6798 182.111 69.6842C182.134 69.6929 182.168 69.7066 182.213 69.7256C182.303 69.7635 182.433 69.8218 182.588 69.9012C182.901 70.0609 183.31 70.3015 183.703 70.627C184.49 71.2804 185.151 72.2168 184.965 73.5058L185.958 73.6491ZM184.195 75.0681L185.747 73.9892L185.175 73.1658L183.623 74.2447L184.195 75.0681ZM181.379 71.6227C182.255 71.8454 182.766 72.5499 183.066 73.2939C183.214 73.6599 183.3 74.0138 183.35 74.2775C183.374 74.4087 183.389 74.5157 183.398 74.5883C183.403 74.6246 183.405 74.6522 183.407 74.6698C183.408 74.6786 183.408 74.6849 183.409 74.6885C183.409 74.6903 183.409 74.6914 183.409 74.6919C183.409 74.6921 183.409 74.6922 183.409 74.6921C183.409 74.692 183.409 74.6919 183.409 74.6917C183.409 74.6917 183.409 74.6915 183.409 74.6915C183.409 74.6913 183.409 74.6912 183.909 74.6564C184.409 74.6217 184.409 74.6215 184.409 74.6213C184.409 74.6212 184.409 74.621 184.409 74.6208C184.409 74.6205 184.409 74.6202 184.409 74.6197C184.409 74.6189 184.409 74.6179 184.409 74.6167C184.409 74.6143 184.408 74.6112 184.408 74.6074C184.407 74.5997 184.407 74.5893 184.405 74.5763C184.403 74.5503 184.399 74.5137 184.394 74.468C184.383 74.3765 184.364 74.2479 184.335 74.0928C184.277 73.784 184.175 73.3629 183.996 72.919C183.643 72.0429 182.951 70.9876 181.626 70.6508L181.379 71.6227ZM181.504 70.6354H181.502V71.6381H181.504V70.6354ZM165.258 52.1625C165.02 51.8768 164.833 51.6112 164.722 51.4178C164.664 51.3176 164.639 51.2576 164.632 51.2348C164.627 51.2212 164.638 51.247 164.637 51.2971C164.637 51.3421 164.625 51.4993 164.477 51.6226L163.834 50.8535C163.661 50.9987 163.636 51.1923 163.635 51.2868C163.634 51.3864 163.656 51.4747 163.675 51.5349C163.714 51.6598 163.781 51.7929 163.853 51.9179C164 52.175 164.224 52.4885 164.488 52.8045L165.258 52.1625ZM165.374 52.4845V52.4835H164.371V52.4845H165.374ZM165.937 52.9207C166.009 52.9207 166.054 52.9405 166.054 52.9405C166.06 52.943 166.054 52.9408 166.033 52.9277C165.991 52.9016 165.927 52.854 165.844 52.7808C165.678 52.6359 165.471 52.4219 165.259 52.1653L164.486 52.8036C164.725 53.0926 164.969 53.3474 165.183 53.5349C165.289 53.6279 165.397 53.7124 165.499 53.7768C165.551 53.8091 165.609 53.8418 165.672 53.8678C165.73 53.8914 165.824 53.9234 165.937 53.9234V52.9207ZM165.666 53.015C165.75 52.9491 165.856 52.9159 165.962 52.9213L165.911 53.9228C166.045 53.9297 166.177 53.8879 166.283 53.8051L165.666 53.015ZM164.874 52.4862C165.112 52.7706 165.299 53.0357 165.41 53.2289C165.467 53.329 165.492 53.3888 165.499 53.4113C165.503 53.4248 165.493 53.3989 165.493 53.3487C165.494 53.3031 165.507 53.1479 165.653 53.0257L166.297 53.7943C166.469 53.6501 166.495 53.4582 166.496 53.3629C166.497 53.2629 166.475 53.1743 166.457 53.1137C166.418 52.9882 166.351 52.8546 166.279 52.7293C166.131 52.4717 165.907 52.1582 165.643 51.843L164.874 52.4862ZM164.477 51.6226C164.329 51.7465 164.172 51.7298 164.129 51.7226C164.08 51.7144 164.057 51.6998 164.07 51.7066C164.092 51.7179 164.147 51.7536 164.236 51.8281C164.408 51.9718 164.637 52.2025 164.874 52.4862L165.643 51.843C165.379 51.5271 165.109 51.2509 164.88 51.0594C164.769 50.9663 164.649 50.8773 164.533 50.8168C164.477 50.7877 164.394 50.7504 164.296 50.7338C164.204 50.7183 164.008 50.7078 163.834 50.8535L164.477 51.6226ZM164.699 49.9228C165.464 49.6963 166.265 49.6182 167.059 49.6926L167.153 48.6943C166.231 48.6078 165.302 48.6985 164.414 48.9614L164.699 49.9228ZM165.058 49.4481V49.4421H164.055V49.4481H165.058ZM167.058 49.1917C166.264 49.2679 165.463 49.1916 164.698 48.9671L164.416 49.9292C165.303 50.1898 166.233 50.2782 167.154 50.1899L167.058 49.1917ZM169.516 48.9614C168.75 49.188 167.948 49.2661 167.153 49.1916L167.059 50.19C167.981 50.2764 168.912 50.1858 169.8 49.9229L169.516 48.9614ZM167.153 49.6926C167.948 49.618 168.75 49.6961 169.515 49.9229L169.8 48.9614C168.912 48.6983 167.981 48.6076 167.059 48.6943L167.153 49.6926ZM159.149 46.6002C158.92 46.4107 158.741 46.2275 158.635 46.0928C158.609 46.0602 158.59 46.0332 158.577 46.0124C158.563 45.9905 158.559 45.9808 158.559 45.9822C158.56 45.9833 158.563 45.9904 158.566 46.0028C158.57 46.0148 158.575 46.0371 158.577 46.0675C158.581 46.1264 158.574 46.254 158.474 46.3727L157.708 45.7249C157.586 45.8697 157.57 46.0333 157.577 46.1368C157.584 46.2375 157.614 46.3228 157.639 46.3807C157.69 46.4985 157.769 46.6129 157.847 46.7122C158.008 46.9174 158.242 47.1509 158.509 47.3725L159.149 46.6002ZM159.325 46.9106L159.324 46.9046L158.334 47.0682L158.335 47.0742L159.325 46.9106ZM159.958 47.0828C159.665 46.9971 159.397 46.8421 159.177 46.6309L158.483 47.3539C158.819 47.6771 159.228 47.9142 159.676 48.0452L159.958 47.0828ZM159.543 47.1746C159.63 47.0931 159.748 47.0533 159.866 47.065L159.767 48.0629C159.936 48.0796 160.103 48.0229 160.227 47.9072L159.543 47.1746ZM158.824 46.9877C159.053 47.1796 159.233 47.363 159.34 47.4979C159.366 47.5306 159.385 47.5576 159.399 47.5785C159.413 47.6004 159.417 47.6102 159.417 47.6089C159.416 47.6079 159.413 47.6009 159.41 47.5887C159.406 47.5769 159.401 47.5549 159.399 47.5249C159.394 47.4667 159.4 47.3423 159.496 47.2246L160.274 47.8572C160.392 47.7126 160.406 47.5518 160.398 47.4486C160.391 47.3483 160.36 47.2635 160.335 47.2055C160.283 47.0881 160.204 46.9743 160.126 46.8757C159.965 46.672 159.732 46.4402 159.468 46.2189L158.824 46.9877ZM158.474 46.3727C158.375 46.4895 158.253 46.5179 158.196 46.5241C158.167 46.5274 158.144 46.5262 158.132 46.525C158.12 46.5239 158.112 46.5222 158.111 46.522C158.11 46.5217 158.121 46.5242 158.145 46.5339C158.168 46.5432 158.197 46.557 158.234 46.5762C158.385 46.6553 158.597 46.7975 158.824 46.9877L159.468 46.2189C159.202 45.996 158.93 45.8088 158.699 45.6879C158.587 45.6293 158.461 45.5734 158.336 45.5447C158.274 45.5306 158.186 45.5165 158.087 45.5274C157.985 45.5385 157.829 45.5821 157.708 45.7249L158.474 46.3727ZM164.253 45.9563C163.979 46.2328 163.74 46.5128 163.579 46.7488C163.501 46.8632 163.426 46.9892 163.379 47.1122C163.356 47.1721 163.328 47.2601 163.325 47.3618C163.321 47.4636 163.341 47.6426 163.488 47.7901L164.197 47.0811C164.32 47.2035 164.329 47.3449 164.327 47.3981C164.325 47.4511 164.312 47.4794 164.315 47.47C164.321 47.4544 164.346 47.4035 164.407 47.3145C164.524 47.1435 164.719 46.9107 164.965 46.6627L164.253 45.9563ZM166.081 45.1819C165.93 45.031 165.746 45.0145 165.647 45.0194C165.546 45.0243 165.459 45.0526 165.4 45.0757C165.279 45.1234 165.154 45.1989 165.041 45.2776C164.807 45.4398 164.528 45.6793 164.253 45.9564L164.965 46.6627C165.21 46.4153 165.442 46.2196 165.612 46.102C165.7 46.0408 165.751 46.0153 165.767 46.0091C165.777 46.0053 165.749 46.0184 165.696 46.021C165.644 46.0235 165.498 46.0175 165.372 45.8909L166.081 45.1819ZM165.318 47.014C165.594 46.7374 165.831 46.4566 165.991 46.2203C166.069 46.1057 166.143 45.9803 166.189 45.8585C166.212 45.7994 166.239 45.7126 166.243 45.6125C166.248 45.5143 166.231 45.332 166.081 45.1819L165.372 45.8909C165.246 45.7651 165.239 45.6198 165.242 45.5698C165.244 45.518 165.256 45.4907 165.253 45.5007C165.246 45.5172 165.221 45.5688 165.161 45.6576C165.045 45.8285 164.852 46.0612 164.607 46.307L165.318 47.014ZM164.084 47.9145C164.575 47.71 165.008 47.3898 165.348 46.9812L164.578 46.3398C164.341 46.624 164.039 46.8467 163.698 46.9888L164.084 47.9145ZM163.577 47.8631C163.686 47.933 163.815 47.9638 163.943 47.9503L163.839 46.953C163.937 46.9426 164.037 46.9663 164.12 47.0202L163.577 47.8631ZM163.488 47.79L163.494 47.796L164.204 47.0872L164.198 47.0812L163.488 47.79ZM24.9013 36.6349C24.7285 36.781 24.7048 36.9748 24.7041 37.0681C24.7034 37.1672 24.7256 37.255 24.7445 37.3151C24.7837 37.4397 24.8501 37.5726 24.9219 37.6977C25.0697 37.9548 25.2932 38.2683 25.5567 38.5844L26.327 37.9424C26.0891 37.6569 25.9024 37.3913 25.7913 37.1979C25.7337 37.0977 25.7084 37.0375 25.7011 37.0145C25.6968 37.0007 25.7072 37.026 25.7068 37.0756C25.7065 37.1194 25.6954 37.2768 25.5484 37.401L24.9013 36.6349ZM26.711 37.621C26.4452 37.3063 26.1751 37.0307 25.9477 36.8397C25.8371 36.7469 25.7178 36.6579 25.602 36.5973C25.5462 36.5682 25.4634 36.5306 25.3653 36.5139C25.2727 36.4981 25.0758 36.4876 24.9013 36.6349L25.5484 37.401C25.3997 37.5266 25.2408 37.5099 25.197 37.5024C25.1476 37.494 25.1242 37.4791 25.1372 37.4859C25.1588 37.4972 25.2138 37.5329 25.3028 37.6076C25.4744 37.7518 25.7042 37.9831 25.9448 38.268L26.711 37.621ZM27.3639 39.5742C27.5343 39.4314 27.5614 39.2416 27.5634 39.1464C27.5656 39.0467 27.5442 38.958 27.5258 38.8971C27.4875 38.7709 27.4216 38.6367 27.3499 38.5109C27.2025 38.2521 26.9782 37.9375 26.711 37.621L25.9448 38.268C26.184 38.5512 26.3693 38.8152 26.4786 39.0071C26.5353 39.1066 26.5595 39.1659 26.5661 39.1878C26.5701 39.2009 26.5598 39.175 26.5609 39.125C26.5619 39.0795 26.5757 38.9264 26.7198 38.8057L27.3639 39.5742ZM26.9799 39.7027C27.1191 39.7099 27.2559 39.6643 27.3631 39.5749L26.7207 38.805C26.8076 38.7324 26.9187 38.6954 27.0316 38.7013L26.9799 39.7027ZM25.5626 38.5893C25.8025 38.8772 26.0462 39.1318 26.2582 39.3186C26.3632 39.4111 26.4703 39.4957 26.5725 39.56C26.6235 39.592 26.6829 39.6251 26.7474 39.6511C26.8054 39.6745 26.905 39.7077 27.0253 39.703L26.9863 38.701C27.0679 38.6978 27.1198 38.72 27.1219 38.7209C27.1306 38.7244 27.1261 38.7235 27.1062 38.711C27.0667 38.6862 27.0043 38.6395 26.921 38.5662C26.7565 38.4213 26.5485 38.2061 26.3331 37.9475L25.5626 38.5893ZM25.6208 38.6485L25.6269 38.6536L26.2689 37.8833L26.2628 37.8782L25.6208 38.6485ZM142.463 36.6887L141.253 35.2387L140.483 35.8813L141.693 37.3312L142.463 36.6887ZM142.465 36.6908L142.459 36.6838L141.697 37.3361L141.703 37.3432L142.465 36.6908ZM142.252 36.5159C142.21 36.5189 142.164 36.5193 142.112 36.5164L142.056 37.5175C142.146 37.5227 142.236 37.5224 142.324 37.516L142.252 36.5159ZM146.155 33.4341C145.67 33.3067 145.67 33.3065 145.67 33.3063C145.67 33.3063 145.67 33.3062 145.67 33.3061C145.671 33.306 145.671 33.3059 145.671 33.3059C145.671 33.3058 145.671 33.306 145.67 33.3063C145.67 33.307 145.67 33.3086 145.669 33.311C145.668 33.3157 145.666 33.3237 145.662 33.3347C145.656 33.3566 145.646 33.3905 145.632 33.4347C145.603 33.5231 145.559 33.6521 145.497 33.808C145.372 34.1213 145.178 34.5352 144.902 34.9456C144.347 35.7724 143.514 36.5146 142.288 36.5146V37.5173C143.987 37.5173 145.088 36.4686 145.735 35.5045C146.061 35.0194 146.285 34.5379 146.428 34.1796C146.5 33.9997 146.552 33.8488 146.586 33.7414C146.604 33.6876 146.617 33.6446 146.625 33.614C146.63 33.5988 146.633 33.5866 146.636 33.5778C146.637 33.5734 146.638 33.5698 146.639 33.5671C146.639 33.5658 146.639 33.5646 146.64 33.5637C146.64 33.5632 146.64 33.5628 146.64 33.5625C146.64 33.5623 146.64 33.5621 146.64 33.562C146.64 33.5618 146.64 33.5616 146.155 33.4341ZM144.025 33.3402L146.016 33.9158L146.294 32.9525L144.303 32.3769L144.025 33.3402ZM140.868 35.56C140.946 36.0553 140.946 36.0552 140.946 36.0552C140.946 36.0552 140.946 36.0552 140.946 36.0551C140.947 36.0551 140.947 36.055 140.947 36.055C140.948 36.0548 140.949 36.0547 140.95 36.0545C140.953 36.0541 140.956 36.0536 140.96 36.0529C140.967 36.0517 140.978 36.0499 140.99 36.0475C141.016 36.0429 141.052 36.036 141.097 36.0265C141.187 36.0076 141.314 35.9784 141.466 35.936C141.769 35.8517 142.179 35.7134 142.606 35.4967C143.448 35.0693 144.439 34.2884 144.659 32.9391L143.669 32.778C143.524 33.6698 142.867 34.2397 142.152 34.6026C141.8 34.7812 141.455 34.898 141.197 34.9701C141.068 35.0059 140.963 35.0301 140.891 35.0451C140.856 35.0526 140.828 35.0578 140.811 35.061C140.802 35.0625 140.796 35.0636 140.793 35.0642C140.791 35.0645 140.79 35.0647 140.789 35.0648C140.789 35.0648 140.789 35.0648 140.789 35.0648C140.789 35.0648 140.789 35.0648 140.789 35.0647C140.789 35.0647 140.79 35.0647 140.79 35.0647C140.79 35.0647 140.79 35.0647 140.868 35.56ZM17.5264 34.6436C16.6043 34.5571 15.6742 34.6478 14.7862 34.9108L15.071 35.8722C15.8363 35.6456 16.638 35.5674 17.4327 35.642L17.5264 34.6436ZM20.1719 34.9108C19.2843 34.6479 18.3545 34.5572 17.4328 34.6436L17.5264 35.642C18.3208 35.5676 19.1222 35.6457 19.8872 35.8723L20.1719 34.9108ZM17.4325 36.1404C18.3546 36.2273 19.2848 36.1362 20.1726 35.8721L19.8866 34.9109C19.122 35.1384 18.3208 35.2169 17.5266 35.142L17.4325 36.1404ZM14.7942 35.8806C15.6805 36.141 16.6084 36.2291 17.5278 36.1402L17.4313 35.1421C16.6395 35.2187 15.8402 35.1428 15.0769 34.9185L14.7942 35.8806ZM14.5513 35.7217L14.5583 35.7297L15.3129 35.0694L15.3059 35.0613L14.5513 35.7217ZM25.7674 35.7058C26.5324 35.4792 27.3337 35.401 28.1281 35.4756L28.2218 34.4772C27.3001 34.3907 26.3703 34.4814 25.4826 34.7443L25.7674 35.7058ZM26.0093 34.9029L26.0023 34.8949L25.2477 35.5552L25.2547 35.5632L26.0093 34.9029ZM28.1271 34.9746C27.3353 35.0506 26.5362 34.975 25.7726 34.7518L25.4913 35.7143C26.3772 35.9732 27.3042 36.0609 28.2229 35.9728L28.1271 34.9746ZM30.5837 34.7443C29.8182 34.9709 29.0165 35.049 28.2218 34.9745L28.1282 35.9729C29.0502 36.0593 29.9803 35.9686 30.8683 35.7058L30.5837 34.7443ZM28.2218 35.4755C29.0166 35.4009 29.8182 35.4791 30.5836 35.7058L30.8684 34.7443C29.9804 34.4813 29.0502 34.3906 28.1281 34.4772L28.2218 35.4755ZM20.2162 32.3841C19.9879 32.1939 19.8088 32.0109 19.7031 31.8764C19.6775 31.8438 19.6585 31.817 19.6453 31.7963C19.6314 31.7747 19.6274 31.7653 19.6282 31.7671C19.6288 31.7685 19.6319 31.7759 19.6354 31.7887C19.6388 31.801 19.6441 31.8236 19.646 31.8544C19.6498 31.915 19.6409 32.0402 19.5424 32.1562L18.778 31.5072C18.6569 31.6498 18.6387 31.8114 18.6452 31.9169C18.6516 32.0187 18.6818 32.1048 18.707 32.1633C18.7581 32.2821 18.8368 32.3969 18.9146 32.496C19.0757 32.7009 19.3091 32.9336 19.5742 33.1545L20.2162 32.3841ZM20.2578 32.4228L20.2498 32.4148L19.5407 33.1238L19.5487 33.1318L20.2578 32.4228ZM21.0268 32.8663C20.7357 32.7798 20.4693 32.6251 20.2499 32.4151L19.5566 33.1396C19.8912 33.4597 20.2972 33.6955 20.7411 33.8275L21.0268 32.8663ZM20.5995 32.9664C20.69 32.8774 20.8159 32.8342 20.9419 32.8489L20.8259 33.8449C21.0015 33.8653 21.1768 33.8052 21.3028 33.6812L20.5995 32.9664ZM19.8927 32.7711C20.1208 32.9616 20.3003 33.1446 20.4066 33.2794C20.4324 33.3121 20.4516 33.3391 20.465 33.3599C20.4791 33.3818 20.4834 33.3915 20.4828 33.3901C20.4823 33.389 20.4793 33.382 20.4758 33.3697C20.4724 33.3578 20.4671 33.3357 20.4649 33.3055C20.4607 33.2469 20.4675 33.1225 20.5639 33.0054L21.3384 33.6423C21.4568 33.4983 21.4725 33.3374 21.4651 33.2336C21.4578 33.133 21.4274 33.0478 21.4021 32.9896C21.3507 32.8716 21.272 32.7574 21.194 32.6585C21.0329 32.4542 20.7997 32.2221 20.5355 32.0014L19.8927 32.7711ZM19.5424 32.1562C19.4454 32.2705 19.3258 32.2998 19.2675 32.3064C19.2377 32.3098 19.215 32.3086 19.2027 32.3074C19.1899 32.3063 19.1824 32.3046 19.1811 32.3043C19.1795 32.3039 19.1896 32.3063 19.2134 32.316C19.2362 32.3253 19.2659 32.3392 19.3025 32.3585C19.4535 32.4381 19.665 32.581 19.8927 32.7711L20.5355 32.0014C20.2708 31.7804 20.0005 31.5929 19.7702 31.4714C19.6587 31.4127 19.532 31.3561 19.4063 31.3271C19.3442 31.3128 19.255 31.2986 19.1549 31.31C19.0517 31.3216 18.8976 31.3663 18.778 31.5072L19.5424 32.1562ZM25.3252 31.7393C25.0508 32.0158 24.8126 32.296 24.6516 32.532C24.5735 32.6465 24.4983 32.7726 24.4515 32.8957C24.4287 32.9557 24.4013 33.0437 24.3977 33.1453C24.3941 33.2471 24.4142 33.4258 24.5615 33.5731L25.2706 32.864C25.3928 32.9862 25.4017 33.1273 25.3998 33.1804C25.398 33.2334 25.3851 33.2617 25.3887 33.2523C25.3946 33.2369 25.4194 33.186 25.48 33.0971C25.5965 32.9262 25.791 32.6935 26.037 32.4456L25.3252 31.7393ZM27.1519 30.963C27.0013 30.8139 26.8193 30.7975 26.7198 30.8023C26.6192 30.8072 26.5323 30.8354 26.4733 30.8585C26.3517 30.9061 26.227 30.9817 26.1132 31.0604C25.8787 31.2227 25.6002 31.4622 25.3252 31.7393L26.037 32.4456C26.2825 32.1982 26.5139 32.0026 26.6837 31.885C26.7721 31.8239 26.8232 31.7984 26.8392 31.7921C26.8489 31.7883 26.8212 31.8013 26.7687 31.8039C26.7174 31.8064 26.5725 31.8004 26.4465 31.6757L27.1519 30.963ZM26.391 32.7966C26.6651 32.5204 26.9024 32.2399 27.0629 32.004C27.1408 31.8895 27.2155 31.764 27.2623 31.6421C27.285 31.583 27.3126 31.4958 27.3168 31.3951C27.321 31.2958 27.3033 31.1129 27.1519 30.963L26.4465 31.6757C26.3196 31.5501 26.3128 31.4042 26.3149 31.3531C26.3171 31.3006 26.3299 31.2729 26.3261 31.2829C26.3198 31.2993 26.2945 31.3508 26.2339 31.4399C26.1174 31.611 25.9236 31.844 25.6792 32.0902L26.391 32.7966ZM25.1567 33.6971C25.6465 33.4921 26.0798 33.1723 26.42 32.7646L25.6502 32.1222C25.413 32.4063 25.111 32.6292 24.7696 32.7721L25.1567 33.6971ZM24.6754 33.6625C24.7812 33.7226 24.9034 33.747 25.024 33.7322L24.9023 32.7369C24.9951 32.7255 25.0892 32.7443 25.1707 32.7906L24.6754 33.6625ZM24.5387 33.5487L24.5457 33.5567L25.3004 32.8964L25.2933 32.8884L24.5387 33.5487Z" fill="black" fill-opacity="0.01"/>
<path d="M110.886 87.7966C111.421 88.2308 103.62 98.7206 93.4675 111.223C91.3035 113.849 89.2268 116.367 87.3186 118.683L86.4783 119.704L85.5758 118.773C77.648 110.604 72.2391 104.534 72.6182 104.154C72.9972 103.773 79.0669 109.183 87.2374 117.111L85.4956 117.202C87.3697 114.858 89.4063 112.311 91.5332 109.653C101.686 97.1493 110.352 87.3644 110.886 87.7966Z" fill="white"/>
</svg>
