<svg width="23" height="16" viewBox="0 0 23 16" fill="none" xmlns="http://www.w3.org/2000/svg">
<path fill-rule="evenodd" clip-rule="evenodd" d="M22.861 7.08337C20.7077 2.7733 16.3178 0.0362838 11.5 0C6.68203 0.0369387 2.29231 2.77424 0.139007 7.08438C-0.0463356 7.45087 -0.0463356 7.88367 0.139007 8.25017C2.29224 12.5602 6.68212 15.2973 11.5 15.3335C16.3179 15.2966 20.7076 12.5593 22.861 8.24917C23.0463 7.88267 23.0463 7.44987 22.861 7.08337ZM11.5 13.4167C9.17414 13.4167 7.07731 12.0157 6.18725 9.86687C5.29719 7.71807 5.78918 5.2447 7.4338 3.60008C9.07841 1.95546 11.5518 1.46348 13.7006 2.35354C15.8494 3.2436 17.2504 5.34042 17.2504 7.66627C17.2504 10.8422 14.6759 13.4167 11.5 13.4167ZM10.4932 3.98465C10.8205 3.88945 11.1592 3.83866 11.5 3.83364L11.504 3.83666C13.1453 3.83274 14.6063 4.87625 15.1349 6.43012C15.6635 7.98399 15.142 9.70191 13.8388 10.6997C12.5356 11.6975 10.7411 11.7528 9.37894 10.8372C8.01676 9.92153 7.39046 8.23898 7.82239 6.65551C8.58351 7.20596 9.63167 7.12231 10.2959 6.45812C10.9601 5.79393 11.0437 4.74577 10.4932 3.98465Z" fill="#8A8D9F"/>
</svg>
