<svg width="90" height="14" viewBox="0 0 90 14" fill="none" xmlns="http://www.w3.org/2000/svg">
<path d="M13.2502 4.29977L9.47309 3.76876L7.78804 0.440669C7.61999 0.166865 7.32179 0 7.00052 0C6.67926 0 6.38105 0.166865 6.213 0.440669L4.52696 3.76976L0.750857 4.29977C0.424158 4.34292 0.149973 4.56715 0.0428386 4.87879C-0.0601763 5.18799 0.0261174 5.52887 0.263844 5.75181L2.99992 8.34588L2.3549 12.005C2.29957 12.3264 2.43524 12.6507 2.70291 12.837C2.97457 13.0265 3.32835 13.0515 3.62393 12.902L7.00002 11.174L10.3781 12.9C10.6737 13.0495 11.0275 13.0245 11.2991 12.835C11.5679 12.6482 11.7037 12.3223 11.6471 12L11.0001 8.34388L13.7342 5.75481C13.9715 5.53205 14.0578 5.19169 13.9552 4.88279C13.8486 4.57203 13.5758 4.34798 13.2502 4.30377V4.29977Z" fill="#FFBC00"/>
<path d="M51.2512 4.29977L47.4741 3.76876L45.789 0.440669C45.621 0.166865 45.3228 0 45.0015 0C44.6803 0 44.3821 0.166865 44.214 0.440669L42.528 3.76976L38.7519 4.29977C38.4252 4.34292 38.151 4.56715 38.0438 4.87879C37.9408 5.18799 38.0271 5.52887 38.2648 5.75181L41.0009 8.34588L40.3559 12.005C40.3006 12.3264 40.4362 12.6507 40.7039 12.837C40.9756 13.0265 41.3294 13.0515 41.6249 12.902L45.001 11.174L48.3791 12.9C48.6747 13.0495 49.0285 13.0245 49.3001 12.835C49.5689 12.6482 49.7047 12.3223 49.6482 12L49.0011 8.34388L51.7352 5.75481C51.9725 5.53205 52.0588 5.19169 51.9562 4.88279C51.8496 4.57203 51.5768 4.34798 51.2512 4.30377V4.29977Z" fill="#FFBC00"/>
<path d="M32.2507 4.29977L28.4736 3.76876L26.7885 0.440669C26.6205 0.166865 26.3223 0 26.001 0C25.6798 0 25.3816 0.166865 25.2135 0.440669L23.5275 3.76976L19.7514 4.29977C19.4247 4.34292 19.1505 4.56715 19.0433 4.87879C18.9403 5.18799 19.0266 5.52887 19.2643 5.75181L22.0004 8.34588L21.3554 12.005C21.3001 12.3264 21.4357 12.6507 21.7034 12.837C21.9751 13.0265 22.3289 13.0515 22.6244 12.902L26.0005 11.174L29.3786 12.9C29.6742 13.0495 30.028 13.0245 30.2996 12.835C30.5684 12.6482 30.7042 12.3223 30.6476 12L30.0006 8.34388L32.7347 5.75481C32.972 5.53205 33.0583 5.19169 32.9557 4.88279C32.8491 4.57203 32.5763 4.34798 32.2507 4.30377V4.29977Z" fill="#FFBC00"/>
<path d="M70.2517 4.29977L66.4746 3.76876L64.7896 0.440669C64.6215 0.166865 64.3233 0 64.002 0C63.6808 0 63.3826 0.166865 63.2145 0.440669L61.5285 3.76976L57.7524 4.29977C57.4257 4.34292 57.1515 4.56715 57.0443 4.87879C56.9413 5.18799 57.0276 5.52887 57.2654 5.75181L60.0014 8.34588L59.3564 12.005C59.3011 12.3264 59.4367 12.6507 59.7044 12.837C59.9761 13.0265 60.3299 13.0515 60.6254 12.902L64.0015 11.174L67.3796 12.9C67.6752 13.0495 68.029 13.0245 68.3006 12.835C68.5694 12.6482 68.7052 12.3223 68.6487 12L68.0016 8.34388L70.7357 5.75481C70.973 5.53205 71.0593 5.19169 70.9567 4.88279C70.8501 4.57203 70.5773 4.34798 70.2517 4.30377V4.29977Z" fill="#FFBC00"/>
<path d="M78.3559 12.0001L79.0019 8.34302L76.2668 5.75196C76.0298 5.52552 75.9449 5.18253 76.049 4.87167C76.153 4.56081 76.4273 4.33804 76.7529 4.29992L80.529 3.7649L82.218 0.435815C82.3867 0.164778 82.6833 0 83.0025 0C83.3218 0 83.6184 0.164778 83.787 0.435815L85.4771 3.7659L89.2532 4.29992C89.5786 4.33836 89.8526 4.56127 89.9564 4.87206C90.0602 5.18286 89.9752 5.52566 89.7382 5.75196L87.0021 8.34302L87.6511 12.0001C87.7009 12.326 87.5625 12.652 87.2935 12.8425C87.0245 13.033 86.6709 13.0553 86.3801 12.9001L83.002 11.1731L79.6249 12.9001C79.4993 12.9658 79.3597 13.0001 79.2179 13.0001C78.9632 13.0034 78.7202 12.8939 78.5539 12.701C78.3876 12.5081 78.3151 12.2515 78.3559 12.0001Z" fill="#FFBC00"/>
</svg>
