<svg width="118" height="118" viewBox="0 0 118 118" fill="none" xmlns="http://www.w3.org/2000/svg">
<path d="M59 34.57C53.275 34.5766 48.6356 39.216 48.629 44.941C48.6354 46.4411 48.9706 47.9215 49.611 49.278C26.2095 53.8009 8.76672 73.4826 7.08899 97.258H110.911C109.233 73.483 91.7901 53.8018 68.389 49.279C69.0293 47.9225 69.3645 46.4421 69.371 44.942C69.3649 39.2166 64.7254 34.5766 59 34.57Z" fill="white"/>
<path d="M79.742 6.914H110.855V0H79.742C74.0142 8.53501e-08 69.371 4.64326 69.371 10.371C69.371 16.0987 74.0142 20.742 79.742 20.742H93.571C95.4802 20.742 97.028 22.2898 97.028 24.199C97.028 26.1082 95.4802 27.656 93.571 27.656H86.657C80.932 27.6626 76.2926 32.302 76.286 38.027V41.484H83.2V38.027C83.2011 36.1182 84.7482 34.5711 86.657 34.57H93.571C99.2987 34.57 103.942 29.9267 103.942 24.199C103.942 18.4713 99.2987 13.828 93.571 13.828H79.742C77.8327 13.828 76.285 12.2802 76.285 10.371C76.285 8.46175 77.8327 6.914 79.742 6.914Z" fill="white"/>
<path d="M0 111.086H11.691L15.148 118H102.848L106.305 111.086H118V104.172H0V111.086Z" fill="white"/>
</svg>
