<svg width="161" height="45" viewBox="0 0 161 45" fill="none" xmlns="http://www.w3.org/2000/svg">
<rect width="161" height="44.8007" rx="18.05" fill="#DFDFDF"/>
<rect x="8.91179" y="8.96174" width="26.8772" height="26.8772" rx="6.56" fill="#DFDFDF"/>
<path d="M28.1178 26.4638C28.1178 28.5991 25.5339 29.3449 22.3505 29.3449C19.167 29.3449 16.5832 28.5981 16.5832 26.4638C16.5832 24.3294 19.163 22.5956 22.3505 22.5956C25.538 22.5956 28.1178 24.3324 28.1178 26.4638Z" fill="#DFDFDF"/>
<ellipse cx="22.3485" cy="24.3905" rx="10.1761" ry="3.8602" fill="#DFDFDF"/>
<ellipse cx="22.3484" cy="24.6458" rx="6.3469" ry="2.04222" fill="#DFDFDF"/>
<path d="M26.1847 23.021L32.0681 17.6061C32.3316 17.4338 32.4645 17.119 32.4041 16.81C32.3437 16.501 32.1021 16.2594 31.7931 16.199C31.4841 16.1386 31.1693 16.2714 30.9969 16.535L25.5821 22.4174C24.9071 22.265 24.203 22.4957 23.7491 23.018C23.0639 23.538 22.8954 24.4982 23.3626 25.2204C23.8582 25.7269 24.8553 25.5528 25.565 24.834C26.0871 24.3881 26.3247 23.6931 26.1847 23.021Z" fill="#DFDFDF"/>
<path d="M17.7415 22.6036C16.1247 21.8297 18.3601 19.308 16.9676 17.6372C15.5751 15.9663 17.6944 13.9331 21.1061 15.3517C24.5178 16.7702 26.4359 14.6789 26.5871 16.585C26.7843 18.9416 22.6738 24.9281 17.7415 22.6036Z" fill="#DFDFDF"/>
<path d="M21.7059 17.5831C22.2064 18.2178 21.8611 18.8365 21.2304 19.339C20.5997 19.8415 19.9189 20.0398 19.4124 19.4051C18.9458 18.7701 19.0648 17.8798 19.6818 17.3896C20.2988 16.8995 21.1929 16.9849 21.7059 17.5831Z" fill="#DFDFDF"/>
<path d="M19.5215 18.9876C19.333 18.6416 19.333 18.2235 19.5215 17.8774C19.7537 17.529 20.0321 17.8774 19.9079 18.1447C19.7838 18.412 19.3863 18.5231 19.5215 18.9876Z" fill="#DFDFDF"/>
<rect x="44.6186" y="11.7808" width="85.2697" height="4.4168" rx="2.206" fill="#DFDFDF"/>
<rect x="44.6186" y="22.4634" width="85.2697" height="2.75399" rx="1.375" fill="#DFDFDF"/>
<rect x="44.6186" y="29.1707" width="46.9781" height="2.75399" rx="1.375" fill="#DFDFDF"/>
<rect x="138.695" y="11.7808" width="13.8851" height="13.4366" rx="4.21" fill="#DFDFDF"/>
<path d="M146.087 18.0396H147.282V18.9026H146.087V20.259H145.174V18.9056H143.972V18.0426H145.174V16.7552H146.087V18.0396Z" fill="#DFDFDF"/>
</svg>
