<svg width="188" height="188" viewBox="0 0 188 188" fill="none" xmlns="http://www.w3.org/2000/svg">
<circle cx="94" cy="94" r="94" fill="#F6F7FF"/>
<path fill-rule="evenodd" clip-rule="evenodd" d="M114.151 125.165C114.517 125.282 114.899 125.342 115.283 125.342L154.504 125.339C157.42 125.339 159.785 121.88 159.785 117.612C159.785 113.344 157.42 109.885 154.504 109.885H149.978C147.062 109.885 144.698 106.424 144.698 102.157C144.698 97.8899 147.062 94.4299 149.978 94.4299H164.317C167.233 94.4299 169.597 90.9709 169.597 86.7029C169.597 82.4349 167.233 78.9749 164.317 78.9749H147.722C150.638 78.9749 153.002 75.5159 153.002 71.2479C153.002 66.9799 150.638 63.5209 147.722 63.5209H99.446C102.362 63.5209 104.726 60.0599 104.726 55.7929C104.726 51.5259 102.362 48.0659 99.446 48.0659H56.446C53.53 48.0659 51.165 51.5269 51.165 55.7949C51.165 60.0629 53.53 63.5229 56.446 63.5229H26.278C23.362 63.5229 20.997 66.9819 20.997 71.2499C20.997 75.5179 23.362 78.9769 26.278 78.9769H45.131C48.047 78.9769 50.411 82.4379 50.411 86.7049C50.411 90.9719 48.047 94.4319 45.131 94.4319H14.959C12.043 94.4319 9.67798 97.8899 9.67798 102.159C9.67798 106.428 12.043 109.888 14.959 109.888H44.378C41.462 109.888 39.097 113.347 39.097 117.615C39.097 121.883 41.462 125.342 44.378 125.342H113.02C113.404 125.342 113.785 125.282 114.151 125.165ZM166.637 105.874C163.749 107.07 161.866 109.888 161.866 113.014V113.015C161.867 117.282 165.326 120.741 169.593 120.742C172.719 120.742 175.537 118.86 176.733 115.972C177.93 113.084 177.269 109.76 175.059 107.55C172.849 105.339 169.525 104.678 166.637 105.874Z" fill="white"/>
<path d="M57.3979 50.2739H131.363L124.739 60.2099L133.571 66.8339H55.1899L65.1259 60.2099L57.3979 50.2739Z" fill="#F0F1F5"/>
<path d="M28.6949 138.038H52.3789" stroke="#1DBF73" stroke-width="2.5" stroke-linecap="round" stroke-linejoin="round"/>
<path d="M14.485 138.038H22.071" stroke="#1DBF73" stroke-width="2.5" stroke-linecap="round" stroke-linejoin="round"/>
<path d="M172.351 138.038H175.523" stroke="#1DBF73" stroke-width="2.5" stroke-linecap="round" stroke-linejoin="round"/>
<path d="M142.403 138.038H167.162" stroke="#1DBF73" stroke-width="2.5" stroke-linecap="round" stroke-linejoin="round"/>
<path d="M131.965 152.941H58.46C56.0382 152.923 54.0864 150.951 54.093 148.529V69.041C54.1062 67.2014 55.6063 65.7196 57.446 65.729H134.146C135.358 65.7384 136.333 66.7255 136.329 67.937V148.529C136.336 150.95 134.386 152.921 131.965 152.941Z" fill="white" stroke="#1DBF73" stroke-width="2.5" stroke-linecap="round"/>
<path d="M56.294 65.729V52.482C56.2326 51.3272 57.1164 50.3401 58.271 50.274L131.59 50.274C132.746 50.338 133.632 51.3257 133.571 52.482V65.729" stroke="#1DBF73" stroke-width="2.5"/>
<circle cx="76.718" cy="85.0481" r="3.864" fill="white" stroke="#1DBF73" stroke-width="2.5"/>
<circle cx="113.148" cy="85.0481" r="3.864" fill="white" stroke="#1DBF73" stroke-width="2.5"/>
<path d="M112.595 88.9121C112.595 98.6671 104.687 106.575 94.932 106.575C85.177 106.575 77.269 98.6671 77.269 88.9121" stroke="#1DBF73" stroke-width="2.5" stroke-linecap="round"/>
<path d="M57.4649 51.374L65.3109 59.119C65.5616 59.3627 65.6816 59.7111 65.634 60.0574C65.5864 60.4038 65.377 60.7069 65.0699 60.874L56.2939 65.729" stroke="#1DBF73" stroke-width="2.5" stroke-linecap="round"/>
<path d="M132.587 51.4541L125.078 59.1121C124.834 59.3585 124.721 59.7054 124.772 60.0482C124.823 60.391 125.033 60.6896 125.338 60.8541L134.278 65.7291" stroke="#1DBF73" stroke-width="2.5" stroke-linecap="round"/>
<path d="M124.678 23.8407C125.137 23.3252 125.092 22.5351 124.577 22.0758C124.061 21.6165 123.271 21.662 122.812 22.1774L124.678 23.8407ZM110.559 35.9274C110.099 36.4428 110.145 37.233 110.66 37.6923C111.176 38.1515 111.966 38.1061 112.425 37.5907L110.559 35.9274ZM67.1632 22.1774C66.7039 21.662 65.9137 21.6165 65.3983 22.0758C64.8829 22.5352 64.8375 23.3253 65.2968 23.8407L67.1632 22.1774ZM77.5508 37.5907C78.0101 38.1061 78.8003 38.1515 79.3156 37.6922C79.831 37.2329 79.8765 36.4428 79.4172 35.9274L77.5508 37.5907ZM122.812 22.1774L110.559 35.9274L112.425 37.5907L124.678 23.8407L122.812 22.1774ZM112.425 37.5907L124.678 23.8407L122.812 22.1774L110.559 35.9274L112.425 37.5907ZM65.2968 23.8407L77.5508 37.5907L79.4172 35.9274L67.1632 22.1774L65.2968 23.8407ZM79.4172 35.9274L67.1632 22.1774L65.2968 23.8407L77.5508 37.5907L79.4172 35.9274Z" fill="#1DBF73"/>
</svg>
