<svg width="96" height="72" viewBox="0 0 96 72" fill="none" xmlns="http://www.w3.org/2000/svg">
<path d="M76.953 68.6329H75.5048C75.0807 68.6405 74.6799 68.8284 74.4027 69.1495C74.1255 69.4705 73.9982 69.8945 74.0526 70.3151C73.9982 70.7358 74.1255 71.1597 74.4027 71.4808C74.6799 71.8019 75.0807 71.9897 75.5048 71.9973H76.953C77.3778 71.9909 77.7796 71.8035 78.0577 71.4823C78.3358 71.1611 78.4636 70.7365 78.4091 70.3151C78.4636 69.8938 78.3358 69.4692 78.0577 69.148C77.7796 68.8268 77.3778 68.6394 76.953 68.6329Z" fill="#1DBF73"/>
<path d="M60.3981 68.6329H57.2147C56.7616 68.6066 56.319 68.7756 55.9987 69.0972C55.6785 69.4188 55.5113 69.8622 55.5395 70.3151C55.5113 70.7681 55.6785 71.2115 55.9987 71.5331C56.319 71.8547 56.7616 72.0237 57.2147 71.9973H60.3981C60.8512 72.0237 61.2939 71.8547 61.6141 71.5331C61.9344 71.2115 62.1015 70.7681 62.0733 70.3151C62.1015 69.8622 61.9344 69.4188 61.6141 69.0972C61.2939 68.7756 60.8512 68.6066 60.3981 68.6329Z" fill="#1DBF73"/>
<path d="M70.199 68.6329H67.0157C66.5626 68.6066 66.1199 68.7756 65.7996 69.0972C65.4794 69.4188 65.3122 69.8622 65.3405 70.3151C65.3122 70.7681 65.4794 71.2115 65.7996 71.5331C66.1199 71.8547 66.5626 72.0237 67.0157 71.9973H70.199C71.1253 71.9935 71.8742 71.2415 71.8742 70.3151C71.9025 69.8622 71.7353 69.4188 71.4151 69.0972C71.0948 68.7756 70.6521 68.6066 70.199 68.6329Z" fill="#1DBF73"/>
<path d="M24.5449 34.9931C24.0918 34.9667 23.6492 35.1357 23.3289 35.4573C23.0087 35.7789 22.8415 36.2223 22.8697 36.6753C22.8415 37.1282 23.0087 37.5716 23.3289 37.8932C23.6492 38.2148 24.0918 38.3838 24.5449 38.3574H27.7283C28.1814 38.3838 28.6241 38.2148 28.9443 37.8932C29.2646 37.5716 29.4317 37.1282 29.4035 36.6753C29.4317 36.2223 29.2646 35.7789 28.9443 35.4573C28.6241 35.1357 28.1814 34.9667 27.7283 34.9931H24.5449Z" fill="#1DBF73"/>
<path d="M1.64819 61.9052C2.36776 61.9528 3.03097 61.5153 3.27038 60.8351C3.29605 60.0525 3.5818 59.3008 4.08247 58.6988C4.33204 58.359 4.42173 57.9276 4.32826 57.5164C4.23479 57.1053 3.96737 56.7551 3.59541 56.5566C2.83976 56.0643 1.82908 56.2681 1.32315 57.0146C0.633741 57.9619 0.187306 59.0639 0.0229999 60.224C-0.0685747 61.0435 0.506956 61.7877 1.32315 61.9052H1.64819Z" fill="#1DBF73"/>
<path d="M40.9277 40.0986C41.5393 40.7015 42.1053 41.349 42.6209 42.0359C42.9854 42.5161 43.5429 42.8114 44.145 42.843C44.4147 42.8786 44.6801 42.752 44.8221 42.5199C45.2272 42.3261 45.5317 41.9703 45.6606 41.5401C45.7895 41.11 45.7309 40.6453 45.4992 40.2607C44.7887 39.2289 43.9335 38.3047 42.9599 37.5163C42.1957 37.046 41.2059 37.1794 40.5936 37.8354C40.0938 38.5606 40.2397 39.5488 40.9277 40.0986Z" fill="#1DBF73"/>
<path d="M6.8788 67.8808C6.14327 67.4397 5.54169 66.8067 5.13859 66.0496C4.92962 65.668 4.56667 65.3946 4.14218 65.2991C3.71768 65.2036 3.27262 65.2952 2.92034 65.5506C2.14742 66.0641 1.93506 67.1058 2.44528 67.8808C3.07025 68.9539 3.93785 69.8657 4.97858 70.5432C5.26494 70.7268 5.59033 70.8409 5.92869 70.8762C6.4786 70.8721 6.99952 70.629 7.35585 70.2101C7.86501 69.4347 7.65179 68.3936 6.8788 67.8808Z" fill="#1DBF73"/>
<path d="M31.5817 36.6753C31.5534 37.1282 31.7206 37.5716 32.0409 37.8932C32.3611 38.2148 32.8038 38.3838 33.2569 38.3574H36.4402C36.8933 38.3838 37.336 38.2148 37.6563 37.8932C37.9765 37.5716 38.1437 37.1282 38.1154 36.6753C38.1437 36.2223 37.9765 35.7789 37.6563 35.4573C37.336 35.1357 36.8933 34.9667 36.4402 34.9931H33.2569C32.8038 34.9667 32.3611 35.1357 32.0409 35.4573C31.7206 35.7789 31.5534 36.2223 31.5817 36.6753Z" fill="#1DBF73"/>
<path d="M21.7796 53.4952C21.8078 53.0422 21.6406 52.5988 21.3204 52.2772C21.0001 51.9556 20.5575 51.7866 20.1044 51.813H16.921C16.4679 51.7866 16.0252 51.9556 15.705 52.2772C15.3847 52.5988 15.2176 53.0422 15.2458 53.4952C15.2176 53.9482 15.3847 54.3915 15.705 54.7131C16.0252 55.0347 16.4679 55.2037 16.921 55.1774H20.1044C21.0307 55.1735 21.7796 54.4215 21.7796 53.4952Z" fill="#1DBF73"/>
<path d="M11.4002 54.8713C11.8302 54.9151 12.2584 54.773 12.5769 54.4808C12.8954 54.1887 13.0739 53.7743 13.0674 53.3422C13.0739 52.91 12.8954 52.4957 12.5769 52.2035C12.2584 51.9114 11.8302 51.7693 11.4002 51.813H10.2341C9.39312 51.8394 8.55628 51.9419 7.73378 52.119C6.91357 52.3155 6.39684 53.1269 6.56564 53.9532C6.79042 54.6849 7.46848 55.1824 8.23384 55.1774C8.32617 55.0929 8.44262 55.0394 8.56687 55.0244C9.11307 54.8978 9.67396 54.8463 10.2341 54.8713H11.4002Z" fill="#1DBF73"/>
<path d="M40.2685 53.1131C40.0036 52.2563 39.1567 51.7176 38.2683 51.841C37.8922 51.9706 37.494 52.0233 37.0972 51.996H35.429C34.9897 51.9591 34.5556 52.1121 34.2366 52.4163C33.9175 52.7204 33.7439 53.1467 33.7598 53.5872C33.7442 54.0276 33.9179 54.4535 34.237 54.7575C34.556 55.0614 34.9899 55.2143 35.429 55.1774H37.0972C37.7136 55.195 38.3299 55.14 38.9334 55.0134C39.7959 54.8102 40.3698 53.9935 40.2685 53.1131Z" fill="#1DBF73"/>
<path d="M45.6263 45.1792C45.2032 45.0568 44.7478 45.1252 44.3794 45.3664C44.0109 45.6076 43.7661 45.9977 43.7091 46.4344C43.5623 47.3272 43.2364 48.1811 42.751 48.9447C42.2852 49.7592 42.4163 50.7839 43.072 51.455C43.357 51.6515 43.6861 51.7749 44.0301 51.814C44.5037 51.7912 44.9292 51.5175 45.1462 51.0959C45.8796 49.9355 46.42 48.6639 46.7464 47.3305C47.0234 46.4278 46.5246 45.4699 45.6263 45.1792Z" fill="#1DBF73"/>
<path d="M31.5807 53.4952C31.609 53.0422 31.4418 52.5988 31.1216 52.2772C30.8013 51.9556 30.3586 51.7866 29.9056 51.813H26.7222C26.2691 51.7866 25.8264 51.9556 25.5062 52.2772C25.1859 52.5988 25.0188 53.0422 25.047 53.4952C25.0188 53.9482 25.1859 54.3915 25.5062 54.7131C25.8264 55.0347 26.2691 55.2037 26.7222 55.1774H29.9056C30.3586 55.2037 30.8013 55.0347 31.1216 54.7131C31.4418 54.3915 31.609 53.9482 31.5807 53.4952Z" fill="#1DBF73"/>
<path d="M41.885 68.6329H38.7016C38.2485 68.6066 37.8058 68.7756 37.4856 69.0972C37.1653 69.4188 36.9982 69.8622 37.0264 70.3151C36.9982 70.7681 37.1653 71.2115 37.4856 71.5331C37.8058 71.8547 38.2485 72.0237 38.7016 71.9973H41.885C42.8113 71.9935 43.5602 71.2415 43.5602 70.3151C43.5884 69.8622 43.4212 69.4188 43.101 69.0972C42.7807 68.7756 42.3381 68.6066 41.885 68.6329Z" fill="#1DBF73"/>
<path d="M33.1728 68.6329H29.9894C29.5363 68.6066 29.0936 68.7756 28.7734 69.0972C28.4531 69.4188 28.286 69.8622 28.3142 70.3151C28.286 70.7681 28.4531 71.2115 28.7734 71.5331C29.0936 71.8547 29.5363 72.0237 29.9894 71.9973H33.1728C33.6259 72.0237 34.0685 71.8547 34.3888 71.5331C34.7091 71.2115 34.8762 70.7681 34.848 70.3151C34.8762 69.8622 34.7091 69.4188 34.3888 69.0972C34.0685 68.7756 33.6259 68.6066 33.1728 68.6329Z" fill="#1DBF73"/>
<path d="M24.4608 68.6329H21.2775C20.8244 68.6066 20.3817 68.7756 20.0614 69.0972C19.7412 69.4188 19.574 69.8622 19.6023 70.3151C19.574 70.7681 19.7412 71.2115 20.0614 71.5331C20.3817 71.8547 20.8244 72.0237 21.2775 71.9973H24.4608C25.3871 71.9935 26.136 71.2415 26.136 70.3151C26.1643 69.8622 25.9971 69.4188 25.6769 69.0972C25.3566 68.7756 24.9139 68.6066 24.4608 68.6329Z" fill="#1DBF73"/>
<path d="M14.6596 68.6329H11.4763C11.0232 68.6066 10.5805 68.7756 10.2603 69.0972C9.94 69.4188 9.77285 69.8622 9.80109 70.3151C9.77285 70.7681 9.94 71.2115 10.2603 71.5331C10.5805 71.8547 11.0232 72.0237 11.4763 71.9973H14.8267C15.2544 71.9873 15.6589 71.8009 15.9445 71.4824C16.2301 71.1638 16.3714 70.7414 16.3348 70.3151C16.3631 69.8622 16.1959 69.4188 15.8757 69.0972C15.5554 68.7756 15.1127 68.6066 14.6596 68.6329Z" fill="#1DBF73"/>
<path d="M50.5969 68.6329H47.4135C46.9605 68.6066 46.5178 68.7756 46.1975 69.0972C45.8773 69.4188 45.7101 69.8622 45.7383 70.3151C45.7101 70.7681 45.8773 71.2115 46.1975 71.5331C46.5178 71.8547 46.9605 72.0237 47.4135 71.9973H50.5969C51.05 72.0237 51.4927 71.8547 51.8129 71.5331C52.1332 71.2115 52.3003 70.7681 52.2721 70.3151C52.3003 69.8622 52.1332 69.4188 51.8129 69.0972C51.4927 68.7756 51.05 68.6066 50.5969 68.6329Z" fill="#1DBF73"/>
<path d="M16.6979 34.9931C16.2738 35.0007 15.873 35.1885 15.5959 35.5096C15.3187 35.8307 15.1914 36.2546 15.2458 36.6753C15.1914 37.0959 15.3187 37.5199 15.5959 37.8409C15.873 38.162 16.2738 38.3499 16.6979 38.3575H18.1461C18.5709 38.351 18.9728 38.1636 19.2509 37.8424C19.5289 37.5212 19.6568 37.0966 19.6023 36.6753C19.6568 36.2539 19.5289 35.8293 19.2509 35.5081C18.9728 35.1869 18.5709 34.9995 18.1461 34.9931H16.6979Z" fill="#1DBF73"/>
<path fill-rule="evenodd" clip-rule="evenodd" d="M75.6958 66.6897C75.8971 66.8865 76.1674 66.9967 76.4489 66.9967C76.7306 66.9965 77.0009 66.8859 77.202 66.6887C77.381 66.5187 95.0711 49.4247 95.0711 39.0155C95.0735 36.4759 94.5742 33.9608 93.6019 31.6146C92.6711 29.3626 91.316 27.3104 89.6105 25.5699C87.9227 23.8381 85.9128 22.4526 83.6938 21.4915C79.0711 19.4905 73.8267 19.4905 69.2041 21.4915C66.985 22.4526 64.9752 23.8381 63.2874 25.5699C61.5817 27.3107 60.2266 29.3632 59.2959 31.6156C58.3236 33.9618 57.8244 36.4769 57.8268 39.0165C57.8268 49.4277 75.5168 66.5187 75.6958 66.6897ZM70.141 35.2302C71.2258 32.7247 73.7193 31.1251 76.4489 31.1836C80.1142 31.2275 83.0534 34.228 83.0217 37.8934C83.0239 40.6237 81.3732 43.0836 78.8458 44.1165C76.3184 45.1493 73.4173 44.5495 71.5067 42.5991C69.5961 40.6486 69.0563 37.7358 70.141 35.2302Z" fill="#1DBF73"/>
<path fill-rule="evenodd" clip-rule="evenodd" d="M12.4924 31.7087C12.695 31.8918 12.9585 31.993 13.2315 31.9927C13.5047 31.9928 13.7682 31.8912 13.9706 31.7077C16.2576 29.5988 18.4079 27.3463 20.4084 24.9639C21.977 23.1253 23.3743 21.1471 24.5828 19.0542C25.6819 17.2989 26.3279 15.2981 26.4631 13.2315C26.4631 5.92396 20.5391 0 13.2315 0C5.92396 0 0 5.92396 0 13.2315C0.135127 15.2981 0.781189 17.2989 1.88022 19.0542C3.08874 21.1475 4.48605 23.1259 6.0547 24.9649C8.05515 27.3473 10.2054 29.5998 12.4924 31.7087ZM9.14847 11.5396C9.83343 9.88963 11.4451 8.815 13.2315 8.81702C15.6673 8.82088 17.6404 10.7957 17.642 13.2315C17.6424 15.018 16.5664 16.6287 14.9158 17.3121C13.2653 17.9956 11.3655 17.6171 10.1029 16.3533C8.84024 15.0896 8.46352 13.1895 9.14847 11.5396Z" fill="#1DBF73"/>
</svg>
