<svg width="57" height="49" viewBox="0 0 57 49" fill="none" xmlns="http://www.w3.org/2000/svg">
<path fill-rule="evenodd" clip-rule="evenodd" d="M15.219 7.875C14.4275 8.72214 13.9912 9.84067 14 11C14 11.5523 14.4477 12 15 12C15.5523 12 16 11.5523 16 11C15.9929 10.2945 16.2751 9.61686 16.781 9.125C18.4054 7.35832 18.4054 4.64168 16.781 2.875C16.275 2.38328 15.9927 1.70557 16 1C16 0.642734 15.8094 0.312607 15.5 0.133975C15.1906 -0.0446582 14.8094 -0.0446582 14.5 0.133975C14.1906 0.312607 14 0.642734 14 1C13.9912 2.15933 14.4275 3.27786 15.219 4.125C15.7189 4.62088 16.0001 5.29586 16.0001 6C16.0001 6.70414 15.7189 7.37912 15.219 7.875ZM27.219 7.875C26.4275 8.72214 25.9912 9.84067 26 11C26 11.5523 26.4477 12 27 12C27.5523 12 28 11.5523 28 11C27.9929 10.2945 28.2751 9.61686 28.781 9.125C30.4054 7.35832 30.4054 4.64169 28.781 2.875C28.275 2.38328 27.9927 1.70557 28 1C28 0.447715 27.5523 0 27 0C26.4477 0 26 0.447715 26 1C25.9912 2.15933 26.4275 3.27786 27.219 4.125C27.7189 4.62088 28.0001 5.29586 28.0001 6C28.0001 6.70414 27.7189 7.37912 27.219 7.875ZM50.985 20.271C50.985 18.199 51.091 17.442 52.185 17.026C52.2597 16.9855 52.3508 16.9901 52.421 17.038C52.592 17.138 53.414 17.764 54.169 21.074C53.328 21.109 52.238 21.184 50.969 21.348C50.984 20.975 50.987 20.611 50.988 20.272L50.985 20.271ZM18.963 43H25H25.01C27.3622 42.9999 29.6193 42.0717 31.291 40.417L31.2797 40.4093L31.2796 40.4092C31.1025 40.2878 30.9263 40.1672 30.754 40.035C29.0746 38.641 27.6446 36.9715 26.525 35.098C26.03 34.2729 26.0475 33.238 26.57 32.43C25.144 29.459 24.691 27.343 25.211 26C25.4483 25.3673 25.9491 24.8691 26.583 24.635C29.1076 23.6733 30.5143 25.4772 31.6465 26.9292L31.651 26.935C31.916 27.274 32.194 27.615 32.483 27.945C32.9489 27.7 33.4759 27.5958 34 27.645V18C34 17.4477 33.5523 17 33 17H11C10.4477 17 10 17.4477 10 18V34C9.99907 34.6804 10.0773 35.3586 10.233 36.021C11.155 40.1013 14.7798 42.9991 18.963 43ZM40.233 43C39.535 42.9673 38.8443 42.8426 38.179 42.629C38.121 42.383 38.045 42.048 37.967 41.644C37.491 39.167 36.659 32.944 39.15 28.424L44.163 26.51C49.515 28.61 52.763 35.481 53.363 36.77C52.809 37.727 51.03 40.14 46.455 41.886C44.8868 42.5023 43.2345 42.8779 41.554 43H40.233ZM7.05 49C5.4 49 4 48.084 4 47V45.091C4.10513 45.0268 4.22691 44.9951 4.35 45H55.65C55.7731 44.9955 55.8947 45.0271 56 45.091V47C56 48.084 54.6 49 52.95 49H7.05ZM31.979 38.455C30.4887 37.2067 29.2198 35.7158 28.226 34.045C28.1067 33.7893 28.1816 33.485 28.406 33.314L28.444 33.279C29.8224 32.0908 31.29 31.0103 32.834 30.047C32.8722 30.0228 32.9105 29.9983 32.9494 29.9735C33.0716 29.8954 33.1994 29.8137 33.345 29.728C33.5778 29.5771 33.8758 29.5705 34.115 29.711C34.7411 30.1077 35.4193 30.4156 36.13 30.626C35.3492 33.8248 35.2132 37.1471 35.73 40.399C34.3851 39.9533 33.1194 39.2972 31.98 38.455H31.979ZM5.171 20C0.588 20 0 24.527 0 28.47C0 33.185 1.933 36 5.171 36C6.17164 35.992 7.16625 35.8442 8.126 35.561C8.04667 35.0444 8.00457 34.5227 8 34V33.5C7.09092 33.8211 6.13508 33.9901 5.171 34C3.185 34 2 31.933 2 28.47C2 25.061 2.242 22 5.171 22C6.14569 21.9885 7.11115 22.1899 8 22.59V20.441C7.08651 20.1443 6.13147 19.9954 5.171 20ZM47.773 26.25C48.2055 25.6032 48.5509 24.9021 48.8 24.165C48.9027 23.8675 49.1604 23.6505 49.471 23.6C49.5986 23.5737 49.7262 23.5526 49.8601 23.5305L49.9361 23.5179C49.9709 23.5121 50.0061 23.5062 50.042 23.5C51.7882 23.2047 53.5551 23.0496 55.326 23.036H55.393C55.6389 23.0171 55.8574 23.1919 55.893 23.436C56.1235 25.4264 56.0337 27.441 55.627 29.403C55.2495 30.8295 54.6642 32.1928 53.89 33.449C52.3737 30.6501 50.2904 28.1983 47.773 26.25ZM27.291 26.505C27.1856 26.5381 27.1037 26.6219 27.073 26.728H27.076C26.866 27.27 27.052 28.655 28.088 30.973C28.767 30.426 29.663 29.749 30.754 29.017C30.5094 28.7285 30.2838 28.439 30.0721 28.1674L30.0721 28.1674L30.072 28.1673L30.071 28.166C28.835 26.582 28.351 26.105 27.291 26.505ZM20 11C19.9916 9.84055 20.4282 8.72204 21.22 7.875C21.7194 7.37885 22.0003 6.70397 22.0003 6C22.0003 5.29603 21.7194 4.62115 21.22 4.125C20.4282 3.27796 19.9916 2.15945 20 1C20 0.447715 20.4477 0 21 0C21.5523 0 22 0.447715 22 1C21.9928 1.70535 22.2746 2.38291 22.78 2.875C24.4049 4.6415 24.4049 7.3585 22.78 9.125C22.2749 9.61729 21.9931 10.2947 22 11C22 11.5523 21.5523 12 21 12C20.4477 12 20 11.5523 20 11Z" fill="#1DBF73"/>
</svg>
