<svg width="146" height="168" viewBox="0 0 146 168" fill="none" xmlns="http://www.w3.org/2000/svg">
<rect x="4.37095" y="23.7923" width="125.27" height="144.208" rx="19.74" fill="#DFDFDF"/>
<path d="M4.37095 138.333H129.649V160.253C129.649 164.532 126.18 168 121.902 168H12.1236C7.84525 168 4.37696 164.532 4.37696 160.253L4.37095 138.333Z" fill="#DFDFDF"/>
<circle cx="21.2989" cy="153.165" r="7.34162" fill="#DFDFDF"/>
<circle cx="21.2999" cy="151.408" r="2.62165" fill="#DFDFDF"/>
<path d="M21.2989 160.507C23.3 160.508 25.2143 159.69 26.5964 158.243C26.0303 155.773 23.8327 154.023 21.2989 154.023C18.7652 154.023 16.5676 155.773 16.0015 158.243C17.3836 159.69 19.2979 160.508 21.2989 160.507Z" fill="#DFDFDF"/>
<rect x="37.0708" y="149.281" width="65.5683" height="2.62165" rx="1.307" fill="#DFDFDF"/>
<rect x="37.0708" y="155.191" width="38.7031" height="2.62165" rx="1.307" fill="#DFDFDF"/>
<rect x="33.3424" y="43.001" width="68.8325" height="46.7125" rx="21.72" fill="#DFDFDF"/>
<path d="M114.866 107.01L97.6746 81.5036L96.5718 53.9448C96.5718 53.9448 108.344 57.3474 115.035 66.651C119.292 72.561 132.693 97.9453 134.84 101.654C137.847 106.849 134.84 112.959 129.185 114.787C121.027 117.425 114.866 107.01 114.866 107.01Z" fill="#DFDFDF"/>
<path d="M32.2757 138.333L33.7314 55.7233L47.395 50.5792L89.0497 50.8028L101.254 55.7233L103.886 138.333H32.2757Z" fill="#DFDFDF"/>
<path d="M33.7315 55.7233L32.6487 117.006C32.6487 117.006 48.0277 83.3604 43.1102 52.1873L33.7315 55.7233Z" fill="#DFDFDF"/>
<path d="M43.2787 121.82L22.3907 99.0993L33.3425 86.6948L33.7345 55.7213C26.7026 58.9936 7.22724 85.8076 3.33437 89.8077C-0.710893 93.9673 -1.84577 102.455 4.33691 108.389C9.92107 113.749 36.4914 134.182 36.4914 134.182C37.8373 132.713 39.0715 131.146 40.1838 129.493C41.3601 126.996 42.3934 124.434 43.2787 121.82Z" fill="#DFDFDF"/>
<path d="M47.3951 50.5782C47.3951 50.5782 59.1248 47.9716 59.5048 39.1743H79.0624C79.0624 39.1743 78.3797 47.9726 89.0497 50.8038C89.0497 50.8018 72.2271 67.6244 47.3951 50.5782Z" fill="#DFDFDF"/>
<path d="M79.3099 41.6937C79.1163 40.8685 79.033 40.0214 79.0623 39.1743H62.7579L59.4967 39.3117C59.4438 40.2662 59.2454 41.2071 58.9082 42.1017C60.2115 44.9088 63.0286 49.1656 68.6128 49.1927C74.7533 49.2087 77.9164 44.9901 79.3099 41.6937Z" fill="#DFDFDF"/>
<path d="M61.5098 8.97772C55.1875 11.8903 51.7107 18.7798 53.1235 25.5959C54.497 32.1966 56.867 39.7899 60.8271 43.5053C67.498 49.7601 79.0894 47.1976 81.6248 34.3972C82.3627 30.6537 82.9201 27.247 83.3362 24.2966C84.2803 17.5718 80.575 11.055 74.3133 8.42733C70.442 6.80358 66.0667 6.88033 62.2547 8.63886L61.5098 8.97772Z" fill="#DFDFDF"/>
<circle cx="61.5962" cy="27.0646" r="1.12987" fill="#DFDFDF"/>
<circle cx="75.2918" cy="27.0646" r="1.12987" fill="#DFDFDF"/>
<path d="M67.9292 28.8341C67.9292 28.8341 67.5372 32.4362 67.5372 34.0373C67.5372 35.3987 69.4421 35.6975 70.7514 35.3717" stroke="#DFDFDF" stroke-width="2" stroke-linecap="round" stroke-linejoin="round"/>
<path d="M72.3052 21.6659C73.228 20.8563 74.4545 20.4828 75.672 20.6405C76.8894 20.7982 77.9802 21.472 78.6663 22.49C76.5952 21.9178 74.4537 21.6404 72.3052 21.6659H72.3052Z" fill="#DFDFDF"/>
<path d="M64.5737 21.6659C63.6508 20.8563 62.4244 20.4828 61.2069 20.6405C59.9894 20.7982 58.8986 21.472 58.2126 22.49C60.2838 21.9182 62.4251 21.6408 64.5737 21.6659Z" fill="#DFDFDF"/>
<path d="M64.1044 40.0726L74.6993 37.887C74.0509 40.4743 71.7872 42.3335 69.1232 42.4667C67.1458 42.606 65.2404 41.6971 64.1044 40.0726Z" fill="#DFDFDF"/>
<path d="M56.9783 37.887C55.7379 33.4713 55.1651 28.8948 55.279 24.3096C55.349 22.5172 56.4667 20.9336 58.1322 20.2674C64.871 17.6829 72.3349 17.7248 79.0443 20.3847C80.7607 21.0274 81.9198 22.6422 81.9797 24.474C82.103 28.987 81.6468 33.4972 80.6223 37.894C82.196 38.4809 83.966 37.8931 84.8761 36.4815C86.9553 33.3736 88.1213 25.9377 87.4265 17.9244C86.1513 3.24018 70.5527 -1.77053 58.7057 3.83669C46.8586 9.44391 46.9649 25.0034 52.5491 35.124C53.3481 36.5627 55.1497 38.1066 56.9783 37.887Z" fill="#DFDFDF"/>
<path d="M84.6074 36.8283C83.2179 36.8283 82.2965 34.8664 83.1166 32.4843C84.3959 28.792 86.3308 19.342 77.5094 16.0035C69.4139 12.9267 58.8852 14.2852 55.2169 19.0252C50.1821 25.5317 57.4736 33.2503 54.2143 37.0208C54.9911 37.6516 55.9794 37.9618 56.9773 37.888C55.7369 33.4723 55.1641 28.8958 55.278 24.3106C55.348 22.5182 56.4658 20.9346 58.1313 20.2684C64.87 17.6839 72.3339 17.7258 79.0433 20.3857C80.7597 21.0284 81.9189 22.6432 81.9787 24.475C82.102 28.988 81.6458 33.4982 80.6213 37.8951C82.0421 38.4139 83.6357 37.9875 84.6074 36.8283Z" fill="#DFDFDF"/>
<path opacity="0.8" d="M48.9018 19.4403C48.9018 19.4403 48.5529 0.451105 67.514 0.00798169C87.3974 -0.459203 87.8656 19.738 87.8656 19.738L86.2014 18.2232C85.9526 17.9953 85.6224 17.8774 85.2855 17.8963C84.9486 17.9151 84.6336 18.0691 84.4118 18.3234C84.1467 18.6273 83.7514 18.7848 83.3499 18.7467C82.9484 18.7085 82.5899 18.4793 82.3867 18.1309C79.3735 12.8055 73.6269 9.62126 67.514 9.89004C58.4911 10.0314 54.9331 15.7369 53.736 18.5229C53.5861 18.87 53.2879 19.131 52.9241 19.2337C52.5602 19.3364 52.1695 19.2697 51.8603 19.0523L51.1816 18.5701C50.6624 18.2033 49.9511 18.2826 49.5254 18.7545L48.9018 19.4403Z" fill="#DFDFDF"/>
<path d="M53.0534 6.65584C52.4366 7.47035 51.8893 8.33524 51.4172 9.2414L56.052 14.8215C56.7325 14.0354 57.5 13.3291 58.3398 12.7162L53.0534 6.65584Z" fill="#DFDFDF"/>
<path d="M59.7252 11.835C60.2852 11.522 60.866 11.2479 61.4636 11.0149L55.4484 4.12443C55.0367 4.47892 54.6438 4.85472 54.2714 5.25028L59.7252 11.835Z" fill="#DFDFDF"/>
<path d="M53.7993 27.9478C53.7993 27.9478 51.1155 18.954 59.7644 15.8261C68.4133 12.6982 76.6071 15.2687 79.3851 16.8737" stroke="#DFDFDF" stroke-width="2" stroke-linecap="round" stroke-linejoin="round"/>
<rect x="86.4049" y="15.9905" width="2.30785" height="11.0781" rx="1.151" fill="#DFDFDF"/>
<rect x="48.0858" y="15.9905" width="2.30785" height="11.0781" rx="1.151" fill="#DFDFDF"/>
<path d="M47.3951 50.5782L53.2379 48.0197C53.2379 48.0197 59.5168 52.3367 66.309 53.2149C67.3286 53.3524 68.1575 54.1051 68.3923 55.1067L69.1422 58.2146C69.1422 58.2146 59.0847 59.3835 47.3951 50.5782Z" fill="#DFDFDF"/>
<path d="M69.1421 58.2106L70.3512 54.7498C70.6528 53.8825 71.4065 53.2509 72.3132 53.1056C74.8957 52.6936 80.3536 51.5356 84.2434 48.5501L89.0506 50.8028C89.0506 50.8028 83.5196 58.3319 69.1421 58.2106Z" fill="#DFDFDF"/>
<path d="M51.1896 53.1407C51.1896 53.1407 69.1421 64.4775 85.6981 53.3803" stroke="#DFDFDF" stroke-width="2" stroke-linecap="round" stroke-linejoin="round"/>
<path d="M33.0486 100.003L33.3434 77.8113" stroke="#DFDFDF" stroke-width="2" stroke-linecap="round" stroke-linejoin="round"/>
<path d="M69.1421 58.2106V137.729" stroke="#DFDFDF" stroke-width="2" stroke-linecap="round" stroke-linejoin="round"/>
<path d="M101.254 55.7222L103.283 119.548C103.283 119.548 86.1031 82.2686 91.581 51.8414L101.254 55.7222Z" fill="#DFDFDF"/>
<path d="M43.2487 117.01C43.3514 123.768 40.5013 130.235 35.4439 134.72" stroke="#DFDFDF" stroke-width="2" stroke-linecap="round" stroke-linejoin="round"/>
<path d="M92.2939 117.045C92.2939 117.045 90.9285 128.975 98.7253 134.704" stroke="#DFDFDF" stroke-width="2" stroke-linecap="round" stroke-linejoin="round"/>
<path d="M128.114 63.7947C128.114 63.7947 129.628 55.3583 129.397 53.631C129.165 51.9036 126.481 49.1105 126.717 46.3124C126.953 43.5143 125.057 40.5979 126.717 40.5979C128.377 40.5979 129.53 42.6972 130.139 44.5219C130.747 46.3465 131.147 45.2236 131.19 43.8662C131.233 42.5088 132.367 32.6668 132.909 32.4863C133.45 32.3059 134.945 32.1956 134.945 34.5857C134.945 36.9757 134.423 43.3248 134.423 43.3248C134.423 43.3248 136.11 31.965 136.985 31.4387C137.86 30.9124 139.084 30.9715 139.025 33.2433C138.966 35.515 137.978 43.6697 137.978 43.6697C137.978 43.6697 139.841 34.1145 140.831 33.8237C141.82 33.533 143.279 33.938 142.871 36.1546C142.463 38.3713 141.529 44.0025 141.529 44.0025C141.529 44.0025 143.451 36.8374 144.154 36.7191C144.857 36.6008 145.724 36.8955 145.257 39.1091C144.79 41.3228 143.797 49.312 142.867 52.2194C141.937 55.1268 140.768 55.8887 140.653 58.6276C140.539 61.3666 140.653 66.3191 140.653 66.3191L128.114 63.7947Z" fill="#DFDFDF"/>
<path d="M118.383 101.658L127.22 59.7014L141.497 61.7225C141.497 61.7225 136.761 103.486 136.117 107.725C135.215 113.662 129.053 116.559 123.497 114.442C115.491 111.393 118.383 101.658 118.383 101.658Z" fill="#DFDFDF"/>
<path d="M131.603 46.9129C131.603 46.9129 136.025 47.5957 137.802 53.1918" stroke="#DFDFDF" stroke-width="2" stroke-linecap="round" stroke-linejoin="round"/>
<path d="M119.097 98.2712L123.798 75.9706" stroke="#DFDFDF" stroke-width="2" stroke-linecap="round" stroke-linejoin="round"/>
<path d="M16.2531 98.9148C18.2529 98.2247 20.436 98.2903 22.3907 99.0993" stroke="#DFDFDF" stroke-width="2" stroke-linecap="round" stroke-linejoin="round"/>
</svg>
