<svg width="15" height="15" viewBox="0 0 15 15" fill="none" xmlns="http://www.w3.org/2000/svg">
<path fill-rule="evenodd" clip-rule="evenodd" d="M0.119943 7.34764C0.694901 10.2217 3.22052 12.2891 6.15156 12.2849C7.77769 12.2827 9.33656 11.6357 10.4862 10.4856C12.5587 8.41293 12.8778 5.1647 11.2484 2.72829C9.61898 0.291877 6.4951 -0.653758 3.788 0.469942C1.08091 1.59364 -0.455015 4.47353 0.119943 7.34764ZM1.38035 6.15096C1.38035 3.51589 3.5165 1.37975 6.15156 1.37975C8.78547 1.38256 10.92 3.51706 10.9228 6.15096C10.9228 8.78603 8.78663 10.9222 6.15156 10.9222C3.5165 10.9222 1.38035 8.78603 1.38035 6.15096Z" fill="#0B6749"/>
<path d="M4.10678 6.15095H2.74402C2.74627 4.27001 4.27051 2.74577 6.15144 2.74352V4.10629C5.02221 4.10629 4.10678 5.02171 4.10678 6.15095Z" fill="#0B6749"/>
<path d="M14.8118 13.847L11.9114 10.9466C11.6201 11.2966 11.2974 11.6193 10.9474 11.9107L13.8477 14.811C14.1157 15.0663 14.5384 15.0611 14.8002 14.7994C15.0619 14.5377 15.067 14.115 14.8118 13.847Z" fill="#0B6749"/>
</svg>
