<svg width="21" height="20" viewBox="0 0 21 20" fill="none" xmlns="http://www.w3.org/2000/svg">
<path d="M9.32614 0.696691L6.77554 5.86874L1.06852 6.70045C0.598283 6.76969 0.207932 7.09949 0.0611577 7.55157C-0.0856161 8.00366 0.0365602 8.49986 0.376454 8.83211L4.50629 12.8572L3.52979 18.5406C3.45005 19.009 3.64286 19.4821 4.02731 19.7614C4.41176 20.0406 4.92131 20.0777 5.34211 19.857L10.4474 17.1729L15.5527 19.857C15.9736 20.0768 16.4826 20.0394 16.8668 19.7604C17.2509 19.4813 17.4439 19.0088 17.365 18.5406L16.3844 12.8572L20.5184 8.83211C20.8589 8.50007 20.9815 8.00366 20.8349 7.55124C20.6883 7.09882 20.2978 6.76869 19.8273 6.69943L14.1203 5.86771L11.5687 0.696691C11.3579 0.270054 10.9233 0 10.4474 0C9.97155 0 9.53692 0.270054 9.32614 0.696691Z" fill="#FFBC00"/>
</svg>
