<svg width="240" height="218" viewBox="0 0 240 218" fill="none" xmlns="http://www.w3.org/2000/svg">
<path d="M235.248 110C235.335 146.351 216.969 180.262 186.478 200.053C169.128 211.506 148.785 217.587 127.995 217.536C68.6332 217.317 20.5234 169.077 20.5234 110C20.406 71.5651 40.8434 35.9993 74.1097 16.7479C107.376 -2.50359 148.396 -2.50359 181.662 16.7479C214.928 35.9993 235.365 71.5651 235.248 110Z" fill="#DFDFDF"/>
<path d="M3.75258 122.395C4.75076 122.405 5.71094 122.013 6.4166 121.307C7.12227 120.601 7.51399 119.64 7.50343 118.642C7.51446 117.642 7.12351 116.679 6.4183 115.97C5.71309 115.261 4.75268 114.865 3.75258 114.87C1.62567 114.961 -0.0398585 116.733 0.000726173 118.862C0.000330937 119.837 0.402886 120.77 1.11322 121.439C1.82355 122.108 2.7786 122.454 3.75258 122.395Z" fill="#DFDFDF"/>
<path d="M26.0404 204.045C27.041 204.051 28.0021 203.655 28.7077 202.945C29.4134 202.236 29.8045 201.273 29.7932 200.272C29.7999 199.275 29.4067 198.316 28.7014 197.611C27.9961 196.906 27.0376 196.513 26.0404 196.52C25.0425 196.51 24.0828 196.903 23.3774 197.608C22.6719 198.314 22.2802 199.274 22.2905 200.272C22.3426 202.325 23.9879 203.98 26.0404 204.045Z" fill="#DFDFDF"/>
<path d="M74.8444 165.645C76.1711 165.656 77.4468 165.134 78.3849 164.196C79.3231 163.258 79.8451 161.982 79.8338 160.655C79.8443 159.329 79.322 158.053 78.384 157.115C77.446 156.177 76.1708 155.655 74.8444 155.666C73.5176 155.654 72.242 156.176 71.3038 157.115C70.3656 158.053 69.8436 159.328 69.8549 160.655C70.1485 163.589 72.2018 165.645 74.8444 165.645Z" fill="#DFDFDF"/>
<path d="M228.69 42.8003C230.284 41.3362 231.227 39.2964 231.309 37.1341C231.392 34.9718 230.608 32.8659 229.131 31.2842C226.013 27.9558 220.795 27.76 217.436 30.8453C215.843 32.3094 214.9 34.3492 214.817 36.5115C214.734 38.6738 215.518 40.7797 216.995 42.3614C220.114 45.6898 225.331 45.8856 228.69 42.8003Z" fill="#DFDFDF"/>
<path d="M198.765 19.0497C199.708 19.0587 200.614 18.6867 201.279 18.0179C201.944 17.3491 202.311 16.4402 202.296 15.4973C202.31 14.5564 201.942 13.65 201.277 12.9845C200.612 12.319 199.706 11.9512 198.765 11.9649C197.824 11.9515 196.918 12.3194 196.253 12.9849C195.588 13.6503 195.22 14.5566 195.234 15.4973C195.22 16.44 195.586 17.3487 196.251 18.0175C196.915 18.6863 197.822 19.0585 198.765 19.0497Z" fill="#DFDFDF"/>
<path d="M114.756 118.423V144.313C114.83 146.597 116.665 148.431 118.949 148.504C125.294 148.524 130.538 143.561 130.867 137.224L131.97 114.651" fill="#DFDFDF"/>
<path d="M114.756 118.423V144.313C114.83 146.597 116.665 148.431 118.949 148.504C125.294 148.524 130.538 143.561 130.867 137.224L131.97 114.651" fill="#DFDFDF"/>
<path d="M114.756 118.423V144.313C114.83 146.597 116.665 148.431 118.949 148.504C125.294 148.524 130.538 143.561 130.867 137.224L131.97 114.651" stroke="#1C3754"/>
<path d="M123.143 122.174L132.411 168.857C132.855 171.1 135.014 172.574 137.265 172.17C143.496 170.886 147.653 164.976 146.755 158.678L141.238 122.613" fill="#DFDFDF"/>
<path d="M123.143 122.174L132.411 168.857C132.855 171.1 135.014 172.574 137.265 172.17C143.496 170.886 147.653 164.976 146.755 158.678L141.238 122.613" fill="#DFDFDF"/>
<path d="M123.143 122.174L132.411 168.857C132.855 171.1 135.014 172.574 137.265 172.17C143.496 170.886 147.653 164.976 146.755 158.678L141.238 122.613" stroke="#1C3754"/>
<path d="M11.0386 93.4153L135.282 131.476C137.919 132.309 140.779 132.051 143.226 130.762C145.672 129.472 147.5 127.257 148.303 124.611L170.593 51.6028C171.431 48.9648 171.18 46.101 169.895 43.6493C168.61 41.1976 166.398 39.3617 163.751 38.5505L39.2858 0.487769C36.6486 -0.353056 33.7843 -0.0994552 31.3359 1.19163C28.8875 2.48271 27.0603 4.70307 26.2645 7.35414L3.97887 80.362C2.37509 85.9107 5.51717 91.7203 11.0386 93.4153Z" fill="#DFDFDF"/>
<path d="M144.106 113.992H143.444L99.97 100.72C98.8855 100.322 98.2368 99.2098 98.4248 98.0701C98.8117 96.9758 99.9286 96.3175 101.073 96.5088L144.547 109.782C145.634 110.18 146.283 111.295 146.093 112.436C145.847 113.337 145.04 113.97 144.106 113.992Z" fill="#DFDFDF"/>
<path d="M139.032 97.8455H138.369L86.7301 81.8981C85.6406 81.5042 84.9897 80.3865 85.1848 79.2446C85.5825 78.1623 86.6943 77.5166 87.8314 77.7073L139.472 93.6337C140.559 94.0316 141.208 95.1469 141.018 96.2882C140.766 97.1849 139.962 97.815 139.032 97.8455Z" fill="#DFDFDF"/>
<path d="M161.541 83.6749C177.21 87.2274 196.188 91.6386 206.782 94.0737C211.813 95.2233 215.801 99.0524 217.153 104.033C219.141 111.337 222.009 121.955 223.554 129.919C226.202 143.192 226.202 154.707 235.249 168.418C236.133 169.755 237.235 171.292 238.119 172.627C240.038 175.37 239.948 179.042 237.898 181.688C237.898 181.688 219.14 199.391 210.532 207.574C207.876 210.05 203.88 210.411 200.823 208.452C192.217 203.141 175.224 192.526 169.927 187.895C162.525 181.483 156.58 173.562 152.491 164.663C148.082 155.363 145.649 148.277 129.982 132.79C122.258 125.265 116.519 118.42 112.327 113.549C108.495 108.88 108.878 102.054 113.209 97.8426C115.428 95.6096 118.447 94.3539 121.595 94.3539C124.744 94.3539 127.762 95.6096 129.982 97.8426L168.823 136.565C168.823 136.565 163.085 130.358 165.293 114.211L153.817 108.463" fill="#DFDFDF"/>
<path d="M161.541 83.6749C177.21 87.2274 196.188 91.6386 206.782 94.0737C211.813 95.2233 215.801 99.0524 217.153 104.033C219.141 111.337 222.009 121.955 223.554 129.919C226.202 143.192 226.202 154.707 235.249 168.418C236.133 169.755 237.235 171.292 238.119 172.627C240.038 175.37 239.948 179.042 237.898 181.688C237.898 181.688 219.14 199.391 210.532 207.574C207.876 210.05 203.88 210.411 200.823 208.452C192.217 203.141 175.224 192.526 169.927 187.895C162.525 181.483 156.58 173.562 152.491 164.663C148.082 155.363 145.649 148.277 129.982 132.79C122.258 125.265 116.519 118.42 112.327 113.549C108.495 108.88 108.878 102.054 113.209 97.8426C115.428 95.6096 118.447 94.3539 121.595 94.3539C124.744 94.3539 127.762 95.6096 129.982 97.8426L168.823 136.565C168.823 136.565 163.085 130.358 165.293 114.211L153.817 108.463" fill="#DFDFDF"/>
<path d="M161.541 83.6749C177.21 87.2274 196.188 91.6386 206.782 94.0737C211.813 95.2233 215.801 99.0524 217.153 104.033C219.141 111.337 222.009 121.955 223.554 129.919C226.202 143.192 226.202 154.707 235.249 168.418C236.133 169.755 237.235 171.292 238.119 172.627C240.038 175.37 239.948 179.042 237.898 181.688C237.898 181.688 219.14 199.391 210.532 207.574C207.876 210.05 203.88 210.411 200.823 208.452C192.217 203.141 175.224 192.526 169.927 187.895C162.525 181.483 156.58 173.562 152.491 164.663C148.082 155.363 145.649 148.277 129.982 132.79C122.258 125.265 116.519 118.42 112.327 113.549C108.495 108.88 108.878 102.054 113.209 97.8426C115.428 95.6096 118.447 94.3539 121.595 94.3539C124.744 94.3539 127.762 95.6096 129.982 97.8426L168.823 136.565C168.823 136.565 163.085 130.358 165.293 114.211L153.817 108.463" stroke="#1C3754" stroke-linecap="round" stroke-linejoin="round"/>
<path d="M173.016 140.097C171.453 138.786 170.047 137.299 168.823 135.667L173.016 140.097Z" fill="#DFDFDF"/>
<path d="M173.016 140.097C171.453 138.786 170.047 137.299 168.823 135.667L173.016 140.097Z" fill="#DFDFDF"/>
<path d="M173.016 140.097C171.453 138.786 170.047 137.299 168.823 135.667" stroke="#1C3754" stroke-linecap="round" stroke-linejoin="round"/>
<path d="M115.644 111.158C116.528 112.235 117.632 113.532 118.737 114.83C119.195 115.378 119.86 115.711 120.573 115.749C121.285 115.787 121.982 115.526 122.495 115.031L130.9 107.485C131.426 107.024 131.728 106.358 131.728 105.659C131.728 104.959 131.426 104.293 130.9 103.832L127.582 100.16C126.035 98.6709 123.981 97.8224 121.834 97.7855C119.566 97.7604 117.396 98.7043 115.868 100.38C113.151 103.428 113.056 107.999 115.644 111.158Z" fill="#DFDFDF"/>
<path d="M61.7922 73.4965C62.1731 73.53 62.5555 73.4538 62.8945 73.277C64.2803 72.7114 64.9649 71.1462 64.4397 69.7446C63.2651 66.6929 63.1868 63.3278 64.2183 60.2247C65.2759 57.1668 67.2877 54.5293 69.9573 52.701C71.175 51.8651 71.557 50.24 70.8391 48.9491C70.0107 47.7236 68.3837 47.3332 67.0893 48.0492C63.2709 50.5421 60.4566 54.3045 59.1437 58.6715C57.7405 63.0185 57.8964 67.7188 59.5846 71.9633C59.8842 72.9184 60.7926 73.5493 61.7922 73.4965Z" fill="#DFDFDF"/>
<path d="M50.757 79.2448C51.1378 79.2787 51.5204 79.2025 51.8593 79.0253C53.2513 78.3463 53.841 76.676 53.184 75.2734C50.513 69.2789 50.121 62.5156 52.0817 56.2526C54.0702 49.9993 58.3199 44.7126 63.9997 41.4266C64.6371 41.0615 65.0942 40.4479 65.2614 39.7325C65.4286 39.0172 65.291 38.2646 64.8815 37.6547C64.5196 37.0194 63.9096 36.5634 63.1978 36.3961C62.486 36.2288 61.7367 36.3653 61.1297 36.7728C46.9643 45.0814 41.3482 62.7372 48.1104 77.7025C48.5824 78.7203 49.6388 79.3359 50.757 79.2448Z" fill="#DFDFDF"/>
<path d="M40.1659 84.7923C40.5477 84.8493 40.9374 84.7717 41.2682 84.5729C42.6582 83.8816 43.2448 82.209 42.591 80.801C38.6011 71.9608 37.9744 61.9685 40.8283 52.6991C43.7548 43.4435 50.0566 35.6278 58.4812 30.8053C59.7945 30.0421 60.2791 28.3836 59.5835 27.0334C58.8268 25.7262 57.1779 25.2422 55.8347 25.9331C46.1924 31.3994 39.0071 40.348 35.7527 50.9435C32.4208 61.5117 33.1285 72.9402 37.7388 83.0166C38.141 84.0245 39.0835 84.7141 40.1659 84.7923Z" fill="#DFDFDF"/>
<path d="M151.514 63.5176C153.206 58.0444 150.141 52.2355 144.669 50.5421C139.196 48.8487 133.386 51.9118 131.692 57.3843C129.997 62.8567 133.059 68.667 138.531 70.3629C144.005 72.0481 149.811 68.9869 151.514 63.5176Z" fill="#DFDFDF"/>
<path d="M128.44 66.6504C132.648 66.6609 136.448 64.134 138.066 60.2489C139.683 56.3639 138.8 51.8868 135.828 48.9075C132.855 45.9281 128.381 45.0339 124.492 46.6422C120.603 48.2505 118.067 52.0443 118.067 56.2526C118.065 61.9863 122.706 66.6388 128.44 66.6504Z" fill="#DFDFDF"/>
</svg>
