<svg width="36" height="36" viewBox="0 0 36 36" fill="none" xmlns="http://www.w3.org/2000/svg">
<path fill-rule="evenodd" clip-rule="evenodd" d="M11.1695 0.013159C10.0363 -0.107522 8.9833 0.613103 8.68551 1.71315L7.64352 5.66512C20.8354 6.05112 29.7594 14.8491 30.3174 27.954L34.3173 26.844C35.4181 26.5279 36.1235 25.456 35.9783 24.32C34.3595 11.4383 24.0816 1.36839 11.1695 0.013159ZM7.05752 7.88811L0.0375697 34.5699C-0.0662614 34.9644 0.0486295 35.3844 0.33884 35.6711C0.629051 35.9578 1.05034 36.0675 1.44356 35.9589L28.0914 28.569C27.7914 16.269 19.4374 8.0281 7.05752 7.89011V7.88811ZM6.74852 27.002C6.74852 28.2446 7.75588 29.252 8.99851 29.252C10.2411 29.252 11.2485 28.2446 11.2485 27.002C11.2485 25.7593 10.2411 24.752 8.99851 24.752C7.75588 24.752 6.74852 25.7593 6.74852 27.002ZM12.3735 18.565C11.1309 18.565 10.1235 17.5577 10.1235 16.315C10.1235 15.0724 11.1309 14.0651 12.3735 14.0651C13.6161 14.0651 14.6235 15.0724 14.6235 16.315C14.6235 17.5577 13.6161 18.565 12.3735 18.565ZM17.4365 23.628C17.4365 24.8706 18.4438 25.878 19.6864 25.878V25.877C20.9287 25.877 21.9359 24.8702 21.9364 23.628C21.9364 22.3854 20.9291 21.378 19.6864 21.378C18.4438 21.378 17.4365 22.3854 17.4365 23.628Z" fill="white"/>
</svg>
