<svg width="33" height="33" viewBox="0 0 33 33" fill="none" xmlns="http://www.w3.org/2000/svg">
<circle opacity="0.14" cx="16.5" cy="16.5" r="16.5" fill="#1DBF73"/>
<circle cx="16.5" cy="16.5" r="13.5" fill="#1DBF73"/>
<path fill-rule="evenodd" clip-rule="evenodd" d="M23.314 13.3649C23.3133 13.241 23.2787 13.1196 23.214 13.0139L21.371 9.93688C21.1236 9.52788 20.681 9.27737 20.203 9.27588H12.797C12.319 9.27717 11.8762 9.52773 11.629 9.93688L9.78701 13.0139C9.72232 13.1196 9.68774 13.241 9.68701 13.3649C9.68977 14.0225 9.93184 14.6567 10.368 15.1489V21.5429C10.368 21.919 10.6729 22.2239 11.049 22.2239H16.5C16.8761 22.2239 17.181 21.919 17.181 21.5429V18.1349H19.907V21.5419C19.907 21.918 20.2119 22.2229 20.588 22.2229H21.951C22.3271 22.2229 22.632 21.918 22.632 21.5419V15.1489C23.0685 14.6568 23.311 14.0227 23.314 13.3649ZM21.94 13.5359L21.9396 13.5394L20.203 10.6419H18.694L19.213 13.2339H19.199C19.2123 13.2765 19.221 13.3204 19.225 13.3649C19.226 14.0837 19.785 14.6782 20.5023 14.7234C21.2185 14.7685 21.8468 14.2506 21.9396 13.5394L21.941 13.5419L21.94 13.5359ZM15.694 10.6389L15.14 13.4089C15.16 14.1448 15.7623 14.731 16.4985 14.731C17.2347 14.731 17.837 14.1448 17.857 13.4089L17.303 10.6389H15.694ZM12.797 10.6389H14.306L13.787 13.2309H13.801C13.787 13.2734 13.7779 13.3173 13.774 13.3619C13.7731 14.0807 13.2141 14.6752 12.4967 14.7204C11.7793 14.7656 11.1501 14.2459 11.059 13.5329L12.797 10.6389ZM12.411 16.7759V18.8169H15.137V16.7759H12.411Z" fill="white"/>
</svg>
