<svg width="61" height="51" viewBox="0 0 61 51" fill="none" xmlns="http://www.w3.org/2000/svg">
<path fill-rule="evenodd" clip-rule="evenodd" d="M21.1746 23.7789C24.1246 27.3353 26.262 31.4931 27.4374 35.9617C27.8137 37.5492 27.9032 39.1912 27.7015 40.8102L47.4776 36.7782C49.493 36.3638 51.5906 36.7522 53.3241 37.8608L54.3452 35.5666C55.8633 32.1889 56.6532 28.5294 56.6636 24.8262C56.6602 22.5166 56.1209 20.2392 55.0881 18.1734C53.4495 14.8834 50.4103 12.5115 46.8208 11.7212C43.2313 10.931 39.477 11.8073 36.6083 14.1051L35.2908 15.1604V13.6555C35.2782 9.0983 37.0894 4.72552 40.3208 1.51201L38.8087 0C35.1751 3.61351 33.1387 8.53096 33.1538 13.6555V15.1615L31.8333 14.1041C29.6758 12.3839 26.9993 11.4452 24.24 11.4409C19.6228 11.4214 15.3981 14.0345 13.3535 18.1744C13.3386 18.2031 13.3246 18.2334 13.3104 18.2645L13.3104 18.2645L13.3103 18.2645L13.3103 18.2646C13.2996 18.288 13.2886 18.3118 13.2769 18.3357C15.9814 18.9697 18.6546 20.7942 21.1746 23.7789ZM2.66459 29.1032C1.67013 33.2713 1.60131 37.6066 2.46299 41.8041H2.464C2.78593 43.1664 3.35144 44.4593 4.13326 45.6204L6.43454 45.1517C3.57069 41.6076 3.58798 36.5399 6.47593 33.0154C9.36388 29.4909 14.3293 28.4777 18.3672 30.5888C22.4052 32.7 24.4067 37.3558 23.1604 41.7386L25.4506 41.2709C25.7604 39.672 25.7299 38.0258 25.3609 36.4395C24.2677 32.2969 22.2815 28.4436 19.5417 25.1498C17.2575 22.4463 13.665 19.4263 9.53114 20.3991C5.3973 21.3718 3.51333 25.6659 2.66459 29.1032ZM1.05077 48.4378C0.394135 48.5583 -0.0601314 49.1626 0.00647345 49.8269C0.0698146 50.4837 0.621714 50.985 1.2816 50.9851H48.4796C50.0221 50.99 51.5024 50.3772 52.5902 49.2835L53.189 48.6787C54.2829 47.5914 54.896 46.1114 54.8915 44.5691C54.8915 44.4728 54.8795 44.3812 54.8675 44.2897C54.8595 44.229 54.8516 44.1684 54.8472 44.1064C54.8716 44.15 54.8993 44.1918 54.9298 44.2314L58.9316 48.5064L60.491 47.0447L57.7865 44.1588L61 43.4784L60.5595 41.3858L58.102 41.9049L59.5233 39.8314L57.7593 38.6218L54.8341 42.8938C54.7788 42.979 54.7361 43.0716 54.707 43.169C54.0834 40.5739 51.7584 38.7474 49.0894 38.7559C48.6974 38.7562 48.3063 38.7957 47.9221 38.8738L47.8153 38.897C47.9651 40.1917 47.8748 41.5028 47.5492 42.7647L47.4423 43.1679L45.3759 42.6277L45.4818 42.2245C45.7269 41.2793 45.8063 40.2988 45.7166 39.3264L39.5678 40.5794C39.7726 42.1965 39.5973 43.8391 39.0557 45.3765L37.0397 44.6578C37.4532 43.4877 37.6013 42.2402 37.4731 41.0058L32.2567 42.0743C32.3555 43.5067 32.1607 44.9443 31.6841 46.2988L29.6681 45.5811C30.0174 44.594 30.1784 43.5502 30.1429 42.5037L24.9164 43.5722C24.9345 44.8142 24.7325 46.0496 24.3196 47.2212L22.3036 46.4914C22.5853 45.6897 22.7427 44.8498 22.7703 44.0006L17.5458 45.0691C17.5045 46.1147 17.3043 47.148 16.9521 48.1334L14.9361 47.4117C15.1536 46.7985 15.2975 46.1617 15.3645 45.5146L1.05077 48.4378ZM6.6301 40.8294C5.88049 37.6446 7.28762 34.3422 10.1039 32.6767C12.9201 31.0113 16.4919 31.3693 18.9215 33.5606C21.3512 35.7519 22.0748 39.2679 20.7079 42.2406L8.90819 44.6548C7.77052 43.6467 6.97441 42.3099 6.6301 40.8294ZM4.29656 8.23442V3.95946H8.56849C12.8803 3.94423 16.7756 6.53126 18.4339 10.5115C17.0868 11.1078 15.8413 11.9112 14.7425 12.8924L12.8435 10.9943V6.0924H10.7065V8.85636L7.19055 5.3374L5.67854 6.84942L9.19749 10.3684H6.43555V12.4993H11.3395L13.2628 14.4226C12.5532 15.2765 11.9444 16.2094 11.4484 17.2027C11.3093 17.4748 11.1762 17.7692 11.0452 18.0776H10.8597C6.87603 16.4339 4.28231 12.5439 4.29656 8.23442ZM26.2762 0.830599C30.0861 1.352 33.082 4.34788 33.6034 8.15781C29.7935 7.63641 26.7976 4.64053 26.2762 0.830599Z" fill="#1DBF73"/>
</svg>
