<svg width="231" height="300" viewBox="0 0 231 300" fill="none" xmlns="http://www.w3.org/2000/svg">
<path d="M58.7971 260.817L61.1672 126.436L83.3946 118.069L151.148 118.433L171.001 126.433L175.287 260.814L58.7971 260.817Z" fill="#DFDFDF"/>
<path d="M81.3753 260.817V146.61C81.3753 144.802 82.0938 143.067 83.3727 141.788C84.6516 140.509 86.3861 139.791 88.1948 139.791H159.445" stroke="#DFDFDF" stroke-width="2" stroke-linecap="round" stroke-linejoin="round"/>
<path d="M83.3945 118.067C83.3945 118.067 102.482 113.828 103.096 99.5184H134.913C134.913 99.5184 133.799 113.828 151.151 118.428C151.148 118.428 123.787 145.795 83.3945 118.067Z" fill="#DFDFDF"/>
<path d="M135.308 103.616C134.99 102.273 134.855 100.894 134.908 99.5154H108.384L103.078 99.7404C102.994 101.293 102.673 102.824 102.126 104.28C104.244 108.843 108.826 115.788 117.91 115.808C127.901 115.839 133.042 108.945 135.308 103.616Z" fill="#DFDFDF"/>
<path d="M137.83 81.6843C137.83 81.6843 140.441 74.7189 145.874 76.548C151.308 78.3771 148.45 87.7487 145.412 90.6368C142.374 93.525 137.512 91.9679 137.088 89.0567C136.664 86.1456 137.83 81.6843 137.83 81.6843Z" fill="#DFDFDF"/>
<path d="M146.328 80.9252C146.328 80.9252 142.528 81.5893 141.267 87.3096" stroke="#DFDFDF" stroke-width="2" stroke-linecap="round" stroke-linejoin="round"/>
<path d="M97.1484 81.6833C97.1484 81.6833 94.5173 74.7259 89.0929 76.547C83.6686 78.3681 86.5448 87.7637 89.587 90.6358C92.6292 93.508 97.4875 91.9479 97.9075 89.0357C98.3275 86.1236 97.1484 81.6833 97.1484 81.6833Z" fill="#DFDFDF"/>
<path d="M88.6459 80.9372C88.6459 80.9372 92.4462 81.5893 93.7232 87.3096" stroke="#DFDFDF" stroke-width="2" stroke-linecap="round" stroke-linejoin="round"/>
<path d="M89.9099 57.9788C89.9099 57.9788 92.5251 94.5991 105.263 106.575C116.101 116.744 134.965 112.575 139.086 91.7589C143.207 70.9426 144.159 58.9039 144.159 58.9039L89.9099 57.9788Z" fill="#DFDFDF"/>
<path d="M93.6632 81.6563L94.4022 66.5364C94.4022 66.5364 101.328 66.4413 106.65 58.2748C106.65 58.2748 119.099 67.8834 140.679 68.1525L140.979 81.4633C140.979 81.4633 142.954 70.3736 145.514 57.1698C147.296 47.9402 138.134 32.3263 121.513 34.3814C107.29 36.1435 105.312 44.882 105.312 44.882C105.312 44.882 99.5515 41.7818 92.3531 46.8571C85.7237 51.5314 88.6589 63.3242 88.6589 63.3242L93.6632 81.6563Z" fill="#DFDFDF"/>
<path d="M141.271 50.2944C141.271 50.2944 158.939 47.8842 163.834 40.2507C170.093 30.4921 159.623 21.8356 148.934 21.2076C138.244 20.5795 133.464 11.414 122.228 3.92252C109.767 -4.37799 85.4457 0.280294 85.5917 19.9515C85.7377 39.6227 72.6129 33.1353 65.7185 41.0888C58.824 49.0423 76.8401 56.1337 141.271 50.2944Z" fill="#DFDFDF"/>
<path d="M144.4 63.5772L147.454 47.7502C148.058 44.6423 146.703 41.4811 144.037 39.7737C135.737 34.4634 116.089 25.7999 89.6849 39.7147C86.6975 41.303 85.095 44.6537 85.7337 47.9762L88.6499 63.3332C88.6499 63.3332 111.276 45.5451 144.4 63.5772Z" fill="#DFDFDF"/>
<path d="M92.02 38.5326C92.02 38.5326 115.721 24.1908 141.971 38.5326" stroke="#DFDFDF" stroke-width="2" stroke-linecap="round" stroke-linejoin="round"/>
<circle cx="106.496" cy="83.0984" r="1.83711" fill="#DFDFDF"/>
<circle cx="128.775" cy="83.0984" r="1.83711" fill="#DFDFDF"/>
<path d="M115.667 86.6866C115.667 86.6866 115.014 92.5419 115.026 95.1491C115.026 97.3692 118.127 97.8493 120.254 97.3222" stroke="#DFDFDF" stroke-width="2" stroke-linecap="round" stroke-linejoin="round"/>
<path d="M123.915 71.0406C123.915 71.0406 129.553 66.2563 134.263 72.3757C130.893 71.4479 127.41 70.9985 123.915 71.0406Z" fill="#DFDFDF"/>
<path d="M111.348 71.0406C111.348 71.0406 105.714 66.2763 101.001 72.3757C104.37 71.4479 107.853 70.9985 111.348 71.0406Z" fill="#DFDFDF"/>
<path d="M127.902 101.521C130.024 99.9106 131.553 97.6419 132.249 95.0701" stroke="#DFDFDF" stroke-width="2" stroke-linecap="round" stroke-linejoin="round"/>
<path d="M106.65 58.2758C106.65 58.2758 126.937 72.3767 148.925 66.8134" stroke="#DFDFDF" stroke-width="2" stroke-linecap="round" stroke-linejoin="round"/>
<path d="M166.748 248.308C166.748 248.308 160.031 256.917 157.107 258.442C154.183 259.967 148.699 260.093 146.593 264.735C144.487 269.378 136.641 289.788 136.914 291.503C137.187 293.218 140.142 292.123 142.88 288.157C145.618 284.191 150.016 273.586 151.288 273.199C152.56 272.812 141.975 297.192 142.702 299.161C143.429 301.129 146.653 299.584 148.903 295.075C151.152 290.567 156.935 277.111 158.076 276.874C159.217 276.637 158.55 278.454 156.697 283.488C154.271 290.088 151.431 296.217 151.806 297.347C152.181 298.478 155.717 297.347 158.969 290.547C162.339 283.495 163.069 280.306 163.797 280.393C164.525 280.48 160.032 291.194 160.297 292.759C160.562 294.324 164.003 294.071 166.67 287.228C169.336 280.384 170.486 276.527 171.838 275.264C173.19 274.001 182.221 265.364 182.221 265.364L166.748 248.308Z" fill="#DFDFDF"/>
<path d="M163.175 252.627C163.175 252.627 171.366 257.791 177.695 269.675L182.216 265.357C182.216 265.357 167.743 251.991 163.175 252.627Z" fill="#DFDFDF"/>
<path d="M161.5 251.462L193.147 209.869L165.19 168.383L163.4 123.564C163.4 123.564 182.531 129.095 193.427 144.231C200.353 153.848 226.129 199.017 228.629 205.521C231.13 212.024 231.099 220.396 221.49 230.498C211.881 240.601 181.408 268.561 181.408 268.561C176.561 261.06 169.647 255.122 161.5 251.462H161.5Z" fill="#DFDFDF"/>
<path d="M181.262 225.485L161.5 251.462" stroke="#DFDFDF" stroke-width="2" stroke-linecap="round" stroke-linejoin="round"/>
<path d="M83.3945 118.069L92.8951 113.904C92.8951 113.904 103.104 120.949 114.162 122.359C115.821 122.583 117.17 123.807 117.553 125.437L118.753 130.486C118.753 130.486 102.406 132.39 83.3945 118.069Z" fill="#DFDFDF"/>
<path d="M118.751 130.486L120.726 124.856C121.218 123.443 122.448 122.415 123.926 122.181C128.126 121.509 137.008 119.597 143.327 114.769L151.153 118.43C151.153 118.43 142.152 130.675 118.751 130.486Z" fill="#DFDFDF"/>
<path d="M89.5699 122.236C89.5699 122.236 118.772 140.675 145.7 122.636" stroke="#DFDFDF" stroke-width="2" stroke-linecap="round" stroke-linejoin="round"/>
<path d="M76.9432 245.91C80.3945 247.503 83.9523 248.853 87.5908 249.953C91.9171 251.079 94.2082 259.166 95.5993 262.413C96.9904 265.661 92.3991 265.123 87.9579 263.029C83.5166 260.935 76.9432 245.91 76.9432 245.91Z" fill="#DFDFDF"/>
<path d="M87.4288 258.004L135.132 295.652L127.518 297.514C122.292 298.789 116.77 297.579 112.556 294.234L79.3493 267.953L87.4288 258.004Z" fill="#DFDFDF"/>
<path d="M66.7185 236.851C66.7185 236.851 82.8775 250.893 86.0067 254.571C89.1359 258.249 98.0964 277.237 97.9934 280.065C97.8904 282.894 92.4071 278.665 88.1158 272.78L83.8405 266.897C84.6818 268.759 85.3535 270.694 85.8477 272.677C86.3377 275.107 83.6905 275.92 81.7194 275.194C80.4986 274.71 79.4787 273.825 78.8272 272.685C78.8272 272.685 78.0172 273.902 74.991 273.179C73.202 272.848 71.7941 271.462 71.4348 269.679C71.4348 269.679 70.6797 272.602 68.3966 271.698C63.4183 269.723 64.3823 263.748 58.996 260.011C53.6097 256.274 45.7882 248.811 45.7882 248.811L66.7185 236.851Z" fill="#DFDFDF"/>
<path d="M68.6306 238.534C68.6306 238.534 62.0642 243.934 56.7229 258.32L50.6065 253.22C50.6065 253.22 63.3603 238.498 68.6306 238.534Z" fill="#DFDFDF"/>
<path d="M69.7367 238.242L36.7827 208.377L67.7216 169.084C67.7216 169.084 89.1469 141.823 74.379 129.045C64.8964 120.836 49.9235 129.499 41.2309 142.364C34.5975 152.182 9.20098 190.616 3.89566 197.988C-1.63568 205.645 -2.37472 220.181 8.99597 228.252C19.2686 235.538 52.7797 256.699 52.7797 256.699C52.7797 256.699 59.2551 242.588 69.7367 238.242Z" fill="#DFDFDF"/>
<path d="M120.047 286.505L124.262 289.737" stroke="#DFDFDF" stroke-width="2" stroke-linecap="round" stroke-linejoin="round"/>
<path d="M101.569 272.345L116.831 284.044" stroke="#DFDFDF" stroke-width="2" stroke-linecap="round" stroke-linejoin="round"/>
<path d="M60.0572 198.46L60.5352 162.369" stroke="#DFDFDF" stroke-width="2" stroke-linecap="round" stroke-linejoin="round"/>
<path fill-rule="evenodd" clip-rule="evenodd" d="M98.3427 161.216C99.06 159.487 100.748 158.361 102.62 158.363C105.173 158.365 107.242 160.436 107.242 162.989C107.242 164.861 106.114 166.548 104.385 167.264C102.656 167.98 100.666 167.583 99.343 166.259C98.0202 164.935 97.6254 162.945 98.3427 161.216ZM106.167 161.518C105.572 160.085 104.172 159.151 102.62 159.153C100.503 159.155 98.7875 160.872 98.7875 162.989C98.7875 164.541 99.7226 165.94 101.157 166.534C102.591 167.127 104.241 166.798 105.338 165.7C106.435 164.602 106.762 162.952 106.167 161.518Z" fill="#DFDFDF"/>
<path fill-rule="evenodd" clip-rule="evenodd" d="M132.719 161.216C133.436 159.487 135.124 158.361 136.996 158.363C139.549 158.365 141.618 160.436 141.618 162.989C141.618 164.861 140.491 166.548 138.761 167.264C137.032 167.98 135.042 167.583 133.719 166.259C132.396 164.935 132.002 162.945 132.719 161.216ZM140.832 162.989C140.832 160.871 139.115 159.153 136.996 159.153C134.877 159.153 133.16 160.871 133.16 162.989C133.16 165.108 134.877 166.825 136.996 166.825C139.115 166.825 140.832 165.108 140.832 162.989Z" fill="#DFDFDF"/>
<path fill-rule="evenodd" clip-rule="evenodd" d="M98.3493 197.466C99.0648 195.738 100.75 194.612 102.62 194.612C103.846 194.612 105.021 195.099 105.888 195.966C106.755 196.833 107.242 198.009 107.242 199.234C107.242 201.104 106.116 202.789 104.389 203.505C102.661 204.22 100.673 203.825 99.3513 202.503C98.0293 201.181 97.6339 199.193 98.3493 197.466ZM106.452 199.234C106.452 197.118 104.736 195.402 102.62 195.402C100.503 195.402 98.7875 197.118 98.7875 199.234C98.7875 201.351 100.503 203.067 102.62 203.067C104.736 203.067 106.452 201.351 106.452 199.234Z" fill="#DFDFDF"/>
<path fill-rule="evenodd" clip-rule="evenodd" d="M132.723 197.466C133.439 195.738 135.124 194.612 136.994 194.612C138.22 194.612 139.395 195.099 140.262 195.966C141.129 196.833 141.616 198.009 141.616 199.234C141.616 201.104 140.49 202.789 138.763 203.505C137.035 204.22 135.047 203.825 133.725 202.503C132.403 201.181 132.008 199.193 132.723 197.466ZM140.822 199.237C140.824 197.121 139.11 195.404 136.994 195.402C135.977 195.401 135.001 195.804 134.281 196.523C133.562 197.242 133.158 198.217 133.158 199.234C133.158 201.35 134.873 203.066 136.988 203.067C139.104 203.067 140.821 201.353 140.822 199.237Z" fill="#DFDFDF"/>
<path fill-rule="evenodd" clip-rule="evenodd" d="M98.3423 233.711C99.0594 231.982 100.748 230.856 102.62 230.857C105.172 230.86 107.24 232.928 107.242 235.48C107.244 237.352 106.117 239.04 104.388 239.757C102.659 240.474 100.668 240.079 99.3444 238.755C98.0208 237.431 97.6252 235.441 98.3423 233.711ZM106.167 234.014C105.572 232.58 104.172 231.646 102.62 231.647C100.504 231.65 98.7897 233.364 98.7875 235.48C98.7858 237.032 99.7199 238.432 101.154 239.027C102.588 239.622 104.239 239.294 105.336 238.196C106.434 237.099 106.762 235.448 106.167 234.014Z" fill="#DFDFDF"/>
<path fill-rule="evenodd" clip-rule="evenodd" d="M132.718 233.711C133.436 231.982 135.124 230.856 136.996 230.857C139.548 230.86 141.616 232.928 141.618 235.48C141.62 237.352 140.493 239.04 138.764 239.757C137.035 240.474 135.044 240.079 133.721 238.755C132.397 237.431 132.001 235.441 132.718 233.711ZM140.54 234.017C139.947 232.583 138.548 231.647 136.996 231.647C134.879 231.647 133.162 233.363 133.16 235.48C133.158 237.032 134.092 238.432 135.525 239.027C136.958 239.622 138.609 239.295 139.707 238.198C140.805 237.101 141.134 235.451 140.54 234.017Z" fill="#DFDFDF"/>
</svg>
