<svg width="13" height="20" viewBox="0 0 13 20" fill="none" xmlns="http://www.w3.org/2000/svg">
<path d="M3.62019 9.99636L11.5619 2.43567C11.8427 2.17529 12.0023 1.80966 12.0023 1.42671C12.0023 1.04376 11.8427 0.678129 11.5619 0.417751C10.9631 -0.13925 10.0358 -0.13925 9.43695 0.417751L0.437316 8.9854C0.166164 9.2387 0.00862487 9.59064 0.000343665 9.9616C-0.00793754 10.3326 0.133739 10.6912 0.393317 10.9563L9.42895 19.583C10.0281 20.139 10.9547 20.139 11.5539 19.583C11.8347 19.3226 11.9943 18.957 11.9943 18.574C11.9943 18.1911 11.8347 17.8254 11.5539 17.5651L3.62019 9.99636Z" fill="#262B2E"/>
</svg>
