<svg width="16" height="16" viewBox="0 0 16 16" fill="none" xmlns="http://www.w3.org/2000/svg">
<path fill-rule="evenodd" clip-rule="evenodd" d="M3.62918e-06 8.00534C-0.00294046 3.5881 3.57477 0.00442523 7.992 7.99647e-06C10.1151 -0.00211512 12.152 0.839802 13.654 2.34032C15.1561 3.84084 16 5.87689 16 8.00001C16 12.4172 12.4199 15.9985 8.00267 16C3.58543 16.0015 0.00294772 12.4226 3.62918e-06 8.00534ZM1.6 8.00001C1.6 11.5346 4.46538 14.4 8 14.4C9.69739 14.4 11.3253 13.7257 12.5255 12.5255C13.7257 11.3253 14.4 9.69739 14.4 8.00001C14.4 4.46539 11.5346 1.60001 8 1.60001C4.46538 1.60001 1.6 4.46539 1.6 8.00001Z" fill="#262B2E"/>
<path d="M7.26293 4H6.00293V9.041L10.4139 11.687L11.0439 10.653L7.26293 8.412V4Z" fill="#262B2E"/>
</svg>
