<svg width="363" height="294" viewBox="0 0 363 294" fill="none" xmlns="http://www.w3.org/2000/svg">
<path opacity="0.15" d="M13.5245 57.8625C-5.66472 88.7309 22.7356 211.414 44.8359 255.067C70.7513 306.246 301.484 303.597 321.677 263.367C346.718 213.48 373.402 85.9279 346.907 46.2383C312.739 -4.89631 67.8482 -29.5026 13.5245 57.8625Z" fill="#DFDFDF"/>
<path d="M330.343 10.0029L331.074 12.4399C331.166 12.7439 331.382 12.9952 331.669 13.1329L333.969 14.2209C334.377 14.4293 334.62 14.8627 334.586 15.3199C334.551 15.7771 334.245 16.1687 333.81 16.313L331.373 17.041C331.069 17.1337 330.817 17.3495 330.68 17.636L329.592 19.936C329.382 20.3418 328.95 20.5829 328.495 20.5482C328.04 20.5135 327.649 20.2098 327.504 19.777L326.776 17.34C326.682 17.0371 326.466 16.787 326.181 16.65L323.881 15.559C323.475 15.3495 323.234 14.9176 323.268 14.4623C323.303 14.0069 323.607 13.6165 324.04 13.4709L326.477 12.7429C326.781 12.6502 327.032 12.4344 327.17 12.1479L328.258 9.84788C328.467 9.4421 328.899 9.201 329.354 9.23567C329.81 9.27034 330.2 9.57406 330.346 10.0069L330.343 10.0029Z" fill="#DFDFDF"/>
<path d="M59.1552 21.712C59.1552 21.712 104.832 149.875 165.886 173.941C226.939 198.007 251.593 141.455 284.166 116.824C323.106 87.3469 359.4 104.785 359.4 104.785" stroke="#DFDFDF"/>
<path d="M96.1277 8.70787C96.1277 8.70787 114.228 72.9367 160.668 74.8587C217.306 77.2007 244.844 5.01783 244.844 5.01783" stroke="#DFDFDF"/>
<path d="M12.6715 143.858C12.6715 143.858 37.9049 235.025 136.273 234.931C234.641 234.837 264.364 187.158 298.263 184.275C328.49 181.718 338.426 220.019 338.426 220.019" stroke="#DFDFDF"/>
<path d="M32.7318 65.6236L34.4318 70.0537C34.6452 70.6047 35.0808 71.0403 35.6318 71.2537L40.0619 72.9537C40.8668 73.2688 41.3964 74.0449 41.3964 74.9092C41.3964 75.7736 40.8668 76.5497 40.0619 76.8647L35.6318 78.5648C35.0803 78.7773 34.6443 79.2132 34.4318 79.7648L32.7318 84.1978C32.4217 85.007 31.6449 85.5413 30.7783 85.5413C29.9117 85.5413 29.1348 85.007 28.8248 84.1978L27.1247 79.7648C26.9122 79.2132 26.4763 78.7773 25.9247 78.5648L21.4947 76.8647C20.6898 76.5497 20.1602 75.7736 20.1602 74.9092C20.1602 74.0449 20.6898 73.2688 21.4947 72.9537L25.9247 71.2537C26.4757 71.0403 26.9114 70.6047 27.1247 70.0537L28.8248 65.6236C29.1348 64.8144 29.9117 64.2801 30.7783 64.2801C31.6449 64.2801 32.4217 64.8144 32.7318 65.6236Z" fill="#DFDFDF"/>
<path d="M321.308 147.583L322.445 150.561C322.589 150.932 322.884 151.226 323.256 151.368L326.231 152.505C326.775 152.713 327.135 153.235 327.135 153.818C327.135 154.4 326.775 154.922 326.231 155.131L323.256 156.268C322.885 156.411 322.59 156.704 322.445 157.075L321.308 160.053C321.098 160.596 320.576 160.954 319.993 160.954C319.411 160.954 318.889 160.596 318.678 160.053L317.541 157.075C317.396 156.704 317.102 156.411 316.73 156.268L313.755 155.131C313.211 154.922 312.852 154.4 312.852 153.818C312.852 153.235 313.211 152.713 313.755 152.505L316.73 151.368C317.103 151.226 317.398 150.932 317.541 150.561L318.678 147.583C318.889 147.039 319.411 146.681 319.993 146.681C320.576 146.681 321.098 147.039 321.308 147.583Z" fill="#DFDFDF"/>
<path d="M227.019 8.10186L227.883 10.3489C227.99 10.6299 228.212 10.8519 228.493 10.9589L230.736 11.8229C231.147 11.98 231.418 12.3742 231.418 12.8139C231.418 13.2537 231.147 13.6479 230.736 13.8049L228.493 14.6649C228.213 14.7731 227.992 14.9947 227.883 15.275L227.019 17.522C226.862 17.9327 226.468 18.204 226.028 18.204C225.589 18.204 225.194 17.9327 225.037 17.522L224.177 15.271C224.068 14.9912 223.847 14.77 223.567 14.6609L221.32 13.8009C220.91 13.6439 220.638 13.2497 220.638 12.8099C220.638 12.3702 220.91 11.976 221.32 11.8189L223.567 10.9549C223.848 10.8467 224.069 10.6252 224.177 10.3449L225.037 8.09786C225.194 7.68712 225.589 7.41585 226.028 7.41585C226.468 7.41585 226.862 7.68712 227.019 8.09786V8.10186Z" fill="#DFDFDF"/>
<path d="M13.4056 213.702L15.2056 218.409C15.4337 218.996 15.8988 219.459 16.4866 219.686L21.1927 221.493C22.0629 221.817 22.6401 222.648 22.6401 223.577C22.6401 224.505 22.0629 225.336 21.1927 225.661L16.4866 227.461C15.8975 227.69 15.4323 228.157 15.2056 228.747L13.4056 233.453C13.0812 234.323 12.2503 234.9 11.3215 234.9C10.3928 234.9 9.56182 234.323 9.23751 233.453L7.43049 228.747C7.20509 228.158 6.74112 227.693 6.15347 227.466L1.44741 225.666C0.577124 225.341 0 224.51 0 223.582C0 222.653 0.577124 221.822 1.44741 221.498L6.15347 219.691C6.7408 219.465 7.2049 219.001 7.43049 218.414L9.23751 213.707C9.56182 212.837 10.3928 212.26 11.3215 212.26C12.2503 212.26 13.0812 212.837 13.4056 213.707V213.702Z" fill="#DFDFDF"/>
<path d="M352.987 242.252L354.946 247.364C355.191 248.004 355.697 248.509 356.337 248.755L361.449 250.714C362.383 251.072 363 251.968 363 252.968C363 253.969 362.383 254.865 361.449 255.223L356.337 257.186C355.697 257.432 355.191 257.937 354.946 258.577L352.987 263.685C352.629 264.619 351.733 265.236 350.732 265.236C349.732 265.236 348.835 264.619 348.478 263.685L346.515 258.577C346.269 257.937 345.764 257.432 345.124 257.186L340.016 255.223C339.081 254.865 338.465 253.969 338.465 252.968C338.465 251.968 339.081 251.072 340.016 250.714L345.124 248.755C345.764 248.509 346.269 248.004 346.515 247.364L348.478 242.252C348.835 241.318 349.732 240.701 350.732 240.701C351.733 240.701 352.629 241.318 352.987 242.252Z" fill="#DFDFDF"/>
</svg>
