<svg width="71" height="58" viewBox="0 0 71 58" fill="none" xmlns="http://www.w3.org/2000/svg">
<path d="M2.5131 54.9002C2.5131 49.6629 9.11049 49.6629 9.11049 44.4246C9.11049 39.1863 2.5131 39.1833 2.5131 33.946C2.5131 28.7087 9.11049 28.7087 9.11049 23.4703C9.11049 18.232 2.5131 18.229 2.5131 12.9917C2.5131 7.75442 9.11049 7.7504 9.11049 2.5131" stroke="#DFDFDF" stroke-width="5" stroke-linecap="round" stroke-linejoin="round"/>
<path d="M32.2018 54.9002C32.2018 49.6629 38.7992 49.6629 38.7992 44.4246C38.7992 39.1863 32.2018 39.1833 32.2018 33.946C32.2018 28.7087 38.7992 28.7087 38.7992 23.4703C38.7992 18.232 32.2018 18.229 32.2018 12.9917C32.2018 7.75442 38.7992 7.7504 38.7992 2.5131" stroke="#DFDFDF" stroke-width="5" stroke-linecap="round" stroke-linejoin="round"/>
<path d="M61.8895 54.9002C61.8895 49.6629 68.4869 49.6629 68.4869 44.4246C68.4869 39.1863 61.8895 39.1833 61.8895 33.946C61.8895 28.7087 68.4869 28.7087 68.4869 23.4703C68.4869 18.232 61.8895 18.229 61.8895 12.9917C61.8895 7.75442 68.4869 7.7504 68.4869 2.5131" stroke="#DFDFDF" stroke-width="5" stroke-linecap="round" stroke-linejoin="round"/>
</svg>
