<svg width="55" height="55" viewBox="0 0 55 55" fill="none" xmlns="http://www.w3.org/2000/svg">
<path fill-rule="evenodd" clip-rule="evenodd" d="M22.635 0L21.0091 11.3802L22.8866 11.3812L24.5125 0H22.635ZM3.79339 20.8626C3.10551 20.8785 2.46298 20.5206 2.11437 19.9274C1.76577 19.3342 1.76577 18.5987 2.11437 18.0055C2.46298 17.4123 3.10551 17.0544 3.79339 17.0702H18.9669V15.1756H7.93135C6.79822 15.1726 5.84438 14.3268 5.70579 13.2022C5.5672 12.0776 6.28717 11.0256 7.38568 10.7476L7.95257 10.6102C10.7773 9.90217 13.3198 8.35144 15.2423 6.164L15.6101 6.53283C16.9209 7.83884 17.7478 9.55244 17.9544 11.3913H12.328V13.288H24.656C26.751 13.288 28.4494 14.9863 28.4494 17.0813C28.4494 19.1764 26.751 20.8747 24.656 20.8747L3.79339 20.8626ZM41.7929 25.6059C42.2685 22.3431 45.0638 19.9219 48.3611 19.9168H49.2423C48.7662 23.1794 45.9712 25.6003 42.6741 25.6059H41.7929ZM36.0311 24.653C36.03 25.1569 36.2297 25.6405 36.5859 25.9969L36.5838 25.9939C37.2217 26.6335 38.2225 26.7336 38.9744 26.2329C39.7262 25.7323 40.0198 24.7702 39.6755 23.9351C39.3313 23.0999 38.4451 22.6242 37.5588 22.7988C36.6725 22.9734 36.0329 23.7497 36.0311 24.653ZM23.1019 55H7.2432C5.77344 55.0058 4.544 53.8853 4.41383 52.4213L1.98865 26.5527H28.3564L25.9312 52.4213C25.8014 53.881 24.5785 55.0001 23.113 55H23.1019ZM26.8912 55C27.415 54.3002 27.7344 53.4687 27.8138 52.5981L28.8354 41.7232H52.976L51.627 52.5082C51.4467 53.9295 50.2395 54.9962 48.8067 55H26.8912ZM29.1911 37.9298L29.0132 39.8255H54.999V37.9298H29.1911ZM30.0763 28.4504H40.4065C43.4009 28.453 46.3753 27.9635 49.2109 27.0013C49.0488 28.1684 48.6904 29.2996 48.1509 30.3471H36.984V32.2428H51.2107C51.8874 32.2437 52.5123 32.6055 52.8498 33.192C53.1874 33.7785 53.1865 34.5006 52.8473 35.0862C52.5082 35.6718 51.8824 36.032 51.2056 36.0311L29.3699 36.0382L30.0763 28.4504ZM0 22.7603V24.656H30.3481V22.7603H0Z" fill="#1DBF73"/>
</svg>
