<svg width="119" height="105" viewBox="0 0 119 105" fill="none" xmlns="http://www.w3.org/2000/svg">
<path d="M106.723 56.2553C106.715 66.8893 103.244 77.2314 96.8341 85.7167C93.4188 90.16 89.2815 93.9982 84.5948 97.0709C76.7134 102.244 67.4913 105 58.0638 104.999C40.6156 105.095 24.4498 95.8479 15.6871 80.7594C6.92444 65.6708 6.90434 47.0472 15.6344 31.9398C24.3645 16.8324 40.5103 7.55051 57.9587 7.60852C67.3701 7.621 76.5796 10.339 84.4897 15.4387C89.1789 18.5108 93.3186 22.349 96.7359 26.7929C103.217 35.2469 106.727 45.603 106.723 56.2553Z" fill="#EAEEF9"/>
<path opacity="0.2" d="M97.1133 85.3501L94.4242 98.4194L74.6411 99.9922L43.0502 98.2232L19.4226 97.1419C18.1096 97.1525 17.0352 96.0992 17.0198 94.7862V25.4052C16.9911 24.6853 17.288 23.9908 17.8282 23.5141C18.3683 23.0375 19.0944 22.8293 19.8051 22.9473L56.1064 23.9305L97.1133 85.3501Z" fill="#2B4182"/>
<path d="M74.8034 24.7364V95.1126L92.6242 97.9509C94.5866 98.2679 96.5899 97.7156 98.1127 96.4378C99.6355 95.1599 100.527 93.2828 100.555 91.2951V25.4222C100.548 22.0771 98.0886 19.2436 94.7777 18.7665L90.2734 18.0807L74.8034 24.7364Z" fill="#F2F5FC"/>
<path d="M43.7662 18.5713L60.2154 17.0054L43.7662 29.1426V18.5713Z" fill="#DDE1F0"/>
<path d="M16.2529 19.9409V41.3769L28.9817 35.6993L34.5622 33.2525L43.766 29.1407V18.5703L22.7154 14.6557C22.5152 14.6557 22.4211 14.5556 22.2258 14.5556C19.6357 14.2842 17.2162 15.8851 16.4531 18.3751C16.344 18.8907 16.2771 19.4144 16.2529 19.9409Z" fill="#F2F5FC"/>
<path d="M16.2529 58.7012V88.6521C16.271 89.1481 16.3381 89.6411 16.4531 90.1238C16.6815 90.9404 17.1203 91.6826 17.7256 92.2764C18.5323 93.0883 19.5468 93.6629 20.658 93.9373L21.0495 94.0374L25.1623 94.8203L27.9035 95.3099L43.6669 98.2463V46.1725L43.1773 46.3728L38.2786 48.6194L16.2529 58.7012Z" fill="#F2F5FC"/>
<path d="M74.8034 24.7374V15.5367L90.3715 17.9835L74.9035 24.6393L74.8034 24.7374Z" fill="#D6DBEB"/>
<path d="M43.7662 46.1724V29.1416L60.2154 17.0044L74.8024 15.5367V24.7374L43.7662 46.1724Z" fill="#C5CCDE"/>
<path d="M43.766 46.1726L16.2529 58.7012V41.376L43.766 29.1417V46.1726Z" fill="#D6DBEB"/>
<path d="M44.5491 87.3795L43.7662 87.6739V46.1724L74.8024 24.7364V70.0553H70.2971L44.5491 87.3795Z" fill="#DDE1F0"/>
<path d="M100.652 70.0554V91.2952C100.639 93.2879 99.7517 95.1744 98.2252 96.4555C96.6988 97.7366 94.6871 98.2833 92.7222 97.951L74.9014 95.1127V70.0554H100.652Z" fill="#CCD7FF"/>
<path d="M43.7661 87.6729V98.2442L25.1634 94.8182L43.7661 87.6729Z" fill="#CCD7FF"/>
<path d="M44.5491 87.3756L70.2971 70.0554H74.8024V95.2098L43.7662 98.2443V87.676L44.5491 87.3756Z" fill="#B3C3FF"/>
<path d="M16.4491 90.1207C16.6778 90.9375 17.1165 91.68 17.7216 92.2743C18.5285 93.0866 19.5428 93.6622 20.654 93.9382L21.0455 94.0383L25.1593 94.8152L27.9005 95.3048L43.6639 90.9998L44.2516 90.7995L74.8032 72.2088H100.554V64.8673L74.8032 65.2587H72.1602L43.766 47.2497L43.2764 46.4658L34.5663 33.2504L22.324 14.6557C19.734 14.3829 17.3136 15.9825 16.5492 18.4721L28.9838 35.7973L38.2846 48.7174L43.6699 56.2542L64.8166 69.762L43.6679 83.465L43.4727 83.6602L16.4491 90.1207Z" fill="white"/>
<path d="M18.6728 17.1857C19.9579 16.7679 20.661 15.3875 20.2433 14.1023C19.8255 12.8172 18.4451 12.114 17.16 12.5317C15.8748 12.9493 15.1716 14.3297 15.5892 15.6149C16.0073 16.8998 17.3875 17.603 18.6728 17.1857Z" fill="#EAEEF9"/>
<path d="M24.0171 9.2034C24.8892 8.91702 25.3647 7.97846 25.0797 7.10588C24.7947 6.2333 23.8569 5.75636 22.9838 6.04C22.1108 6.32363 21.6324 7.26068 21.9147 8.13416C22.051 8.55522 22.3494 8.90467 22.7439 9.1053C23.1384 9.30593 23.5965 9.34123 24.0171 9.2034Z" fill="#EAEEF9"/>
<path d="M1.66494 61.931C2.58378 61.9304 3.32825 61.1852 3.32788 60.2663C3.32752 59.3475 2.58245 58.6029 1.66361 58.6031C0.744769 58.6033 1.66321e-07 59.3482 0 60.267C-7.9913e-08 60.7085 0.175445 61.1319 0.487711 61.444C0.799978 61.756 1.22347 61.9312 1.66494 61.931Z" fill="url(#paint0_linear_0_4343)"/>
<path d="M117.394 41.3769C118.91 39.9905 119.016 37.6375 117.63 36.1211C116.243 34.6047 113.89 34.499 112.374 35.8849C110.857 37.2709 110.751 39.6238 112.137 41.1406C112.802 41.87 113.73 42.3047 114.716 42.3491C115.703 42.3934 116.666 42.0436 117.394 41.3769Z" fill="#EAEEF9"/>
<path d="M116.611 25.1289C117.245 25.1293 117.817 24.7477 118.059 24.1621C118.302 23.5765 118.168 22.9024 117.72 22.4541C117.272 22.0059 116.598 21.8719 116.012 22.1147C115.426 22.3574 115.045 22.9291 115.045 23.563C115.045 23.9783 115.21 24.3766 115.504 24.6702C115.797 24.9639 116.196 25.1289 116.611 25.1289Z" fill="url(#paint1_linear_0_4343)"/>
<path d="M59.4315 12.1117C60.0653 12.1121 60.6369 11.7306 60.8797 11.1452C61.1226 10.5597 60.9888 9.88564 60.5407 9.43732C60.0927 8.989 59.4187 8.85477 58.8331 9.09723C58.2475 9.33968 57.8656 9.91107 57.8656 10.5449C57.8656 11.4098 58.5665 12.1112 59.4315 12.1117Z" fill="#EAEEF9"/>
<path d="M61.4878 16.9063C61.4488 19.1011 61.0858 21.2781 60.4106 23.3668C58.7617 28.2018 56.6295 32.8581 54.0461 37.265C51.2068 42.355 48.1713 47.3468 46.3111 51.5557C45.9987 52.2986 45.2559 52.7675 44.4509 52.7301C43.6572 52.7261 42.935 52.2705 42.5898 51.5557C38.1856 41.6702 27.4151 27.6729 27.4151 16.9063C27.4868 7.54831 35.0932 0 44.4514 0C53.8097 0 61.4161 7.54831 61.4878 16.9063Z" fill="#1DBF73"/>
<path d="M60.4106 23.3668C58.7621 28.2017 56.6302 32.858 54.0472 37.265L39.4582 22.681L45.8226 16.6129L50.0325 12.7955L60.4106 23.3668Z" fill="url(#paint2_linear_0_4343)"/>
<path d="M44.452 24.7364C48.4523 24.7353 51.6943 21.4916 51.6934 17.4913C51.6925 13.491 48.449 10.2488 44.4486 10.2495C40.4483 10.2502 37.206 13.4936 37.2065 17.494C37.2068 19.4152 37.9703 21.2577 39.3291 22.6159C40.688 23.9742 42.5307 24.737 44.452 24.7364Z" fill="white"/>
<defs>
<linearGradient id="paint0_linear_0_4343" x1="0" y1="61.9276" x2="3.2347" y2="61.9276" gradientUnits="userSpaceOnUse">
<stop stop-color="#83A6FF"/>
<stop offset="1" stop-color="#5A78FF"/>
</linearGradient>
<linearGradient id="paint1_linear_0_4343" x1="115.073" y1="25.0693" x2="118.113" y2="25.0693" gradientUnits="userSpaceOnUse">
<stop stop-color="#83A6FF"/>
<stop offset="1" stop-color="#5A78FF"/>
</linearGradient>
<linearGradient id="paint2_linear_0_4343" x1="37.2605" y1="26.6982" x2="54.4452" y2="35.9346" gradientUnits="userSpaceOnUse">
<stop stop-color="#1DB7AE"/>
<stop offset="1" stop-color="#0BA79E"/>
</linearGradient>
</defs>
</svg>
