<svg width="11" height="10" viewBox="0 0 11 10" fill="none" xmlns="http://www.w3.org/2000/svg">
<path fill-rule="evenodd" clip-rule="evenodd" d="M2.36384 2.95067H0.563215C0.413392 2.95095 0.269828 3.01079 0.164177 3.11702C0.0585253 3.22325 -0.000538597 3.36714 7.45441e-06 3.51696V5.33608C0.00113779 5.6465 0.252799 5.8977 0.563215 5.89826H1.34842V6.32581C1.34901 6.46389 1.41889 6.59245 1.53444 6.66805C1.3042 7.15678 1.2438 7.7084 1.36281 8.23537C1.32459 8.37273 1.30319 8.51423 1.29909 8.65675C1.29526 8.71252 1.31502 8.76733 1.35356 8.80783C1.39673 8.84915 1.45529 8.87041 1.51491 8.86641H1.66188C1.75683 9.51731 2.31499 9.99995 2.97278 9.99995C3.63056 9.99995 4.18872 9.51731 4.28367 8.86641H7.53548C7.54106 8.91853 7.54929 8.97032 7.56015 9.0216C7.57071 9.07208 7.60256 9.11554 7.64751 9.14082C7.69469 9.1624 7.74829 9.16534 7.79756 9.14904L7.97125 9.10896C8.17949 9.66872 8.77062 9.98717 9.35262 9.85313C9.93463 9.71908 10.3269 9.17412 10.2693 8.57967L10.4903 8.52931C10.5737 8.50995 10.6256 8.42671 10.6064 8.34329C10.4412 7.62723 9.79958 7.12291 9.06477 7.13157L8.82942 6.31861C8.814 6.26519 8.77124 6.22405 8.71727 6.21069C8.66329 6.19734 8.60629 6.21379 8.56773 6.25386C8.52917 6.29393 8.51492 6.35152 8.53034 6.40495L8.76878 7.25798L7.60537 8.55911H7.33096C7.94444 7.33824 8.03316 5.91988 7.57659 4.63208H8.01852L8.32685 5.69888C8.35069 5.78147 8.43696 5.82909 8.51955 5.80525C8.60214 5.78141 8.64976 5.69514 8.62592 5.61255L8.34226 4.63208H8.52726C8.61297 4.63208 8.68245 4.56259 8.68245 4.47688V3.66804C8.68938 3.5796 8.65344 3.49321 8.58584 3.43577C8.48939 3.38479 8.37397 3.38479 8.27752 3.43577L7.18913 3.79549L6.24565 3.71943L5.85819 3.38644C5.86201 3.15863 5.8361 2.93129 5.78111 2.71018C6.28526 2.60931 6.64824 2.16677 6.64853 1.65262C6.64864 1.59272 6.64382 1.53291 6.63414 1.4738H6.73692C6.82263 1.4738 6.89211 1.40431 6.89211 1.3186C6.89211 0.59036 6.30175 0 5.5735 0C4.84526 0 4.2549 0.59036 4.2549 1.3186C4.24443 1.69619 4.38286 2.06275 4.6403 2.33916C4.35862 2.54568 4.13232 2.81858 3.98152 3.13361C3.69251 3.75154 3.54705 4.42684 3.55603 5.10895C3.54493 5.26874 3.5588 5.42928 3.59714 5.5848H2.92704V3.51388C2.92648 3.20307 2.67465 2.95124 2.36384 2.95067ZM9.28266 9.54781C9.0556 9.60063 8.81685 9.56028 8.61976 9.43578V9.43681C8.46729 9.34189 8.34779 9.20229 8.27752 9.03702L9.96303 8.64853C9.983 9.07321 9.69676 9.45154 9.28266 9.54781ZM7.84175 8.81913L10.259 8.26312C10.0718 7.74896 9.57233 7.41598 9.02572 7.44092L7.83764 8.76775L7.84175 8.82016V8.81913ZM5.53959 6.58069C5.5514 6.42304 5.53611 6.26452 5.49437 6.11204V6.11101C5.43399 5.95149 5.27337 5.853 5.10382 5.87154H4.54575C4.35144 5.89331 4.15664 5.83506 4.00618 5.71019C3.90627 5.58373 3.85618 5.42504 3.86538 5.26414H5.38954C5.61256 5.29086 6.10896 5.45325 6.10896 6.36281V7.16445H5.53959V6.58069ZM5.53959 7.47278V7.8438H6.6475C6.64354 7.74616 6.60741 7.65257 6.54473 7.57761C6.46997 7.50785 6.37044 7.47085 6.26826 7.47483L5.53959 7.47278ZM5.28573 4.95273H3.87155C3.94143 3.29805 4.60022 2.71737 4.90033 2.53443C5.01325 2.60055 5.13558 2.64907 5.26312 2.67832C5.32723 2.6973 5.39293 2.71037 5.45942 2.71737C5.49872 2.84545 5.52388 2.97745 5.53445 3.111C5.38069 3.00652 5.18517 2.98497 5.01235 3.05345C4.82273 3.12953 4.69093 3.30447 4.67011 3.50772C4.65972 3.75253 4.78975 3.98187 5.00516 4.09867L5.43476 4.37719C5.39495 4.57146 5.34521 4.76356 5.28573 4.95273ZM6.56939 1.1593L6.56887 1.15519H6.56939V1.1593ZM6.56887 1.15519C6.50035 0.624149 6.02764 0.23949 5.4933 0.280866C4.9576 0.322349 4.54901 0.777428 4.56528 1.31449C4.54194 1.73436 4.77007 2.12803 5.14596 2.31655V1.49435C5.13722 1.40738 5.1658 1.32079 5.2246 1.25611C5.28339 1.19144 5.36688 1.15475 5.45428 1.15519H6.56887ZM6.31451 1.47071C6.3283 1.52932 6.33519 1.58933 6.33507 1.64954C6.33338 2.07074 5.99265 2.41194 5.57145 2.41419C5.53396 2.41418 5.49651 2.41143 5.45942 2.40597V1.49641C5.45883 1.48785 5.45883 1.47927 5.45942 1.47071H5.48101H6.31451ZM6.54062 4.0514L6.53651 4.05107V4.05037L6.54062 4.0514ZM6.53651 4.05107V4.31656H5.91266L5.17268 3.83557C5.05684 3.7798 4.98188 3.66398 4.97843 3.53546C4.99527 3.41777 5.09592 3.33025 5.21482 3.32991C5.28914 3.33271 5.35996 3.36227 5.4142 3.41316L6.07813 3.98459C6.10295 4.00594 6.13389 4.01889 6.16652 4.02159L6.53651 4.05107ZM6.84791 4.0812L7.19427 4.10484C7.22965 4.10486 7.26333 4.12007 7.28672 4.14662C7.31012 4.17316 7.32099 4.20848 7.31657 4.24359C7.31451 4.27956 7.30218 4.32272 7.24976 4.32272H6.84791V4.0812ZM7.5622 4.00206C7.62058 4.0977 7.64111 4.2117 7.61976 4.32169H8.3731V3.73176L7.5622 4.00001V4.00206ZM7.25072 4.63413H7.25388L7.24874 4.62899L7.25072 4.63413ZM7.25072 4.63413H5.86847C5.83859 4.63419 5.80932 4.62563 5.78419 4.60946L5.7143 4.56424C5.68039 4.7143 5.64236 4.85921 5.60022 4.99693C5.91677 5.09045 6.42243 5.39261 6.42243 6.36795V7.19015C6.55434 7.21482 6.67536 7.27982 6.76878 7.37617C6.88804 7.50869 6.95682 7.67898 6.96302 7.85716H7.27649C7.6595 6.81526 7.6503 5.66965 7.25072 4.63413ZM6.98872 8.55603C7.04627 8.42345 7.10177 8.2919 7.15418 8.16035H5.5437C5.33815 8.16035 5.22818 8.06476 5.22818 7.87771V6.73691H4.00104C3.94172 6.74377 3.88371 6.71598 3.85189 6.66544C3.82007 6.61491 3.82007 6.55059 3.85189 6.50005C3.88371 6.44951 3.94172 6.42172 4.00104 6.42858H5.22715C5.22944 6.35928 5.22147 6.29001 5.20351 6.22303L5.20318 6.2222C5.19511 6.20198 5.18792 6.18398 5.10074 6.18398H4.54575C4.26584 6.20856 3.98846 6.1146 3.7811 5.92499L3.75952 5.90032H1.6588V6.32786C1.6588 6.38463 1.70481 6.43064 1.76157 6.43064H3.30423C3.36356 6.42378 3.42156 6.45157 3.45338 6.50211C3.48521 6.55264 3.48521 6.61696 3.45338 6.6675C3.42156 6.71804 3.36356 6.74583 3.30423 6.73897H1.84996C1.68808 7.03222 1.60953 7.36418 1.62283 7.69889C1.91198 7.2949 2.36455 7.03895 2.85977 6.99933C3.355 6.95971 3.8425 7.14046 4.1922 7.49334C4.47417 7.77877 4.64695 8.15415 4.68039 8.55397L6.98872 8.55603ZM3.96404 8.86435C3.86731 9.33844 3.453 9.68084 2.96918 9.68656L2.97329 9.68964C2.48853 9.68362 2.0739 9.33966 1.97843 8.86435H3.96404ZM1.79754 8.55603H4.36692C4.29371 7.84987 3.70171 7.31141 2.99179 7.30526C2.38051 7.30529 1.84217 7.70768 1.66908 8.29395V8.29909C1.64411 8.38333 1.62691 8.46968 1.61769 8.55706L1.79754 8.55603ZM0.560132 5.58891C0.420901 5.58835 0.308332 5.47532 0.308333 5.33609V4.78624H2.61563V5.58891H0.560132ZM0.308333 4.47483H2.61461V4.14389H0.308333V4.47483ZM2.61461 3.83351H0.308333L0.311416 3.51697C0.311415 3.37773 0.423984 3.2647 0.563215 3.26414H2.36281C2.50204 3.2647 2.61461 3.37773 2.61461 3.51697V3.83351Z" fill="#1DBF73"/>
</svg>
