<svg width="23" height="22" viewBox="0 0 23 22" fill="none" xmlns="http://www.w3.org/2000/svg">
<path fill-rule="evenodd" clip-rule="evenodd" d="M18.0131 9.58983C18.0131 6.12655 16.163 3.22631 12.9367 2.45974V1.69214C12.9367 1.0876 12.6141 0.528977 12.0906 0.226704C11.567 -0.0755681 10.922 -0.0755681 10.3984 0.226704C9.87488 0.528977 9.55236 1.0876 9.55236 1.69214V2.45974C6.31187 3.22733 4.47593 6.11542 4.47593 9.58983V15.2303L2.22277 17.4875V18.6156H20.2733V17.4875L18.0171 15.2303L18.0131 9.58983ZM4.64808 0.169113L6.26124 1.78227C3.89243 3.46055 2.41799 6.12722 2.25619 9.02578H0C0.154244 5.52898 1.85799 2.28259 4.64808 0.169113ZM22.4961 9.02578H20.2399C20.0726 6.13152 18.6043 3.4685 16.246 1.78227L17.848 0.169113C20.6303 2.28919 22.332 5.53166 22.4961 9.02578ZM11.7002 21.9543C11.5519 21.9868 11.4004 22.0021 11.2486 21.9999C10.001 21.9977 8.98855 20.9902 8.98021 19.7427H13.4896C13.4923 20.0444 13.4349 20.3435 13.3204 20.6227C13.0274 21.3024 12.4238 21.7984 11.7002 21.9543Z" fill="white"/>
</svg>
