<svg width="36" height="32" viewBox="0 0 36 32" fill="none" xmlns="http://www.w3.org/2000/svg">
<path fill-rule="evenodd" clip-rule="evenodd" d="M36 28.125C35.9994 29.9887 34.4887 31.4994 32.625 31.5H3.375C1.51127 31.4994 0.000551972 29.9887 0 28.125V7.875C0.000551972 6.01127 1.51127 4.50055 3.375 4.5H9.563L10.428 2.187C10.9212 0.871369 12.179 -0.000192575 13.584 0H22.408C23.8134 -0.000609617 25.0716 0.871026 25.565 2.187L26.437 4.5H32.625C34.4887 4.50055 35.9994 6.01127 36 7.875V28.125ZM26.438 18C26.438 13.3398 22.6602 9.562 18 9.562C13.3398 9.562 9.562 13.3398 9.562 18C9.562 22.6602 13.3398 26.438 18 26.438C22.6588 26.4347 26.4347 22.6588 26.438 18ZM20.3687 23.7177C22.681 22.7596 24.1884 20.5029 24.188 18C24.1808 14.5856 21.4144 11.8196 18 11.813C15.4971 11.813 13.2407 13.3208 12.2829 15.6332C11.3252 17.9456 11.8548 20.6073 13.6248 22.3769C15.3947 24.1466 18.0565 24.6758 20.3687 23.7177Z" fill="#8A8D9F"/>
</svg>
