<svg width="20" height="20" viewBox="0 0 20 20" fill="none" xmlns="http://www.w3.org/2000/svg">
<path d="M11.3261 12.9441C11.6454 12.7162 11.8173 12.3341 11.7761 11.9441C11.7761 11.5021 11.4751 11.2391 10.8331 10.9661V13.1661C11.0079 13.1178 11.1741 13.0429 11.3261 12.9441Z" fill="#1DBF73"/>
<path fill-rule="evenodd" clip-rule="evenodd" d="M0 10C0.0302983 15.496 4.50392 19.9303 10 19.912C15.4959 19.9297 19.9692 15.4958 20 10C20 4.47715 15.5228 0 10 0C4.47715 0 0 4.47715 0 10ZM5.6 14.045L6.166 12.489L6.95 12.775C7.66511 13.0328 8.40948 13.2007 9.166 13.275V10.375C7.785 9.883 6.373 9.133 6.373 7.3C6.35068 6.40735 6.82253 5.57516 7.6 5.136C8.08389 4.87192 8.61694 4.71023 9.166 4.661V3.389H10.831V4.673C11.6564 4.75062 12.4618 4.97195 13.211 5.327L13.942 5.727L13.142 7.175L12.412 6.775C11.9139 6.54078 11.3803 6.39106 10.833 6.332V9.193C12.189 9.668 13.443 10.33 13.443 11.943C13.4861 12.8745 13.0486 13.7631 12.284 14.297C11.8461 14.5856 11.3512 14.7766 10.833 14.857V16.607H9.166V14.925C8.21618 14.8469 7.28061 14.6452 6.383 14.325L5.6 14.045Z" fill="#1DBF73"/>
<path d="M8.45102 6.55908C8.17747 6.70146 8.01562 6.99366 8.04002 7.30108C8.04002 7.92608 8.39702 8.26708 9.16702 8.60108V6.33008C8.91683 6.3641 8.67451 6.4416 8.45102 6.55908Z" fill="#1DBF73"/>
</svg>
