<svg width="143" height="249" viewBox="0 0 143 249" fill="none" xmlns="http://www.w3.org/2000/svg">
<path opacity="0.6" d="M9.96866 70.6268H132.986L119.324 240.98C119.003 244.947 115.69 248.003 111.71 248.002H31.2583C27.2858 247.994 23.9839 244.94 23.6659 240.98L9.96866 70.6268Z" fill="#DFDFDF"/>
<path d="M91.7982 247.998H31.2592C27.2867 247.99 23.9848 244.936 23.6668 240.976L15.2139 135.94" stroke="#DFDFDF" stroke-width="2" stroke-linecap="round" stroke-linejoin="round"/>
<path d="M20.9881 121.227L19.4695 102.562C19.4695 102.562 33.2568 95.3876 54.5865 103.61C83.9103 114.922 91.7872 91.7592 123.525 101.917L121.954 121.41L20.9881 121.227Z" fill="#DFDFDF"/>
<ellipse cx="66.666" cy="168.214" rx="1.96703" ry="5.93115" transform="rotate(-70.0071 66.666 168.214)" fill="#DFDFDF"/>
<rect x="121.319" y="0.719288" width="11.8623" height="176.135" transform="rotate(19.9929 121.319 0.719288)" fill="#DFDFDF"/>
<path d="M82.5249 124.761C79.784 123.76 77.7234 122.294 77.4539 121.231L69.7864 142.295C69.4067 143.316 71.6126 145.051 74.687 146.171C77.7614 147.291 80.5594 147.373 80.931 146.35L88.5575 125.4C87.5738 125.943 85.1525 125.718 82.5249 124.761Z" fill="#DFDFDF"/>
<path d="M98.9999 79.5125C96.255 78.5107 94.1914 77.0411 93.9249 75.9823L86.2604 97.0465C85.8807 98.0643 88.0826 99.7983 91.157 100.918C94.2314 102.038 97.0334 102.12 97.401 101.101L105.014 80.1466C104.045 80.6896 101.623 80.4692 98.9999 79.5125Z" fill="#DFDFDF"/>
<path d="M115.467 34.2565C112.726 33.2548 110.665 31.7892 110.396 30.7263L102.735 51.7905C102.356 52.8113 104.562 54.5464 107.636 55.6664C110.711 56.7863 113.508 56.8685 113.88 55.8487L121.507 34.8947C120.515 35.4416 118.094 35.2172 115.467 34.2565Z" fill="#DFDFDF"/>
<ellipse cx="126.894" cy="2.74395" rx="1.96703" ry="5.93115" transform="rotate(-70.0071 126.894 2.74395)" fill="#DFDFDF"/>
<path d="M71.4783 113.582C49.6928 105.641 32.1178 108.373 20.3049 112.788L30.3036 237.244C30.4699 239.354 32.2306 240.981 34.3467 240.98H108.611C110.727 240.979 112.487 239.353 112.657 237.244L122.401 115.905C109.765 119.466 92.0677 121.09 71.4783 113.582Z" fill="#DFDFDF"/>
<circle cx="52.0539" cy="230.18" r="6.77197" fill="#DFDFDF"/>
<circle cx="71.4783" cy="221.954" r="6.77197" fill="#DFDFDF"/>
<circle cx="70.2711" cy="206.717" r="6.77197" fill="#DFDFDF"/>
<circle cx="87.1019" cy="228.73" r="6.77197" fill="#DFDFDF"/>
<circle cx="102.302" cy="224.468" r="6.77197" fill="#DFDFDF"/>
<circle cx="40.3924" cy="201.004" r="6.77197" fill="#DFDFDF"/>
<circle cx="53.9364" cy="213.489" r="6.77197" fill="#DFDFDF"/>
<circle cx="85.0262" cy="196.073" r="6.77197" fill="#DFDFDF"/>
<circle cx="87.1019" cy="210.923" r="6.77197" fill="#DFDFDF"/>
<circle cx="102.302" cy="187.456" r="6.77197" fill="#DFDFDF"/>
<circle cx="103.55" cy="206.717" r="6.77197" fill="#DFDFDF"/>
<circle cx="38.506" cy="219.294" r="6.77197" fill="#DFDFDF"/>
<path opacity="0.6" d="M6.81001 70.0458L8.65126 92.9813H134.306L136.148 70.0458H6.81001Z" fill="#DFDFDF"/>
<rect y="70.0458" width="142.957" height="3.20767" rx="1.601" fill="#DFDFDF"/>
<path d="M28.2419 93.3299H114.354" stroke="#DFDFDF" stroke-width="2" stroke-linecap="round" stroke-linejoin="round"/>
<path d="M16.8397 70.0458H31.3704V78.9615C31.3707 80.8895 30.605 82.7386 29.2418 84.102C27.8786 85.4654 26.0296 86.2314 24.1016 86.2314C20.0871 86.2314 16.8327 82.977 16.8327 78.9625V70.0468L16.8397 70.0458Z" fill="#DFDFDF"/>
</svg>
